<svg width="518" height="412" viewBox="0 0 518 412" fill="none" xmlns="http://www.w3.org/2000/svg">
<path d="M210.993 33.7748C210.993 40.2486 205.745 45.4967 199.272 45.4967H117.219C110.745 45.4967 105.497 50.7448 105.497 57.2185L105.497 139.272C105.497 145.745 100.249 150.993 93.7748 150.993H11.7219C5.24806 150.993 0 156.241 0 162.715L0 248.285C0 254.759 5.24805 260.007 11.7219 260.007H93.7748C100.249 260.007 105.497 265.255 105.497 271.728V353.781C105.497 360.255 110.745 365.503 117.219 365.503H199.272C205.745 365.503 210.993 370.751 210.993 377.225V459.278C210.993 465.752 216.241 471 222.715 471H308.285C314.759 471 320.007 465.752 320.007 459.278V373.709C320.007 367.235 314.759 361.987 308.285 361.987H226.232C219.758 361.987 214.51 356.739 214.51 350.265V271.728C214.51 265.255 219.758 260.007 226.232 260.007H519.278C525.752 260.007 531 254.759 531 248.285V162.715C531 156.241 525.752 150.993 519.278 150.993L226.232 150.993C219.758 150.993 214.51 145.745 214.51 139.272V60.7351C214.51 54.2613 219.758 49.0132 226.232 49.0132H308.285C314.759 49.0132 320.007 43.7652 320.007 37.2914L320.007 -48.2781C320.007 -54.752 314.759 -60 308.285 -60H222.715C216.241 -60 210.993 -54.752 210.993 -48.2781V33.7748ZM109.013 166.232C109.013 159.758 114.261 154.51 120.735 154.51H199.272C205.745 154.51 210.993 159.758 210.993 166.232L210.993 244.768C210.993 251.242 205.745 256.49 199.272 256.49H120.735C114.261 256.49 109.013 251.242 109.013 244.768V166.232Z" fill="#00B388"/>
</svg>
