<svg width="280" height="114" viewBox="0 0 280 114" fill="none" xmlns="http://www.w3.org/2000/svg">
<g clip-path="url(#clip0_9510_141441)">
<path d="M225.882 14.8252C222.374 14.8252 219.53 17.6691 219.53 21.1772V57.9435C219.53 61.4516 216.686 64.2954 213.178 64.2954H176.412C172.903 64.2954 170.06 67.1393 170.06 70.6474V107.414C170.06 110.922 167.216 113.766 163.708 113.766H125.292C121.784 113.766 118.94 110.922 118.94 107.414V70.6474C118.94 67.1393 116.097 64.2954 112.588 64.2954L75.8221 64.2954C72.3141 64.2954 69.4702 61.4516 69.4702 57.9435L69.4702 21.1772C69.4702 17.6691 66.6263 14.8252 63.1183 14.8252H26.3519C22.8439 14.8252 20 11.9814 20 8.47329L20 -29.942C20 -33.4501 22.8439 -36.294 26.3519 -36.294H64.7673C68.2753 -36.294 71.1192 -33.4501 71.1192 -29.942V6.82429C71.1192 10.3324 73.9631 13.1762 77.4711 13.1762L112.588 13.1762C116.097 13.1762 118.94 10.3324 118.94 6.82429L118.94 -128.882C118.94 -132.391 121.784 -135.234 125.292 -135.234L163.708 -135.234C167.216 -135.234 170.06 -132.391 170.06 -128.882L170.06 6.82429C170.06 10.3324 172.903 13.1762 176.412 13.1762L211.529 13.1762C215.037 13.1762 217.881 10.3324 217.881 6.82429L217.881 -29.942C217.881 -33.4501 220.725 -36.294 224.233 -36.294H262.648C266.156 -36.294 269 -33.4501 269 -29.942V8.4733C269 11.9814 266.156 14.8252 262.648 14.8252H225.882ZM162.059 62.6464C165.567 62.6464 168.411 59.8026 168.411 56.2945V21.1772C168.411 17.6691 165.567 14.8252 162.059 14.8252H126.941C123.433 14.8252 120.589 17.6691 120.589 21.1772L120.589 56.2945C120.589 59.8026 123.433 62.6464 126.941 62.6464H162.059Z" fill="#00B388"/>
</g>
<defs>
<clipPath id="clip0_9510_141441">
<rect width="288" height="114" fill="white"/>
</clipPath>
</defs>
</svg>
