<svg width="220" height="460" viewBox="0 0 220 460" fill="none" xmlns="http://www.w3.org/2000/svg">
<g clip-path="url(#clip0_9044_146383)">
<mask id="path-1-inside-1_9044_146383" fill="white">
<path d="M-47 267.516C-47 273.038 -42.5228 277.516 -37 277.516H28C33.5229 277.516 38 281.993 38 287.516V352.516C38 358.038 42.4771 362.516 48 362.516H114C119.523 362.516 124 358.038 124 352.516V286.516C124 280.993 119.523 276.516 114 276.516H49C43.4771 276.516 39 272.038 39 266.516V201.516C39 195.993 34.5229 191.516 29 191.516H-37C-42.5228 191.516 -47 195.993 -47 201.516V267.516Z"/>
</mask>
<path d="M-37 277.516V276.516H28V277.516V278.516H-37V277.516ZM38 287.516H39V352.516H38H37V287.516H38ZM48 362.516V361.516H114V362.516V363.516H48V362.516ZM124 352.516H123V286.516H124H125V352.516H124ZM114 276.516V277.516H49V276.516V275.516H114V276.516ZM39 266.516H38V201.516H39H40V266.516H39ZM29 191.516V192.516H-37V191.516V190.516H29V191.516ZM-47 201.516H-46V267.516H-47H-48V201.516H-47ZM-37 191.516V192.516C-41.9706 192.516 -46 196.545 -46 201.516H-47H-48C-48 195.44 -43.0751 190.516 -37 190.516V191.516ZM39 201.516H38C38 196.545 33.9706 192.516 29 192.516V191.516V190.516C35.0751 190.516 40 195.44 40 201.516H39ZM49 276.516V277.516C42.9249 277.516 38 272.591 38 266.516H39H40C40 271.486 44.0294 275.516 49 275.516V276.516ZM124 286.516H123C123 281.545 118.971 277.516 114 277.516V276.516V275.516C120.075 275.516 125 280.44 125 286.516H124ZM114 362.516V361.516C118.971 361.516 123 357.486 123 352.516H124H125C125 358.591 120.075 363.516 114 363.516V362.516ZM38 352.516H39C39 357.486 43.0294 361.516 48 361.516V362.516V363.516C41.9249 363.516 37 358.591 37 352.516H38ZM28 277.516V276.516C34.0751 276.516 39 281.44 39 287.516H38H37C37 282.545 32.9706 278.516 28 278.516V277.516ZM-37 277.516V278.516C-43.0751 278.516 -48 273.591 -48 267.516H-47H-46C-46 272.486 -41.9706 276.516 -37 276.516V277.516Z" fill="#D1FFD1" fill-opacity="0.3" mask="url(#path-1-inside-1_9044_146383)"/>
<mask id="path-3-inside-2_9044_146383" fill="white">
<path d="M-47 75.5156C-47 81.0385 -42.5228 85.5156 -37 85.5156H28C33.5229 85.5156 38 89.9928 38 95.5156V160.516C38 166.038 42.4771 170.516 48 170.516H114C119.523 170.516 124 166.038 124 160.516V94.5156C124 88.9928 119.523 84.5156 114 84.5156H49C43.4771 84.5156 39 80.0385 39 74.5156V9.51562C39 3.99278 34.5229 -0.484375 29 -0.484375H-37C-42.5228 -0.484375 -47 3.99278 -47 9.51562V75.5156Z"/>
</mask>
<path d="M-37 85.5156V84.5156H28V85.5156V86.5156H-37V85.5156ZM38 95.5156H39V160.516H38H37V95.5156H38ZM48 170.516V169.516H114V170.516V171.516H48V170.516ZM124 160.516H123V94.5156H124H125V160.516H124ZM114 84.5156V85.5156H49V84.5156V83.5156H114V84.5156ZM39 74.5156H38V9.51562H39H40V74.5156H39ZM29 -0.484375V0.515625H-37V-0.484375V-1.48438H29V-0.484375ZM-47 9.51562H-46V75.5156H-47H-48V9.51562H-47ZM-37 -0.484375V0.515625C-41.9706 0.515625 -46 4.54506 -46 9.51562H-47H-48C-48 3.44049 -43.0751 -1.48438 -37 -1.48438V-0.484375ZM39 9.51562H38C38 4.54506 33.9706 0.515625 29 0.515625V-0.484375V-1.48438C35.0751 -1.48438 40 3.44049 40 9.51562H39ZM49 84.5156V85.5156C42.9249 85.5156 38 80.5908 38 74.5156H39H40C40 79.4862 44.0294 83.5156 49 83.5156V84.5156ZM124 94.5156H123C123 89.5451 118.971 85.5156 114 85.5156V84.5156V83.5156C120.075 83.5156 125 88.4405 125 94.5156H124ZM114 170.516V169.516C118.971 169.516 123 165.486 123 160.516H124H125C125 166.591 120.075 171.516 114 171.516V170.516ZM38 160.516H39C39 165.486 43.0294 169.516 48 169.516V170.516V171.516C41.9249 171.516 37 166.591 37 160.516H38ZM28 85.5156V84.5156C34.0751 84.5156 39 89.4405 39 95.5156H38H37C37 90.5451 32.9706 86.5156 28 86.5156V85.5156ZM-37 85.5156V86.5156C-43.0751 86.5156 -48 81.5908 -48 75.5156H-47H-46C-46 80.4862 -41.9706 84.5156 -37 84.5156V85.5156Z" fill="#D1FFD1" fill-opacity="0.3" mask="url(#path-3-inside-2_9044_146383)"/>
<mask id="path-5-inside-3_9044_146383" fill="white">
<path d="M220 363.516C220 369.038 215.523 373.516 210 373.516H145C139.477 373.516 135 377.993 135 383.516V448.516C135 454.038 130.523 458.516 125 458.516H59C53.4772 458.516 49 454.038 49 448.516V382.516C49 376.993 53.4772 372.516 59 372.516H124C129.523 372.516 134 368.038 134 362.516V297.516C134 291.993 138.477 287.516 144 287.516H210C215.523 287.516 220 291.993 220 297.516V363.516Z"/>
</mask>
<path d="M210 373.516V372.516H145V373.516V374.516H210V373.516ZM135 383.516H134V448.516H135H136V383.516H135ZM125 458.516V457.516H59V458.516V459.516H125V458.516ZM49 448.516H50V382.516H49H48V448.516H49ZM59 372.516V373.516H124V372.516V371.516H59V372.516ZM134 362.516H135V297.516H134H133V362.516H134ZM144 287.516V288.516H210V287.516V286.516H144V287.516ZM220 297.516H219V363.516H220H221V297.516H220ZM210 287.516V288.516C214.971 288.516 219 292.545 219 297.516H220H221C221 291.44 216.075 286.516 210 286.516V287.516ZM134 297.516H135C135 292.545 139.029 288.516 144 288.516V287.516V286.516C137.925 286.516 133 291.44 133 297.516H134ZM124 372.516V373.516C130.075 373.516 135 368.591 135 362.516H134H133C133 367.486 128.971 371.516 124 371.516V372.516ZM49 382.516H50C50 377.545 54.0294 373.516 59 373.516V372.516V371.516C52.9249 371.516 48 376.44 48 382.516H49ZM59 458.516V457.516C54.0294 457.516 50 453.486 50 448.516H49H48C48 454.591 52.9249 459.516 59 459.516V458.516ZM135 448.516H134C134 453.486 129.971 457.516 125 457.516V458.516V459.516C131.075 459.516 136 454.591 136 448.516H135ZM145 373.516V372.516C138.925 372.516 134 377.44 134 383.516H135H136C136 378.545 140.029 374.516 145 374.516V373.516ZM210 373.516V374.516C216.075 374.516 221 369.591 221 363.516H220H219C219 368.486 214.971 372.516 210 372.516V373.516Z" fill="#D1FFD1" fill-opacity="0.3" mask="url(#path-5-inside-3_9044_146383)"/>
<mask id="path-7-inside-4_9044_146383" fill="white">
<path d="M220 172.516C220 178.038 215.523 182.516 210 182.516H145C139.477 182.516 135 186.993 135 192.516V257.516C135 263.038 130.523 267.516 125 267.516H59C53.4772 267.516 49 263.038 49 257.516V191.516C49 185.993 53.4772 181.516 59 181.516H124C129.523 181.516 134 177.038 134 171.516V106.516C134 100.993 138.477 96.5156 144 96.5156H210C215.523 96.5156 220 100.993 220 106.516V172.516Z"/>
</mask>
<path d="M210 182.516V181.516H145V182.516V183.516H210V182.516ZM135 192.516H134V257.516H135H136V192.516H135ZM125 267.516V266.516H59V267.516V268.516H125V267.516ZM49 257.516H50V191.516H49H48V257.516H49ZM59 181.516V182.516H124V181.516V180.516H59V181.516ZM134 171.516H135V106.516H134H133V171.516H134ZM144 96.5156V97.5156H210V96.5156V95.5156H144V96.5156ZM220 106.516H219V172.516H220H221V106.516H220ZM210 96.5156V97.5156C214.971 97.5156 219 101.545 219 106.516H220H221C221 100.44 216.075 95.5156 210 95.5156V96.5156ZM134 106.516H135C135 101.545 139.029 97.5156 144 97.5156V96.5156V95.5156C137.925 95.5156 133 100.44 133 106.516H134ZM124 181.516V182.516C130.075 182.516 135 177.591 135 171.516H134H133C133 176.486 128.971 180.516 124 180.516V181.516ZM49 191.516H50C50 186.545 54.0294 182.516 59 182.516V181.516V180.516C52.9249 180.516 48 185.44 48 191.516H49ZM59 267.516V266.516C54.0294 266.516 50 262.486 50 257.516H49H48C48 263.591 52.9249 268.516 59 268.516V267.516ZM135 257.516H134C134 262.486 129.971 266.516 125 266.516V267.516V268.516C131.075 268.516 136 263.591 136 257.516H135ZM145 182.516V181.516C138.925 181.516 134 186.44 134 192.516H135H136C136 187.545 140.029 183.516 145 183.516V182.516ZM210 182.516V183.516C216.075 183.516 221 178.591 221 172.516H220H219C219 177.486 214.971 181.516 210 181.516V182.516Z" fill="#D1FFD1" fill-opacity="0.3" mask="url(#path-7-inside-4_9044_146383)"/>
</g>
<defs>
<clipPath id="clip0_9044_146383">
<rect width="220" height="460" fill="white" transform="matrix(-1 0 0 1 220 0)"/>
</clipPath>
</defs>
</svg>
