<svg width="14" height="14" viewBox="0 0 14 14" fill="none" xmlns="http://www.w3.org/2000/svg">
<path d="M4.88849 5.16641C5.29449 6.01202 5.84795 6.80456 6.54887 7.50548C7.24979 8.2064 8.04234 8.75986 8.88795 9.16586C8.96068 9.20078 8.99705 9.21825 9.04307 9.23166C9.20661 9.27933 9.40743 9.24509 9.54593 9.14592C9.5849 9.11801 9.61824 9.08467 9.68493 9.01799C9.88886 8.81405 9.99083 8.71208 10.0934 8.64541C10.4801 8.394 10.9786 8.394 11.3652 8.64541C11.4678 8.71208 11.5698 8.81405 11.7737 9.01799L11.8874 9.13166C12.1974 9.44167 12.3524 9.59667 12.4366 9.76314C12.604 10.0942 12.604 10.4852 12.4366 10.8163C12.3524 10.9828 12.1974 11.1378 11.8874 11.4478L11.7954 11.5397C11.4865 11.8487 11.332 12.0031 11.122 12.1211C10.8889 12.252 10.527 12.3462 10.2597 12.3454C10.0188 12.3447 9.85416 12.2979 9.5249 12.2045C7.75542 11.7022 6.08571 10.7546 4.69272 9.36164C3.29973 7.96865 2.35212 6.29894 1.84989 4.52946C1.75643 4.2002 1.70971 4.03557 1.70899 3.79468C1.70819 3.52738 1.80232 3.16543 1.93323 2.93239C2.05121 2.72237 2.20568 2.56789 2.51463 2.25895L2.60659 2.16699C2.91659 1.85699 3.0716 1.70198 3.23807 1.61778C3.56915 1.45032 3.96014 1.45032 4.29121 1.61778C4.45768 1.70198 4.61269 1.85699 4.9227 2.16699L5.03637 2.28067C5.24031 2.4846 5.34228 2.58657 5.40894 2.68911C5.66036 3.0758 5.66036 3.5743 5.40894 3.96099C5.34228 4.06353 5.24031 4.16549 5.03637 4.36943C4.96969 4.43611 4.93635 4.46945 4.90844 4.50843C4.80927 4.64693 4.77502 4.84775 4.8227 5.01129C4.83611 5.05731 4.85357 5.09367 4.88849 5.16641Z" stroke="#1F2121" stroke-width="1.2" stroke-linecap="round" stroke-linejoin="round"/>
</svg>
