<svg xmlns="http://www.w3.org/2000/svg" xmlns:xlink="http://www.w3.org/1999/xlink" width="279" height="223" fill="none" viewBox="0 0 279 223">
  <g clip-path="url(#a)">
    <g clip-path="url(#b)">
      <path fill="#ddd" d="m193.162 184.289 37.787 20.89 37.787-20.89v-76.803h-75.574z"/>
      <path stroke="#000" stroke-width=".922" d="m268.275 184.017-37.326 20.635-37.326-20.635v-76.071h74.652z"/>
      <path fill="#fff" d="m196.848 181.651 34.101 18.919 34.1-18.919v-69.557h-68.201z"/>
      <path fill="#ff492c" d="m225.632 175.686 1.205 2.442 2.694.392-1.95 1.9.461 2.684-2.41-1.268-2.41 1.268.46-2.684-1.95-1.9 2.695-.392zm11.392 0 1.205 2.442 2.694.392-1.949 1.9.46 2.684-2.41-1.268-2.41 1.268.461-2.684-1.95-1.9 2.694-.392zm-5.863 9.261 1.205 2.442 2.695.392-1.95 1.9.46 2.684-2.41-1.268-2.41 1.268.461-2.684-1.95-1.9 2.694-.392z"/>
      <path fill="#000" d="M215.03 153.743q-1.494 0-2.588-.564a4 4 0 0 1-1.659-1.592q-.58-1.046-.581-2.472v-7.2h2.671v7.2q0 .663.266 1.144.265.482.746.747.498.265 1.178.265.663 0 1.161-.265.498-.266.763-.747.266-.48.266-1.144v-7.2h2.671v7.2q0 1.427-.598 2.472-.58 1.028-1.692 1.592-1.095.564-2.604.564m9.823-.016q-.812 0-1.526-.233a3.9 3.9 0 0 1-1.228-.663 2.76 2.76 0 0 1-.763-1.078l2.14-.896q.216.414.597.63.383.2.78.199.399 0 .631-.133a.46.46 0 0 0 .232-.398.47.47 0 0 0-.232-.414q-.232-.15-.681-.266l-.73-.166q-1.144-.299-1.775-.995a2.33 2.33 0 0 1-.63-1.609q0-1.278.879-1.974.879-.697 2.439-.697.896 0 1.559.249.681.232 1.128.663.465.415.664.962l-2.057.863q-.117-.332-.481-.514a1.7 1.7 0 0 0-.78-.183q-.365 0-.564.166a.52.52 0 0 0-.199.415q0 .2.232.348a3.2 3.2 0 0 0 .714.249l.879.216q.78.199 1.31.614.531.397.797.945.265.531.265 1.145 0 .797-.464 1.377-.448.564-1.261.879-.813.299-1.875.299m8.801 0q-1.294 0-2.289-.548a3.97 3.97 0 0 1-1.56-1.526q-.564-.979-.564-2.273 0-1.293.564-2.272a4 4 0 0 1 1.56-1.527q1.012-.547 2.322-.547 1.178 0 2.124.564.945.564 1.493 1.692.564 1.112.564 2.754h-6.238l.282-.315q0 .563.232.995.233.432.647.664.416.215.929.215.615 0 1.029-.265.415-.282.581-.697l2.306.78a3.4 3.4 0 0 1-.946 1.31 3.9 3.9 0 0 1-1.377.763 5.8 5.8 0 0 1-1.659.233m-1.675-5.06-.266-.348h3.716l-.249.348q0-.63-.249-.979a1.5 1.5 0 0 0-.613-.531 1.65 1.65 0 0 0-.714-.166q-.365 0-.746.166a1.6 1.6 0 0 0-.631.531q-.248.349-.248.979m8.884.564q0-1.344.531-2.24.548-.896 1.36-1.343a3.6 3.6 0 0 1 1.726-.448v2.521q-.763 0-1.443.166-.664.166-1.079.514a1.06 1.06 0 0 0-.415.863zm-1.907 4.297v-8.295h2.587v8.295zm9.728.199q-.813 0-1.526-.233a3.9 3.9 0 0 1-1.228-.663 2.75 2.75 0 0 1-.763-1.078l2.14-.896q.216.414.597.63.382.2.78.199.399 0 .631-.133a.46.46 0 0 0 .232-.398.47.47 0 0 0-.232-.414q-.233-.15-.681-.266l-.73-.166q-1.144-.299-1.775-.995a2.33 2.33 0 0 1-.63-1.609q0-1.278.879-1.974.879-.697 2.439-.697.896 0 1.559.249.681.232 1.128.663.465.415.664.962l-2.057.863q-.117-.332-.481-.514a1.7 1.7 0 0 0-.78-.183q-.364 0-.564.166a.52.52 0 0 0-.199.415q0 .2.232.348a3.2 3.2 0 0 0 .714.249l.879.216q.78.199 1.31.614.531.397.797.945.265.531.265 1.145 0 .797-.464 1.377-.448.564-1.261.879-.813.299-1.875.299m-46.732 14.547v-11.613h2.671v9.157h4.944v2.456zm12.773.199q-1.311 0-2.306-.548a4.2 4.2 0 0 1-1.576-1.542q-.564-.98-.564-2.257 0-1.276.547-2.256a4 4 0 0 1 1.559-1.526q1.012-.564 2.29-.564 1.31 0 2.306.564a3.85 3.85 0 0 1 1.559 1.526q.564.98.564 2.256 0 1.278-.564 2.257a4 4 0 0 1-1.543 1.542q-.995.548-2.272.548m0-2.389q.496 0 .879-.249a1.67 1.67 0 0 0 .614-.68q.232-.448.232-1.029 0-.58-.232-1.012a1.65 1.65 0 0 0-.614-.696 1.7 1.7 0 0 0-.913-.249q-.514 0-.912.249a1.75 1.75 0 0 0-.63.696 2.2 2.2 0 0 0-.216 1.012q0 .58.216 1.029.232.43.63.68.415.249.946.249m8.073 2.19 3.035-8.295h2.671l-3.367 8.295zm-.233 0-3.367-8.295h2.671l3.035 8.295zm10.579.199q-1.294 0-2.29-.548a4 4 0 0 1-1.559-1.526q-.564-.978-.564-2.273 0-1.293.564-2.272a4 4 0 0 1 1.559-1.527q1.012-.547 2.323-.547 1.178 0 2.123.564.947.564 1.493 1.692.565 1.111.565 2.754h-6.238l.282-.315q0 .564.232.995.233.432.647.664.415.215.929.215.613 0 1.029-.265.415-.282.58-.697l2.306.78a3.35 3.35 0 0 1-.945 1.31 3.9 3.9 0 0 1-1.377.764 5.8 5.8 0 0 1-1.659.232m-1.676-5.06-.265-.348h3.716l-.249.348q0-.63-.249-.979a1.5 1.5 0 0 0-.614-.531 1.65 1.65 0 0 0-.713-.166q-.365 0-.746.166a1.6 1.6 0 0 0-.631.531q-.249.348-.249.979m15.809 5.076q-1.493 0-2.588-.564a4 4 0 0 1-1.659-1.592q-.58-1.045-.58-2.472v-7.2h2.67v7.2q0 .663.266 1.145.266.48.746.746.498.266 1.178.266.665 0 1.161-.266.498-.266.764-.746.265-.482.265-1.145v-7.2h2.671v7.2q0 1.427-.597 2.472-.58 1.028-1.692 1.592-1.096.564-2.605.564m9.823-.016q-.812 0-1.526-.232a3.9 3.9 0 0 1-1.228-.664 2.76 2.76 0 0 1-.763-1.078l2.14-.896a1.5 1.5 0 0 0 .598.63q.381.2.779.199.399 0 .631-.132.232-.15.232-.399a.47.47 0 0 0-.232-.414q-.233-.15-.68-.266l-.73-.166q-1.145-.299-1.775-.995a2.33 2.33 0 0 1-.631-1.609q0-1.278.879-1.974.88-.697 2.439-.697.896 0 1.559.249.68.233 1.129.663.463.416.663.963l-2.057.862q-.116-.331-.481-.514a1.7 1.7 0 0 0-.78-.183q-.364 0-.564.166a.52.52 0 0 0-.199.415q0 .2.232.348a3.2 3.2 0 0 0 .714.249l.879.216q.78.199 1.311.614.53.398.796.945.265.531.265 1.145 0 .797-.464 1.377-.448.564-1.261.879-.813.299-1.875.299"/>
      <path fill="#ddd" d="M254.45 111.633h-65.435v18.433h65.435z"/>
      <path stroke="#000" stroke-width=".922" d="M254.45 111.633h-65.435v18.433h65.435z"/>
      <path fill="#000" d="M201.585 122.693v-4.516h.961l1.316 1.948 1.316-1.948h.955v4.516h-.877v-3.136l-1.394 2.052-1.393-2.045v3.129zm6.177 0v-4.516h.883v4.516zm2.51 0v-4.516h.883v3.709h1.987v.807zm4.11 0v-4.516h2.858v.806h-1.974v1.026h1.703v.787h-1.703v1.09h2v.807zm5.96.077a2.3 2.3 0 0 1-.639-.084 2 2 0 0 1-.529-.232 1.8 1.8 0 0 1-.387-.342.96.96 0 0 1-.193-.394l.864-.258a.87.87 0 0 0 .297.381q.212.155.536.161.34.006.554-.148a.47.47 0 0 0 .22-.4.44.44 0 0 0-.174-.355 1.1 1.1 0 0 0-.465-.226l-.587-.155a1.9 1.9 0 0 1-.581-.251 1.17 1.17 0 0 1-.535-1.013q0-.639.419-.994.426-.361 1.2-.361.432 0 .755.129.329.123.548.355.22.233.336.548l-.858.265a.8.8 0 0 0-.284-.374.84.84 0 0 0-.523-.155q-.323 0-.509.148a.51.51 0 0 0-.181.42.42.42 0 0 0 .142.335q.148.123.4.187l.593.149q.582.141.904.509.322.367.322.82 0 .4-.193.703a1.3 1.3 0 0 1-.562.464q-.367.168-.89.168m4.003-.077v-3.71h-1.355v-.806h3.587v.806h-1.348v3.71zm5.522.077q-.684 0-1.213-.297a2.2 2.2 0 0 1-.819-.826 2.4 2.4 0 0 1-.297-1.206q0-.69.297-1.213.297-.53.813-.826a2.4 2.4 0 0 1 1.2-.296q.684 0 1.2.303.522.297.819.826.297.522.297 1.206 0 .678-.297 1.206a2.14 2.14 0 0 1-.813.826q-.516.297-1.187.297m0-.806q.412 0 .723-.194.316-.2.49-.542.18-.342.181-.787 0-.452-.181-.794a1.36 1.36 0 0 0-1.232-.735 1.36 1.36 0 0 0-1.226.735 1.7 1.7 0 0 0-.181.794q0 .445.181.787.18.342.503.542.323.194.742.194m3.659.729v-4.516h.922l2.207 3.032v-3.032h.877v4.516h-.877l-2.245-3.091v3.091zm5.635 0v-4.516h2.858v.806h-1.975v1.026h1.704v.787h-1.704v1.09h2v.807z"/>
      <path fill="#ff492c" stroke="#000" stroke-width=".922" d="M272.883 111.633H254.45v18.433h18.433z"/>
      <path fill="#fff" fill-rule="evenodd" d="M267.861 118.583h-1.654c.045-.259.205-.403.53-.568l.305-.154c.544-.28.834-.594.834-1.107a.9.9 0 0 0-.375-.763q-.37-.275-.889-.274-.411-.001-.755.214c-.224.14-.394.319-.499.544l.479.478q.278-.56.81-.558c.3 0 .485.155.485.369 0 .179-.09.329-.435.503l-.195.095q-.637.32-.889.738c-.17.274-.255.628-.255 1.052v.114h2.503zm-.225 1.475h-2.734l-1.367 2.368h2.734l1.367 2.369 1.367-2.369z" clip-rule="evenodd"/>
      <path fill="#fff" fill-rule="evenodd" d="M263.767 124.008a3.163 3.163 0 0 1-3.161-3.159 3.163 3.163 0 0 1 3.161-3.158l1.082-2.264a5.53 5.53 0 0 0-6.614 5.422 5.53 5.53 0 0 0 5.532 5.528 5.5 5.5 0 0 0 3.258-1.06l-1.199-2.074a3.15 3.15 0 0 1-2.059.765" clip-rule="evenodd"/>
      <path fill="#000" d="m194.083 135.135-5.529-4.609h5.529zm73.731 0 5.53-4.609h-5.53z"/>
    </g>
  </g>
  <g clip-path="url(#c)">
    <g clip-path="url(#d)">
      <use xlink:href="#e"/>
      <use xlink:href="#e"/>
      <path fill="#000" d="M17.92 120.132a2.3 2.3 0 0 1-.638-.083 2 2 0 0 1-.526-.23 1.7 1.7 0 0 1-.387-.342.95.95 0 0 1-.194-.397l.858-.258a.8.8 0 0 0 .305.378q.212.157.535.166.342.01.554-.147.221-.157.221-.397a.45.45 0 0 0-.175-.36 1.1 1.1 0 0 0-.47-.222l-.582-.157a1.7 1.7 0 0 1-.582-.258 1.14 1.14 0 0 1-.396-.425 1.2 1.2 0 0 1-.139-.581q0-.646.415-1.006.425-.351 1.2-.351.435 0 .766.12.323.129.545.36.221.231.332.554l-.858.258a.73.73 0 0 0-.286-.369.84.84 0 0 0-.526-.157q-.324 0-.499.148-.184.147-.184.425 0 .212.138.332.147.12.397.184l.6.148q.581.148.904.517.324.37.323.821 0 .398-.194.693-.193.305-.562.47-.37.166-.896.166m3.054-.073v-4.523h1.68q.471 0 .84.194.37.184.581.526.204.341.204.785 0 .442-.204.784-.193.342-.544.535a1.6 1.6 0 0 1-.812.203h-.859v1.496zm.886-2.317h.84q.295 0 .49-.194a.7.7 0 0 0 .193-.507.67.67 0 0 0-.212-.508.8.8 0 0 0-.535-.185h-.776zm3.655 2.317v-4.523h1.68q.48 0 .84.185.37.193.581.517.204.323.204.756 0 .425-.213.757a1.5 1.5 0 0 1-.59.517 1.9 1.9 0 0 1-.859.185H26.4v1.606zm2.483 0-1.043-1.819.674-.48 1.375 2.299zM26.4 117.65h.794a.76.76 0 0 0 .36-.083.7.7 0 0 0 .258-.231.63.63 0 0 0 .093-.342q0-.285-.212-.47a.8.8 0 0 0-.536-.176H26.4zm3.923 2.409v-4.523h.886v4.523zm2.52 0v-4.523h.923l2.205 3.037v-3.037h.877v4.523h-.876l-2.253-3.092v3.092zm7.734.073q-.691 0-1.218-.295a2.2 2.2 0 0 1-.84-.831 2.37 2.37 0 0 1-.305-1.209q0-.682.305-1.209.304-.525.84-.83.526-.296 1.218-.296.415 0 .766.12.35.12.619.342.267.212.443.489l-.72.452a1.1 1.1 0 0 0-.286-.304 1.5 1.5 0 0 0-.397-.213 1.2 1.2 0 0 0-.425-.083q-.424 0-.757.194a1.5 1.5 0 0 0-.517.545 1.64 1.64 0 0 0-.184.793q0 .444.184.794.185.35.517.545.342.203.776.203.34 0 .609-.139.267-.138.424-.378a1.05 1.05 0 0 0 .157-.572l.84-.13q0 .637-.258 1.089a1.8 1.8 0 0 1-.73.693 2.34 2.34 0 0 1-1.06.23m.148-1.809v-.683h1.901v.545l-.48.138zm5.224 1.736v-.656a.9.9 0 0 1 .11-.406q.12-.23.324-.452.212-.23.489-.425l.683-.489a2 2 0 0 0 .267-.221q.13-.12.213-.268a.6.6 0 0 0 0-.581.54.54 0 0 0-.24-.213.8.8 0 0 0-.379-.083.74.74 0 0 0-.35.083.7.7 0 0 0-.25.203.8.8 0 0 0-.129.277l-.914-.157q.066-.323.277-.6.213-.276.563-.452.342-.166.785-.166.498 0 .858.185.37.175.563.489.195.313.194.729 0 .415-.222.748a2.7 2.7 0 0 1-.636.609l-.61.443q-.193.129-.322.286a1.2 1.2 0 0 0-.213.341h2.068v.776zm6.147.073q-.544 0-.97-.295a2.07 2.07 0 0 1-.655-.831q-.24-.525-.24-1.209 0-.682.24-1.209.24-.525.656-.83.415-.296.969-.296.544 0 .969.296.424.305.664.83.24.527.24 1.209 0 .684-.24 1.209-.24.526-.664.831-.415.295-.97.295m0-.793a.78.78 0 0 0 .526-.203q.222-.195.35-.545.13-.342.13-.794t-.13-.803a1.3 1.3 0 0 0-.35-.544.8.8 0 0 0-.526-.194.76.76 0 0 0-.517.194 1.26 1.26 0 0 0-.36.544q-.12.351-.12.803t.12.794q.129.35.36.545a.76.76 0 0 0 .517.203m3.073.72v-.656a.9.9 0 0 1 .111-.406q.12-.23.323-.452a3 3 0 0 1 .49-.425l.682-.489a3 3 0 0 0 .268-.221q.13-.12.212-.268a.6.6 0 0 0 0-.581.54.54 0 0 0-.24-.213.8.8 0 0 0-.378-.083.74.74 0 0 0-.351.083.7.7 0 0 0-.25.203.8.8 0 0 0-.128.277l-.914-.157q.064-.323.277-.6.212-.276.563-.452.341-.166.784-.166.5 0 .859.185.368.175.563.489.194.313.194.729 0 .415-.231.748a2.5 2.5 0 0 1-.628.609l-.609.443q-.194.129-.323.286a1.2 1.2 0 0 0-.212.341h2.067v.776zm5.99.073q-.461 0-.784-.156a1.44 1.44 0 0 1-.517-.462 2 2 0 0 1-.305-.674 3.6 3.6 0 0 1-.092-.83q0-.517.11-.979.112-.46.333-.812.221-.36.572-.563.351-.194.84-.194a2.35 2.35 0 0 1 1.31.397l-.442.646a1.5 1.5 0 0 0-.434-.203 1.5 1.5 0 0 0-.415-.064q-.499 0-.785.433-.285.444-.277 1.394l-.166-.129a1.27 1.27 0 0 1 .452-.563q.315-.213.739-.213.433 0 .766.194.332.203.526.554.184.342.184.766t-.193.757a1.37 1.37 0 0 1-.573.517q-.36.184-.849.184m0-.747a.8.8 0 0 0 .379-.092q.166-.102.267-.268a.8.8 0 0 0 .093-.388.8.8 0 0 0-.093-.387.8.8 0 0 0-.267-.277.7.7 0 0 0-.379-.102.76.76 0 0 0-.387.102q-.166.101-.268.277a.73.73 0 0 0-.102.387.73.73 0 0 0 .102.388q.102.166.268.268a.8.8 0 0 0 .387.092m-22.851 31.824v-7.753h2.713q.795 0 1.403.24.609.249.96.747.342.499.341 1.265 0 .406-.221.766-.212.36-.59.646.535.277.811.729.287.443.287 1.098 0 .73-.333 1.237-.332.508-.923.766-.581.26-1.366.259zm1.735-1.569h1.144q.453 0 .72-.24a.8.8 0 0 0 .268-.619.77.77 0 0 0-.277-.627q-.277-.222-.766-.222h-1.09zm0-3.138h.923q.424 0 .673-.213.26-.22.259-.609 0-.396-.277-.609-.267-.222-.72-.222h-.858zm7.522 4.836q-.858 0-1.523-.369A2.7 2.7 0 0 1 45 149.944q-.378-.655-.378-1.504 0-.868.378-1.514.389-.655 1.052-1.024.664-.36 1.542-.36.784 0 1.412.369.636.378 1.006 1.126.37.738.37 1.846h-4.163l.184-.212q0 .378.157.664.158.287.434.443.276.148.618.148.406 0 .692-.185a1 1 0 0 0 .397-.461l1.523.526a2.3 2.3 0 0 1-.627.858 2.6 2.6 0 0 1-.923.508 3.6 3.6 0 0 1-1.108.166m-1.117-3.387-.175-.222h2.483l-.157.222q0-.407-.166-.656a.93.93 0 0 0-.416-.341 1.14 1.14 0 0 0-.978 0 .93.93 0 0 0-.415.341q-.176.25-.176.656m6.747 3.387a3.2 3.2 0 0 1-1.015-.157 2.4 2.4 0 0 1-.812-.452 1.8 1.8 0 0 1-.508-.72l1.412-.591a1 1 0 0 0 .397.425q.258.138.526.138.278 0 .434-.092a.31.31 0 0 0 .148-.268.32.32 0 0 0-.157-.277 2 2 0 0 0-.462-.175l-.47-.12q-.776-.203-1.191-.655a1.55 1.55 0 0 1-.416-1.071q0-.858.582-1.32.59-.46 1.634-.461.581 0 1.033.147.444.158.748.443.304.277.443.656l-1.375.563a.56.56 0 0 0-.314-.333 1.16 1.16 0 0 0-.526-.12q-.249 0-.378.111a.33.33 0 0 0-.13.277q0 .138.157.231.158.092.47.166l.592.148q.516.129.867.406.36.267.535.627t.176.776q0 .517-.305.895-.305.387-.849.6a3.5 3.5 0 0 1-1.246.203m5.602 0q-.987 0-1.467-.471t-.48-1.338v-5.584h1.726v5.15q0 .333.12.489.12.148.378.148a.7.7 0 0 0 .231-.046.9.9 0 0 0 .25-.129l.59 1.264a2.2 2.2 0 0 1-.637.369 1.9 1.9 0 0 1-.71.148m-2.814-4.218v-1.449h3.858v1.449zM17.67 162.284v-7.753h3.046q.849 0 1.495.323.655.333 1.024.914.38.582.379 1.329 0 .757-.379 1.348a2.6 2.6 0 0 1-1.033.914q-.665.323-1.514.323h-1.227v2.602zm4.209 0-1.745-3.082 1.339-.979 2.446 4.061zm-2.418-4.245h1.2q.313 0 .553-.12a.93.93 0 0 0 .388-.333.9.9 0 0 0 .138-.489.86.86 0 0 0-.304-.673q-.305-.268-.803-.268H19.46zm7.928 4.375q-.868 0-1.532-.37a2.7 2.7 0 0 1-1.043-1.024q-.37-.655-.37-1.505 0-.867.38-1.513a2.7 2.7 0 0 1 1.042-1.025q.665-.36 1.541-.36.785 0 1.422.37.627.378.997 1.126.378.738.378 1.845h-4.172l.194-.212q0 .378.157.665.148.286.424.443.277.147.628.147.406 0 .692-.184a1 1 0 0 0 .388-.462l1.532.526a2.3 2.3 0 0 1-.628.859q-.405.341-.922.507a3.7 3.7 0 0 1-1.108.167m-1.117-3.388-.184-.221h2.482l-.157.221q0-.406-.166-.655a.94.94 0 0 0-.406-.342 1.2 1.2 0 0 0-.489-.11q-.24 0-.49.11a1 1 0 0 0-.424.342q-.165.25-.166.655m4.661 3.258v-7.753h1.726v7.753zm6.147 0-.046-1.199v-1.56q0-.444-.074-.776a1.04 1.04 0 0 0-.277-.516q-.203-.194-.6-.194-.313 0-.544.147a1.4 1.4 0 0 0-.397.397l-1.505-.498q.185-.406.508-.739.333-.331.803-.535.48-.194 1.108-.194.867 0 1.467.314.6.323.895.905.296.572.296 1.356l-.019 3.092zm-1.504.13q-.989 0-1.532-.443-.545-.444-.545-1.246 0-.877.563-1.311.572-.434 1.588-.434h1.513v1.108h-.858q-.554 0-.803.157a.49.49 0 0 0-.24.433q0 .204.184.314.185.12.499.12.323 0 .572-.138.24-.14.378-.369a1 1 0 0 0 .139-.517h.434q0 1.107-.471 1.716-.462.61-1.421.61m6.571 0q-.978 0-1.467-.471-.48-.471-.48-1.338v-5.584h1.726v5.15q0 .332.129.489.12.148.37.148a.87.87 0 0 0 .48-.176l.599 1.265q-.267.22-.637.369a1.9 1.9 0 0 1-.72.148m-2.806-4.218v-1.449h3.85v1.449zm5.114 4.088v-5.537h1.726v5.537zm.867-6.248a.94.94 0 0 1-.683-.295.9.9 0 0 1-.295-.674q0-.416.295-.692a.95.95 0 0 1 .683-.287q.397 0 .683.287.285.276.286.692a.92.92 0 0 1-.286.674.92.92 0 0 1-.683.295m4.772 6.378q-.877 0-1.541-.37a2.7 2.7 0 0 1-1.043-1.024q-.388-.655-.388-1.505t.37-1.504q.378-.655 1.042-1.024.675-.37 1.523-.37.877 0 1.55.37.666.369 1.034 1.024.38.655.379 1.504 0 .85-.379 1.505-.369.655-1.033 1.024-.665.37-1.514.37m0-1.588q.332 0 .59-.166.259-.166.407-.462a1.4 1.4 0 0 0 .157-.683q0-.387-.157-.683a1.13 1.13 0 0 0-.416-.461 1.1 1.1 0 0 0-.609-.166q-.34 0-.609.166-.258.167-.415.461a1.5 1.5 0 0 0-.148.683q0 .389.148.683.157.296.424.462.268.166.628.166m3.766 1.458v-5.537h1.624l.102 1.015v4.522zm3.562 0v-2.833h1.726v2.833zm0-2.833q0-.442-.101-.702a.72.72 0 0 0-.277-.387.87.87 0 0 0-.452-.129q-.5-.01-.748.267-.258.286-.258.859h-.517q0-.877.258-1.486.268-.619.73-.942a1.86 1.86 0 0 1 1.07-.314q.664 0 1.117.268.452.267.683.821.22.554.221 1.422v.323zm4.864 2.963q-.544 0-1.015-.157a2.4 2.4 0 0 1-.812-.453 1.8 1.8 0 0 1-.508-.719l1.412-.591a.97.97 0 0 0 .407.424q.249.14.516.139.278 0 .434-.092.157-.102.157-.268 0-.175-.166-.277a2 2 0 0 0-.462-.175l-.47-.12q-.776-.204-1.19-.656a1.55 1.55 0 0 1-.416-1.07q0-.86.581-1.32.591-.462 1.634-.462.581 0 1.034.148.451.157.757.443.304.277.433.655l-1.375.563a.56.56 0 0 0-.314-.332 1.16 1.16 0 0 0-.526-.12.6.6 0 0 0-.378.111.33.33 0 0 0-.13.277q0 .138.157.231.166.091.471.166l.59.147q.518.13.878.406.35.268.526.628.175.36.175.775 0 .517-.305.896a1.96 1.96 0 0 1-.84.6 3.6 3.6 0 0 1-1.255.203m3.25-.13v-7.753h1.725v7.753zm3.562 0v-2.833h1.726v2.833zm0-2.833q0-.442-.102-.702a.77.77 0 0 0-.286-.387.85.85 0 0 0-.443-.129q-.498-.01-.757.267-.249.286-.249.859h-.526q0-.877.268-1.486.267-.619.729-.942a1.83 1.83 0 0 1 1.052-.314q.683 0 1.135.268.453.267.683.821.222.554.222 1.422v.323zm2.88 2.833v-5.537h1.726v5.537zm.867-6.248a.94.94 0 0 1-.683-.295.9.9 0 0 1-.295-.674q0-.416.295-.692a.95.95 0 0 1 .683-.287q.397 0 .683.287.285.276.286.692a.92.92 0 0 1-.286.674.92.92 0 0 1-.683.295m2.141 8.464v-7.753h1.634l.102 1.015v6.738zm3.305-2.086q-.684 0-1.154-.342-.462-.35-.692-1.006-.24-.656-.24-1.551 0-.904.24-1.559.23-.646.692-.997.47-.342 1.154-.342.775 0 1.338.342.562.35.867.997.296.655.296 1.559 0 .896-.296 1.551a2.3 2.3 0 0 1-.867 1.006q-.563.342-1.338.342m-.443-1.588q.332 0 .59-.166.25-.166.406-.462a1.4 1.4 0 0 0 .157-.683q0-.387-.147-.683a1.06 1.06 0 0 0-.406-.461 1.07 1.07 0 0 0-.591-.166 1.07 1.07 0 0 0-.997.637 1.6 1.6 0 0 0-.138.673q0 .389.138.683.147.296.397.462.259.166.59.166m-46.009 13.808v-3.554h2.242v.628h-1.55v.812h1.338v.618H32.53v.859h1.578v.637zm3.498 0v-3.554h.72l1.735 2.381v-2.381h.692v3.554h-.692l-1.763-2.437v2.437zm5.177 0v-2.926h-1.061v-.628h2.824v.628h-1.061v2.926zm2.723 0v-3.554h2.252v.628h-1.56v.812h1.348v.618h-1.348v.859h1.579v.637zm3.498 0v-3.554h1.32q.378 0 .665.139.285.148.452.406.165.258.166.6 0 .332-.175.59-.166.268-.462.407a1.5 1.5 0 0 1-.674.147h-.6v1.265zm1.957 0-.822-1.431.527-.378 1.08 1.809zm-1.265-1.902h.637a.6.6 0 0 0 .277-.064.5.5 0 0 0 .203-.185.5.5 0 0 0 .065-.258.47.47 0 0 0-.157-.369.6.6 0 0 0-.425-.148h-.6zm3.092 1.902v-3.554h1.32q.37 0 .665.148.285.147.452.415.157.268.157.619 0 .34-.157.609t-.424.424a1.26 1.26 0 0 1-.637.157h-.683v1.182zm.693-1.819h.664a.53.53 0 0 0 .388-.156.56.56 0 0 0 .148-.397.5.5 0 0 0-.167-.397.6.6 0 0 0-.424-.157h-.61zm2.87 1.819v-3.554h1.32a1.5 1.5 0 0 1 .664.139q.296.148.453.406.166.258.166.6 0 .332-.166.59a1.1 1.1 0 0 1-.471.407 1.5 1.5 0 0 1-.664.147h-.6v1.265zm1.957 0-.822-1.431.536-.378 1.07 1.809zm-1.255-1.902h.627a.6.6 0 0 0 .277-.064.49.49 0 0 0 .277-.443.46.46 0 0 0-.166-.369.6.6 0 0 0-.425-.148h-.59zm3.082 1.902v-3.554h.692v3.554zm3.166.055q-.267 0-.498-.065a1.5 1.5 0 0 1-.416-.184 1.3 1.3 0 0 1-.304-.268.75.75 0 0 1-.157-.314l.683-.203q.065.176.23.305.167.12.425.129.268 0 .434-.12a.37.37 0 0 0 .175-.314.37.37 0 0 0-.138-.286.9.9 0 0 0-.37-.175l-.46-.12a1.3 1.3 0 0 1-.453-.203.9.9 0 0 1-.425-.794q0-.498.333-.784.332-.277.941-.277.342 0 .6.101.258.093.425.277.175.185.267.434l-.674.203a.66.66 0 0 0-.636-.415.6.6 0 0 0-.397.12.4.4 0 0 0-.148.332q0 .167.12.258a.7.7 0 0 0 .305.148l.47.12q.462.11.711.397a.99.99 0 0 1 .102 1.2.95.95 0 0 1-.444.369q-.285.129-.701.129m2.4-.055v-3.554h2.252v.628h-1.56v.812h1.338v.618h-1.338v.859h1.578v.637z"/>
      <path fill="#ff492c" d="M71.608 107.829h19.383v19.383H71.608z"/>
      <path fill="#fff" fill-rule="evenodd" d="M85.499 115.251h-1.656c.045-.259.205-.404.53-.569l.305-.155c.547-.279.837-.594.837-1.107a.9.9 0 0 0-.376-.765 1.45 1.45 0 0 0-.89-.275 1.4 1.4 0 0 0-.756.215 1.3 1.3 0 0 0-.5.545l.48.479q.278-.56.81-.559c.301 0 .486.155.486.369 0 .18-.09.329-.436.504l-.194.095q-.638.322-.891.738c-.17.275-.255.63-.255 1.054v.115H85.5v-.683zm-.225 1.477h-2.739l-1.368 2.372h2.738l1.369 2.372 1.369-2.372z" clip-rule="evenodd"/>
      <path fill="#fff" fill-rule="evenodd" d="M81.4 120.684a3.166 3.166 0 0 1-3.167-3.164 3.17 3.17 0 0 1 3.166-3.163l1.085-2.266a5.53 5.53 0 0 0-4.597 1.147 5.536 5.536 0 0 0 3.512 9.818 5.5 5.5 0 0 0 3.263-1.061l-1.2-2.077a3.15 3.15 0 0 1-2.063.766" clip-rule="evenodd"/>
      <path fill="#27d3bc" d="M6.078 184.642v-5.727l42.456 21.268 42.457-21.268v5.789l-42.457 20.96z"/>
      <path fill="#fff" d="M6.078 179.42v-5.999l42.456 21.267 42.457-21.267v5.999l-42.457 20.749z"/>
      <path fill="#fff" d="M6.078 173.942v-5.999l42.456 21.268 42.457-21.269v5.999L48.534 194.69z"/>
      <path stroke="#000" stroke-width=".932" d="M90.557 126.78H6.654m65.196-18.112v18.112m18.68-18.489v76.165l-41.996 20.692-41.995-20.692v-76.165z"/>
    </g>
  </g>
  <g clip-path="url(#f)">
    <g clip-path="url(#g)">
      <use xlink:href="#h"/>
      <use xlink:href="#h"/>
      <path fill="#000" d="M98.57 108.173q-.447 0-.836-.109a2.6 2.6 0 0 1-.69-.303 2.2 2.2 0 0 1-.509-.448 1.26 1.26 0 0 1-.254-.521l1.126-.339q.11.29.4.496.279.206.703.218.448.013.727-.193.29-.207.29-.521a.6.6 0 0 0-.23-.473q-.217-.194-.618-.291l-.763-.205a2.3 2.3 0 0 1-.763-.34 1.5 1.5 0 0 1-.521-.557 1.54 1.54 0 0 1-.182-.763q0-.849.545-1.321.558-.46 1.575-.46.57 0 1.006.157.424.17.715.473.29.303.436.727l-1.127.339a.95.95 0 0 0-.375-.485q-.267-.205-.691-.205t-.654.193q-.242.194-.242.558 0 .278.181.436.194.157.521.242l.788.194q.762.194 1.187.678.423.485.424 1.078 0 .522-.255.909a1.64 1.64 0 0 1-.739.618q-.484.218-1.175.218m4.01-.097v-5.936h2.205q.618 0 1.103.254.484.243.763.691.266.448.266 1.03 0 .581-.266 1.029-.255.448-.715.703a2.1 2.1 0 0 1-1.066.266h-1.127v1.963zm1.163-3.041h1.103a.87.87 0 0 0 .642-.254q.254-.255.254-.666a.9.9 0 0 0-.279-.667 1.03 1.03 0 0 0-.702-.242h-1.018zm4.798 3.041v-5.936h2.204q.63 0 1.103.242.484.255.763.679.267.423.267.993a1.8 1.8 0 0 1-.279.993 2 2 0 0 1-.775.679 2.55 2.55 0 0 1-1.127.242h-.993v2.108zm3.258 0-1.369-2.387.885-.629 1.805 3.016zm-2.095-3.162h1.041a1 1 0 0 0 .473-.109.95.95 0 0 0 .339-.303.8.8 0 0 0 .121-.448.79.79 0 0 0-.278-.618q-.279-.23-.703-.23h-.993zm5.148 3.162v-5.936h1.163v5.936zm3.308 0v-5.936h1.211l2.895 3.986v-3.986h1.151v5.936h-1.151l-2.956-4.058v4.058zm10.152.097q-.909 0-1.6-.388a2.9 2.9 0 0 1-1.102-1.09q-.4-.69-.4-1.587t.4-1.587a2.9 2.9 0 0 1 1.102-1.09q.691-.388 1.6-.388.545 0 1.005.157.46.158.812.449.351.278.581.642l-.945.593a1.5 1.5 0 0 0-.375-.399 1.9 1.9 0 0 0-.521-.279 1.5 1.5 0 0 0-.557-.109q-.558 0-.994.254a2 2 0 0 0-.678.715 2.15 2.15 0 0 0-.242 1.042q0 .582.242 1.042t.678.715a1.96 1.96 0 0 0 1.018.266q.448 0 .799-.182.352-.181.558-.496.206-.328.206-.751l1.102-.17q0 .836-.339 1.43a2.36 2.36 0 0 1-.957.908q-.606.303-1.393.303m.193-2.374v-.897h2.496v.715l-.63.182zm6.857 2.277v-.86q0-.243.146-.533.157-.303.424-.594.278-.302.642-.557l.896-.642q.194-.133.352-.291a1.4 1.4 0 0 0 .278-.351.8.8 0 0 0 .097-.364.8.8 0 0 0-.097-.399.7.7 0 0 0-.315-.279 1.04 1.04 0 0 0-.496-.109 1 1 0 0 0-.461.109.95.95 0 0 0-.327.267 1.1 1.1 0 0 0-.17.363l-1.199-.206q.085-.424.364-.787a2.1 2.1 0 0 1 .739-.594 2.3 2.3 0 0 1 1.029-.218q.654 0 1.127.242.484.231.739.642.254.412.254.957 0 .546-.29.982a3.5 3.5 0 0 1-.836.799l-.8.582a2 2 0 0 0-.424.375 1.6 1.6 0 0 0-.279.448h2.714v1.018zm8.069.097q-.715 0-1.272-.388a2.7 2.7 0 0 1-.861-1.09q-.315-.69-.315-1.587t.315-1.587.861-1.09a2.13 2.13 0 0 1 1.272-.388q.714 0 1.272.388.557.4.872 1.09t.315 1.587-.315 1.587-.872 1.09a2.14 2.14 0 0 1-1.272.388m0-1.042q.387 0 .69-.266.29-.255.461-.715.17-.448.169-1.042 0-.594-.169-1.054-.17-.46-.461-.715a1.05 1.05 0 0 0-.69-.254q-.388 0-.679.254-.303.255-.472.715a3.3 3.3 0 0 0-.158 1.054q0 .594.158 1.042.17.46.472.715.303.266.679.266m4.034.945v-.86q0-.243.145-.533.157-.303.424-.594.279-.302.642-.557l.897-.642a4 4 0 0 0 .351-.291q.17-.157.279-.351a.8.8 0 0 0 0-.763.7.7 0 0 0-.315-.279 1.05 1.05 0 0 0-.497-.109.96.96 0 0 0-.46.109.9.9 0 0 0-.327.267 1.1 1.1 0 0 0-.17.363l-1.199-.206q.084-.424.363-.787.279-.365.739-.594a2.3 2.3 0 0 1 1.03-.218q.654 0 1.126.242.485.231.739.642.255.412.255.957 0 .546-.303.982a3.3 3.3 0 0 1-.824.799l-.799.582q-.255.17-.424.375a1.5 1.5 0 0 0-.279.448h2.714v1.018zm7.862.097q-.606 0-1.03-.206a1.9 1.9 0 0 1-.678-.606 2.7 2.7 0 0 1-.4-.884 4.7 4.7 0 0 1-.121-1.09q0-.68.145-1.285.146-.605.437-1.066.29-.472.751-.739.46-.254 1.102-.254.472 0 .909.133.448.133.811.388l-.581.848a2 2 0 0 0-.57-.267 2 2 0 0 0-.545-.084q-.654 0-1.029.569-.376.581-.364 1.829l-.218-.169q.194-.461.594-.739.411-.279.969-.279.57 0 1.005.254.436.267.691.727.242.448.242 1.006 0 .557-.254.993a1.8 1.8 0 0 1-.751.679q-.473.242-1.115.242m0-.981q.279 0 .497-.121.218-.133.351-.352.121-.218.121-.509 0-.29-.121-.508a1 1 0 0 0-.351-.364.93.93 0 0 0-.497-.133 1 1 0 0 0-.509.133q-.218.133-.351.364a.95.95 0 0 0-.133.508q0 .291.133.509t.351.352q.23.12.509.121m-43.83 49.948v-12.72h2.919v10.031h5.415v2.689zm13.956.218q-1.418 0-2.508-.606a4.4 4.4 0 0 1-1.708-1.683q-.618-1.066-.618-2.472 0-1.418.618-2.483a4.4 4.4 0 0 1 1.72-1.672q1.09-.606 2.532-.606 1.284 0 2.326.618 1.03.618 1.635 1.841.618 1.212.618 3.029h-6.832l.302-.339q0 .618.255 1.09.254.472.715.715.448.242 1.017.242.666 0 1.127-.303.473-.29.654-.751l2.508.86a3.8 3.8 0 0 1-1.03 1.418q-.666.557-1.514.836a6.1 6.1 0 0 1-1.817.266m-1.842-5.56-.291-.364h4.071l-.255.364q0-.667-.266-1.066a1.66 1.66 0 0 0-.678-.582 2 2 0 0 0-.8-.17q-.4 0-.812.17a1.66 1.66 0 0 0-.678.582q-.291.399-.291 1.066m13.048 5.342-.073-1.962v-2.557q0-.726-.121-1.272-.134-.545-.461-.86-.327-.303-.981-.303-.509 0-.884.231a2.1 2.1 0 0 0-.654.654l-2.472-.812q.303-.678.836-1.224a4.1 4.1 0 0 1 1.321-.872q.787-.327 1.817-.327 1.417 0 2.398.533a3.45 3.45 0 0 1 1.478 1.466q.485.945.485 2.241l-.036 5.064zm-2.472.218q-1.611 0-2.508-.727-.884-.727-.884-2.047 0-1.442.921-2.144.933-.715 2.604-.715h2.484v1.817h-1.417q-.909 0-1.309.255a.8.8 0 0 0-.4.714q0 .327.303.509.303.194.824.194.532 0 .933-.23.399-.219.618-.606.23-.375.23-.836h.715q0 1.817-.764 2.823-.763.993-2.35.993m13.229-.218-.121-1.684V144.42h2.835v12.72zm-2.701.218q-1.272 0-2.193-.569-.92-.57-1.417-1.648-.498-1.066-.497-2.544 0-1.49.497-2.556.496-1.054 1.417-1.635.921-.57 2.193-.57 1.126 0 1.89.57.775.58 1.163 1.635.375 1.066.375 2.556 0 1.478-.375 2.544-.388 1.078-1.151 1.648-.776.569-1.902.569m.739-2.617a1.7 1.7 0 0 0 .945-.266q.423-.279.654-.763.242-.473.242-1.115 0-.63-.242-1.114a1.75 1.75 0 0 0-.654-.751 1.67 1.67 0 0 0-.957-.279q-.546 0-.97.279a1.87 1.87 0 0 0-.654.751 2.5 2.5 0 0 0-.266 1.114q.012.642.266 1.115.243.484.667.763.423.266.969.266m10.891 2.617q-1.417 0-2.508-.606a4.4 4.4 0 0 1-1.708-1.683q-.618-1.066-.618-2.472 0-1.418.618-2.483a4.4 4.4 0 0 1 1.72-1.672q1.09-.606 2.532-.606 1.285 0 2.326.618 1.03.618 1.648 1.841.605 1.212.605 3.029h-6.832l.303-.339q0 .618.254 1.09a1.7 1.7 0 0 0 .715.715q.448.242 1.017.242.667 0 1.127-.303.472-.29.654-.751l2.508.86a3.8 3.8 0 0 1-1.03 1.418q-.666.557-1.514.836a6.1 6.1 0 0 1-1.817.266m-1.842-5.56-.29-.364h4.07l-.254.364q0-.667-.267-1.066a1.66 1.66 0 0 0-.678-.582 2 2 0 0 0-.8-.17 2.1 2.1 0 0 0-.811.17 1.66 1.66 0 0 0-.679.582q-.291.399-.291 1.066m9.74.642q0-1.478.594-2.46.594-.98 1.49-1.465a3.8 3.8 0 0 1 1.878-.497v2.762q-.835 0-1.563.182-.738.182-1.199.557-.448.375-.448.957zm-2.083 4.7v-9.086h2.835v9.086zm-45.321 22.57v-4.665h2.944v.824h-2.035v1.066h1.756v.812h-1.756v1.127h2.071v.836zm4.592 0v-4.665h.944l2.278 3.126v-3.126h.909v4.665h-.909l-2.314-3.199v3.199zm6.796 0v-3.841h-1.393v-.824h3.707v.824h-1.393v3.841zm3.574 0v-4.665h2.956v.824h-2.048v1.066h1.769v.812h-1.769v1.127h2.072v.836zm4.591 0v-4.665h1.732q.497 0 .873.182.375.194.593.533.218.34.218.788 0 .436-.23.775a1.4 1.4 0 0 1-.606.533 1.95 1.95 0 0 1-.884.194h-.787v1.66zm2.568 0-1.078-1.878.691-.497 1.417 2.375zm-1.659-2.496h.836a.75.75 0 0 0 .363-.085.64.64 0 0 0 .266-.242.66.66 0 0 0 .085-.339.61.61 0 0 0-.206-.485.8.8 0 0 0-.557-.194h-.787zm4.058 2.496v-4.665h1.732q.485 0 .873.194.375.195.593.545.207.352.206.812 0 .449-.206.8t-.557.557a1.67 1.67 0 0 1-.836.206h-.896v1.551zm.909-2.387h.872a.7.7 0 0 0 .509-.206.73.73 0 0 0 .194-.521.66.66 0 0 0-.219-.521.78.78 0 0 0-.557-.206h-.799zm3.767 2.387v-4.665h1.733q.497 0 .872.182.387.194.594.533.218.34.218.788 0 .436-.218.775-.231.351-.618.533-.389.194-.873.194h-.787v1.66zm2.569 0-1.079-1.878.703-.497 1.405 2.375zm-1.648-2.496h.824a.75.75 0 0 0 .363-.085.64.64 0 0 0 .267-.242.6.6 0 0 0 .097-.339.6.6 0 0 0-.218-.485.8.8 0 0 0-.558-.194h-.775zm4.046 2.496v-4.665h.909v4.665zm4.156.072q-.352 0-.655-.084a2 2 0 0 1-.545-.243 1.7 1.7 0 0 1-.4-.351 1 1 0 0 1-.206-.412l.897-.267a.9.9 0 0 0 .303.4 1 1 0 0 0 .557.17q.351 0 .569-.158a.478.478 0 0 0 .049-.787 1.2 1.2 0 0 0-.485-.23l-.605-.158a1.7 1.7 0 0 1-.594-.266 1.19 1.19 0 0 1-.557-1.042q0-.654.436-1.03.436-.363 1.236-.363.447 0 .787.133.34.121.557.363.23.243.352.57l-.885.266a.86.86 0 0 0-.291-.375.86.86 0 0 0-.545-.17q-.326 0-.521.158a.53.53 0 0 0-.193.436q0 .218.157.339.145.133.4.194l.618.157q.605.146.932.521.34.388.34.848a1.3 1.3 0 0 1-.206.727 1.24 1.24 0 0 1-.582.485q-.375.17-.92.169m3.149-.072v-4.665h2.956v.824h-2.047v1.066h1.757v.812h-1.757v1.127h2.072v.836z"/>
      <path fill="#ff492c" d="M169.041 92.024h25.44v25.441h-25.44z"/>
      <path fill="#fff" fill-rule="evenodd" d="M187.273 101.766H185.1c.059-.34.269-.531.696-.747l.4-.203c.717-.367 1.098-.78 1.098-1.454a1.18 1.18 0 0 0-.493-1.003c-.321-.242-.715-.361-1.169-.361q-.54-.002-.991.282a1.7 1.7 0 0 0-.657.715l.63.629c.242-.492.597-.734 1.064-.734.395 0 .637.203.637.484 0 .237-.118.433-.572.662l-.254.125q-.838.421-1.17.969c-.223.361-.335.826-.335 1.383v.15h3.29v-.896zm-.295 1.938h-3.595l-1.796 3.113h3.594l1.797 3.114 1.796-3.114z" clip-rule="evenodd"/>
      <path fill="#fff" fill-rule="evenodd" d="M181.892 108.897a4.157 4.157 0 0 1-4.155-4.152 4.157 4.157 0 0 1 4.155-4.152l1.423-2.975a7.268 7.268 0 1 0 2.859 13l-1.574-2.726a4.14 4.14 0 0 1-2.708 1.005" clip-rule="evenodd"/>
      <path fill="#ff492c" d="M83.027 192.845v-7.515l55.727 27.915 55.727-27.915v7.598l-55.727 27.511z"/>
      <path fill="#ffc800" d="M83.027 185.992v-7.874l55.727 27.914 55.727-27.914v7.874l-55.727 27.234z"/>
      <path fill="#fff" d="M83.027 178.802v-7.874l55.727 27.915 55.727-27.916v7.874l-55.727 27.234z"/>
      <path stroke="#000" stroke-width="1.223" d="M193.912 116.899H83.784m85.574-23.773v23.773m24.518-24.269v99.972l-55.122 27.16-55.121-27.16V92.63z"/>
    </g>
  </g>
  <defs>
    <clipPath id="a">
      <path fill="#fff" d="M187.415 107.829H275v97.835h-87.585z"/>
    </clipPath>
    <clipPath id="b">
      <path fill="#fff" d="M188.554 107.446h84.79v98.615h-84.79z"/>
    </clipPath>
    <clipPath id="c">
      <path fill="#fff" d="M5 107.829h87.585v97.835H5z"/>
    </clipPath>
    <clipPath id="d">
      <path fill="#fff" d="M6.078 107.829H90.99v97.835H6.078z"/>
    </clipPath>
    <clipPath id="f">
      <path fill="#fff" d="M83.366 92.024h111.293V220.44H83.366z"/>
    </clipPath>
    <clipPath id="g">
      <path fill="#fff" d="M83.027 92.024h111.454V220.44H83.027z"/>
    </clipPath>
    <path id="e" fill="#fff" d="m6.078 184.744 42.456 20.92 42.457-20.92v-76.915H6.078z"/>
    <path id="h" fill="#fff" d="m83.027 192.98 55.727 27.459 55.727-27.459V92.024H83.027z"/>
  </defs>
</svg>
