<svg width="32" height="31" viewBox="0 0 32 31" fill="none" xmlns="http://www.w3.org/2000/svg">
<path fill-rule="evenodd" clip-rule="evenodd" d="M25.4045 15.7723C25.4045 17.9228 23.7762 19.7055 21.7071 19.9119L21.9918 23.2899L16.6623 19.936H10.263C8.00765 19.936 6.16065 18.0635 6.16065 15.7723V10.4014C6.16065 8.11025 8.00765 6.23774 10.263 6.23774H21.3021C23.5624 6.23774 25.4045 8.11025 25.4045 10.4014V15.7723ZM21.2994 0H10.2603C4.60431 0 0 4.66446 0 10.402V15.773C0 19.6771 2.13095 23.0818 5.27516 24.8584L0.291493 30.06L13.7937 26.175H21.2994C26.9569 26.175 31.5601 21.5098 31.5601 15.773V10.402C31.5601 4.66446 26.9569 0 21.2994 0Z" fill="#02B388"/>
</svg>
