<svg width="726" height="810" viewBox="0 0 726 810" fill="none" xmlns="http://www.w3.org/2000/svg">
<path d="M724.455 564.655V245.357C724.455 214.735 708.113 186.443 681.604 171.132L405.085 11.4832C378.564 -3.82774 345.891 -3.82774 319.37 11.4832L42.8512 171.12C16.3301 186.431 0 214.723 0 245.345V564.643C0 595.265 16.3301 623.557 42.8512 638.868L319.37 798.517C345.891 813.828 378.564 813.828 405.085 798.517L681.604 638.868C708.125 623.557 724.455 595.265 724.455 564.643V564.655Z" fill="#F7FFF7"/>
<path fill-rule="evenodd" clip-rule="evenodd" d="M670.188 256.498H55.0806C41.0096 256.498 29.6028 267.905 29.6028 281.976V534.327C29.6028 548.398 41.0096 559.805 55.0806 559.805H670.188C684.259 559.805 695.665 548.398 695.665 534.327V281.976C695.665 267.905 684.259 256.498 670.188 256.498ZM55.0806 250.432C37.6594 250.432 23.5366 264.554 23.5366 281.976V534.327C23.5366 551.748 37.6594 565.871 55.0806 565.871H670.188C687.609 565.871 701.731 551.748 701.731 534.327V281.976C701.731 264.554 687.609 250.432 670.188 250.432H55.0806Z" fill="#6F9576"/>
<path d="M157.663 322.499C157.321 318.739 155.8 315.817 153.1 313.732C150.434 311.613 146.623 310.553 141.667 310.553C138.386 310.553 135.651 310.981 133.464 311.835C131.276 312.69 129.636 313.869 128.542 315.373C127.448 316.842 126.884 318.534 126.85 320.448C126.782 322.021 127.09 323.405 127.773 324.601C128.491 325.797 129.516 326.857 130.849 327.78C132.216 328.668 133.857 329.455 135.771 330.138C137.685 330.822 139.838 331.42 142.231 331.933L151.254 333.983C156.45 335.111 161.03 336.615 164.995 338.495C168.994 340.375 172.343 342.614 175.043 345.211C177.778 347.809 179.846 350.8 181.247 354.183C182.648 357.567 183.366 361.361 183.4 365.565C183.366 372.196 181.691 377.887 178.376 382.638C175.06 387.389 170.292 391.029 164.072 393.558C157.885 396.088 150.417 397.352 141.667 397.352C132.883 397.352 125.227 396.036 118.698 393.404C112.17 390.773 107.094 386.774 103.471 381.407C99.8484 376.041 97.9857 369.257 97.8831 361.054H122.185C122.39 364.437 123.296 367.257 124.902 369.513C126.508 371.769 128.713 373.478 131.516 374.64C134.353 375.802 137.634 376.383 141.359 376.383C144.777 376.383 147.683 375.922 150.075 374.999C152.502 374.076 154.365 372.794 155.664 371.154C156.962 369.513 157.629 367.633 157.663 365.514C157.629 363.532 157.014 361.84 155.817 360.438C154.621 359.003 152.775 357.772 150.28 356.747C147.819 355.687 144.675 354.713 140.847 353.825L129.875 351.261C120.783 349.176 113.623 345.81 108.393 341.161C103.164 336.479 100.566 330.155 100.6 322.191C100.566 315.697 102.309 310.006 105.83 305.119C109.35 300.231 114.221 296.42 120.442 293.686C126.662 290.951 133.755 289.584 141.718 289.584C149.853 289.584 156.911 290.968 162.893 293.737C168.908 296.471 173.574 300.317 176.889 305.273C180.204 310.229 181.896 315.971 181.965 322.499H157.663Z" fill="#0A231E"/>
<path d="M308.315 343.519C308.315 355.072 306.093 364.865 301.65 372.897C297.206 380.929 291.191 387.03 283.603 391.2C276.049 395.37 267.573 397.455 258.173 397.455C248.74 397.455 240.246 395.353 232.693 391.149C225.139 386.945 219.14 380.843 214.697 372.845C210.288 364.813 208.083 355.038 208.083 343.519C208.083 331.967 210.288 322.174 214.697 314.142C219.14 306.11 225.139 300.009 232.693 295.839C240.246 291.669 248.74 289.584 258.173 289.584C267.573 289.584 276.049 291.669 283.603 295.839C291.191 300.009 297.206 306.11 301.65 314.142C306.093 322.174 308.315 331.967 308.315 343.519ZM282.372 343.519C282.372 336.684 281.398 330.907 279.45 326.19C277.536 321.474 274.767 317.902 271.144 315.475C267.556 313.048 263.232 311.835 258.173 311.835C253.149 311.835 248.825 313.048 245.202 315.475C241.579 317.902 238.794 321.474 236.845 326.19C234.931 330.907 233.974 336.684 233.974 343.519C233.974 350.355 234.931 356.132 236.845 360.848C238.794 365.565 241.579 369.137 245.202 371.564C248.825 373.991 253.149 375.204 258.173 375.204C263.232 375.204 267.556 373.991 271.144 371.564C274.767 369.137 277.536 365.565 279.45 360.848C281.398 356.132 282.372 350.355 282.372 343.519Z" fill="#0A231E"/>
<path d="M431.435 329.062H405.8C405.458 326.43 404.758 324.054 403.698 321.935C402.638 319.816 401.237 318.004 399.494 316.501C397.751 314.997 395.683 313.852 393.29 313.066C390.932 312.245 388.317 311.835 385.446 311.835C380.353 311.835 375.961 313.083 372.27 315.578C368.613 318.073 365.793 321.679 363.811 326.396C361.862 331.112 360.888 336.82 360.888 343.519C360.888 350.492 361.879 356.337 363.862 361.054C365.878 365.736 368.698 369.274 372.321 371.666C375.978 374.025 380.302 375.204 385.292 375.204C388.095 375.204 390.641 374.845 392.931 374.127C395.256 373.409 397.289 372.367 399.033 371C400.81 369.598 402.263 367.907 403.39 365.924C404.553 363.908 405.356 361.635 405.8 359.105L431.435 359.259C430.99 363.908 429.64 368.488 427.384 372.999C425.163 377.511 422.104 381.63 418.207 385.355C414.311 389.047 409.56 391.986 403.954 394.173C398.383 396.361 391.992 397.455 384.78 397.455C375.278 397.455 366.767 395.37 359.248 391.2C351.762 386.996 345.849 380.878 341.508 372.845C337.168 364.813 334.997 355.038 334.997 343.519C334.997 331.967 337.202 322.174 341.611 314.142C346.02 306.11 351.984 300.009 359.504 295.839C367.023 291.669 375.449 289.584 384.78 289.584C391.137 289.584 397.016 290.473 402.416 292.25C407.817 293.993 412.568 296.557 416.669 299.941C420.771 303.29 424.103 307.409 426.667 312.297C429.23 317.184 430.819 322.773 431.435 329.062Z" fill="#0A231E"/>
<path d="M502.757 396.019V377.767L541.055 344.237C543.926 341.64 546.37 339.264 548.387 337.111C550.403 334.923 551.941 332.736 553.001 330.548C554.06 328.327 554.59 325.917 554.59 323.319C554.59 320.414 553.958 317.936 552.693 315.885C551.428 313.8 549.685 312.194 547.464 311.066C545.242 309.938 542.696 309.374 539.825 309.374C536.919 309.374 534.373 309.972 532.185 311.169C529.998 312.331 528.289 314.023 527.059 316.244C525.862 318.466 525.264 321.166 525.264 324.345H501.219C501.219 317.201 502.825 311.032 506.038 305.837C509.251 300.641 513.763 296.642 519.573 293.84C525.418 291.003 532.203 289.584 539.927 289.584C547.891 289.584 554.812 290.917 560.691 293.583C566.57 296.249 571.116 299.975 574.329 304.76C577.576 309.511 579.199 315.031 579.199 321.32C579.199 325.319 578.396 329.284 576.79 333.214C575.183 337.145 572.295 341.486 568.125 346.237C563.989 350.988 558.111 356.679 550.489 363.309L537.928 374.896V375.563H580.481V396.019H502.757Z" fill="#0A231E"/>
<path d="M78.2983 432.953V412.343H167.045V432.953H135.207V517.342H110.188V432.953H78.2983Z" fill="#0A231E"/>
<path d="M187.204 412.343H215.556L237.755 456.28H238.678L260.878 412.343H289.23L250.829 482.274V517.342H225.605V482.274L187.204 412.343Z" fill="#0A231E"/>
<path d="M312.862 517.342V412.343H356.236C364.097 412.343 370.881 413.881 376.589 416.957C382.332 419.999 386.758 424.254 389.868 429.723C392.978 435.157 394.534 441.481 394.534 448.693C394.534 455.939 392.944 462.279 389.766 467.713C386.621 473.114 382.127 477.301 376.282 480.274C370.437 483.248 363.499 484.735 355.466 484.735H328.704V464.74H350.75C354.578 464.74 357.774 464.073 360.337 462.74C362.935 461.407 364.9 459.545 366.233 457.152C367.566 454.725 368.233 451.905 368.233 448.693C368.233 445.445 367.566 442.643 366.233 440.284C364.9 437.892 362.935 436.046 360.337 434.747C357.739 433.448 354.544 432.799 350.75 432.799H338.24V517.342H312.862Z" fill="#0A231E"/>
<path d="M420.037 517.342V412.343H493.25V432.953H445.415V454.486H489.507V475.147H445.415V496.732H493.25V517.342H420.037Z" fill="#0A231E"/>
<path d="M565.943 517.342V499.09L604.241 465.56C607.112 462.962 609.556 460.587 611.573 458.434C613.589 456.246 615.127 454.059 616.187 451.871C617.247 449.65 617.776 447.24 617.776 444.642C617.776 441.737 617.144 439.259 615.879 437.208C614.615 435.123 612.872 433.517 610.65 432.389C608.428 431.261 605.882 430.697 603.011 430.697C600.106 430.697 597.559 431.295 595.372 432.491C593.184 433.654 591.475 435.345 590.245 437.567C589.048 439.789 588.45 442.489 588.45 445.668H564.405C564.405 438.524 566.011 432.355 569.224 427.159C572.437 421.964 576.949 417.965 582.759 415.162C588.604 412.326 595.389 410.907 603.113 410.907C611.077 410.907 617.999 412.24 623.877 414.906C629.756 417.572 634.302 421.298 637.515 426.083C640.762 430.834 642.386 436.354 642.386 442.643C642.386 446.642 641.582 450.607 639.976 454.537C638.37 458.468 635.481 462.809 631.311 467.56C627.176 472.311 621.297 478.001 613.675 484.632L601.114 496.219V496.886H643.667V517.342H565.943Z" fill="#0A231E"/>
<path fill-rule="evenodd" clip-rule="evenodd" d="M417.043 87.8894C417.043 57.7205 392.586 33.2639 362.417 33.2639C332.248 33.2639 307.792 57.7205 307.792 87.8894V134.711H323.399V87.8894C323.399 66.3396 340.868 48.8712 362.417 48.8712C383.966 48.8712 401.435 66.3402 401.435 87.8894V134.711H417.043V87.8894Z" fill="#6F9576"/>
<path fill-rule="evenodd" clip-rule="evenodd" d="M284.381 126.952V204.897C284.381 213.542 291.39 220.55 299.916 220.55H424.917C433.497 220.55 440.453 213.55 440.453 204.897V126.952C440.453 118.308 433.443 111.3 424.917 111.3H299.916C291.336 111.3 284.381 118.3 284.381 126.952Z" fill="#6F9576"/>
<path d="M120.838 604.367C120.838 604.185 120.838 604.015 120.874 603.857C120.898 603.7 120.91 603.518 120.91 603.311V602.862C120.91 599.635 120.352 597.003 119.236 594.964C118.12 592.926 116.421 591.422 114.128 590.475C111.835 589.517 109.057 589.044 105.794 589.044C103.889 589.044 102.057 589.274 100.31 589.723C98.5627 590.172 97.0098 590.9 95.651 591.907C94.2921 592.902 93.1032 594.164 92.1083 595.68C91.1135 597.197 90.3249 599.053 89.7547 601.225C89.1844 603.408 88.9054 605.871 88.9054 608.65C88.9054 611.549 89.1723 614.121 89.7183 616.341C90.2642 618.562 91.0407 620.491 92.0719 622.129C93.1032 623.766 94.2921 625.113 95.6752 626.181C97.0583 627.248 98.6476 628.025 100.443 628.534C102.239 629.032 104.131 629.287 106.133 629.287C109.542 629.287 112.345 628.741 114.577 627.649C116.798 626.557 118.435 624.98 119.479 622.917C120.522 620.855 121.044 618.368 121.044 615.468V613.976H127.85C127.802 614.158 127.802 614.352 127.85 614.558C127.899 614.764 127.911 614.995 127.886 615.237C127.862 615.492 127.85 615.747 127.85 616.026C127.85 618.477 127.583 620.709 127.037 622.735C126.491 624.761 125.63 626.557 124.453 628.146C123.276 629.735 121.832 631.094 120.134 632.235C118.435 633.375 116.409 634.212 114.08 634.758C111.738 635.304 109.118 635.571 106.218 635.571C103.319 635.571 100.613 635.231 98.1138 634.552C95.6146 633.873 93.3701 632.829 91.3683 631.422C89.3664 630.015 87.6558 628.243 86.2242 626.108C84.7926 623.973 83.6885 621.473 82.9242 618.622C82.1477 615.759 81.7716 612.544 81.7716 608.953C81.7716 605.362 82.1477 602.499 82.8999 599.793C83.6521 597.088 84.6955 594.673 86.0301 592.538C87.3646 590.403 89.0389 588.631 91.0286 587.224C93.0304 585.817 95.2749 584.737 97.7741 583.985C100.273 583.232 103.088 582.856 106.218 582.856C109.166 582.856 111.811 583.148 114.153 583.742C116.494 584.336 118.508 585.186 120.207 586.29C121.905 587.406 123.3 588.716 124.392 590.233C125.484 591.749 126.309 593.484 126.879 595.437C127.45 597.391 127.729 599.502 127.729 601.771V603.433C127.729 603.687 127.704 603.991 127.656 604.355H120.85L120.838 604.367Z" fill="#0A231E"/>
<path d="M381.512 635.134H374.16C374.208 633.363 374.233 631.519 374.257 629.59C374.281 627.661 374.305 625.683 374.33 623.669C374.354 621.655 374.366 619.484 374.366 617.166V602.013C374.366 599.672 374.366 597.488 374.33 595.438C374.305 593.399 374.281 591.434 374.257 589.553C374.233 587.673 374.196 585.841 374.16 584.07H381.512C381.463 585.792 381.427 587.612 381.415 589.517C381.391 591.422 381.366 593.387 381.342 595.401C381.318 597.427 381.306 599.599 381.306 601.94V617.094C381.306 619.411 381.306 621.583 381.342 623.633C381.366 625.671 381.391 627.649 381.415 629.554C381.439 631.458 381.475 633.327 381.512 635.134Z" fill="#0A231E"/>
<path d="M490.702 635.134H483.35C483.399 633.363 483.423 631.519 483.447 629.59C483.472 627.661 483.496 625.683 483.52 623.669C483.544 621.655 483.557 619.484 483.557 617.166V602.013C483.557 599.672 483.557 597.488 483.52 595.438C483.496 593.399 483.472 591.434 483.447 589.553C483.423 587.673 483.387 585.841 483.35 584.07H490.702C490.654 585.792 490.618 587.612 490.605 589.517C490.581 591.422 490.557 593.387 490.533 595.401C490.508 597.427 490.496 599.599 490.496 601.94V617.094C490.496 619.411 490.496 621.583 490.533 623.633C490.557 625.671 490.581 627.649 490.605 629.554C490.63 631.458 490.666 633.327 490.702 635.134Z" fill="#0A231E"/>
<path d="M229.785 585.295H250.726C253.492 585.295 255.931 585.586 258.042 586.156C260.153 586.727 261.936 587.6 263.404 588.777C264.872 589.942 266.013 591.422 266.825 593.217C267.638 595.001 268.039 597.136 268.039 599.599C268.039 601.819 267.699 603.772 267.02 605.471C266.34 607.169 265.321 608.601 263.95 609.754C262.591 610.906 260.868 611.792 258.806 612.435C256.743 613.078 254.281 613.418 251.429 613.454L256.282 611.925V614.036L251.429 612.762C254.074 612.981 256.246 613.223 257.981 613.503C259.704 613.782 261.135 614.243 262.288 614.91C263.441 615.565 264.411 616.548 265.2 617.846C265.988 619.144 266.741 620.903 267.468 623.111C268.063 624.689 268.572 626.108 268.997 627.394C269.422 628.668 269.822 629.808 270.174 630.815C270.538 631.822 270.865 632.611 271.169 633.205H265.103C264.629 633.205 264.278 633.108 264.023 632.914C263.768 632.72 263.538 632.393 263.356 631.919C263.161 631.446 262.943 630.73 262.688 629.748C261.96 627.37 261.305 625.332 260.711 623.645C260.116 621.959 259.534 620.564 258.952 619.46C258.381 618.355 257.714 617.482 256.974 616.839C256.234 616.196 255.336 615.759 254.293 615.492C253.249 615.237 251.988 615.104 250.495 615.104H247.778C246.953 615.104 246.103 615.104 245.254 615.068C244.405 615.031 243.495 615.031 242.537 615.031C241.578 615.031 240.559 615.031 239.467 615.068C238.375 615.104 237.138 615.104 235.73 615.104L235.67 609.863C236.058 609.863 236.725 609.887 237.684 609.924C238.642 609.972 239.795 609.996 241.129 610.021C242.464 610.045 243.944 610.045 245.533 610.021C247.123 609.996 248.821 609.984 250.605 609.984C253.031 609.984 255.057 609.596 256.707 608.807C258.345 608.019 259.57 606.89 260.383 605.422C261.196 603.954 261.596 602.28 261.596 600.412C261.596 598.543 261.378 597.051 260.929 595.814C260.48 594.576 259.752 593.581 258.757 592.817C257.763 592.053 256.501 591.482 254.984 591.131C253.468 590.767 251.648 590.585 249.525 590.585H247.486C246.722 590.585 245.849 590.585 244.866 590.621C243.883 590.645 242.9 590.67 241.893 590.718C240.887 590.767 239.94 590.791 239.055 590.815C238.157 590.839 237.32 590.852 236.531 590.852C235.743 590.852 235.136 590.876 234.711 590.912L236.313 587.916C236.264 592.38 236.24 596.809 236.216 601.2C236.191 605.592 236.216 609.79 236.252 613.818C236.3 617.846 236.349 621.498 236.41 624.798C236.47 628.098 236.616 630.9 236.822 633.193H229.798C229.834 630.852 229.858 628.498 229.858 626.132C229.858 623.766 229.883 621.219 229.919 618.465C229.967 615.723 229.98 612.641 229.98 609.232C229.98 604.173 229.98 599.769 229.943 596.044C229.907 592.32 229.87 588.728 229.785 585.283V585.295Z" fill="#0A231E"/>
<path d="M303.817 585.283H341.039V591.094C338.782 591.058 336.55 591.021 334.329 590.997C332.109 590.973 329.998 590.961 327.972 590.936C325.946 590.912 324.09 590.9 322.379 590.9C319.904 590.9 317.053 590.9 313.789 590.936C310.538 590.961 307.202 591.009 303.792 591.094C303.829 590.67 303.853 590.184 303.853 589.663V586.63C303.853 586.12 303.829 585.671 303.792 585.283H303.817ZM319.334 588.28H325.655V598.143C325.655 601.443 325.655 604.634 325.691 607.728C325.715 610.809 325.728 613.745 325.728 616.511V624.009C325.728 626.241 325.728 628.134 325.764 629.687C325.788 631.24 325.812 632.405 325.861 633.169C325.521 633.169 325.145 633.169 324.745 633.133C324.344 633.108 323.932 633.096 323.532 633.096H321.421C321.02 633.096 320.62 633.096 320.244 633.133C319.856 633.157 319.431 633.169 318.97 633.169C319.055 632.441 319.103 631.313 319.128 629.748C319.152 628.195 319.164 626.29 319.188 624.033C319.213 621.777 319.225 619.277 319.225 616.536C319.225 613.794 319.249 610.87 319.285 607.752C319.322 604.634 319.346 601.431 319.346 598.107V588.28H319.334Z" fill="#0A231E"/>
<path d="M196.519 633.169H160.631C160.753 631.216 160.838 629.02 160.85 626.593C160.862 624.167 160.886 621.522 160.886 618.647V595.498C160.886 593.46 160.886 591.58 160.85 589.881C160.814 588.182 160.801 586.642 160.753 585.283H196.507V591.034C194.335 590.997 192.151 590.961 189.955 590.936C187.759 590.912 185.588 590.9 183.416 590.876C181.244 590.852 179.133 590.839 177.095 590.839H165.982L167.329 587.078V631.264L165.982 627.43H183.537C185.66 627.43 187.82 627.406 190.016 627.37C192.212 627.321 194.371 627.285 196.495 627.236V633.169H196.519ZM165.861 611.658V606.49H184.532C186.558 606.49 188.524 606.49 190.441 606.454C192.357 606.417 194.165 606.417 195.864 606.417C195.864 606.757 195.864 607.279 195.827 607.982C195.803 608.686 195.791 609.378 195.791 610.057V611.913C194.129 611.865 192.345 611.84 190.428 611.816C188.512 611.792 186.546 611.78 184.52 611.78C182.494 611.78 180.443 611.78 178.357 611.743C176.27 611.719 174.171 611.707 172.072 611.683C169.961 611.658 167.887 611.646 165.848 611.646L165.861 611.658Z" fill="#0A231E"/>
<path d="M559.274 633.169H523.387C523.508 631.216 523.593 629.02 523.605 626.593C523.617 624.167 523.642 621.522 523.642 618.647V595.498C523.642 593.46 523.642 591.58 523.605 589.881C523.569 588.182 523.557 586.642 523.508 585.283H559.262V591.034C557.09 590.997 554.907 590.961 552.711 590.936C550.515 590.912 548.343 590.9 546.171 590.876C544 590.852 541.889 590.839 539.85 590.839H528.737L530.084 587.078V631.264L528.737 627.43H546.293C548.416 627.43 550.575 627.406 552.771 627.37C554.967 627.321 557.127 627.285 559.25 627.236V633.169H559.274ZM528.616 611.658V606.49H547.287C549.314 606.49 551.279 606.49 553.196 606.454C555.113 606.417 556.92 606.417 558.619 606.417C558.619 606.757 558.619 607.279 558.583 607.982C558.558 608.686 558.546 609.378 558.546 610.057V611.913C556.884 611.865 555.101 611.84 553.184 611.816C551.267 611.792 549.301 611.78 547.275 611.78C545.249 611.78 543.199 611.78 541.112 611.743C539.025 611.719 536.926 611.707 534.828 611.683C532.717 611.658 530.642 611.646 528.604 611.646L528.616 611.658Z" fill="#0A231E"/>
<path d="M610.036 633.181H592.541C592.626 631.009 592.674 628.729 592.699 626.351C592.723 623.973 592.735 621.364 592.735 618.562V602.025C592.735 599.732 592.735 597.573 592.699 595.571C592.662 593.569 592.65 591.713 592.638 589.978C592.626 588.243 592.589 586.69 592.541 585.283H610.169C613.275 585.283 616.065 585.562 618.528 586.108C620.991 586.666 623.163 587.503 625.007 588.631C626.851 589.76 628.416 591.24 629.666 593.072C630.915 594.904 631.849 597.136 632.444 599.781C633.038 602.426 633.342 605.398 633.342 608.722C633.342 612.047 633.051 615.092 632.48 617.761C631.91 620.418 631 622.723 629.763 624.652C628.525 626.581 626.984 628.183 625.128 629.444C623.272 630.706 621.088 631.64 618.589 632.259C616.078 632.878 613.226 633.181 610.036 633.181ZM599.432 630.888L597.321 627.188C598.559 627.273 599.675 627.333 600.67 627.382C601.664 627.43 602.647 627.455 603.605 627.479C604.564 627.503 605.547 627.515 606.542 627.515H609.829C612.086 627.515 614.124 627.297 615.956 626.848C617.788 626.399 619.39 625.744 620.773 624.871C622.156 623.997 623.296 622.832 624.194 621.352C625.092 619.884 625.759 618.125 626.208 616.087C626.657 614.048 626.875 611.634 626.875 608.868C626.875 606.272 626.657 603.967 626.208 601.94C625.759 599.914 625.08 598.204 624.17 596.796C623.26 595.389 622.132 594.273 620.821 593.448C619.499 592.623 617.934 592.004 616.126 591.592C614.318 591.191 612.28 590.985 610.023 590.985C607.767 590.985 605.656 591.009 603.569 591.046C601.482 591.094 599.529 591.155 597.697 591.24L599.481 587.661C599.432 588.983 599.408 590.5 599.383 592.223C599.359 593.945 599.335 595.753 599.323 597.646C599.299 599.538 599.286 601.492 599.286 603.493V622.941C599.286 624.579 599.311 626.035 599.347 627.321C599.383 628.607 599.408 629.796 599.408 630.9L599.432 630.888Z" fill="#0A231E"/>
<path d="M421.221 633.157H414.196C414.245 630.985 414.269 628.704 414.293 626.326C414.318 623.948 414.342 621.34 414.39 618.537C414.427 615.723 414.451 612.617 414.451 609.22V602.074C414.451 599.866 414.427 597.779 414.39 595.814C414.342 593.86 414.318 592.016 414.293 590.293C414.269 588.571 414.245 586.896 414.196 585.283H450.023C449.974 585.671 449.95 586.108 449.926 586.593C449.902 587.078 449.889 587.539 449.889 587.964C449.889 588.522 449.889 589.08 449.926 589.65C449.95 590.221 449.962 590.73 449.962 591.155C446.213 591.106 442.513 591.082 438.849 591.058C435.185 591.034 431.679 591.021 428.318 591.021H419.061L420.918 586.812C420.869 587.576 420.857 588.619 420.857 589.942V613.187C420.857 614.934 420.857 616.718 420.893 618.55C420.918 620.382 420.93 622.189 420.954 623.973C420.978 625.756 421.015 627.443 421.087 629.02C421.16 630.597 421.209 631.98 421.245 633.169L421.221 633.157ZM419.874 615.092V609.729C425.067 609.729 430.199 609.729 435.258 609.693C440.317 609.669 445.097 609.644 449.562 609.596C449.513 610.021 449.489 610.457 449.465 610.906C449.441 611.355 449.428 611.84 449.428 612.374V615.092C446.529 615.043 443.447 615.031 440.171 615.031C436.896 615.031 433.547 615.031 430.15 615.068C426.741 615.092 423.32 615.104 419.874 615.104V615.092Z" fill="#0A231E"/>
</svg>
