<svg width="726" height="810" viewBox="0 0 726 810" fill="none" xmlns="http://www.w3.org/2000/svg">
<path d="M724.455 564.655V245.357C724.455 214.735 708.113 186.443 681.604 171.132L405.085 11.4832C378.564 -3.82774 345.891 -3.82774 319.37 11.4832L42.8512 171.12C16.3301 186.431 0 214.723 0 245.345V564.643C0 595.265 16.3301 623.557 42.8512 638.868L319.37 798.517C345.891 813.828 378.564 813.828 405.085 798.517L681.604 638.868C708.125 623.557 724.455 595.265 724.455 564.643V564.655Z" fill="#F7FFF7"/>
<path d="M669.156 493.766H55.2869C37.6708 493.766 23.3304 479.425 23.3304 461.809V340.899C23.3304 323.283 37.6708 308.942 55.2869 308.942H669.144C686.76 308.942 701.101 323.283 701.101 340.899V461.809C701.101 479.425 686.76 493.766 669.144 493.766H669.156ZM55.2869 315.13C41.08 315.13 29.5179 326.692 29.5179 340.899V461.809C29.5179 476.016 41.08 487.578 55.2869 487.578H669.144C683.351 487.578 694.913 476.016 694.913 461.809V340.899C694.913 326.692 683.351 315.13 669.144 315.13H55.2869Z" fill="#6F9576"/>
<path d="M340.032 132.212C341.512 132.212 342.713 131.549 342.713 130.732C342.713 129.914 341.512 129.251 340.032 129.251C338.551 129.251 337.35 129.914 337.35 130.732C337.35 131.549 338.551 132.212 340.032 132.212Z" fill="#6F9576"/>
<path d="M384.327 132.212C385.807 132.212 387.008 131.549 387.008 130.732C387.008 129.914 385.807 129.251 384.327 129.251C382.846 129.251 381.645 129.914 381.645 130.732C381.645 131.549 382.846 132.212 384.327 132.212Z" fill="#6F9576"/>
<path d="M306.741 107.256C299.352 108.178 291.903 108.857 284.466 108.432C276.434 107.971 268.366 106.164 261.366 102.196C272.103 103.737 283.265 102.233 293.225 97.9016C285.4 98.2777 277.417 97.7438 270.065 95.0505C262.713 92.3571 256.003 87.3222 252.449 80.3461C263.792 85.284 276.495 86.3031 288.845 85.5752C298.042 85.0292 307.42 83.4763 315.427 78.9145C318.752 77.0219 321.797 74.6318 325.327 73.1638C328.858 71.6958 333.104 71.2469 336.356 73.2609C338.357 74.5105 339.74 76.5245 340.857 78.5991C341.196 79.23 341.572 79.9094 342.215 80.237C342.749 80.5039 343.38 80.4675 343.975 80.3947C346.073 80.1642 347.966 79.4605 349.98 78.9388C350.829 80.9892 350.332 84.5075 350.417 86.8005C350.526 89.688 350.623 92.5634 350.732 95.4508L351.036 103.749C351.072 104.586 350.866 111.878 351.339 112.048C346.741 110.349 341.779 112.715 337.168 114.353C330.799 116.634 324.017 117.58 317.271 118.102C307.202 118.89 296.877 118.757 287.293 115.578C297.993 113.322 308.779 111.053 318.836 106.734C315.439 106.079 311.945 106.564 308.524 107.001C307.93 107.074 307.335 107.159 306.741 107.231V107.256Z" fill="#6F9576"/>
<path d="M417.69 107.256C425.079 108.178 432.528 108.857 439.965 108.432C447.997 107.971 456.065 106.164 463.065 102.196C452.328 103.737 441.166 102.233 431.206 97.9016C439.031 98.2777 447.014 97.7438 454.366 95.0505C461.719 92.3571 468.428 87.3222 471.982 80.3461C460.639 85.284 447.936 86.3031 435.586 85.5752C426.389 85.0292 417.011 83.4763 409.004 78.9145C405.679 77.0219 402.634 74.6318 399.104 73.1638C395.573 71.6958 391.327 71.2469 388.076 73.2609C386.074 74.5105 384.691 76.5245 383.574 78.5991C383.235 79.23 382.859 79.9094 382.216 80.237C381.682 80.5039 381.051 80.4675 380.456 80.3947C378.358 80.1642 376.465 79.4605 374.451 78.9388C373.602 80.9892 374.099 84.5075 374.014 86.8005C373.905 89.688 373.808 92.5634 373.699 95.4508C373.59 98.3383 373.493 100.983 373.395 103.749C373.359 104.586 373.565 111.878 373.092 112.048C377.69 110.349 382.652 112.715 387.263 114.353C393.632 116.634 400.414 117.58 407.16 118.102C417.229 118.89 427.554 118.757 437.139 115.578C426.438 113.322 415.652 111.053 405.595 106.734C408.992 106.079 412.486 106.564 415.907 107.001C416.501 107.074 417.096 107.159 417.69 107.231V107.256Z" fill="#6F9576"/>
<path d="M362.331 68.7114C370.552 68.7114 377.217 62.0465 377.217 53.825C377.217 45.6035 370.552 38.9387 362.331 38.9387C354.109 38.9387 347.444 45.6035 347.444 53.825C347.444 62.0465 354.109 68.7114 362.331 68.7114Z" fill="#6F9576"/>
<path d="M351.036 227.39L351.655 228.24L351.036 227.28V227.39Z" fill="#6F9576"/>
<path d="M373.639 227.39V227.28L373.007 228.24L373.639 227.39Z" fill="#6F9576"/>
<path d="M358.303 163.101C358.97 162.858 359.662 162.615 360.353 162.397C361.057 162.154 361.748 161.948 362.416 161.742C362.61 161.681 362.804 161.62 362.986 161.56H363.01L363.034 161.548C363.229 161.487 363.423 161.426 363.629 161.366C364.272 161.172 364.951 160.977 365.607 160.783L366.128 160.638L369.113 71.9265L369.173 70.2643C367.123 71.332 364.794 71.9265 362.331 71.9265C359.734 71.9265 357.296 71.2592 355.173 70.0945L355.233 71.9265L358.303 163.113V163.101Z" fill="#6F9576"/>
<path d="M353.159 162.931C352.77 162.81 352.37 162.7 351.982 162.591C351.594 162.47 351.205 162.361 350.829 162.239C350.441 162.13 350.077 162.009 349.689 161.887C349.507 161.827 349.313 161.766 349.131 161.705C348.949 161.645 348.767 161.584 348.573 161.523C348.209 161.402 347.845 161.281 347.481 161.16C347.129 161.038 346.765 160.905 346.413 160.783C346.049 160.662 345.709 160.516 345.37 160.395C345.2 160.335 345.03 160.262 344.86 160.201L344.605 160.104L344.375 160.007C344.059 159.873 343.744 159.74 343.441 159.619C343.295 159.558 343.101 159.473 342.931 159.388C342.749 159.303 342.567 159.218 342.385 159.146C342.203 159.061 342.021 158.976 341.851 158.903L341.803 158.879L341.706 158.818L341.487 158.709C341.196 158.563 340.905 158.405 340.626 158.248C339.473 157.617 338.382 156.901 337.362 156.137C336.331 155.372 335.385 154.547 334.523 153.686C332.801 151.975 331.454 150.131 330.617 148.36C330.192 147.474 329.913 146.613 329.743 145.8C329.574 144.987 329.525 144.211 329.573 143.483C329.622 142.755 329.768 142.051 329.998 141.384C330.035 141.299 330.059 141.214 330.083 141.129C330.119 141.044 330.156 140.959 330.18 140.874C330.216 140.777 330.241 140.741 330.265 140.68L330.301 140.595C330.301 140.595 330.301 140.595 330.301 140.571L330.326 140.522L330.374 140.425L330.459 140.231L330.508 140.134C330.544 140.074 330.593 140.001 330.629 139.928C330.702 139.782 330.799 139.637 330.884 139.503C331.236 138.945 331.636 138.448 332.097 137.987C332.546 137.526 333.055 137.113 333.589 136.737C334.657 135.985 335.846 135.403 337.011 134.93C337.593 134.699 338.163 134.505 338.721 134.323C339.279 134.153 339.813 133.995 340.311 133.874C340.565 133.813 340.808 133.753 341.051 133.692C341.293 133.643 341.524 133.583 341.742 133.546C344.12 133.11 346.607 133.825 348.888 132.806C352.309 131.266 353.826 127.238 352.285 123.828C351.436 121.948 349.762 120.577 347.76 120.092C345.527 119.558 343.829 120.322 341.754 120.953C339.473 121.645 337.132 122.191 334.875 122.991C334.087 123.27 333.25 123.598 332.364 123.986C331.478 124.374 330.556 124.835 329.586 125.381C328.627 125.927 327.632 126.57 326.625 127.335C325.618 128.099 324.611 128.997 323.653 130.052C322.694 131.108 321.785 132.309 321.008 133.668C320.826 134.007 320.62 134.347 320.462 134.711C320.377 134.881 320.292 135.063 320.207 135.233L320.135 135.403L320.11 135.451L320.074 135.548L319.989 135.742L319.953 135.839L319.904 135.961C319.868 136.058 319.819 136.167 319.783 136.264C319.698 136.47 319.613 136.689 319.552 136.871C319.492 137.065 319.419 137.247 319.358 137.441C319.297 137.635 319.237 137.829 319.176 138.023C318.715 139.588 318.424 141.299 318.375 143.046C318.327 144.793 318.533 146.589 318.958 148.311C319.382 150.034 320.025 151.696 320.826 153.237C321.627 154.79 322.573 156.246 323.641 157.605C324.708 158.964 325.873 160.225 327.135 161.402C328.397 162.579 329.743 163.683 331.163 164.69C331.879 165.2 332.619 165.685 333.371 166.146C334.135 166.607 334.912 167.056 335.712 167.48C336.113 167.687 336.525 167.893 336.938 168.099L337.253 168.245L337.411 168.318C337.411 168.318 337.532 168.378 337.569 168.39L337.629 168.415C337.811 168.5 337.993 168.572 338.175 168.645C338.357 168.73 338.539 168.803 338.721 168.888C338.903 168.973 339.073 169.045 339.291 169.13C339.716 169.3 340.141 169.47 340.565 169.64L340.893 169.761L341.196 169.87C341.402 169.943 341.609 170.016 341.815 170.089C342.227 170.234 342.64 170.392 343.052 170.526C343.465 170.659 343.877 170.805 344.29 170.938C344.399 170.975 344.508 170.999 344.605 171.035C345.091 170.611 345.576 170.198 346.073 169.81C346.959 169.106 347.869 168.439 348.779 167.82C349.725 167.189 350.684 166.595 351.654 166.049H351.679L351.703 166.025L352.382 165.661L352.419 165.636L352.455 165.612L353.147 165.26H353.171L353.195 165.236C353.377 165.139 353.559 165.054 353.741 164.969C353.802 164.933 353.874 164.908 353.947 164.872L354.129 164.787H354.166L354.202 164.751L354.396 164.666L354.784 164.496L354.978 164.411L355.076 164.375H355.1L355.136 164.35L355.209 164.314L355.512 164.193L355.876 164.035H355.913L355.949 163.998L356.289 163.865L356.362 163.841C355.306 163.537 354.251 163.234 353.195 162.931H353.159ZM343.441 123.331C345.054 122.894 346.522 123.101 346.692 123.78C346.874 124.459 345.709 125.357 344.096 125.794C342.482 126.231 341.014 126.024 340.844 125.345C340.662 124.666 341.827 123.768 343.441 123.331Z" fill="#6F9576"/>
<path d="M361.676 208.754C362.622 208.548 363.593 208.33 364.539 208.087L365.509 179.079C365.036 179.224 364.575 179.394 364.078 179.564C363.908 179.625 363.75 179.673 363.58 179.734L363.241 179.867L362.501 180.146L362.27 180.231H362.246L362.088 180.304L361.785 180.425H361.761L361.664 180.486L361.445 180.583L361.385 180.607L361.324 180.644L360.875 180.85L360.462 181.056L360.038 181.287C359.686 181.481 359.322 181.699 358.97 181.918L359.88 209.142L360.402 209.033L361.7 208.754H361.676Z" fill="#6F9576"/>
<path d="M406.359 143.034C406.322 141.287 406.019 139.576 405.558 138.011C405.497 137.817 405.437 137.623 405.376 137.429C405.315 137.235 405.243 137.053 405.182 136.858C405.121 136.676 405.036 136.458 404.951 136.252C404.915 136.155 404.867 136.046 404.83 135.948L404.782 135.827L404.745 135.73L404.66 135.536L404.624 135.439L404.6 135.39L404.527 135.233C404.442 135.051 404.357 134.869 404.272 134.699C404.102 134.347 403.908 133.995 403.726 133.655C402.962 132.297 402.04 131.083 401.081 130.04C400.123 128.985 399.104 128.087 398.109 127.322C397.102 126.558 396.107 125.915 395.149 125.369C394.19 124.823 393.256 124.362 392.37 123.974C390.271 123.04 387.918 122.397 385.661 121.754C382.592 120.868 379.304 118.988 376.077 120.31C373.298 121.45 371.563 124.362 371.891 127.347C372.109 129.3 373.189 131.096 374.815 132.212C376.962 133.68 379.219 133.146 381.657 133.352C383.732 133.534 385.795 134.141 387.724 134.917C388.876 135.378 390.077 135.973 391.145 136.725C391.679 137.101 392.176 137.514 392.637 137.975C393.086 138.436 393.499 138.933 393.85 139.491C393.935 139.637 394.032 139.77 394.105 139.916C394.142 139.989 394.19 140.061 394.227 140.134L394.275 140.219L394.36 140.413L394.409 140.51L394.433 140.559C394.433 140.559 394.433 140.583 394.445 140.583L394.481 140.668C394.506 140.729 394.53 140.765 394.566 140.862C394.603 140.947 394.627 141.032 394.663 141.117C394.7 141.202 394.724 141.287 394.748 141.372C394.979 142.051 395.124 142.743 395.173 143.471C395.221 144.198 395.173 144.975 395.003 145.788C394.833 146.601 394.554 147.462 394.129 148.348C393.292 150.119 391.946 151.963 390.223 153.674C389.361 154.523 388.403 155.348 387.384 156.124C386.353 156.889 385.261 157.617 384.12 158.235C383.829 158.393 383.55 158.539 383.259 158.697L383.041 158.806L382.956 158.854H382.944L382.895 158.879C382.713 158.963 382.531 159.048 382.361 159.121C382.179 159.206 381.997 159.291 381.827 159.364C381.645 159.449 381.451 159.534 381.306 159.594C380.99 159.728 380.687 159.861 380.371 159.983L380.141 160.08L379.886 160.177C379.716 160.237 379.546 160.31 379.365 160.371C379.025 160.504 378.673 160.638 378.321 160.759C377.969 160.88 377.605 161.014 377.253 161.135C376.889 161.256 376.526 161.378 376.162 161.499C375.98 161.56 375.798 161.62 375.603 161.681C375.421 161.742 375.227 161.802 375.045 161.863C374.669 161.984 374.293 162.106 373.917 162.215C373.529 162.336 373.153 162.445 372.765 162.567C372.376 162.688 371.976 162.797 371.588 162.906C369.974 163.367 368.348 163.828 366.71 164.302C366.504 164.362 366.298 164.423 366.092 164.484C365.461 164.666 364.818 164.86 364.187 165.054C363.326 165.321 362.476 165.588 361.603 165.879C360.741 166.158 359.856 166.473 358.982 166.789C358.545 166.959 358.097 167.128 357.66 167.298L357.332 167.42L356.968 167.577L356.665 167.699L356.592 167.735L356.495 167.771L356.301 167.856L355.913 168.026L355.719 168.111L355.537 168.196C355.306 168.305 355.064 168.414 354.833 168.536C354.603 168.657 354.372 168.766 354.141 168.888C353.911 169.009 353.693 169.13 353.462 169.252C352.564 169.749 351.691 170.295 350.841 170.865C350.162 171.314 349.507 171.787 348.864 172.285C348.694 172.418 348.536 172.539 348.366 172.673C347.566 173.304 346.801 173.971 346.049 174.663C343.065 177.441 340.444 180.656 338.406 184.381C337.387 186.237 336.513 188.214 335.882 190.325C335.239 192.436 334.839 194.669 334.754 196.974C334.718 198.126 334.754 199.303 334.912 200.468C335.057 201.633 335.3 202.797 335.64 203.938C335.7 204.132 335.761 204.314 335.822 204.508C335.834 204.557 335.858 204.605 335.87 204.641C335.931 204.823 335.992 205.018 336.064 205.2C336.137 205.382 336.21 205.576 336.271 205.758C336.295 205.794 336.307 205.843 336.319 205.879C336.392 206.061 336.465 206.243 336.55 206.437C337.132 207.784 337.86 209.07 338.673 210.247C339.328 211.193 340.044 212.079 340.808 212.904L341.378 213.51C341.572 213.716 341.779 213.898 341.973 214.093L342.276 214.384L342.579 214.663L342.883 214.93L343.04 215.063C343.101 215.124 343.016 215.039 343.15 215.16L343.356 215.027L343.404 214.99L343.453 214.966L343.78 214.76L343.829 214.736L344.448 214.359L344.484 214.335L344.521 214.311C346.365 213.255 348.366 212.346 350.611 211.557C351.921 211.108 353.28 210.696 354.821 210.283C354.251 210.065 353.693 209.834 353.171 209.591C352.843 209.446 352.54 209.276 352.225 209.118C352.067 209.033 351.921 208.948 351.776 208.864C351.63 208.779 351.472 208.694 351.339 208.597L350.914 208.33L350.854 208.293L350.817 208.269L350.732 208.208L350.562 208.087L350.393 207.978L350.356 207.954L350.296 207.905L350.162 207.796L349.628 207.371L349.325 207.104L349.119 206.934L348.925 206.753C348.803 206.631 348.67 206.522 348.549 206.389L348.185 206.025C347.723 205.527 347.287 205.005 346.911 204.472C346.717 204.193 346.522 203.914 346.353 203.622C346.353 203.622 346.353 203.622 346.353 203.61C346.243 203.416 346.134 203.222 346.025 203.04C346.001 202.979 345.964 202.931 345.94 202.882C345.904 202.81 345.867 202.737 345.831 202.652C345.807 202.591 345.77 202.53 345.746 202.47C345.71 202.397 345.685 202.324 345.649 202.251C345.625 202.191 345.588 202.13 345.564 202.057C345.54 201.985 345.503 201.912 345.479 201.839C345.455 201.778 345.43 201.705 345.406 201.645L345.333 201.426C345.309 201.354 345.285 201.281 345.261 201.22C345.236 201.147 345.212 201.087 345.2 201.014C345.176 200.929 345.151 200.844 345.127 200.771C345.115 200.711 345.091 200.65 345.079 200.589C345.042 200.456 345.006 200.31 344.982 200.177C344.969 200.116 344.957 200.068 344.945 200.007C344.921 199.922 344.909 199.825 344.897 199.74C344.897 199.679 344.872 199.619 344.86 199.558C344.848 199.473 344.836 199.388 344.824 199.303C344.824 199.243 344.812 199.182 344.8 199.109C344.8 199.024 344.775 198.939 344.775 198.842C344.775 198.782 344.763 198.721 344.751 198.648C344.751 198.551 344.739 198.466 344.727 198.369C344.727 198.308 344.727 198.248 344.727 198.187C344.727 198.09 344.727 197.981 344.727 197.884C344.727 197.835 344.727 197.787 344.727 197.726C344.727 197.568 344.727 197.423 344.727 197.265C344.751 195.943 344.994 194.572 345.394 193.201C345.807 191.83 346.389 190.471 347.105 189.149C347.457 188.493 347.857 187.838 348.282 187.207C348.706 186.577 349.155 185.958 349.64 185.351C350.599 184.15 351.654 183.022 352.783 181.978C353.923 180.947 355.124 179.989 356.374 179.164C357.005 178.751 357.636 178.363 358.279 178.011L358.764 177.756L359.249 177.514L359.734 177.283L359.856 177.223L359.965 177.174L360.183 177.077L360.293 177.028C360.293 177.028 360.329 177.016 360.353 177.004L360.426 176.968L360.729 176.846L360.887 176.786L360.96 176.762H360.996L361.239 176.664C361.615 176.519 361.991 176.385 362.367 176.24C363.131 175.973 363.884 175.706 364.672 175.463C365.449 175.209 366.237 174.978 367.026 174.748C367.827 174.517 368.615 174.287 369.428 174.068C370.229 173.85 371.042 173.619 371.855 173.413C372.68 173.195 373.492 172.964 374.305 172.746C374.718 172.637 375.118 172.527 375.543 172.406C375.955 172.285 376.368 172.175 376.78 172.054C377.193 171.933 377.605 171.812 378.018 171.69C378.224 171.63 378.43 171.569 378.637 171.508C378.843 171.448 379.049 171.375 379.255 171.314C379.668 171.181 380.08 171.059 380.493 170.926C380.905 170.78 381.318 170.647 381.73 170.513C382.143 170.38 382.555 170.222 382.968 170.077C383.174 170.004 383.38 169.931 383.587 169.858L383.89 169.749L384.205 169.628C384.63 169.458 385.055 169.288 385.479 169.118C385.71 169.033 385.867 168.948 386.062 168.876C386.243 168.791 386.425 168.718 386.607 168.633C386.789 168.548 386.971 168.475 387.153 168.402L387.214 168.378C387.214 168.378 387.372 168.305 387.384 168.305L387.542 168.233L387.857 168.087C388.27 167.893 388.682 167.687 389.082 167.468C389.883 167.044 390.66 166.607 391.424 166.134C392.176 165.673 392.916 165.187 393.632 164.678C395.064 163.659 396.41 162.567 397.66 161.39C398.91 160.213 400.086 158.951 401.154 157.592C402.21 156.234 403.168 154.778 403.969 153.225C404.77 151.672 405.412 150.022 405.837 148.299C406.262 146.576 406.468 144.793 406.419 143.034H406.359ZM383.526 125.345C383.344 126.024 381.888 126.231 380.274 125.794C378.661 125.357 377.496 124.459 377.678 123.78C377.86 123.1 379.316 122.894 380.93 123.331C382.543 123.768 383.708 124.665 383.526 125.345Z" fill="#6F9576"/>
<path d="M388.852 190.362C388.779 190.131 388.706 189.913 388.633 189.682V189.658C388.561 189.428 388.476 189.209 388.403 188.979C387.833 187.377 387.129 185.861 386.328 184.417C384.411 180.923 381.985 177.865 379.219 175.208L379.049 175.257C378.916 175.293 378.77 175.342 378.636 175.378C378.357 175.463 378.066 175.548 377.775 175.633L376.974 175.864L376.55 175.985C376.259 176.07 375.979 176.143 375.713 176.215C375.567 176.252 375.434 176.288 375.288 176.325L373.225 176.883L372.837 176.992C372.061 177.198 371.236 177.429 370.447 177.647C369.865 177.805 369.307 177.963 368.712 178.132C368.518 178.193 368.312 178.242 368.118 178.302C367.924 178.363 367.742 178.411 367.548 178.472C367.487 178.484 367.426 178.508 367.366 178.521C367.717 178.727 368.069 178.945 368.409 179.176C369.659 180.001 370.86 180.959 372 181.99C373.128 183.034 374.184 184.162 375.142 185.363C375.616 185.97 376.077 186.589 376.501 187.219C376.926 187.85 377.326 188.493 377.678 189.161C378.163 190.058 378.588 190.98 378.94 191.915C379 192.085 379.073 192.254 379.122 192.436C379.146 192.497 379.158 192.546 379.182 192.606C379.207 192.667 379.219 192.728 379.243 192.788C379.292 192.934 379.328 193.067 379.377 193.213C379.777 194.584 380.02 195.955 380.044 197.277C380.117 199.934 379.352 202.348 377.836 204.484C377.447 205.018 377.023 205.539 376.562 206.037L376.198 206.401C376.077 206.522 375.943 206.643 375.822 206.765L375.628 206.947L375.421 207.116L375.118 207.383L374.584 207.808L374.451 207.917L374.39 207.966L374.354 207.99L374.184 208.099L374.014 208.22L373.929 208.281L373.893 208.305L373.844 208.342L373.42 208.609C373.286 208.706 373.128 208.791 372.983 208.876C372.837 208.961 372.692 209.045 372.534 209.13C372.218 209.288 371.915 209.458 371.575 209.604C370.932 209.919 370.241 210.186 369.537 210.453L368.991 210.647C368.906 210.683 368.809 210.708 368.724 210.744L368.445 210.829L367.887 211.011L367.317 211.181C367.099 211.241 366.892 211.302 366.674 211.363C366.613 211.375 366.553 211.399 366.492 211.411C366.334 211.46 366.164 211.496 366.007 211.545C365.946 211.557 365.885 211.581 365.813 211.593C365.643 211.642 365.461 211.678 365.291 211.727C365.242 211.727 365.194 211.751 365.145 211.763C364.296 211.969 363.423 212.163 362.537 212.358C361.676 212.54 360.826 212.722 359.977 212.916C359.116 213.098 358.23 213.304 357.332 213.51C355.549 213.935 353.717 214.444 351.873 215.075C350.041 215.718 348.197 216.519 346.413 217.538C346.413 217.538 346.389 217.538 346.389 217.55C346.17 217.684 345.94 217.817 345.722 217.951L345.394 218.157L345.018 218.399C344.836 218.509 344.654 218.63 344.472 218.739C344.217 218.909 343.975 219.079 343.732 219.273L343.55 219.419C343.55 219.419 343.441 219.503 343.392 219.552C343.295 219.637 343.186 219.734 343.089 219.831L342.786 220.11C342.689 220.207 342.591 220.304 342.494 220.401C342.3 220.595 342.106 220.79 341.924 220.996C341.742 221.202 341.56 221.408 341.378 221.614C340.675 222.464 340.032 223.362 339.486 224.296C338.928 225.23 338.466 226.213 338.09 227.207L337.957 227.584L337.884 227.766L337.823 227.96C337.739 228.214 337.666 228.457 337.593 228.712C337.532 228.967 337.459 229.221 337.399 229.476C337.338 229.731 337.29 229.986 337.229 230.241C337.023 231.248 336.901 232.254 336.865 233.249C336.829 234.244 336.853 235.215 336.938 236.161C337.023 237.107 337.18 238.029 337.362 238.927C337.557 239.825 337.811 240.686 338.078 241.524C338.369 242.361 338.685 243.161 339.037 243.938C339.122 244.132 339.219 244.326 339.304 244.508C339.401 244.702 339.486 244.884 339.583 245.078C339.68 245.26 339.777 245.442 339.874 245.636L339.91 245.709C339.91 245.709 339.91 245.697 339.983 245.843L340.056 245.964L340.189 246.195C340.286 246.352 340.371 246.51 340.468 246.656C340.565 246.813 340.638 246.959 340.759 247.141C340.978 247.493 341.196 247.844 341.415 248.184C342.288 249.494 343.198 250.696 344.156 251.824C345.115 252.94 346.11 253.971 347.117 254.942C347.287 255.1 347.456 255.257 347.626 255.415C347.626 255.415 347.626 255.415 347.638 255.415C347.808 255.573 347.978 255.73 348.16 255.888C348.318 256.034 348.476 256.167 348.633 256.301C349.143 256.75 349.652 257.162 350.162 257.575C351.193 258.387 352.2 259.14 353.219 259.831C353.717 260.183 354.226 260.511 354.724 260.826C354.966 260.984 355.221 261.141 355.476 261.287C355.719 261.445 355.961 261.59 356.216 261.736C357.466 262.488 358.691 263.155 359.868 263.762C358.982 264.332 358.133 264.866 357.32 265.351C356.058 266.104 354.894 266.747 353.862 267.293L349.082 269.404C348.985 269.44 348.888 269.476 348.815 269.525C348.597 269.634 348.463 269.768 348.463 269.937C348.463 270.095 348.609 270.119 348.815 270.095C349.009 270.059 349.276 269.962 349.555 269.84C350.672 269.464 352.783 268.736 354.251 268.227C354.251 268.227 354.251 268.227 354.263 268.227C355.379 267.851 356.653 267.402 358.048 266.856C359.213 266.395 360.474 265.885 361.809 265.279L362.246 278.309L362.695 265.133C364.138 265.788 365.509 266.358 366.759 266.844C367.924 267.305 369.003 267.693 369.986 268.02L370.12 268.069C370.217 268.105 370.314 268.13 370.411 268.166L374.669 269.61C375.349 269.95 376.04 270.313 376.343 269.937C376.343 269.937 376.246 269.889 376.077 269.816L369.707 266.613C369.016 266.225 368.275 265.8 367.487 265.339C366.674 264.854 365.825 264.332 364.939 263.75C366.116 263.143 367.341 262.476 368.591 261.724C368.834 261.578 369.076 261.421 369.331 261.275C369.574 261.117 369.828 260.972 370.083 260.814C370.581 260.486 371.09 260.171 371.588 259.819C372.607 259.14 373.614 258.375 374.645 257.562C375.154 257.15 375.664 256.737 376.174 256.289C376.683 255.852 377.181 255.379 377.69 254.905C378.697 253.935 379.692 252.916 380.65 251.787C381.609 250.659 382.519 249.458 383.392 248.148C383.611 247.796 383.829 247.456 384.047 247.104C384.169 246.922 384.242 246.777 384.339 246.619C384.436 246.461 384.521 246.304 384.618 246.158L384.751 245.928L384.824 245.806C384.897 245.661 384.86 245.721 384.897 245.673L384.933 245.6C385.03 245.418 385.127 245.236 385.224 245.042C385.321 244.86 385.406 244.666 385.503 244.472C385.588 244.278 385.685 244.096 385.77 243.901C386.122 243.125 386.438 242.324 386.729 241.487C387.008 240.65 387.25 239.789 387.445 238.891C387.639 237.993 387.784 237.071 387.869 236.125C387.954 235.178 387.978 234.208 387.942 233.213C387.893 232.218 387.772 231.211 387.578 230.204C387.517 229.949 387.481 229.695 387.408 229.44C387.347 229.185 387.275 228.93 387.214 228.675C387.141 228.421 387.056 228.178 386.983 227.923L386.923 227.729L386.85 227.547L386.717 227.171C386.34 226.176 385.879 225.194 385.321 224.259C384.763 223.325 384.132 222.427 383.429 221.578C383.247 221.372 383.065 221.166 382.883 220.959C382.701 220.753 382.507 220.559 382.313 220.365C382.215 220.268 382.118 220.171 382.021 220.074L381.718 219.795C381.718 219.795 381.718 219.795 381.706 219.783H381.694L381.609 219.843L380.917 220.292C380.638 220.486 380.371 220.632 380.141 220.765L380.044 220.826V220.838C379.971 220.874 379.91 220.911 379.838 220.959C379.656 221.069 379.449 221.19 379.231 221.311H379.219L379.207 221.335C379.11 221.384 379 221.445 378.903 221.493C378.527 221.699 378.09 221.93 377.629 222.136C376.538 222.682 375.47 223.107 374.487 223.483H374.451L374.414 223.507L373.699 223.762C373.662 223.774 373.626 223.786 373.602 223.798C373.505 223.835 373.407 223.871 373.286 223.908L372.934 224.029L372.218 224.259H372.182L372.146 224.284L371.442 224.502L371.09 224.611H371.054L371.017 224.635L370.666 224.732L369.962 224.927H369.938L369.913 224.939H369.853C371.09 225.424 372.231 225.946 373.25 226.54C373.383 226.625 373.517 226.71 373.65 226.795L373.856 226.916L373.808 226.88C373.808 226.88 373.905 226.941 373.893 226.941C373.893 226.941 373.893 226.941 373.856 226.916H373.868L374.002 227.001L374.257 227.183L374.378 227.28L374.439 227.329L374.487 227.365C374.572 227.45 374.657 227.523 374.742 227.584C374.766 227.596 374.791 227.62 374.815 227.632C374.839 227.644 374.863 227.669 374.9 227.693C374.96 227.729 375.009 227.778 375.07 227.814L375.252 227.923C375.252 227.923 375.361 228.008 375.421 228.045C375.531 228.13 375.652 228.202 375.761 228.287C375.87 228.372 375.979 228.457 376.077 228.542C376.489 228.894 376.877 229.27 377.229 229.682C377.581 230.083 377.884 230.532 378.163 230.993L378.273 231.163L378.321 231.248L378.37 231.332C378.43 231.454 378.491 231.575 378.564 231.696C378.624 231.818 378.673 231.951 378.734 232.073C378.794 232.194 378.831 232.327 378.891 232.461C379.085 232.982 379.255 233.516 379.377 234.086C379.498 234.645 379.583 235.227 379.631 235.821C379.668 236.416 379.68 237.01 379.643 237.617C379.607 238.224 379.534 238.83 379.449 239.449C379.34 240.056 379.219 240.662 379.049 241.269C379.013 241.414 378.964 241.572 378.916 241.718C378.867 241.863 378.831 242.021 378.782 242.167C378.734 242.312 378.685 242.458 378.636 242.615L378.612 242.676L378.6 242.713C378.6 242.713 378.6 242.713 378.624 242.664L378.576 242.785L378.479 243.04C378.418 243.21 378.345 243.38 378.285 243.55C378.224 243.707 378.151 243.901 378.09 244.023C377.969 244.302 377.848 244.581 377.739 244.86C377.205 246.013 376.598 247.141 375.955 248.221C375.3 249.3 374.596 250.319 373.856 251.302C373.48 251.787 373.116 252.273 372.716 252.734C372.34 253.207 371.927 253.644 371.539 254.093C370.738 254.966 369.938 255.803 369.1 256.58C368.7 256.98 368.275 257.344 367.863 257.72C367.657 257.902 367.45 258.084 367.244 258.266C367.038 258.448 366.832 258.63 366.626 258.8C365.364 259.868 364.102 260.826 362.889 261.7L364.078 226.37L363.653 226.467L363.131 226.589C362.428 226.746 361.7 226.916 360.766 227.147C360.717 227.159 360.656 227.171 360.608 227.183L361.76 261.469C360.644 260.656 359.504 259.771 358.351 258.8C358.145 258.63 357.939 258.448 357.733 258.266C357.526 258.084 357.32 257.914 357.114 257.72C356.701 257.344 356.289 256.98 355.876 256.58C355.051 255.803 354.251 254.966 353.438 254.093C353.049 253.644 352.649 253.207 352.261 252.734C351.873 252.273 351.497 251.787 351.12 251.302C350.393 250.319 349.677 249.3 349.022 248.221C348.379 247.141 347.772 246.013 347.238 244.86C347.117 244.581 347.008 244.302 346.886 244.023C346.826 243.901 346.765 243.707 346.692 243.55C346.631 243.38 346.559 243.21 346.498 243.04L346.401 242.785L346.352 242.664L346.377 242.713L346.365 242.676L346.34 242.615C346.292 242.47 346.243 242.324 346.195 242.167C346.146 242.021 346.11 241.863 346.061 241.718C346.013 241.572 345.964 241.427 345.928 241.269C345.758 240.674 345.637 240.056 345.527 239.449C345.43 238.842 345.358 238.224 345.333 237.617C345.309 237.01 345.309 236.404 345.345 235.821C345.394 235.227 345.479 234.645 345.6 234.086C345.722 233.528 345.891 232.982 346.086 232.461C346.134 232.327 346.183 232.206 346.243 232.073C346.304 231.951 346.352 231.818 346.413 231.696C346.474 231.575 346.534 231.454 346.607 231.332L346.656 231.248L346.704 231.163L346.813 230.993C347.093 230.532 347.396 230.095 347.748 229.682C348.1 229.282 348.488 228.906 348.9 228.542C349.009 228.457 349.119 228.372 349.216 228.287C349.325 228.202 349.446 228.13 349.555 228.045C349.616 228.008 349.665 227.96 349.725 227.923L349.907 227.814C349.907 227.814 350.029 227.741 350.077 227.693C350.101 227.669 350.138 227.644 350.162 227.632C350.186 227.62 350.211 227.596 350.235 227.584C350.32 227.523 350.405 227.45 350.49 227.365C350.49 227.365 350.514 227.341 350.538 227.329L350.599 227.28L350.72 227.183L350.975 227.001L351.108 226.916H351.12C351.096 226.928 351.084 226.941 351.084 226.941L351.169 226.88L351.12 226.916L351.327 226.795C351.46 226.71 351.594 226.625 351.727 226.54C352.843 225.897 354.081 225.327 355.452 224.842C356.823 224.356 358.303 223.932 359.88 223.531C360.074 223.483 360.28 223.434 360.474 223.386C361.069 223.24 361.676 223.095 362.306 222.961C363.156 222.767 364.005 222.573 364.866 222.379C365.303 222.282 365.752 222.173 366.201 222.063C366.431 222.015 366.65 221.954 366.88 221.906C367.111 221.845 367.329 221.796 367.56 221.736C367.79 221.675 368.021 221.614 368.251 221.554L368.943 221.372L369.646 221.178L369.998 221.081L370.35 220.971L371.054 220.753L371.77 220.523L372.121 220.401C372.243 220.365 372.364 220.316 372.473 220.268L373.189 220.013C374.148 219.637 375.106 219.249 376.077 218.776C376.562 218.557 377.035 218.29 377.52 218.035C377.763 217.902 377.993 217.756 378.236 217.623C378.321 217.574 378.394 217.526 378.479 217.477C378.552 217.441 378.612 217.392 378.673 217.356C378.685 217.356 378.709 217.332 378.721 217.32C378.794 217.271 378.867 217.223 378.94 217.174L379.643 216.713L379.728 216.652L379.825 216.58L380.02 216.446L380.396 216.167L380.772 215.888L380.869 215.815L380.929 215.767L381.063 215.658L381.585 215.233L381.645 215.184C381.888 214.99 381.754 215.087 381.827 215.027L381.985 214.893L382.288 214.614L382.592 214.335L382.895 214.044C383.089 213.85 383.295 213.668 383.489 213.462L384.072 212.855C384.824 212.03 385.552 211.144 386.207 210.198C387.517 208.305 388.573 206.146 389.252 203.877C389.592 202.737 389.835 201.572 389.98 200.407C390.126 199.243 390.174 198.066 390.138 196.913C390.065 194.608 389.653 192.364 389.022 190.265L388.852 190.362Z" fill="#6F9576"/>
<path d="M90.9315 452.31H62.7118C62.9908 447.275 63.1486 442.155 63.1971 436.938C63.2456 431.722 63.2456 426.092 63.1971 420.038C63.1486 413.984 63.1243 407.275 63.1243 399.923C63.1243 388.846 63.1486 379.128 63.1971 370.793C63.2456 362.458 63.0758 354.706 62.7118 347.536H90.9315C90.8344 350.241 90.7495 353.468 90.6525 357.241C90.5554 361.015 90.4947 364.945 90.4462 369.046C90.3977 373.147 90.3734 377.199 90.3734 381.203V400.056L85.8966 387.9C89.8032 387.997 94.0252 388.094 98.5384 388.179C103.052 388.276 107.553 388.324 112.017 388.324C116.482 388.324 120.91 388.276 125.29 388.179C129.67 388.082 133.674 387.997 137.301 387.9L133.807 400.056V392.025C133.807 388.81 133.783 385.231 133.734 381.263C133.686 377.308 133.637 373.256 133.589 369.107C133.54 364.97 133.492 361.002 133.455 357.229C133.407 353.456 133.285 350.217 133.103 347.523H161.323C161.141 354.694 161.02 362.446 160.971 370.781C160.923 379.116 160.898 388.822 160.898 399.911V420.026C160.898 426.08 160.947 431.709 161.032 436.926C161.129 442.143 161.214 447.263 161.311 452.298H133.091C133.273 449.41 133.394 446.086 133.443 442.313C133.492 438.54 133.54 434.694 133.576 430.787C133.625 426.881 133.674 423.011 133.722 419.189C133.771 415.367 133.795 411.922 133.795 408.852V401.451L137.289 413.05C133.661 412.771 129.646 412.613 125.278 412.565C120.898 412.516 116.482 412.492 112.005 412.492C107.528 412.492 103.015 412.516 98.4535 412.565C93.8918 412.613 89.694 412.771 85.8845 413.05L90.3613 401.451V419.262C90.3613 423.035 90.3855 426.893 90.4341 430.86C90.4826 434.815 90.5554 438.637 90.6403 442.313C90.7374 445.989 90.8223 449.325 90.9194 452.298L90.9315 452.31Z" fill="#0A231E"/>
<path d="M240.68 452.31H213.019C213.116 448.585 213.176 444.764 213.225 440.857C213.273 436.951 213.322 432.898 213.358 428.701C213.407 424.515 213.431 420.062 213.431 415.355V384.406C213.431 379.65 213.407 375.185 213.358 370.999C213.31 366.814 213.261 362.786 213.225 358.916C213.176 355.058 213.104 351.26 213.019 347.536H240.68C240.68 351.163 240.656 354.912 240.608 358.782C240.559 362.652 240.51 366.68 240.462 370.866C240.413 375.052 240.389 379.528 240.389 384.272V415.282C240.389 420.038 240.413 424.479 240.462 428.628C240.51 432.777 240.559 436.805 240.608 440.712C240.656 444.618 240.68 448.488 240.68 452.31Z" fill="#0A231E"/>
<path d="M321.008 452.31H292.23C292.412 447.275 292.534 442.156 292.582 436.939C292.631 431.722 292.679 426.117 292.716 420.099C292.764 414.094 292.788 407.36 292.788 399.911C292.788 388.834 292.74 379.08 292.643 370.648C292.546 362.216 292.412 354.512 292.218 347.524H340.978C347.966 347.524 354.178 348.252 359.625 349.683C365.073 351.127 369.634 353.384 373.31 356.453C376.987 359.523 379.826 363.55 381.827 368.537C383.829 373.523 384.836 379.553 384.836 386.626C384.836 391.843 384.23 396.526 383.016 400.663C381.803 404.812 380.007 408.488 377.642 411.703C375.276 414.919 372.267 417.575 368.627 419.662C365 421.761 360.875 423.338 356.265 424.418C351.654 425.486 346.413 426.02 340.553 426.02H335.87C334.329 426.02 332.837 425.995 331.406 425.947C329.962 425.898 328.542 425.85 327.147 425.801C325.752 425.753 324.235 425.704 322.61 425.656C320.984 425.607 319.188 425.534 317.235 425.449L317.381 402.265C318.036 402.265 318.934 402.289 320.11 402.337C321.275 402.386 322.695 402.434 324.369 402.483C326.043 402.531 327.839 402.556 329.743 402.556H335.676C339.959 402.556 343.501 402.228 346.292 401.573C349.082 400.918 351.339 399.972 353.062 398.71C354.784 397.448 356.046 395.798 356.835 393.748C357.623 391.697 358.024 389.186 358.024 386.201C358.024 383.217 357.599 380.875 356.762 378.874C355.925 376.872 354.663 375.295 352.989 374.118C351.315 372.953 349.094 372.092 346.353 371.533C343.598 370.975 340.323 370.696 336.501 370.696H328.118C326.443 370.696 324.769 370.721 323.083 370.769C321.409 370.818 319.892 370.866 318.545 370.915C317.199 370.963 316.107 370.988 315.257 370.988L319.722 359.256V387.051C319.722 395.992 319.746 404.473 319.795 412.48C319.843 420.487 319.953 427.876 320.147 434.621C320.329 441.379 320.608 447.263 320.984 452.298L321.008 452.31Z" fill="#0A231E"/>
<path d="M527.488 452.31H496.332C496.15 450.733 495.628 448.489 494.791 445.601C493.954 442.714 492.995 439.268 491.928 435.264C490.86 431.261 489.671 426.978 488.361 422.416C487.051 417.855 485.655 413.123 484.175 408.234C482.683 403.344 481.239 398.552 479.844 393.845C478.449 389.137 477.09 384.746 475.792 380.645C474.397 377.017 473.256 373.729 472.371 370.793C471.485 367.857 470.721 365.249 470.065 362.968C469.41 360.687 468.804 358.758 468.246 357.169L473.28 360.663H465.455L470.769 357.035C470.114 358.71 469.447 360.663 468.743 362.907C468.039 365.152 467.202 367.748 466.232 370.733C465.249 373.717 464.157 377.211 462.944 381.215C461.549 385.971 459.983 391.151 458.261 396.793C456.538 402.434 454.815 408.039 453.092 413.632C451.37 419.225 449.78 424.527 448.336 429.562C446.893 434.585 445.607 439.135 444.491 443.187C443.374 447.239 442.537 450.284 441.979 452.334H413.056C414.633 448.513 416.319 444.097 418.091 439.062C419.862 434.039 421.742 428.628 423.744 422.853C425.746 417.078 427.772 411.121 429.823 404.97C431.873 398.819 433.899 392.813 435.901 386.954C437.903 381.082 439.747 375.549 441.421 370.332C443.095 365.115 444.539 360.529 445.752 356.574C446.966 352.619 447.985 349.61 448.822 347.56H490.872C491.709 349.792 492.753 352.874 494.015 356.781C495.276 360.687 496.756 365.188 498.479 370.26C500.202 375.331 502.046 380.803 503.999 386.675C505.953 392.547 508.027 398.528 510.211 404.63C512.395 410.733 514.518 416.69 516.568 422.513C518.619 428.337 520.572 433.784 522.44 438.856C524.297 443.927 525.983 448.428 527.475 452.334L527.488 452.31ZM436.677 411.509C438.825 411.606 441.239 411.655 443.945 411.655C446.65 411.655 449.513 411.703 452.534 411.801C455.555 411.898 458.54 411.946 461.476 411.946H469.095C471.521 411.946 474.13 411.922 476.92 411.873C479.711 411.825 482.598 411.776 485.583 411.728C488.567 411.679 491.406 411.631 494.099 411.582C496.805 411.534 499.268 411.509 501.5 411.509L502.483 431.491C499.692 431.491 496.805 431.467 493.82 431.418C490.836 431.37 487.9 431.346 485.025 431.346H453.311C450.326 431.346 447.378 431.37 444.442 431.418C441.506 431.467 438.788 431.491 436.265 431.491L436.689 411.509H436.677Z" fill="#0A231E"/>
<path d="M672.359 452.31H641.203C641.021 450.733 640.5 448.489 639.663 445.601C638.826 442.714 637.867 439.268 636.799 435.264C635.732 431.261 634.543 426.978 633.232 422.416C631.922 417.855 630.527 413.123 629.047 408.234C627.555 403.344 626.111 398.552 624.716 393.845C623.32 389.137 621.962 384.746 620.663 380.645C619.268 377.017 618.128 373.729 617.242 370.793C616.356 367.857 615.592 365.249 614.937 362.968C614.282 360.687 613.675 358.758 613.117 357.169L618.152 360.663H610.327L615.641 357.035C614.986 358.71 614.318 360.663 613.615 362.907C612.911 365.152 612.074 367.748 611.103 370.733C610.12 373.717 609.029 377.211 607.815 381.215C606.42 385.971 604.855 391.151 603.132 396.793C601.409 402.434 599.687 408.039 597.964 413.632C596.241 419.225 594.652 424.527 593.208 429.562C591.764 434.585 590.478 439.135 589.362 443.187C588.246 447.239 587.409 450.284 586.851 452.334H557.927C559.505 448.513 561.191 444.097 562.962 439.062C564.734 434.039 566.614 428.628 568.616 422.853C570.618 417.078 572.644 411.121 574.694 404.97C576.745 398.819 578.771 392.813 580.772 386.954C582.774 381.082 584.618 375.549 586.293 370.332C587.967 365.115 589.411 360.529 590.624 356.574C591.837 352.619 592.856 349.61 593.693 347.56H635.744C636.581 349.792 637.624 352.874 638.886 356.781C640.148 360.687 641.628 365.188 643.351 370.26C645.074 375.331 646.918 380.803 648.871 386.675C650.824 392.547 652.899 398.528 655.083 404.63C657.267 410.733 659.39 416.69 661.44 422.513C663.49 428.337 665.444 433.784 667.312 438.856C669.168 443.927 670.855 448.428 672.347 452.334L672.359 452.31ZM581.549 411.509C583.696 411.606 586.111 411.655 588.816 411.655C591.522 411.655 594.385 411.703 597.406 411.801C600.427 411.898 603.411 411.946 606.347 411.946H613.966C616.393 411.946 619.001 411.922 621.792 411.873C624.582 411.825 627.47 411.776 630.454 411.728C633.439 411.679 636.278 411.631 638.971 411.582C641.677 411.534 644.139 411.509 646.372 411.509L647.354 431.491C644.564 431.491 641.677 431.467 638.692 431.418C635.707 431.37 632.771 431.346 629.896 431.346H598.182C595.198 431.346 592.25 431.37 589.314 431.418C586.378 431.467 583.66 431.491 581.136 431.491L581.561 411.509H581.549Z" fill="#0A231E"/>
<path d="M121.663 545.207C121.663 545.025 121.663 544.855 121.699 544.697C121.723 544.539 121.735 544.357 121.735 544.151V543.702C121.735 540.475 121.177 537.842 120.061 535.804C118.945 533.766 117.246 532.262 114.953 531.315C112.66 530.357 109.882 529.884 106.618 529.884C104.714 529.884 102.882 530.114 101.135 530.563C99.3877 531.012 97.8347 531.74 96.4759 532.747C95.1171 533.742 93.9281 535.003 92.9333 536.52C91.9384 538.037 91.1498 539.893 90.5796 542.064C90.0094 544.248 89.7303 546.711 89.7303 549.489C89.7303 552.389 89.9973 554.961 90.5432 557.181C91.0892 559.402 91.8656 561.331 92.8969 562.968C93.9281 564.606 95.1171 565.953 96.5002 567.021C97.8832 568.088 99.4726 568.865 101.268 569.374C103.064 569.872 104.956 570.126 106.958 570.126C110.367 570.126 113.17 569.58 115.402 568.489C117.622 567.397 119.26 565.819 120.304 563.757C121.347 561.695 121.869 559.207 121.869 556.308V554.816H128.675C128.626 554.997 128.626 555.192 128.675 555.398C128.724 555.604 128.736 555.835 128.711 556.077C128.687 556.332 128.675 556.587 128.675 556.866C128.675 559.317 128.408 561.549 127.862 563.575C127.316 565.601 126.455 567.397 125.278 568.986C124.101 570.575 122.657 571.934 120.959 573.075C119.26 574.215 117.234 575.052 114.905 575.598C112.563 576.144 109.943 576.411 107.043 576.411C104.144 576.411 101.438 576.071 98.9387 575.392C96.4395 574.712 94.195 573.669 92.1932 572.262C90.1914 570.854 88.4807 569.083 87.0491 566.948C85.6175 564.813 84.5135 562.313 83.7491 559.462C82.9727 556.599 82.5966 553.384 82.5966 549.793C82.5966 546.202 82.9727 543.338 83.7249 540.633C84.4771 537.927 85.5205 535.513 86.855 533.378C88.1896 531.242 89.8638 529.471 91.8535 528.064C93.8553 526.656 96.0998 525.577 98.599 524.824C101.098 524.072 103.913 523.696 107.043 523.696C109.991 523.696 112.636 523.987 114.978 524.582C117.319 525.176 119.333 526.026 121.032 527.13C122.73 528.246 124.125 529.556 125.217 531.073C126.309 532.589 127.134 534.324 127.704 536.277C128.275 538.231 128.554 540.342 128.554 542.61V544.273C128.554 544.527 128.529 544.831 128.481 545.195H121.675L121.663 545.207Z" fill="#0A231E"/>
<path d="M199.806 549.623C199.806 553.117 199.43 556.259 198.678 559.05C197.926 561.84 196.87 564.339 195.512 566.535C194.153 568.743 192.454 570.575 190.44 572.055C188.414 573.536 186.146 574.627 183.634 575.355C181.111 576.083 178.308 576.447 175.226 576.447C172.145 576.447 169.464 576.083 166.916 575.355C164.368 574.627 162.111 573.523 160.146 572.055C158.168 570.575 156.494 568.743 155.111 566.535C153.728 564.339 152.66 561.84 151.908 559.05C151.156 556.259 150.78 553.117 150.78 549.623C150.78 546.129 151.156 543.059 151.908 540.293C152.66 537.527 153.752 535.113 155.172 533.038C156.603 530.975 158.314 529.241 160.316 527.833C162.318 526.426 164.562 525.37 167.061 524.667C169.561 523.963 172.278 523.611 175.226 523.611C178.903 523.611 182.263 524.157 185.308 525.249C188.354 526.341 190.95 527.979 193.097 530.187C195.257 532.395 196.907 535.1 198.072 538.328C199.224 541.555 199.806 545.316 199.806 549.623ZM175.299 570.26C177.98 570.26 180.407 569.823 182.579 568.962C184.762 568.1 186.594 566.802 188.099 565.079C189.591 563.357 190.756 561.246 191.569 558.746C192.382 556.247 192.794 553.275 192.794 549.829C192.794 546.566 192.382 543.666 191.569 541.142C190.756 538.619 189.591 536.508 188.099 534.809C186.607 533.111 184.762 531.849 182.579 531.036C180.395 530.223 177.968 529.811 175.299 529.811C172.63 529.811 170.192 530.223 168.02 531.036C165.836 531.849 163.992 533.099 162.475 534.785C160.959 536.459 159.782 538.57 158.969 541.118C158.156 543.654 157.744 546.566 157.744 549.829C157.744 553.275 158.156 556.259 158.969 558.783C159.782 561.306 160.959 563.417 162.475 565.116C163.992 566.814 165.848 568.1 168.02 568.962C170.204 569.823 172.63 570.26 175.299 570.26Z" fill="#0A231E"/>
<path d="M224.387 575.562C224.52 571.886 224.605 568.052 224.629 564.06C224.653 560.069 224.666 555.374 224.666 549.963C224.666 544.552 224.666 539.565 224.629 535.525C224.605 531.485 224.544 527.809 224.459 524.497H233.583C234.177 525.637 234.978 527.312 235.997 529.532C237.016 531.752 238.169 534.288 239.431 537.127C240.705 539.966 242.088 542.974 243.58 546.153C245.072 549.332 246.552 552.535 248.008 555.75C248.554 556.842 249.136 558.128 249.743 559.596C250.362 561.076 250.968 562.58 251.587 564.121C252.206 565.662 252.728 567.069 253.189 568.343L251.284 566.159H253.807L251.903 568.197C252.352 566.887 252.861 565.528 253.431 564.145C254.001 562.762 254.584 561.367 255.203 559.96C255.821 558.552 256.416 557.218 257.01 555.944C258.503 552.814 259.983 549.659 261.439 546.481C262.894 543.302 264.241 540.305 265.491 537.491C266.74 534.676 267.869 532.14 268.9 529.859C269.919 527.591 270.744 525.795 271.387 524.485H279.831C279.734 527.797 279.686 531.473 279.661 535.513C279.637 539.553 279.625 544.357 279.625 549.95C279.625 555.543 279.625 560.044 279.661 564.048C279.686 568.04 279.734 571.873 279.831 575.549H272.685C272.77 572.868 272.831 570.272 272.855 567.761C272.879 565.237 272.916 562.726 272.952 560.202C273.001 557.679 273.025 555.094 273.049 552.438C273.073 549.781 273.086 546.978 273.086 544.03C273.086 542.307 273.122 540.499 273.183 538.619C273.255 536.738 273.304 534.87 273.352 533.038C273.401 531.206 273.437 529.483 273.486 527.894L274.918 531.703L271.375 531.097L274.093 527.894C273.826 529.071 273.45 530.32 272.964 531.643C272.491 532.965 271.994 534.288 271.496 535.622C270.999 536.957 270.489 538.279 269.968 539.565C269.446 540.863 268.936 542.101 268.439 543.278L253.662 575.549H250.253L235.342 542.598C234.796 541.421 234.25 540.172 233.704 538.849C233.158 537.539 232.612 536.217 232.066 534.906C231.52 533.596 231.047 532.346 230.635 531.157C230.222 529.981 229.798 528.84 229.337 527.748L232.127 530.745L228.924 531.291L230.149 527.688C230.198 528.998 230.222 530.405 230.246 531.873C230.271 533.353 230.319 534.846 230.38 536.362C230.453 537.879 230.501 539.383 230.55 540.851C230.598 542.331 230.623 543.751 230.623 545.11V553.42C230.623 555.919 230.647 558.346 230.695 560.7C230.744 563.065 230.78 565.431 230.829 567.809C230.877 570.187 230.914 572.771 230.962 575.537H224.362L224.387 575.562Z" fill="#0A231E"/>
<path d="M316.155 575.562H308.463C308.548 573.111 308.621 570.624 308.67 568.112C308.718 565.589 308.742 562.859 308.742 559.911V550.035C308.742 544.637 308.742 539.881 308.706 535.768C308.682 531.655 308.609 527.906 308.463 524.497H329.428C332.425 524.497 335.13 524.825 337.569 525.48C339.995 526.135 342.033 527.178 343.696 528.61C345.358 530.041 346.656 531.898 347.614 534.191C348.573 536.484 349.046 539.262 349.046 542.526C349.046 544.976 348.73 547.16 348.087 549.065C347.457 550.97 346.583 552.62 345.467 554.003C344.351 555.386 342.955 556.526 341.281 557.412C339.607 558.298 337.726 558.953 335.664 559.389C333.601 559.826 331.369 560.032 328.955 560.032H323.884C323.083 560.032 322.27 560.032 321.433 559.996C320.596 559.972 319.625 559.947 318.533 559.923C317.441 559.899 316.216 559.887 314.857 559.887V553.893H316.556C317.332 553.893 318.315 553.893 319.516 553.93C320.717 553.954 321.991 553.978 323.325 554.003C324.66 554.027 326.079 554.039 327.584 554.039C330.083 554.039 332.231 553.821 334.05 553.396C335.87 552.971 337.375 552.28 338.576 551.358C339.777 550.424 340.687 549.247 341.293 547.815C341.9 546.384 342.215 544.624 342.215 542.538C342.215 540.451 341.924 538.498 341.33 536.957C340.735 535.416 339.85 534.179 338.673 533.244C337.496 532.31 336.028 531.619 334.281 531.17C332.534 530.721 330.52 530.49 328.251 530.49H325.873C324.915 530.49 323.871 530.49 322.743 530.527C321.603 530.551 320.499 530.563 319.407 530.563C318.315 530.563 317.332 530.563 316.446 530.599C315.561 530.624 314.893 530.66 314.432 530.697L315.658 527.627V541.652C315.658 546.238 315.658 550.618 315.694 554.791C315.718 558.965 315.755 562.811 315.791 566.329C315.84 569.847 315.949 572.917 316.131 575.55L316.155 575.562Z" fill="#0A231E"/>
<path d="M403.374 575.562H372.461C372.413 574.47 372.4 573.038 372.425 571.267C372.449 569.496 372.473 567.494 372.497 565.237C372.522 562.993 372.546 560.578 372.57 557.982C372.595 555.398 372.607 552.741 372.607 550.011C372.607 545.704 372.607 541.943 372.643 538.74C372.667 535.537 372.643 532.771 372.57 530.43C372.497 528.088 372.449 526.111 372.4 524.473H379.619C379.619 525.286 379.619 526.305 379.583 527.506C379.558 528.707 379.522 530.114 379.486 531.728C379.437 533.341 379.401 535.076 379.389 536.933C379.364 538.801 379.352 540.827 379.352 543.023V549.866C379.352 552.134 379.352 554.427 379.389 556.745C379.413 559.062 379.425 561.258 379.425 563.345C379.425 565.431 379.449 567.263 379.498 568.828C379.546 570.393 379.571 571.522 379.571 572.201L377.726 569.205H383.441C385.528 569.205 387.711 569.205 389.98 569.241C392.249 569.265 394.518 569.241 396.786 569.205C399.055 569.156 401.251 569.12 403.386 569.071C403.338 569.568 403.301 570.102 403.289 570.673C403.265 571.243 403.253 571.801 403.253 572.335C403.253 572.832 403.253 573.354 403.289 573.9C403.313 574.446 403.35 574.992 403.386 575.538L403.374 575.562Z" fill="#0A231E"/>
<path d="M432.989 575.686H425.637C425.685 573.915 425.71 572.071 425.734 570.142C425.758 568.213 425.782 566.235 425.807 564.221C425.831 562.207 425.843 560.035 425.843 557.718V542.565C425.843 540.223 425.843 538.04 425.807 535.989C425.782 533.951 425.758 531.986 425.734 530.105C425.71 528.225 425.673 526.393 425.637 524.621H432.989C432.94 526.344 432.904 528.164 432.892 530.069C432.868 531.973 432.843 533.939 432.819 535.953C432.795 537.979 432.783 540.151 432.783 542.492V557.645C432.783 559.963 432.783 562.134 432.819 564.185C432.843 566.223 432.868 568.2 432.892 570.105C432.916 572.01 432.953 573.878 432.989 575.686Z" fill="#0A231E"/>
<path d="M505.965 575.562H497.654C497.472 574.7 497.096 573.499 496.526 571.958C495.956 570.418 495.301 568.646 494.548 566.644C493.796 564.643 492.983 562.495 492.098 560.178C491.212 557.861 490.302 555.507 489.38 553.093C488.446 550.69 487.536 548.337 486.626 546.044C485.716 543.751 484.879 541.591 484.102 539.541C483.193 537.406 482.428 535.525 481.822 533.887C481.203 532.249 480.705 530.854 480.329 529.702C479.953 528.549 479.589 527.554 479.274 526.741L481.385 528.173H478.121L480.439 526.681C480.123 527.542 479.747 528.549 479.31 529.714C478.873 530.866 478.352 532.286 477.745 533.972C477.139 535.646 476.374 537.673 475.464 540.026C474.603 542.392 473.62 544.952 472.54 547.718C471.448 550.484 470.357 553.275 469.277 556.089C468.185 558.904 467.154 561.597 466.183 564.157C465.2 566.717 464.351 568.986 463.635 570.964C462.907 572.941 462.337 574.47 461.937 575.562H454.172C454.949 573.924 455.81 571.946 456.756 569.605C457.715 567.263 458.782 564.691 459.996 561.876C461.197 559.062 462.386 556.138 463.575 553.093C464.751 550.047 465.94 547.063 467.154 544.139C468.355 541.215 469.459 538.449 470.454 535.828C471.448 533.22 472.31 530.927 473.038 528.949C473.766 526.972 474.336 525.492 474.736 524.485H485.012C485.51 525.577 486.129 527.081 486.857 529.01C487.584 530.939 488.458 533.171 489.477 535.719C490.496 538.267 491.6 540.972 492.777 543.86C493.954 546.747 495.167 549.683 496.417 552.68C497.666 555.677 498.855 558.576 499.996 561.391C501.124 564.206 502.216 566.826 503.259 569.253C504.303 571.679 505.213 573.778 505.977 575.549L505.965 575.562ZM464.303 556.635C465.297 556.684 466.462 556.708 467.772 556.708C469.083 556.708 470.454 556.732 471.861 556.781C473.268 556.829 474.676 556.866 476.083 556.878C477.49 556.902 478.716 556.914 479.759 556.914C480.887 556.914 482.137 556.89 483.508 556.842C484.867 556.793 486.238 556.769 487.633 556.769C489.028 556.769 490.387 556.769 491.758 556.732C493.117 556.708 494.318 556.672 495.361 556.635L495.628 562.216C494.221 562.216 492.826 562.216 491.443 562.18C490.059 562.156 488.688 562.143 487.317 562.143H472.273C470.866 562.143 469.471 562.143 468.088 562.18C466.705 562.204 465.419 562.216 464.242 562.216L464.315 556.635H464.303Z" fill="#0A231E"/>
<path d="M527.269 575.562C527.318 572.25 527.342 568.525 527.366 564.4C527.39 560.275 527.402 555.483 527.402 550.035V539.929C527.402 536.823 527.403 533.972 527.366 531.388C527.342 528.804 527.305 526.511 527.269 524.509H535.774C536.186 525.237 536.841 526.268 537.751 527.603C538.661 528.937 539.753 530.502 541.015 532.298C542.289 534.094 543.648 536.047 545.104 538.158C546.559 540.269 548.064 542.428 549.629 544.624C551.194 546.82 552.747 549.041 554.288 551.261C555.828 553.481 557.333 555.568 558.777 557.521C559.505 558.746 560.293 560.105 561.155 561.61C562.016 563.114 562.829 564.582 563.569 566.038C564.321 567.494 564.916 568.853 565.377 570.126L562.999 567.336L565.11 566.657L564.357 570.333C564.309 568.658 564.236 566.96 564.115 565.261C564.006 563.563 563.921 561.913 563.872 560.324C563.824 558.734 563.799 557.193 563.799 555.689C563.799 553.19 563.799 550.715 563.763 548.24C563.739 545.765 563.714 543.326 563.69 540.924C563.666 538.522 563.642 536.265 563.617 534.154C563.593 532.043 563.532 530.175 563.448 528.537C563.35 526.899 563.29 525.565 563.241 524.521H569.914C569.914 525.977 569.914 527.627 569.878 529.495C569.853 531.352 569.817 533.341 569.781 535.452C569.732 537.563 569.708 539.832 569.708 542.259V564.388C569.708 568.404 569.732 572.14 569.781 575.586H562.562C562.016 574.543 561.142 573.099 559.941 571.267C558.74 569.435 557.309 567.324 555.646 564.97C553.984 562.617 552.249 560.105 550.442 557.448C548.622 554.791 546.729 552.098 544.752 549.38C542.774 546.663 540.906 544.03 539.134 541.482C538.14 540.026 537.205 538.57 536.344 537.09C535.483 535.61 534.682 534.178 533.93 532.771C533.177 531.364 532.534 530.041 531.989 528.828L534.573 531.352L531.989 531.898L532.947 528.488C533.08 530.211 533.202 531.946 533.287 533.693C533.372 535.44 533.456 537.139 533.529 538.801C533.602 540.463 533.651 542.077 533.699 543.666C533.699 547.755 533.699 551.516 533.736 554.961C533.76 558.407 533.76 561.464 533.736 564.121C533.711 566.778 533.711 569.059 533.736 570.964C533.76 572.868 533.796 574.409 533.833 575.598H527.233L527.269 575.562Z" fill="#0A231E"/>
<path d="M592.359 524.509H632.044V530.709C629.641 530.66 627.251 530.636 624.898 530.612C622.532 530.587 620.275 530.563 618.128 530.539C615.968 530.515 613.991 530.502 612.171 530.502C609.538 530.502 606.481 530.502 603.011 530.539C599.541 530.563 595.986 530.624 592.359 530.709C592.407 530.26 592.432 529.75 592.432 529.18V525.941C592.432 525.395 592.407 524.922 592.359 524.509ZM608.907 527.7H615.653V538.219C615.653 541.737 615.653 545.146 615.689 548.434C615.713 551.722 615.726 554.84 615.726 557.8V565.795C615.726 568.173 615.726 570.199 615.762 571.849C615.786 573.511 615.823 574.737 615.859 575.562C615.495 575.562 615.095 575.562 614.67 575.525C614.233 575.501 613.809 575.489 613.372 575.489H611.127C610.691 575.489 610.278 575.489 609.866 575.525C609.453 575.55 609.004 575.562 608.507 575.562C608.592 574.785 608.652 573.572 608.677 571.922C608.701 570.26 608.725 568.234 608.749 565.832C608.774 563.429 608.786 560.76 608.786 557.836C608.786 554.913 608.81 551.795 608.859 548.47C608.907 545.158 608.932 541.737 608.932 538.194V527.712L608.907 527.7Z" fill="#0A231E"/>
</svg>
