<svg width="726" height="810" viewBox="0 0 726 810" fill="none" xmlns="http://www.w3.org/2000/svg">
<path d="M724.444 564.646V245.354C724.444 214.732 708.102 186.44 681.594 171.129L405.079 11.483C378.558 -3.82768 345.886 -3.82768 319.366 11.483L42.8506 171.129C16.3298 186.44 0 214.732 0 245.354V564.646C0 595.268 16.3298 623.56 42.8506 638.871L319.366 798.517C345.886 813.828 378.558 813.828 405.079 798.517L681.594 638.871C708.115 623.56 724.444 595.268 724.444 564.646Z" fill="#F7FFF7"/>
<path d="M669.146 493.758H55.2981C37.6823 493.758 23.3422 479.418 23.3422 461.803V340.894C23.3422 323.278 37.6823 308.938 55.2981 308.938H669.146C686.762 308.938 701.102 323.278 701.102 340.894V461.803C701.102 479.418 686.762 493.758 669.146 493.758ZM55.286 315.125C41.0793 315.125 29.5174 326.687 29.5174 340.894V461.803C29.5174 476.009 41.0793 487.571 55.286 487.571H669.134C683.341 487.571 694.903 476.009 694.903 461.803V340.894C694.903 326.687 683.341 315.125 669.134 315.125H55.286Z" fill="#6F9576"/>
<path d="M230.971 452.303H171.876C172.155 444.951 172.312 437.15 172.361 428.9C172.409 420.663 172.434 410.993 172.434 399.917C172.434 392.468 172.409 385.649 172.361 379.45C172.312 373.262 172.288 367.548 172.288 362.331C172.288 357.115 172.106 352.177 171.73 347.518H229.151C235.108 347.518 240.398 348.028 245.008 349.059C249.618 350.09 253.464 351.74 256.533 354.021C259.603 356.302 261.932 359.189 263.522 362.683C265.099 366.177 265.899 370.387 265.899 375.325C265.899 379.146 265.487 382.398 264.638 385.103C263.8 387.809 262.612 390.138 261.071 392.091C259.53 394.045 257.419 395.634 254.714 396.847C252.202 398.157 248.939 398.995 244.935 399.359C240.931 399.735 236.455 400.062 231.529 400.341L243.819 397.272V402.307L231.529 399.371C236.091 399.65 240.167 399.88 243.758 400.074C247.349 400.268 250.346 400.863 252.772 401.894C256.315 403.204 259.13 404.83 261.229 406.783C263.327 408.737 264.856 411.115 265.839 413.905C266.821 416.695 267.307 420.056 267.307 423.962C267.307 428.524 266.542 432.625 265.002 436.252C263.461 439.88 261.204 442.864 258.232 445.194C255.247 447.523 251.499 449.294 246.985 450.508C242.472 451.721 237.134 452.327 230.995 452.327L230.971 452.303ZM193.81 408.154L194.089 390.138C199.682 390.32 204.851 390.441 209.594 390.49C214.35 390.539 218.815 390.563 223 390.563C226.725 390.466 229.77 390.005 232.148 389.168C234.526 388.33 236.309 386.96 237.522 385.043C238.736 383.138 239.342 380.736 239.342 377.848C239.342 375.337 238.784 373.335 237.668 371.843C236.552 370.351 234.853 369.307 232.573 368.701C230.292 368.094 227.331 367.791 223.704 367.791C219.045 367.791 214.277 367.815 209.388 367.864C204.499 367.912 199.209 368.118 193.531 368.494L199.537 356.763C199.44 358.91 199.367 361.494 199.331 364.515C199.282 367.548 199.258 370.921 199.258 374.645V410.896C199.258 415.045 199.282 419.025 199.331 422.846C199.379 426.668 199.428 430.271 199.476 433.668C199.525 437.065 199.585 439.977 199.682 442.403L194.514 429.834C200.568 430.21 205.942 430.392 210.65 430.392H223.716C226.785 430.392 229.394 430.186 231.541 429.762C233.689 429.349 235.399 428.718 236.709 427.881C238.008 427.044 238.942 425.879 239.5 424.387C240.058 422.895 240.337 420.99 240.337 418.661C240.337 415.87 239.779 413.699 238.663 412.17C237.547 410.629 235.703 409.513 233.143 408.822C230.583 408.118 227.247 407.778 223.158 407.778C220.368 407.778 217.383 407.803 214.217 407.851C211.05 407.9 207.787 407.948 204.438 407.997C201.09 408.045 197.547 408.118 193.822 408.203L193.81 408.154Z" fill="#0A231E"/>
<path d="M418.169 452.303H387.014C386.82 450.726 386.31 448.482 385.473 445.594C384.636 442.707 383.678 439.261 382.61 435.258C381.543 431.254 380.354 426.971 379.043 422.41C377.733 417.848 376.338 413.117 374.858 408.227C373.365 403.338 371.922 398.546 370.527 393.839C369.131 389.131 367.785 384.74 366.475 380.639C365.079 377.011 363.939 373.724 363.053 370.788C362.168 367.852 361.403 365.243 360.748 362.962C360.093 360.682 359.486 358.753 358.928 357.163L363.963 360.657H356.138L361.452 357.03C360.797 358.704 360.129 360.657 359.426 362.902C358.722 365.134 357.885 367.743 356.914 370.727C355.932 373.712 354.84 377.206 353.627 381.209C352.231 385.965 350.666 391.145 348.944 396.787C347.221 402.428 345.498 408.033 343.775 413.626C342.053 419.219 340.463 424.521 339.02 429.556C337.576 434.578 336.29 439.128 335.174 443.18C334.057 447.232 333.22 450.277 332.662 452.328H303.739C305.316 448.506 307.003 444.09 308.774 439.055C310.545 434.032 312.426 428.621 314.428 422.847C316.43 417.072 318.456 411.115 320.506 404.964C322.556 398.813 324.582 392.807 326.584 386.948C328.586 381.076 330.43 375.543 332.104 370.327C333.778 365.11 335.222 360.524 336.435 356.569C337.649 352.614 338.668 349.605 339.505 347.555H381.555C382.392 349.787 383.435 352.869 384.697 356.775C385.959 360.682 387.439 365.183 389.162 370.254C390.884 375.325 392.728 380.797 394.682 386.669C396.635 392.541 398.71 398.522 400.893 404.624C403.077 410.727 405.2 416.683 407.251 422.507C409.301 428.33 411.254 433.778 413.122 438.849C414.991 443.92 416.665 448.421 418.157 452.328L418.169 452.303ZM327.361 411.503C329.496 411.6 331.922 411.649 334.628 411.649C337.333 411.649 340.196 411.697 343.217 411.794C346.238 411.891 349.223 411.94 352.159 411.94H359.778C362.204 411.94 364.812 411.916 367.603 411.867C370.393 411.818 373.281 411.77 376.265 411.721C379.25 411.673 382.089 411.624 384.782 411.576C387.487 411.527 389.95 411.503 392.182 411.503L393.165 431.485C390.375 431.485 387.487 431.46 384.503 431.412C381.518 431.363 378.582 431.339 375.707 431.339H343.994C341.009 431.339 338.061 431.363 335.125 431.412C332.189 431.46 329.472 431.485 326.948 431.485L327.373 411.503H327.361Z" fill="#0A231E"/>
<path d="M563.027 452.303H531.871C531.677 450.726 531.168 448.482 530.331 445.594C529.494 442.707 528.535 439.261 527.468 435.258C526.4 431.254 525.211 426.971 523.901 422.41C522.59 417.848 521.195 413.117 519.715 408.227C518.223 403.338 516.779 398.546 515.384 393.839C513.989 389.131 512.642 384.74 511.332 380.639C509.937 377.011 508.796 373.724 507.911 370.788C507.025 367.852 506.261 365.243 505.605 362.962C504.95 360.682 504.344 358.753 503.786 357.163L508.82 360.657H500.995L506.309 357.03C505.654 358.704 504.987 360.657 504.283 362.902C503.579 365.134 502.742 367.743 501.772 370.727C500.789 373.712 499.697 377.206 498.484 381.209C497.089 385.965 495.524 391.145 493.801 396.787C492.078 402.428 490.355 408.033 488.633 413.626C486.91 419.219 485.321 424.521 483.877 429.556C482.433 434.578 481.147 439.128 480.031 443.18C478.915 447.232 478.078 450.277 477.52 452.328H448.597C450.174 448.506 451.86 444.09 453.632 439.055C455.403 434.032 457.283 428.621 459.285 422.847C461.287 417.072 463.313 411.115 465.363 404.964C467.414 398.813 469.44 392.807 471.442 386.948C473.443 381.076 475.287 375.543 476.962 370.327C478.636 365.11 480.08 360.524 481.293 356.569C482.506 352.614 483.525 349.605 484.362 347.555H526.412C527.249 349.787 528.292 352.869 529.554 356.775C530.816 360.682 532.296 365.183 534.019 370.254C535.742 375.325 537.586 380.797 539.539 386.669C541.492 392.541 543.567 398.522 545.751 404.624C547.934 410.727 550.058 416.683 552.108 422.507C554.158 428.33 556.111 433.778 557.98 438.849C559.848 443.92 561.522 448.421 563.015 452.328L563.027 452.303ZM472.23 411.503C474.365 411.6 476.792 411.649 479.497 411.649C482.203 411.649 485.066 411.697 488.087 411.794C491.108 411.891 494.092 411.94 497.028 411.94H504.647C507.074 411.94 509.682 411.916 512.472 411.867C515.263 411.818 518.15 411.77 521.135 411.721C524.119 411.673 526.958 411.624 529.651 411.576C532.357 411.527 534.82 411.503 537.052 411.503L538.035 431.485C535.244 431.485 532.357 431.46 529.372 431.412C526.388 431.363 523.452 431.339 520.577 431.339H488.863C485.879 431.339 482.931 431.363 479.995 431.412C477.059 431.46 474.341 431.485 471.818 431.485L472.242 411.503H472.23Z" fill="#0A231E"/>
<path d="M111.215 567.267C113.593 567.267 115.595 567.097 117.22 566.757C118.834 566.418 120.169 565.896 121.212 565.192C122.255 564.489 123.032 563.639 123.541 562.632C124.051 561.638 124.306 560.473 124.306 559.151C124.306 558.168 124.172 557.27 123.893 556.433C123.614 555.608 123.153 554.868 122.486 554.225C121.819 553.582 120.921 552.987 119.768 552.442C118.616 551.896 117.208 551.41 115.558 551.01C113.896 550.61 111.894 550.233 109.553 549.894C106.908 549.639 104.603 549.214 102.626 548.62C100.648 548.025 98.9617 547.334 97.5786 546.545C96.1955 545.757 95.0551 544.859 94.1573 543.828C93.2596 542.809 92.6408 541.62 92.3011 540.285C91.9614 538.938 91.7916 537.531 91.7916 536.039C91.7916 533.952 92.1797 532.12 92.9683 530.543C93.7569 528.966 94.9216 527.631 96.4745 526.515C98.0274 525.411 99.9443 524.574 102.225 524.028C104.506 523.47 107.199 523.203 110.305 523.203C112.986 523.203 115.376 523.397 117.451 523.773C119.538 524.162 121.309 524.744 122.789 525.533C124.257 526.321 125.482 527.255 126.465 528.347C127.448 529.439 128.164 530.677 128.637 532.084C129.11 533.491 129.34 535.08 129.34 536.876C129.34 537.216 129.34 537.58 129.304 537.968C129.28 538.356 129.268 538.72 129.268 539.084C129.268 539.448 129.243 539.8 129.207 540.14H128.382C128.042 540.14 127.703 540.14 127.363 540.103C127.023 540.079 126.659 540.067 126.283 540.067C125.725 540.067 125.167 540.067 124.597 540.103C124.027 540.127 123.541 540.14 123.165 540.14C123.214 539.751 123.226 539.29 123.226 538.732V537.519C123.226 536.16 122.983 534.898 122.486 533.746C122 532.593 121.224 531.647 120.193 530.907C119.149 530.167 117.791 529.572 116.104 529.148C114.418 528.723 112.453 528.505 110.196 528.505C108.073 528.505 106.277 528.663 104.834 528.978C103.39 529.293 102.177 529.754 101.194 530.349C100.211 530.943 99.4955 531.696 99.0223 532.618C98.5492 533.528 98.3186 534.607 98.3186 535.845C98.3186 536.694 98.4035 537.495 98.5734 538.235C98.7432 538.975 99.1072 539.678 99.6653 540.346C100.223 541.001 101.024 541.607 102.092 542.166C103.159 542.724 104.518 543.221 106.18 543.67C107.842 544.119 109.88 544.531 112.307 544.92C115.668 545.393 118.506 545.987 120.836 546.703C123.153 547.431 125.034 548.377 126.453 549.542C127.872 550.707 128.892 552.065 129.486 553.594C130.08 555.123 130.384 556.93 130.384 559.017C130.384 560.716 130.153 562.293 129.68 563.736C129.207 565.18 128.467 566.466 127.448 567.57C126.429 568.674 125.143 569.608 123.59 570.385C122.037 571.149 120.253 571.732 118.264 572.108C116.262 572.496 113.969 572.678 111.373 572.678C108.558 572.678 106.071 572.472 103.899 572.071C101.728 571.671 99.8351 571.089 98.2216 570.348C96.608 569.608 95.2613 568.626 94.1937 567.413C93.1261 566.199 92.3375 564.865 91.8279 563.421C91.3184 561.977 91.0637 560.315 91.0637 558.435C91.0637 558.047 91.0636 557.695 91.1 557.355C91.1243 557.015 91.1364 556.688 91.1607 556.36C91.1849 556.045 91.2092 555.693 91.2577 555.305C91.646 555.39 92.0827 555.438 92.6044 555.462C93.1261 555.487 93.6478 555.499 94.2058 555.499H95.965C96.5352 555.499 97.0447 555.474 97.4694 555.438C97.4694 555.778 97.4694 556.118 97.433 556.457C97.4088 556.797 97.3966 557.1 97.3966 557.355C97.3966 559.563 97.9061 561.407 98.9252 562.875C99.9443 564.343 101.485 565.435 103.523 566.163C105.561 566.891 108.146 567.255 111.251 567.255L111.215 567.267Z" fill="#0A231E"/>
<path d="M188.035 523.967H194.927C194.842 525.884 194.781 527.862 194.732 529.912C194.684 531.95 194.672 534.462 194.672 537.446C194.672 538.805 194.696 540.358 194.732 542.081C194.769 543.803 194.805 545.599 194.83 547.479C194.854 549.36 194.866 551.204 194.866 553.036C194.866 555.547 194.611 557.828 194.102 559.866C193.592 561.904 192.816 563.724 191.772 565.326C190.729 566.927 189.406 568.262 187.817 569.353C186.216 570.433 184.335 571.258 182.164 571.816C179.992 572.374 177.566 572.641 174.884 572.641C172.203 572.641 169.57 572.362 167.387 571.816C165.191 571.258 163.31 570.445 161.733 569.353C160.156 568.262 158.846 566.927 157.802 565.326C156.759 563.724 156.007 561.904 155.534 559.866C155.06 557.828 154.83 555.547 154.83 553.036V547.479C154.83 545.611 154.854 543.803 154.891 542.081C154.927 540.358 154.951 538.817 154.951 537.446C154.951 534.462 154.927 531.95 154.891 529.912C154.842 527.874 154.781 525.884 154.696 523.967H161.527C161.478 525.035 161.454 526.284 161.43 527.74C161.406 529.184 161.381 530.773 161.333 532.496C161.284 534.219 161.272 536.002 161.272 537.834C161.272 539.666 161.272 541.486 161.236 543.294C161.199 545.101 161.199 546.8 161.199 548.401V552.648C161.199 555.923 161.721 558.617 162.764 560.728C163.808 562.839 165.336 564.379 167.362 565.362C169.388 566.345 171.912 566.83 174.933 566.83C177.954 566.83 180.392 566.345 182.37 565.362C184.347 564.379 185.827 562.839 186.81 560.728C187.793 558.617 188.278 555.923 188.278 552.648V537.798C188.278 535.942 188.278 534.17 188.242 532.472C188.218 530.773 188.193 529.196 188.145 527.74C188.096 526.297 188.06 525.035 188.011 523.967H188.035Z" fill="#0A231E"/>
<path d="M228.387 571.853H221.168C221.253 569.56 221.314 567.218 221.362 564.865C221.399 562.499 221.423 559.939 221.423 557.173V547.916C221.423 542.857 221.423 538.392 221.387 534.534C221.362 530.688 221.29 527.158 221.168 523.967H240.834C243.649 523.967 246.185 524.283 248.466 524.889C250.746 525.508 252.663 526.491 254.216 527.825C255.769 529.172 256.994 530.907 257.892 533.066C258.79 535.214 259.239 537.822 259.239 540.892C259.239 543.185 258.936 545.235 258.341 547.018C257.747 548.802 256.922 550.355 255.878 551.653C254.835 552.951 253.525 554.018 251.947 554.843C250.37 555.668 248.611 556.287 246.682 556.7C244.741 557.1 242.642 557.306 240.398 557.306H235.642C234.902 557.306 234.125 557.306 233.349 557.27C232.56 557.246 231.663 557.234 230.631 557.209C229.612 557.185 228.46 557.173 227.186 557.173V551.556H228.787C229.515 551.556 230.437 551.556 231.565 551.592C232.694 551.616 233.883 551.641 235.145 551.653C236.394 551.677 237.729 551.689 239.136 551.689C241.477 551.689 243.503 551.483 245.202 551.083C246.9 550.682 248.32 550.039 249.448 549.166C250.576 548.292 251.426 547.188 251.996 545.841C252.566 544.495 252.857 542.857 252.857 540.892C252.857 538.926 252.578 537.106 252.032 535.65C251.474 534.207 250.649 533.042 249.545 532.169C248.441 531.295 247.07 530.652 245.433 530.215C243.795 529.791 241.914 529.572 239.779 529.572H237.547C236.649 529.572 235.678 529.572 234.611 529.609C233.543 529.633 232.5 529.645 231.481 529.645C230.462 529.645 229.527 529.645 228.702 529.681C227.877 529.706 227.247 529.73 226.822 529.779L227.974 526.903V540.054C227.974 544.349 227.974 548.462 228.011 552.381C228.035 556.299 228.059 559.903 228.108 563.203C228.144 566.502 228.253 569.39 228.423 571.853H228.387Z" fill="#0A231E"/>
<path d="M288.223 571.853H281.004C281.089 569.56 281.149 567.218 281.198 564.865C281.234 562.499 281.259 559.939 281.259 557.173V547.916C281.259 542.857 281.259 538.392 281.222 534.534C281.198 530.688 281.125 527.158 281.004 523.967H300.67C303.485 523.967 306.02 524.283 308.301 524.889C310.582 525.508 312.499 526.491 314.052 527.825C315.605 529.172 316.83 530.907 317.728 533.066C318.626 535.214 319.074 537.822 319.074 540.892C319.074 543.185 318.771 545.235 318.177 547.018C317.582 548.802 316.757 550.355 315.714 551.653C314.67 552.951 313.36 554.018 311.783 554.843C310.206 555.668 308.447 556.287 306.518 556.7C304.577 557.1 302.478 557.306 300.233 557.306H295.478C294.737 557.306 293.961 557.306 293.185 557.27C292.396 557.246 291.498 557.234 290.467 557.209C289.448 557.185 288.295 557.173 287.021 557.173V551.556H288.623C289.351 551.556 290.273 551.556 291.401 551.592C292.529 551.616 293.718 551.641 294.98 551.653C296.23 551.677 297.564 551.689 298.972 551.689C301.313 551.689 303.339 551.483 305.038 551.083C306.736 550.682 308.156 550.039 309.284 549.166C310.412 548.292 311.261 547.188 311.832 545.841C312.402 544.495 312.693 542.857 312.693 540.892C312.693 538.926 312.414 537.106 311.868 535.65C311.31 534.207 310.485 533.042 309.381 532.169C308.277 531.295 306.906 530.652 305.268 530.215C303.63 529.791 301.75 529.572 299.615 529.572H297.382C296.484 529.572 295.514 529.572 294.446 529.609C293.379 529.633 292.335 529.645 291.316 529.645C290.297 529.645 289.363 529.645 288.538 529.681C287.713 529.706 287.082 529.73 286.657 529.779L287.81 526.903V540.054C287.81 544.349 287.81 548.462 287.846 552.381C287.871 556.299 287.895 559.903 287.944 563.203C287.98 566.502 288.089 569.39 288.259 571.853H288.223Z" fill="#0A231E"/>
<path d="M383.484 547.528C383.484 550.804 383.132 553.752 382.428 556.372C381.725 558.993 380.742 561.334 379.456 563.397C378.182 565.459 376.593 567.182 374.7 568.565C372.807 569.948 370.672 570.979 368.319 571.659C365.953 572.338 363.332 572.678 360.433 572.678C357.533 572.678 355.022 572.338 352.644 571.659C350.254 570.979 348.143 569.948 346.287 568.565C344.431 567.182 342.853 565.459 341.567 563.397C340.269 561.334 339.262 558.993 338.571 556.372C337.867 553.752 337.515 550.804 337.515 547.528C337.515 544.252 337.867 541.377 338.571 538.781C339.274 536.184 340.293 533.916 341.64 531.975C342.975 530.033 344.588 528.408 346.457 527.085C348.325 525.763 350.436 524.78 352.777 524.113C355.119 523.458 357.679 523.118 360.445 523.118C363.89 523.118 367.045 523.628 369.896 524.647C372.747 525.666 375.185 527.207 377.211 529.281C379.238 531.344 380.79 533.891 381.87 536.912C382.95 539.933 383.496 543.464 383.496 547.516L383.484 547.528ZM360.506 566.879C363.017 566.879 365.298 566.478 367.336 565.665C369.374 564.853 371.109 563.639 372.504 562.026C373.912 560.412 374.991 558.435 375.756 556.093C376.52 553.752 376.908 550.961 376.908 547.734C376.908 544.665 376.52 541.959 375.756 539.593C374.991 537.228 373.899 535.25 372.504 533.661C371.097 532.059 369.374 530.883 367.336 530.118C365.298 529.354 363.017 528.966 360.506 528.966C357.994 528.966 355.713 529.354 353.675 530.118C351.637 530.883 349.902 532.059 348.47 533.637C347.039 535.214 345.947 537.191 345.183 539.569C344.418 541.959 344.03 544.677 344.03 547.746C344.03 550.986 344.418 553.776 345.183 556.142C345.947 558.507 347.039 560.485 348.47 562.074C349.902 563.664 351.637 564.877 353.675 565.677C355.713 566.49 357.994 566.891 360.506 566.891V566.879Z" fill="#0A231E"/>
<path d="M406.608 523.967H427.548C430.314 523.967 432.752 524.259 434.863 524.829C436.974 525.399 438.758 526.272 440.226 527.449C441.694 528.614 442.834 530.094 443.647 531.89C444.46 533.673 444.86 535.808 444.86 538.271C444.86 540.491 444.52 542.445 443.841 544.143C443.162 545.841 442.142 547.273 440.772 548.426C439.413 549.578 437.69 550.464 435.628 551.107C433.565 551.75 431.102 552.09 428.251 552.126L433.104 550.597V552.708L428.251 551.434C430.896 551.653 433.068 551.895 434.803 552.174C436.525 552.453 437.957 552.915 439.109 553.582C440.262 554.237 441.233 555.22 442.021 556.518C442.81 557.816 443.562 559.575 444.29 561.783C444.884 563.36 445.394 564.78 445.818 566.066C446.243 567.34 446.644 568.48 446.995 569.487C447.359 570.494 447.687 571.283 447.99 571.877H441.924C441.451 571.877 441.099 571.78 440.844 571.586C440.589 571.392 440.359 571.064 440.177 570.591C439.983 570.118 439.765 569.402 439.51 568.419C438.782 566.041 438.127 564.003 437.532 562.317C436.938 560.631 436.355 559.235 435.773 558.131C435.203 557.027 434.536 556.154 433.796 555.511C433.056 554.868 432.158 554.431 431.114 554.164C430.071 553.909 428.809 553.776 427.317 553.776H424.599C423.774 553.776 422.925 553.776 422.076 553.74C421.227 553.703 420.317 553.703 419.358 553.703C418.4 553.703 417.381 553.703 416.289 553.74C415.197 553.776 413.96 553.776 412.552 553.776L412.492 548.535C412.88 548.535 413.547 548.559 414.506 548.596C415.464 548.644 416.616 548.668 417.951 548.693C419.286 548.717 420.766 548.717 422.355 548.693C423.944 548.668 425.643 548.656 427.426 548.656C429.853 548.656 431.879 548.268 433.529 547.479C435.167 546.691 436.392 545.562 437.205 544.095C438.017 542.627 438.418 540.952 438.418 539.084C438.418 537.216 438.2 535.723 437.751 534.486C437.302 533.248 436.574 532.254 435.579 531.489C434.584 530.725 433.322 530.155 431.806 529.803C430.289 529.439 428.47 529.257 426.346 529.257H424.308C423.544 529.257 422.67 529.257 421.688 529.293C420.705 529.318 419.722 529.342 418.715 529.39C417.708 529.439 416.762 529.463 415.876 529.487C414.979 529.512 414.142 529.524 413.353 529.524C412.564 529.524 411.958 529.548 411.533 529.585L413.135 526.588C413.086 531.052 413.062 535.481 413.038 539.873C413.013 544.264 413.037 548.462 413.074 552.49C413.122 556.518 413.171 560.17 413.232 563.47C413.292 566.769 413.438 569.572 413.644 571.865H406.62C406.656 569.523 406.68 567.17 406.68 564.804C406.68 562.438 406.705 559.891 406.741 557.137C406.789 554.395 406.802 551.313 406.802 547.904C406.802 542.845 406.802 538.441 406.765 534.716C406.729 530.992 406.692 527.401 406.608 523.955V523.967Z" fill="#0A231E"/>
<path d="M463.119 523.967H500.34V529.779C498.084 529.742 495.851 529.706 493.631 529.681C491.411 529.657 489.3 529.645 487.274 529.621C485.248 529.597 483.392 529.584 481.681 529.584C479.206 529.584 476.355 529.584 473.092 529.621C469.84 529.645 466.504 529.694 463.095 529.779C463.131 529.354 463.155 528.869 463.155 528.347V525.314C463.155 524.804 463.131 524.356 463.095 523.967H463.119ZM478.636 526.964H484.957V536.827C484.957 540.127 484.957 543.318 484.993 546.412C485.017 549.493 485.029 552.429 485.029 555.195V562.693C485.029 564.925 485.029 566.818 485.066 568.371C485.09 569.924 485.114 571.088 485.163 571.853C484.823 571.853 484.447 571.853 484.047 571.816C483.646 571.792 483.234 571.78 482.833 571.78H480.723C480.322 571.78 479.922 571.78 479.546 571.816C479.157 571.841 478.733 571.853 478.272 571.853C478.357 571.125 478.405 569.996 478.43 568.431C478.454 566.879 478.466 564.974 478.49 562.717C478.514 560.461 478.527 557.961 478.527 555.22C478.527 552.478 478.551 549.554 478.587 546.436C478.624 543.318 478.648 540.115 478.648 536.791V526.964H478.636Z" fill="#0A231E"/>
<path d="M556.791 571.853H520.904C521.025 569.899 521.11 567.704 521.122 565.277C521.135 562.851 521.159 560.206 521.159 557.331V534.183C521.159 532.144 521.159 530.264 521.122 528.565C521.086 526.867 521.074 525.326 521.025 523.967H556.779V529.718C554.607 529.681 552.423 529.645 550.227 529.621C548.031 529.597 545.86 529.584 543.688 529.56C541.517 529.536 539.406 529.524 537.367 529.524H526.254L527.601 525.763V569.948L526.254 566.114H543.809C545.933 566.114 548.092 566.09 550.288 566.054C552.484 566.005 554.643 565.969 556.767 565.92V571.853H556.791ZM526.133 550.343V545.174H544.804C546.83 545.174 548.796 545.174 550.713 545.138C552.63 545.101 554.437 545.101 556.136 545.101C556.136 545.441 556.136 545.963 556.099 546.666C556.075 547.37 556.063 548.062 556.063 548.741V550.597C554.401 550.549 552.617 550.524 550.701 550.5C548.784 550.476 546.818 550.464 544.792 550.464C542.766 550.464 540.716 550.464 538.629 550.427C536.542 550.403 534.444 550.391 532.345 550.367C530.234 550.342 528.159 550.33 526.121 550.33L526.133 550.343Z" fill="#0A231E"/>
<path d="M598.61 571.853H581.116C581.201 569.681 581.249 567.4 581.273 565.022C581.298 562.644 581.31 560.036 581.31 557.234V540.698C581.31 538.405 581.31 536.245 581.273 534.243C581.237 532.241 581.225 530.385 581.213 528.65C581.201 526.915 581.164 525.363 581.116 523.955H598.744C601.849 523.955 604.64 524.234 607.103 524.78C609.565 525.338 611.737 526.175 613.581 527.304C615.425 528.432 616.99 529.912 618.24 531.744C619.49 533.576 620.424 535.808 621.018 538.453C621.613 541.098 621.916 544.07 621.916 547.394C621.916 550.719 621.625 553.764 621.055 556.433C620.484 559.09 619.574 561.395 618.337 563.324C617.1 565.253 615.559 566.854 613.702 568.116C611.846 569.378 609.663 570.312 607.163 570.931C604.652 571.549 601.801 571.853 598.61 571.853ZM588.007 569.56L585.896 565.859C587.133 565.944 588.249 566.005 589.244 566.054C590.239 566.102 591.222 566.126 592.18 566.151C593.139 566.175 594.121 566.187 595.116 566.187H598.404C600.66 566.187 602.699 565.969 604.531 565.52C606.363 565.071 607.964 564.416 609.347 563.542C610.73 562.669 611.871 561.504 612.768 560.024C613.666 558.556 614.333 556.797 614.782 554.759C615.231 552.72 615.45 550.306 615.45 547.54C615.45 544.944 615.231 542.639 614.782 540.613C614.333 538.587 613.654 536.876 612.744 535.469C611.834 534.061 610.706 532.945 609.396 532.12C608.073 531.295 606.508 530.676 604.701 530.264C602.893 529.864 600.855 529.657 598.598 529.657C596.341 529.657 594.231 529.682 592.144 529.718C590.057 529.766 588.104 529.827 586.272 529.912L588.055 526.333C588.007 527.656 587.982 529.172 587.958 530.895C587.934 532.618 587.91 534.425 587.898 536.318C587.873 538.21 587.861 540.164 587.861 542.165V561.613C587.861 563.251 587.885 564.707 587.922 565.993C587.958 567.279 587.982 568.468 587.982 569.572L588.007 569.56Z" fill="#0A231E"/>
<path d="M133.114 648.479H125.895C125.98 646.186 126.041 643.845 126.089 641.491C126.125 639.125 126.15 636.565 126.15 633.799V624.543C126.15 619.483 126.15 615.019 126.113 611.161C126.089 607.315 126.016 603.784 125.895 600.594H145.561C148.376 600.594 150.911 600.909 153.192 601.516C155.473 602.135 157.39 603.117 158.943 604.452C160.496 605.798 161.721 607.533 162.619 609.693C163.517 611.84 163.965 614.449 163.965 617.518C163.965 619.811 163.662 621.861 163.068 623.645C162.473 625.428 161.648 626.981 160.605 628.279C159.561 629.577 158.251 630.645 156.674 631.47C155.097 632.295 153.338 632.914 151.409 633.326C149.468 633.727 147.369 633.933 145.124 633.933H140.368C139.628 633.933 138.852 633.933 138.076 633.896C137.287 633.872 136.389 633.86 135.358 633.836C134.339 633.811 133.186 633.799 131.912 633.799V628.182H133.514C134.242 628.182 135.164 628.182 136.292 628.219C137.42 628.243 138.609 628.267 139.871 628.279C141.121 628.303 142.455 628.316 143.863 628.316C146.204 628.316 148.23 628.109 149.929 627.709C151.627 627.309 153.047 626.666 154.175 625.792C155.303 624.919 156.152 623.815 156.723 622.468C157.293 621.121 157.584 619.483 157.584 617.518C157.584 615.553 157.305 613.733 156.759 612.277C156.201 610.833 155.376 609.669 154.272 608.795C153.168 607.922 151.797 607.279 150.159 606.842C148.521 606.417 146.641 606.199 144.506 606.199H142.273C141.375 606.199 140.405 606.199 139.337 606.235C138.27 606.259 137.226 606.272 136.207 606.272C135.188 606.272 134.254 606.272 133.429 606.308C132.604 606.332 131.973 606.356 131.548 606.405L132.701 603.53V616.681C132.701 620.976 132.701 625.088 132.737 629.007C132.762 632.926 132.786 636.529 132.834 639.829C132.871 643.129 132.98 646.016 133.15 648.479H133.114Z" fill="#0A231E"/>
<path d="M214.92 648.479H185.937C185.888 647.46 185.888 646.113 185.9 644.451C185.925 642.789 185.937 640.909 185.961 638.798C185.985 636.687 185.997 634.418 186.022 631.992C186.046 629.565 186.058 627.078 186.058 624.518C186.058 620.478 186.058 616.948 186.094 613.951C186.119 610.954 186.094 608.358 186.034 606.162C185.973 603.966 185.912 602.11 185.876 600.569H192.646C192.646 601.334 192.646 602.28 192.609 603.408C192.585 604.537 192.561 605.859 192.512 607.363C192.464 608.88 192.439 610.506 192.415 612.253C192.391 614 192.379 615.904 192.379 617.967V624.385C192.379 626.52 192.379 628.667 192.415 630.839C192.439 633.011 192.452 635.073 192.452 637.038C192.452 639.004 192.476 640.714 192.512 642.182C192.549 643.65 192.573 644.706 192.573 645.349L190.85 642.534H196.213C198.166 642.534 200.216 642.534 202.339 642.571C204.462 642.595 206.598 642.571 208.721 642.534C210.844 642.486 212.918 642.449 214.92 642.401C214.872 642.874 214.848 643.371 214.823 643.905C214.799 644.439 214.787 644.961 214.787 645.47C214.787 645.943 214.787 646.429 214.823 646.938C214.848 647.448 214.872 647.957 214.92 648.467V648.479Z" fill="#0A231E"/>
<path d="M277.813 648.479H270.024C269.854 647.666 269.503 646.538 268.969 645.094C268.435 643.651 267.816 641.988 267.113 640.108C266.409 638.24 265.645 636.214 264.82 634.042C263.995 631.87 263.133 629.662 262.26 627.406C261.386 625.149 260.525 622.941 259.676 620.794C258.826 618.646 258.038 616.608 257.31 614.691C256.461 612.689 255.745 610.93 255.175 609.389C254.604 607.861 254.131 606.551 253.767 605.459C253.403 604.379 253.076 603.445 252.772 602.68L254.75 604.027H251.681L253.852 602.62C253.549 603.433 253.197 604.379 252.797 605.459C252.396 606.551 251.899 607.873 251.329 609.45C250.759 611.027 250.043 612.92 249.193 615.128C248.381 617.336 247.471 619.75 246.452 622.347C245.432 624.943 244.413 627.563 243.382 630.196C242.363 632.841 241.392 635.352 240.483 637.766C239.573 640.169 238.772 642.304 238.093 644.148C237.413 646.004 236.879 647.436 236.491 648.455H229.212C229.94 646.926 230.741 645.058 231.638 642.862C232.536 640.666 233.543 638.252 234.671 635.619C235.8 632.986 236.916 630.232 238.02 627.381C239.124 624.53 240.24 621.728 241.368 618.986C242.497 616.244 243.528 613.648 244.462 611.197C245.396 608.746 246.209 606.599 246.888 604.743C247.568 602.887 248.102 601.491 248.49 600.557H258.135C258.608 601.576 259.178 602.996 259.858 604.803C260.537 606.611 261.362 608.71 262.32 611.088C263.279 613.478 264.31 616.014 265.414 618.719C266.518 621.425 267.659 624.179 268.835 626.993C270 629.808 271.128 632.525 272.184 635.17C273.239 637.815 274.27 640.266 275.253 642.547C276.236 644.827 277.085 646.793 277.813 648.455V648.479ZM238.736 630.73C239.67 630.778 240.762 630.791 241.987 630.791C243.212 630.791 244.498 630.815 245.821 630.851C247.143 630.9 248.466 630.924 249.776 630.948C251.098 630.972 252.239 630.985 253.221 630.985C254.289 630.985 255.454 630.96 256.727 630.924C258.001 630.875 259.287 630.863 260.586 630.863C261.884 630.863 263.17 630.863 264.443 630.827C265.717 630.79 266.846 630.778 267.828 630.73L268.083 635.971C266.761 635.971 265.45 635.971 264.152 635.935C262.854 635.898 261.568 635.898 260.294 635.898H246.185C244.862 635.898 243.552 635.898 242.254 635.935C240.956 635.971 239.755 635.971 238.651 635.971L238.711 630.73H238.736Z" fill="#0A231E"/>
<path d="M287.579 600.594H324.801V606.405C322.544 606.369 320.312 606.332 318.092 606.308C315.872 606.284 313.761 606.272 311.735 606.247C309.708 606.223 307.852 606.211 306.142 606.211C303.667 606.211 300.816 606.211 297.552 606.247C294.301 606.272 290.964 606.32 287.555 606.405C287.592 605.98 287.616 605.495 287.616 604.973V601.94C287.616 601.431 287.592 600.982 287.555 600.594H287.579ZM303.096 603.59H309.417V613.454C309.417 616.754 309.417 619.944 309.454 623.038C309.478 626.12 309.49 629.056 309.49 631.822V639.319C309.49 641.552 309.49 643.444 309.526 644.997C309.551 646.55 309.575 647.715 309.624 648.479C309.284 648.479 308.908 648.479 308.507 648.443C308.107 648.419 307.694 648.406 307.294 648.406H305.183C304.783 648.406 304.382 648.406 304.006 648.443C303.618 648.467 303.193 648.479 302.732 648.479C302.817 647.751 302.866 646.623 302.89 645.058C302.914 643.505 302.927 641.6 302.951 639.344C302.975 637.087 302.987 634.588 302.987 631.846C302.987 629.104 303.012 626.18 303.048 623.062C303.084 619.944 303.109 616.742 303.109 613.417V603.59H303.096Z" fill="#0A231E"/>
<path d="M352.462 648.479H345.437C345.486 646.307 345.51 644.027 345.535 641.649C345.559 639.271 345.583 636.662 345.632 633.86C345.668 631.045 345.692 627.939 345.692 624.542V617.397C345.692 615.189 345.668 613.102 345.632 611.136C345.583 609.183 345.559 607.339 345.535 605.616C345.51 603.894 345.486 602.219 345.437 600.606H381.264C381.215 600.994 381.191 601.431 381.167 601.916C381.142 602.401 381.13 602.862 381.13 603.287C381.13 603.845 381.13 604.403 381.167 604.973C381.191 605.544 381.203 606.053 381.203 606.478C377.454 606.429 373.754 606.405 370.09 606.381C366.426 606.356 362.92 606.344 359.559 606.344H350.302L352.159 602.134C352.11 602.899 352.098 603.942 352.098 605.265V628.51C352.098 630.257 352.098 632.04 352.134 633.872C352.159 635.704 352.171 637.512 352.195 639.295C352.219 641.079 352.256 642.765 352.329 644.342C352.401 645.919 352.45 647.302 352.486 648.491L352.462 648.479ZM351.115 630.414V625.052C356.308 625.052 361.44 625.052 366.499 625.016C371.558 624.991 376.338 624.967 380.803 624.919C380.754 625.343 380.73 625.78 380.706 626.229C380.681 626.678 380.669 627.163 380.669 627.697V630.414C377.77 630.366 374.688 630.354 371.412 630.354C368.137 630.354 364.788 630.354 361.391 630.39C357.982 630.414 354.561 630.426 351.115 630.426V630.414Z" fill="#0A231E"/>
<path d="M446.959 624.154C446.959 627.43 446.607 630.378 445.903 632.999C445.2 635.619 444.217 637.961 442.931 640.023C441.657 642.085 440.068 643.808 438.175 645.191C436.283 646.574 434.147 647.606 431.794 648.285C429.428 648.964 426.807 649.304 423.908 649.304C421.008 649.304 418.497 648.964 416.119 648.285C413.729 647.606 411.618 646.574 409.762 645.191C407.906 643.808 406.328 642.085 405.042 640.023C403.744 637.961 402.737 635.619 402.046 632.999C401.342 630.378 400.99 627.43 400.99 624.154C400.99 620.879 401.342 618.003 402.046 615.407C402.749 612.811 403.769 610.542 405.115 608.601C406.45 606.66 408.063 605.034 409.932 603.712C411.8 602.389 413.911 601.406 416.252 600.739C418.594 600.084 421.154 599.744 423.92 599.744C427.366 599.744 430.52 600.254 433.371 601.273C436.222 602.292 438.66 603.833 440.687 605.908C442.713 607.97 444.266 610.518 445.345 613.539C446.425 616.559 446.971 620.09 446.971 624.142L446.959 624.154ZM423.969 643.505C426.48 643.505 428.761 643.105 430.799 642.292C432.837 641.479 434.572 640.266 435.967 638.652C437.374 637.038 438.454 635.061 439.219 632.719C439.983 630.378 440.371 627.588 440.371 624.36C440.371 621.291 439.983 618.586 439.219 616.22C438.454 613.854 437.362 611.876 435.967 610.287C434.56 608.686 432.837 607.509 430.799 606.745C428.761 605.98 426.48 605.592 423.969 605.592C421.457 605.592 419.176 605.98 417.138 606.745C415.1 607.509 413.365 608.686 411.934 610.263C410.502 611.84 409.41 613.818 408.646 616.196C407.881 618.586 407.493 621.303 407.493 624.373C407.493 627.612 407.881 630.402 408.646 632.768C409.41 635.134 410.502 637.111 411.934 638.701C413.365 640.29 415.1 641.503 417.138 642.304C419.176 643.117 421.457 643.517 423.969 643.517V643.505Z" fill="#0A231E"/>
<path d="M470.071 600.594H491.01C493.777 600.594 496.215 600.885 498.326 601.455C500.437 602.025 502.221 602.899 503.689 604.076C505.157 605.24 506.297 606.72 507.11 608.516C507.923 610.299 508.323 612.435 508.323 614.897C508.323 617.118 507.983 619.071 507.304 620.769C506.625 622.468 505.605 623.899 504.235 625.052C502.876 626.205 501.153 627.09 499.091 627.733C497.028 628.376 494.565 628.716 491.714 628.752L496.567 627.224V629.335L491.714 628.061C494.359 628.279 496.531 628.522 498.266 628.801C499.988 629.08 501.42 629.541 502.572 630.208C503.725 630.863 504.696 631.846 505.484 633.144C506.273 634.442 507.025 636.201 507.753 638.409C508.347 639.987 508.857 641.406 509.282 642.692C509.706 643.966 510.106 645.106 510.458 646.113C510.822 647.12 511.15 647.909 511.453 648.503H505.387C504.914 648.503 504.562 648.406 504.307 648.212C504.053 648.018 503.822 647.691 503.64 647.217C503.446 646.744 503.228 646.028 502.973 645.046C502.245 642.668 501.59 640.63 500.995 638.943C500.401 637.257 499.818 635.862 499.236 634.758C498.666 633.654 497.999 632.78 497.259 632.137C496.518 631.494 495.621 631.057 494.577 630.791C493.534 630.536 492.272 630.402 490.78 630.402H488.062C487.237 630.402 486.388 630.402 485.539 630.366C484.69 630.329 483.78 630.329 482.821 630.329C481.863 630.329 480.844 630.329 479.752 630.366C478.66 630.402 477.423 630.402 476.015 630.402L475.955 625.161C476.343 625.161 477.01 625.185 477.968 625.222C478.927 625.27 480.08 625.295 481.414 625.319C482.749 625.343 484.229 625.343 485.818 625.319C487.407 625.295 489.106 625.282 490.889 625.282C493.316 625.282 495.342 624.894 496.992 624.106C498.63 623.317 499.855 622.189 500.668 620.721C501.481 619.253 501.881 617.579 501.881 615.71C501.881 613.842 501.663 612.35 501.214 611.112C500.765 609.875 500.037 608.88 499.042 608.116C498.047 607.351 496.785 606.781 495.269 606.429C493.752 606.065 491.933 605.883 489.809 605.883H487.771C487.007 605.883 486.133 605.883 485.151 605.92C484.168 605.944 483.185 605.968 482.178 606.017C481.171 606.065 480.225 606.09 479.339 606.114C478.442 606.138 477.605 606.15 476.816 606.15C476.027 606.15 475.421 606.174 474.996 606.211L476.598 603.214C476.549 607.679 476.525 612.107 476.501 616.499C476.476 620.891 476.501 625.088 476.537 629.116C476.586 633.144 476.634 636.796 476.695 640.096C476.755 643.396 476.901 646.198 477.107 648.491H470.083C470.119 646.15 470.143 643.796 470.143 641.43C470.143 639.065 470.168 636.517 470.204 633.763C470.253 631.021 470.265 627.939 470.265 624.53C470.265 619.471 470.265 615.067 470.228 611.343C470.192 607.618 470.156 604.027 470.071 600.582V600.594Z" fill="#0A231E"/>
<path d="M534.116 648.479C534.249 645.033 534.322 641.43 534.334 637.694C534.346 633.957 534.371 629.541 534.371 624.47C534.371 619.398 534.371 614.728 534.334 610.93C534.298 607.133 534.262 603.699 534.177 600.581H542.73C543.288 601.649 544.04 603.226 544.998 605.313C545.957 607.4 547.024 609.778 548.226 612.435C549.414 615.092 550.713 617.918 552.12 620.891C553.527 623.875 554.91 626.872 556.269 629.893C556.779 630.912 557.325 632.113 557.895 633.496C558.465 634.879 559.047 636.298 559.618 637.742C560.188 639.186 560.697 640.508 561.122 641.697L559.339 639.659H561.704L559.921 641.576C560.346 640.338 560.831 639.077 561.353 637.779C561.874 636.48 562.432 635.17 563.015 633.848C563.585 632.525 564.155 631.276 564.713 630.075C566.12 627.139 567.503 624.178 568.862 621.194C570.221 618.209 571.495 615.407 572.66 612.762C573.824 610.129 574.892 607.739 575.85 605.616C576.809 603.493 577.585 601.807 578.18 600.569H586.102C586.017 603.675 585.968 607.121 585.944 610.918C585.92 614.703 585.908 619.216 585.908 624.457C585.908 629.699 585.908 633.933 585.944 637.681C585.968 641.43 586.017 645.021 586.102 648.467H579.393C579.478 645.956 579.526 643.517 579.551 641.151C579.575 638.785 579.599 636.432 579.648 634.066C579.696 631.7 579.72 629.274 579.745 626.787C579.769 624.3 579.781 621.667 579.781 618.901C579.781 617.287 579.817 615.589 579.878 613.83C579.939 612.071 579.999 610.324 580.036 608.589C580.072 606.866 580.121 605.252 580.157 603.772L581.504 607.351L578.18 606.781L580.727 603.784C580.473 604.888 580.121 606.065 579.672 607.291C579.223 608.528 578.762 609.765 578.301 611.027C577.828 612.289 577.355 613.514 576.869 614.728C576.384 615.941 575.899 617.105 575.438 618.209L561.583 648.479H558.392L544.404 617.579C543.894 616.475 543.385 615.298 542.875 614.06C542.366 612.823 541.856 611.597 541.347 610.36C540.837 609.122 540.388 607.958 540 606.854C539.612 605.75 539.211 604.682 538.787 603.663L541.407 606.478L538.411 606.987L539.563 603.602C539.6 604.84 539.636 606.15 539.66 607.533C539.685 608.916 539.721 610.324 539.794 611.743C539.854 613.175 539.915 614.57 539.951 615.953C540 617.336 540.012 618.67 540.012 619.944V627.733C540.012 630.075 540.036 632.355 540.073 634.564C540.109 636.772 540.158 639.004 540.206 641.236C540.243 643.468 540.291 645.883 540.34 648.479H534.14H534.116Z" fill="#0A231E"/>
<path d="M442.422 187.596C438.418 184.429 433.335 180.511 428.519 176.835C421.87 171.897 412.747 165.333 400.809 157.205C399.353 156.21 397.812 155.203 396.235 154.196C395.398 153.662 394.561 153.128 393.724 152.607C378.777 143.277 360.457 133.875 355.823 131.521L344.758 135.04C341.835 139.468 329.266 156.792 310.352 158.26C309.308 158.37 308.277 158.418 307.331 158.418C303.06 158.418 300.124 157.266 298.329 154.876C296.194 152.037 296.024 147.839 297.807 141.7C297.856 141.53 297.916 141.36 298.001 141.19C301.495 134.142 308.653 123.975 314.889 115.361C313.688 115.179 312.426 114.985 311.14 114.791C303.631 113.687 295.866 112.534 291.765 110.205C289.982 109.186 287.179 107.488 284.11 105.583L246.209 172.892L249.4 176.434C249.534 176.592 253.234 181.202 258.451 187.717L258.548 187.584C261.108 184.138 265.123 182.161 269.576 182.161C273.312 182.161 277.061 183.556 280.143 186.091C283.067 188.481 285.044 191.636 286.015 194.972L289.582 190.107C292.141 186.649 296.157 184.672 300.61 184.672C304.346 184.672 308.095 186.067 311.177 188.603C316.442 192.922 318.687 199.704 317.328 205.563C317.558 205.563 317.789 205.527 318.019 205.527C321.756 205.527 325.505 206.922 328.586 209.458C333.791 213.74 336.035 220.413 334.786 226.212C335.21 226.176 335.623 226.14 336.06 226.14C339.784 226.14 343.545 227.535 346.627 230.07C353.518 235.736 355.241 245.624 350.473 252.09L348.022 255.402C359.074 259.199 365.504 260.316 365.614 260.34C365.698 260.352 365.796 260.376 365.868 260.388C369.011 261.189 378.34 262.621 383.678 259.758C387.536 257.683 390.472 254.201 392.244 251.678L363.405 237.762C361.901 237.034 361.258 235.214 361.998 233.698C362.726 232.181 364.546 231.55 366.062 232.278L396.647 247.043C396.878 247.031 397.108 247.007 397.339 247.043C399.426 247.383 405.577 247.844 408.658 245.83C412.407 243.367 413.196 237.604 413.353 234.802L376.217 213.304C374.761 212.454 374.264 210.598 375.113 209.142C375.962 207.687 377.818 207.189 379.274 208.026L417.345 230.07C420.002 230.252 426.189 230.167 428.955 227.935C433.869 223.931 433.25 217.623 432.874 215.548L388.822 189.1C387.379 188.239 386.918 186.358 387.779 184.927C388.64 183.483 390.521 183.022 391.964 183.883L438.321 211.714C441.524 212.539 448.888 213.595 452.431 207.092C455.076 202.239 454.105 197.775 449.531 193.419L442.422 187.559V187.596Z" fill="#6F9576"/>
<path d="M310.121 207.043C313.009 203.113 311.747 196.962 307.307 193.322C305.317 191.672 302.939 190.774 300.61 190.774C298.062 190.774 295.89 191.83 294.483 193.722L274.938 220.364C272.051 224.271 273.313 230.422 277.741 234.086C279.73 235.724 282.108 236.634 284.438 236.634C286.985 236.634 289.157 235.59 290.577 233.673L290.613 233.625L310.134 207.043H310.121Z" fill="#6F9576"/>
<path d="M324.728 214.177C322.739 212.539 320.361 211.629 318.032 211.629C316.042 211.629 314.295 212.297 312.948 213.486C312.572 213.825 296.825 235.336 296.825 235.336C296.703 235.493 296.63 235.687 296.521 235.869C296.254 236.306 296.012 236.755 295.842 237.216C294.398 241.025 295.842 245.939 299.627 249.057C301.629 250.707 304.007 251.605 306.336 251.605C308.884 251.605 311.043 250.549 312.451 248.657L327.543 227.911C330.431 223.992 329.157 217.841 324.728 214.189V214.177Z" fill="#6F9576"/>
<path d="M342.769 234.802C340.767 233.164 338.389 232.254 336.072 232.254C333.536 232.254 331.365 233.309 329.945 235.214C329.945 235.214 319.512 249.457 319.269 250.003C317.655 253.837 319.099 258.932 322.981 262.135C324.971 263.773 327.361 264.683 329.69 264.683C332.226 264.683 334.41 263.628 335.805 261.723L345.584 248.499C348.459 244.58 347.197 238.441 342.769 234.802Z" fill="#6F9576"/>
<path d="M279.342 204.095C281.805 200.225 280.495 194.281 276.285 190.823C274.283 189.173 271.905 188.275 269.576 188.275C267.028 188.275 264.856 189.331 263.449 191.223L257.213 199.655C254.338 203.562 255.6 209.713 260.028 213.364C262.018 215.002 264.408 215.912 266.725 215.912C268.666 215.912 270.377 215.293 271.711 214.153C272.111 213.801 279.245 204.229 279.33 204.083L279.342 204.095Z" fill="#6F9576"/>
<path d="M420.475 107.524C416.483 107.184 411.825 106.092 406.426 104.83C397.994 102.853 387.5 100.39 376.496 100.39H375.732C350.897 100.633 330.673 103.884 327.652 108.143C326.949 109.137 326.124 110.278 325.25 111.479C324.607 112.377 323.94 113.287 323.212 114.269C322.666 115.034 322.071 115.846 321.489 116.635C315.108 125.407 307.234 136.386 303.582 143.641C302.138 148.737 302.721 150.569 303.194 151.199C303.885 152.121 305.827 152.316 307.331 152.316C308.095 152.316 308.92 152.267 309.806 152.17C327.968 150.763 340.051 131.084 340.173 130.878C340.549 130.247 341.155 129.774 341.859 129.544L347.876 127.627L355.156 125.309C355.459 125.212 355.774 125.164 356.078 125.164C356.551 125.164 357.012 125.273 357.437 125.479C357.679 125.601 379.177 136.362 396.538 147.147C397.776 147.912 398.989 148.688 400.178 149.452C401.573 150.35 402.932 151.248 404.218 152.134C415.913 160.104 424.879 166.534 431.503 171.436C441.245 178.642 445.855 182.512 446.159 182.767L452.407 187.923C452.431 187.911 452.455 187.899 452.479 187.887C454.53 186.989 458.485 184.951 462.889 180.947C464.769 179.249 466.116 177.829 467.426 176.471C469.028 174.796 470.532 173.207 472.752 171.375C472.801 171.327 472.861 171.29 472.898 171.254L435.531 104.879C430.338 106.687 425 107.876 420.439 107.487L420.475 107.524Z" fill="#6F9576"/>
<path d="M283.952 93.4868C284.523 92.4799 284.207 91.1453 283.273 90.5751L262.078 77.6544C261.799 77.4846 261.508 77.3997 261.193 77.3997C260.537 77.3997 259.931 77.7636 259.591 78.3702L212.373 162.227C211.815 163.234 212.13 164.557 213.064 165.127L234.259 178.048C235.096 178.557 236.249 178.205 236.746 177.32L283.952 93.4747V93.4868Z" fill="#6F9576"/>
<path d="M507.705 162.227L460.499 78.3824C460.159 77.7758 459.552 77.4119 458.897 77.4119C458.582 77.4119 458.291 77.4968 458.012 77.6666L436.817 90.5873C435.883 91.1575 435.555 92.4921 436.125 93.4869L483.331 177.332C483.841 178.23 484.969 178.569 485.831 178.06L507.013 165.139C507.96 164.569 508.275 163.234 507.705 162.227Z" fill="#6F9576"/>
</svg>
