<svg width="726" height="810" viewBox="0 0 726 810" fill="none" xmlns="http://www.w3.org/2000/svg">
<path d="M724.455 564.655V245.357C724.455 214.735 708.113 186.443 681.604 171.132L405.085 11.4832C378.564 -3.82774 345.891 -3.82774 319.37 11.4832L42.8512 171.12C16.3301 186.431 0 214.723 0 245.345V564.643C0 595.265 16.3301 623.557 42.8512 638.868L319.37 798.517C345.891 813.828 378.564 813.828 405.085 798.517L681.604 638.868C708.125 623.557 724.455 595.265 724.455 564.643V564.655Z" fill="#F7FFF7"/>
<path fill-rule="evenodd" clip-rule="evenodd" d="M670.188 318.372H55.0806C41.0096 318.372 29.6028 329.779 29.6028 343.85V465.585C29.6028 479.656 41.0096 491.063 55.0806 491.063H670.188C684.258 491.063 695.665 479.656 695.665 465.585V343.85C695.665 329.779 684.258 318.372 670.188 318.372ZM55.0806 312.306C37.6593 312.306 23.5366 326.429 23.5366 343.85V465.585C23.5366 483.007 37.6593 497.129 55.0806 497.129H670.188C687.609 497.129 701.731 483.007 701.731 465.585V343.85C701.731 326.429 687.609 312.306 670.188 312.306H55.0806Z" fill="#6F9576"/>
<path d="M57.1674 456.68V351.681H100.541C108.402 351.681 115.187 353.219 120.895 356.295C126.637 359.337 131.063 363.592 134.174 369.061C137.284 374.496 138.839 380.819 138.839 388.031C138.839 395.277 137.25 401.617 134.071 407.052C130.927 412.452 126.432 416.639 120.587 419.613C114.743 422.586 107.804 424.073 99.7721 424.073H73.0096V404.078H95.0553C98.8834 404.078 102.079 403.412 104.643 402.079C107.24 400.746 109.206 398.883 110.539 396.49C111.872 394.063 112.538 391.244 112.538 388.031C112.538 384.784 111.872 381.981 110.539 379.623C109.206 377.23 107.24 375.384 104.643 374.086C102.045 372.787 98.8493 372.137 95.0553 372.137H82.5456V456.68H57.1674Z" fill="#0A231E"/>
<path d="M249.546 389.723H223.911C223.57 387.091 222.869 384.715 221.809 382.596C220.75 380.477 219.348 378.666 217.605 377.162C215.862 375.658 213.794 374.513 211.402 373.727C209.043 372.906 206.429 372.496 203.557 372.496C198.465 372.496 194.073 373.744 190.381 376.239C186.724 378.734 183.904 382.34 181.922 387.057C179.974 391.773 178.999 397.481 178.999 404.181C178.999 411.153 179.991 416.998 181.973 421.715C183.99 426.397 186.81 429.935 190.433 432.327C194.09 434.686 198.413 435.865 203.404 435.865C206.206 435.865 208.753 435.506 211.043 434.788C213.367 434.071 215.401 433.028 217.144 431.661C218.921 430.26 220.374 428.568 221.502 426.585C222.664 424.569 223.467 422.296 223.911 419.766L249.546 419.92C249.102 424.569 247.752 429.149 245.496 433.66C243.274 438.172 240.215 442.291 236.319 446.016C232.422 449.708 227.671 452.647 222.066 454.835C216.494 457.022 210.103 458.116 202.891 458.116C193.389 458.116 184.878 456.031 177.359 451.861C169.874 447.657 163.961 441.539 159.62 433.507C155.279 425.474 153.109 415.699 153.109 404.181C153.109 392.628 155.313 382.836 159.722 374.803C164.131 366.771 170.096 360.67 177.615 356.5C185.135 352.33 193.56 350.245 202.891 350.245C209.248 350.245 215.127 351.134 220.528 352.911C225.928 354.655 230.679 357.218 234.78 360.602C238.882 363.951 242.214 368.07 244.778 372.958C247.341 377.845 248.931 383.434 249.546 389.723Z" fill="#0A231E"/>
<path d="M292.334 351.681V456.68H266.955V351.681H292.334Z" fill="#0A231E"/>
<path d="M420.95 456.68H382.139V351.681H420.899C431.597 351.681 440.808 353.783 448.533 357.987C456.291 362.157 462.273 368.173 466.477 376.034C470.681 383.861 472.783 393.226 472.783 404.129C472.783 415.067 470.681 424.466 466.477 432.327C462.307 440.189 456.343 446.221 448.584 450.425C440.825 454.595 431.614 456.68 420.95 456.68ZM407.517 435.045H419.976C425.855 435.045 430.828 434.054 434.895 432.071C438.997 430.054 442.09 426.79 444.175 422.279C446.294 417.733 447.353 411.683 447.353 404.129C447.353 396.576 446.294 390.56 444.175 386.083C442.056 381.571 438.928 378.324 434.793 376.341C430.691 374.325 425.632 373.317 419.617 373.317H407.517V435.045Z" fill="#0A231E"/>
<path d="M547.242 383.16C546.901 379.4 545.38 376.478 542.679 374.393C540.013 372.274 536.202 371.214 531.246 371.214C527.965 371.214 525.231 371.642 523.043 372.496C520.856 373.351 519.215 374.53 518.121 376.034C517.028 377.504 516.464 379.195 516.43 381.109C516.361 382.682 516.669 384.066 517.352 385.262C518.07 386.459 519.096 387.518 520.429 388.441C521.796 389.33 523.436 390.116 525.35 390.799C527.264 391.483 529.418 392.081 531.81 392.594L540.834 394.645C546.029 395.772 550.609 397.276 554.574 399.156C558.573 401.036 561.923 403.275 564.623 405.873C567.357 408.47 569.425 411.461 570.826 414.845C572.228 418.228 572.945 422.022 572.98 426.226C572.945 432.857 571.271 438.548 567.955 443.299C564.64 448.05 559.872 451.69 553.651 454.219C547.465 456.749 539.996 458.013 531.246 458.013C522.462 458.013 514.806 456.697 508.278 454.066C501.749 451.434 496.674 447.435 493.051 442.069C489.428 436.702 487.565 429.918 487.462 421.715H511.764C511.969 425.098 512.875 427.918 514.481 430.174C516.088 432.43 518.292 434.139 521.095 435.301C523.932 436.463 527.213 437.044 530.939 437.044C534.357 437.044 537.262 436.583 539.655 435.66C542.081 434.737 543.944 433.455 545.243 431.815C546.542 430.174 547.208 428.294 547.242 426.175C547.208 424.193 546.593 422.501 545.397 421.099C544.2 419.664 542.355 418.433 539.86 417.408C537.399 416.349 534.254 415.374 530.426 414.486L519.454 411.922C510.363 409.837 503.202 406.471 497.973 401.822C492.743 397.14 490.146 390.816 490.18 382.853C490.146 376.359 491.889 370.668 495.409 365.78C498.93 360.892 503.8 357.081 510.021 354.347C516.242 351.613 523.334 350.245 531.298 350.245C539.432 350.245 546.49 351.63 552.472 354.398C558.487 357.133 563.153 360.978 566.468 365.934C569.784 370.89 571.476 376.632 571.544 383.16H547.242Z" fill="#0A231E"/>
<path d="M645.439 383.16C645.098 379.4 643.577 376.478 640.876 374.393C638.21 372.274 634.399 371.214 629.443 371.214C626.162 371.214 623.428 371.642 621.24 372.496C619.053 373.351 617.412 374.53 616.318 376.034C615.225 377.504 614.661 379.195 614.627 381.109C614.558 382.682 614.866 384.066 615.549 385.262C616.267 386.459 617.293 387.518 618.626 388.441C619.993 389.33 621.633 390.116 623.547 390.799C625.462 391.483 627.615 392.081 630.007 392.594L639.031 394.645C644.226 395.772 648.806 397.276 652.771 399.156C656.77 401.036 660.12 403.275 662.82 405.873C665.554 408.47 667.622 411.461 669.023 414.845C670.425 418.228 671.142 422.022 671.177 426.226C671.142 432.857 669.468 438.548 666.152 443.299C662.837 448.05 658.069 451.69 651.848 454.219C645.662 456.749 638.193 458.013 629.443 458.013C620.659 458.013 613.003 456.697 606.475 454.066C599.946 451.434 594.871 447.435 591.248 442.069C587.625 436.702 585.762 429.918 585.659 421.715H609.961C610.166 425.098 611.072 427.918 612.678 430.174C614.285 432.43 616.489 434.139 619.292 435.301C622.129 436.463 625.41 437.044 629.136 437.044C632.554 437.044 635.459 436.583 637.852 435.66C640.278 434.737 642.141 433.455 643.44 431.815C644.739 430.174 645.405 428.294 645.439 426.175C645.405 424.193 644.79 422.501 643.594 421.099C642.397 419.664 640.552 418.433 638.057 417.408C635.596 416.349 632.451 415.374 628.623 414.486L617.651 411.922C608.56 409.837 601.399 406.471 596.17 401.822C590.94 397.14 588.343 390.816 588.377 382.853C588.343 376.359 590.086 370.668 593.606 365.78C597.127 360.892 601.997 357.081 608.218 354.347C614.439 351.613 621.531 350.245 629.495 350.245C637.629 350.245 644.687 351.63 650.669 354.398C656.684 357.133 661.35 360.978 664.665 365.934C667.981 370.89 669.673 376.632 669.741 383.16H645.439Z" fill="#0A231E"/>
<path d="M120.837 546.132C120.837 545.95 120.837 545.78 120.874 545.622C120.898 545.465 120.91 545.283 120.91 545.076V544.627C120.91 541.4 120.352 538.768 119.236 536.729C118.12 534.691 116.421 533.187 114.128 532.24C111.835 531.282 109.057 530.809 105.793 530.809C103.889 530.809 102.057 531.039 100.31 531.488C98.5626 531.937 97.0096 532.665 95.6508 533.672C94.292 534.667 93.103 535.929 92.1082 537.445C91.1134 538.962 90.3247 540.818 89.7545 542.99C89.1843 545.173 88.9053 547.636 88.9053 550.415C88.9053 553.314 89.1722 555.886 89.7181 558.106C90.2641 560.327 91.0406 562.256 92.0718 563.894C93.103 565.531 94.292 566.878 95.6751 567.946C97.0582 569.013 98.6475 569.79 100.443 570.299C102.239 570.797 104.131 571.052 106.133 571.052C109.542 571.052 112.345 570.506 114.577 569.414C116.797 568.322 118.435 566.745 119.479 564.682C120.522 562.62 121.044 560.133 121.044 557.233V555.741H127.85C127.801 555.923 127.801 556.117 127.85 556.323C127.898 556.529 127.911 556.76 127.886 557.002C127.862 557.257 127.85 557.512 127.85 557.791C127.85 560.242 127.583 562.474 127.037 564.5C126.491 566.526 125.63 568.322 124.453 569.911C123.276 571.501 121.832 572.859 120.134 574C118.435 575.14 116.409 575.977 114.08 576.523C111.738 577.069 109.118 577.336 106.218 577.336C103.318 577.336 100.613 576.996 98.1137 576.317C95.6144 575.638 93.37 574.594 91.3681 573.187C89.3663 571.78 87.6557 570.008 86.2241 567.873C84.7924 565.738 83.6884 563.238 82.9241 560.387C82.1476 557.524 81.7715 554.309 81.7715 550.718C81.7715 547.127 82.1476 544.264 82.8998 541.558C83.652 538.853 84.6954 536.438 86.0299 534.303C87.3645 532.168 89.0387 530.396 91.0284 528.989C93.0303 527.582 95.2747 526.502 97.774 525.75C100.273 524.997 103.088 524.621 106.218 524.621C109.166 524.621 111.811 524.913 114.153 525.507C116.494 526.101 118.508 526.951 120.207 528.055C121.905 529.171 123.3 530.481 124.392 531.998C125.484 533.514 126.309 535.249 126.879 537.203C127.45 539.156 127.729 541.267 127.729 543.536V545.198C127.729 545.452 127.704 545.756 127.656 546.12H120.85L120.837 546.132Z" fill="#0A231E"/>
<path d="M381.512 576.899H374.16C374.208 575.128 374.232 573.284 374.257 571.355C374.281 569.426 374.305 567.448 374.33 565.434C374.354 563.42 374.366 561.249 374.366 558.931V543.778C374.366 541.437 374.366 539.253 374.33 537.202C374.305 535.164 374.281 533.199 374.257 531.318C374.232 529.438 374.196 527.606 374.16 525.834H381.512C381.463 527.557 381.427 529.377 381.415 531.282C381.391 533.187 381.366 535.152 381.342 537.166C381.318 539.192 381.306 541.364 381.306 543.705V558.859C381.306 561.176 381.306 563.348 381.342 565.398C381.366 567.436 381.391 569.414 381.415 571.318C381.439 573.223 381.475 575.092 381.512 576.899Z" fill="#0A231E"/>
<path d="M490.702 576.899H483.35C483.399 575.128 483.423 573.284 483.447 571.355C483.472 569.426 483.496 567.448 483.52 565.434C483.544 563.42 483.556 561.249 483.556 558.931V543.778C483.556 541.437 483.556 539.253 483.52 537.202C483.496 535.164 483.472 533.199 483.447 531.318C483.423 529.438 483.387 527.606 483.35 525.834H490.702C490.654 527.557 490.617 529.377 490.605 531.282C490.581 533.187 490.557 535.152 490.533 537.166C490.508 539.192 490.496 541.364 490.496 543.705V558.859C490.496 561.176 490.496 563.348 490.533 565.398C490.557 567.436 490.581 569.414 490.605 571.318C490.63 573.223 490.666 575.092 490.702 576.899Z" fill="#0A231E"/>
<path d="M229.785 527.06H250.726C253.492 527.06 255.931 527.351 258.042 527.921C260.153 528.491 261.936 529.365 263.404 530.542C264.872 531.707 266.012 533.187 266.825 534.982C267.638 536.766 268.039 538.901 268.039 541.364C268.039 543.584 267.699 545.537 267.019 547.236C266.34 548.934 265.321 550.366 263.95 551.519C262.591 552.671 260.868 553.557 258.806 554.2C256.743 554.843 254.28 555.183 251.429 555.219L256.282 553.69V555.801L251.429 554.527C254.074 554.746 256.246 554.988 257.981 555.267C259.704 555.546 261.135 556.008 262.288 556.675C263.44 557.33 264.411 558.313 265.2 559.611C265.988 560.909 266.74 562.668 267.468 564.876C268.063 566.453 268.572 567.873 268.997 569.159C269.422 570.433 269.822 571.573 270.174 572.58C270.538 573.587 270.865 574.376 271.169 574.97H265.102C264.629 574.97 264.277 574.873 264.023 574.679C263.768 574.485 263.537 574.157 263.355 573.684C263.161 573.211 262.943 572.495 262.688 571.513C261.96 569.135 261.305 567.096 260.711 565.41C260.116 563.724 259.534 562.328 258.951 561.224C258.381 560.12 257.714 559.247 256.974 558.604C256.234 557.961 255.336 557.524 254.293 557.257C253.249 557.002 251.987 556.869 250.495 556.869H247.778C246.953 556.869 246.103 556.869 245.254 556.833C244.405 556.796 243.495 556.796 242.536 556.796C241.578 556.796 240.559 556.796 239.467 556.833C238.375 556.869 237.138 556.869 235.73 556.869L235.67 551.628C236.058 551.628 236.725 551.652 237.684 551.688C238.642 551.737 239.795 551.761 241.129 551.785C242.464 551.81 243.944 551.81 245.533 551.785C247.122 551.761 248.821 551.749 250.604 551.749C253.031 551.749 255.057 551.361 256.707 550.572C258.345 549.784 259.57 548.655 260.383 547.187C261.196 545.719 261.596 544.045 261.596 542.177C261.596 540.308 261.378 538.816 260.929 537.579C260.48 536.341 259.752 535.346 258.757 534.582C257.762 533.818 256.501 533.247 254.984 532.896C253.468 532.532 251.648 532.35 249.525 532.35H247.486C246.722 532.35 245.849 532.35 244.866 532.386C243.883 532.41 242.9 532.434 241.893 532.483C240.886 532.532 239.94 532.556 239.054 532.58C238.157 532.604 237.32 532.616 236.531 532.616C235.742 532.616 235.136 532.641 234.711 532.677L236.313 529.68C236.264 534.145 236.24 538.573 236.216 542.965C236.191 547.357 236.215 551.555 236.252 555.583C236.3 559.611 236.349 563.263 236.41 566.563C236.47 569.863 236.616 572.665 236.822 574.958H229.798C229.834 572.617 229.858 570.263 229.858 567.897C229.858 565.531 229.882 562.984 229.919 560.23C229.967 557.488 229.98 554.406 229.98 550.997C229.98 545.938 229.98 541.534 229.943 537.809C229.907 534.084 229.87 530.493 229.785 527.048V527.06Z" fill="#0A231E"/>
<path d="M303.817 527.048H341.039V532.859C338.782 532.823 336.55 532.786 334.329 532.762C332.109 532.738 329.998 532.726 327.972 532.701C325.946 532.677 324.09 532.665 322.379 532.665C319.904 532.665 317.053 532.665 313.789 532.701C310.538 532.726 307.202 532.774 303.792 532.859C303.829 532.434 303.853 531.949 303.853 531.427V528.394C303.853 527.885 303.829 527.436 303.792 527.048H303.817ZM319.334 530.044H325.655V539.908C325.655 543.208 325.655 546.399 325.691 549.492C325.715 552.574 325.728 555.51 325.728 558.276V565.774C325.728 568.006 325.728 569.899 325.764 571.452C325.788 573.005 325.813 574.17 325.861 574.934C325.521 574.934 325.145 574.934 324.745 574.897C324.344 574.873 323.932 574.861 323.532 574.861H321.421C321.02 574.861 320.62 574.861 320.244 574.897C319.856 574.922 319.431 574.934 318.97 574.934C319.055 574.206 319.103 573.078 319.128 571.513C319.152 569.96 319.164 568.055 319.188 565.798C319.213 563.542 319.225 561.042 319.225 558.3C319.225 555.559 319.249 552.635 319.285 549.517C319.322 546.399 319.346 543.196 319.346 539.872V530.044H319.334Z" fill="#0A231E"/>
<path d="M196.519 574.934H160.631C160.753 572.981 160.838 570.785 160.85 568.358C160.862 565.932 160.886 563.287 160.886 560.411V537.263C160.886 535.225 160.886 533.344 160.85 531.646C160.813 529.947 160.801 528.407 160.753 527.048H196.507V532.798C194.335 532.762 192.151 532.726 189.955 532.701C187.759 532.677 185.587 532.665 183.416 532.641C181.244 532.616 179.133 532.604 177.095 532.604H165.982L167.328 528.843V573.029L165.982 569.195H183.537C185.66 569.195 187.82 569.171 190.016 569.135C192.212 569.086 194.371 569.05 196.494 569.001V574.934H196.519ZM165.86 553.423V548.255H184.532C186.558 548.255 188.524 548.255 190.44 548.219C192.357 548.182 194.165 548.182 195.864 548.182C195.864 548.522 195.864 549.044 195.827 549.747C195.803 550.451 195.791 551.142 195.791 551.822V553.678C194.129 553.63 192.345 553.605 190.428 553.581C188.511 553.557 186.546 553.545 184.52 553.545C182.494 553.545 180.443 553.545 178.357 553.508C176.27 553.484 174.171 553.472 172.072 553.448C169.961 553.423 167.887 553.411 165.848 553.411L165.86 553.423Z" fill="#0A231E"/>
<path d="M559.274 574.934H523.387C523.508 572.981 523.593 570.785 523.605 568.358C523.617 565.932 523.642 563.287 523.642 560.411V537.263C523.642 535.225 523.642 533.344 523.605 531.646C523.569 529.947 523.557 528.407 523.508 527.048H559.262V532.798C557.09 532.762 554.906 532.726 552.711 532.701C550.515 532.677 548.343 532.665 546.171 532.641C544 532.616 541.889 532.604 539.85 532.604H528.737L530.084 528.843V573.029L528.737 569.195H546.292C548.416 569.195 550.575 569.171 552.771 569.135C554.967 569.086 557.127 569.05 559.25 569.001V574.934H559.274ZM528.616 553.423V548.255H547.287C549.314 548.255 551.279 548.255 553.196 548.219C555.113 548.182 556.92 548.182 558.619 548.182C558.619 548.522 558.619 549.044 558.582 549.747C558.558 550.451 558.546 551.142 558.546 551.822V553.678C556.884 553.63 555.101 553.605 553.184 553.581C551.267 553.557 549.301 553.545 547.275 553.545C545.249 553.545 543.199 553.545 541.112 553.508C539.025 553.484 536.926 553.472 534.828 553.448C532.717 553.423 530.642 553.411 528.604 553.411L528.616 553.423Z" fill="#0A231E"/>
<path d="M610.036 574.946H592.541C592.626 572.774 592.674 570.493 592.698 568.116C592.723 565.738 592.735 563.129 592.735 560.327V543.79C592.735 541.497 592.735 539.338 592.698 537.336C592.662 535.334 592.65 533.478 592.638 531.743C592.626 530.008 592.589 528.455 592.541 527.048H610.169C613.275 527.048 616.065 527.327 618.528 527.873C620.991 528.431 623.163 529.268 625.007 530.396C626.851 531.525 628.416 533.005 629.666 534.837C630.915 536.669 631.849 538.901 632.444 541.546C633.038 544.191 633.342 547.163 633.342 550.487C633.342 553.812 633.051 556.857 632.48 559.526C631.91 562.183 631 564.488 629.763 566.417C628.525 568.346 626.984 569.947 625.128 571.209C623.272 572.471 621.088 573.405 618.589 574.024C616.078 574.643 613.226 574.946 610.036 574.946ZM599.432 572.653L597.321 568.953C598.558 569.038 599.675 569.098 600.669 569.147C601.664 569.195 602.647 569.22 603.605 569.244C604.564 569.268 605.547 569.28 606.541 569.28H609.829C612.086 569.28 614.124 569.062 615.956 568.613C617.788 568.164 619.39 567.509 620.773 566.635C622.156 565.762 623.296 564.597 624.194 563.117C625.092 561.649 625.759 559.89 626.208 557.852C626.657 555.813 626.875 553.399 626.875 550.633C626.875 548.037 626.657 545.731 626.208 543.705C625.759 541.679 625.08 539.969 624.17 538.561C623.26 537.154 622.131 536.038 620.821 535.213C619.499 534.388 617.934 533.769 616.126 533.357C614.318 532.956 612.28 532.75 610.023 532.75C607.767 532.75 605.656 532.774 603.569 532.811C601.482 532.859 599.529 532.92 597.697 533.005L599.481 529.426C599.432 530.748 599.408 532.265 599.383 533.987C599.359 535.71 599.335 537.518 599.323 539.411C599.299 541.303 599.286 543.256 599.286 545.258V564.706C599.286 566.344 599.311 567.8 599.347 569.086C599.383 570.372 599.408 571.561 599.408 572.665L599.432 572.653Z" fill="#0A231E"/>
<path d="M421.221 574.922H414.196C414.245 572.75 414.269 570.469 414.293 568.091C414.317 565.713 414.342 563.105 414.39 560.302C414.427 557.488 414.451 554.382 414.451 550.985V543.839C414.451 541.631 414.427 539.544 414.39 537.579C414.342 535.625 414.317 533.781 414.293 532.058C414.269 530.336 414.245 528.661 414.196 527.048H450.023C449.974 527.436 449.95 527.873 449.926 528.358C449.901 528.843 449.889 529.304 449.889 529.729C449.889 530.287 449.889 530.845 449.926 531.415C449.95 531.986 449.962 532.495 449.962 532.92C446.213 532.871 442.513 532.847 438.849 532.823C435.185 532.798 431.679 532.786 428.318 532.786H419.061L420.917 528.576C420.869 529.341 420.857 530.384 420.857 531.706V554.952C420.857 556.699 420.857 558.482 420.893 560.314C420.917 562.146 420.93 563.954 420.954 565.738C420.978 567.521 421.014 569.207 421.087 570.785C421.16 572.362 421.209 573.745 421.245 574.934L421.221 574.922ZM419.874 556.857V551.494C425.067 551.494 430.199 551.494 435.258 551.458C440.317 551.434 445.097 551.409 449.562 551.361C449.513 551.785 449.489 552.222 449.465 552.671C449.44 553.12 449.428 553.605 449.428 554.139V556.857C446.529 556.808 443.447 556.796 440.171 556.796C436.896 556.796 433.547 556.796 430.15 556.832C426.741 556.857 423.32 556.869 419.874 556.869V556.857Z" fill="#0A231E"/>
<path d="M361.708 58.9294C383.943 71.7413 408.653 79.6733 434.192 82.197C434.263 87.11 434.437 93.363 434.631 100.301C435.284 124.117 436.279 160.107 433.888 172.054L433.888 172.059C428.649 198.215 404.411 221.396 361.837 240.984C322.049 222.622 298.082 200.492 290.6 175.193C288.255 167.27 289.211 124.541 289.779 99.03C289.935 92.2277 290.07 86.1279 290.14 81.3425C321.317 76.9853 345.353 69.4607 361.708 58.9294ZM393.072 104.542C386.949 110.085 381.467 115.78 376.59 121.395C368.333 130.899 361.819 140.178 356.888 148.094C353.096 154.168 350.245 159.436 348.255 163.392C348.053 163.792 347.86 164.179 347.672 164.552C345.65 168.652 344.686 171.057 344.686 171.057L340.28 166.948L336.47 163.392L333.785 160.888L326.281 153.888L325.442 154.469L314.025 162.358L314.384 162.817L322.206 172.81L334.372 188.351L351.155 186.814C357.032 176.394 362.545 166.787 367.852 158.011C372.918 149.627 377.795 142.007 382.609 135.165C391.821 122.06 400.809 111.811 410.477 104.542H393.072Z" fill="#6F9576"/>
</svg>
