<svg xmlns="http://www.w3.org/2000/svg" width="40" height="40" fill="none" viewBox="0 0 40 40"><path fill="#0866ff" d="M40 20C40 8.954 31.046 0 20 0S0 8.954 0 20c0 9.38 6.458 17.25 15.169 19.411V26.112h-4.124V20h4.124v-2.634c0-6.807 3.08-9.962 9.764-9.962 1.267 0 3.453.249 4.348.497v5.54c-.472-.05-1.292-.075-2.31-.075-3.28 0-4.547 1.243-4.547 4.472V20h6.533l-1.123 6.112h-5.41v13.742C32.327 38.658 40.001 30.226 40.001 20z"/><path fill="#fff" d="M27.834 26.112 28.956 20h-6.533v-2.162c0-3.23 1.267-4.472 4.547-4.472 1.018 0 1.838.025 2.31.075V7.9c-.895-.249-3.08-.497-4.348-.497-6.683 0-9.764 3.155-9.764 9.962V20h-4.124v6.112h4.124v13.3a20 20 0 0 0 7.254.442V26.112h5.412"/></svg>