<svg width="40" height="40" viewBox="0 0 40 40" fill="none" xmlns="http://www.w3.org/2000/svg">
<rect width="40" height="40" fill="white"/>
<path d="M11.2332 19.2778C11.2332 19.2778 10.9332 19.2334 10.5998 19.2222C10.122 19.2111 9.92205 19.3889 9.92205 19.3889C9.7776 19.4889 9.71094 19.6334 9.71094 19.8334C9.71094 19.9667 9.73316 20.0667 9.7776 20.1334C9.81094 20.1778 9.82205 20.2 9.91094 20.2667C9.91094 20.2667 10.122 20.4334 10.5887 20.4C10.9221 20.3778 11.2109 20.3222 11.2109 20.3222V19.2778H11.2332Z" fill="#00A0DF"/>
<path d="M25.1112 17.8889C24.8112 17.8889 24.589 17.9889 24.4445 18.2111C24.3001 18.4333 24.2334 18.7444 24.2334 19.1333C24.2334 19.5333 24.3112 19.8444 24.4445 20.0667C24.589 20.2889 24.8001 20.3889 25.1112 20.3889C25.4112 20.3889 25.6334 20.2778 25.7778 20.0667C25.9223 19.8444 26.0001 19.5333 26.0001 19.1333C26.0001 18.7333 25.9223 18.4222 25.7778 18.2111C25.6334 18 25.4112 17.8889 25.1112 17.8889Z" fill="#00A0DF"/>
<path d="M15.7887 17.8778C15.4887 17.8778 15.2664 18 15.122 18.2111C15.0331 18.3556 14.9664 18.5333 14.9331 18.7556H16.5887C16.5775 18.5444 16.5331 18.3556 16.4331 18.2111C16.2887 18 16.0887 17.8778 15.7887 17.8778Z" fill="#00A0DF"/>
<path d="M34.3556 17.8778C34.0556 17.8778 33.8333 18 33.6889 18.2111C33.6 18.3556 33.5333 18.5333 33.5 18.7556H35.1556C35.1444 18.5444 35.1 18.3556 35 18.2111C34.8556 18 34.6556 17.8778 34.3556 17.8778Z" fill="#00A0DF"/>
<path d="M31.3667 9.78889C30.1222 9.78889 28.9444 10.0556 27.8778 10.5333C26.6556 8.34444 24.3444 6.87778 21.7111 6.87778C19.7222 6.87778 17.9333 7.71111 16.6333 9.05556C15.2111 7.2 12.9778 6 10.4556 6C6.16667 6 2.68889 9.47778 2.68889 13.7556C2.68889 14.8556 2.92222 15.9 3.33333 16.8444C1.33333 18.0111 0 20.1889 0 22.6889C0 26.4111 2.98889 29.4333 6.67778 29.4333C7.14444 29.4333 7.61111 29.3889 8.05556 29.2889C9.06667 32.0333 11.7111 34 14.8 34C17.7778 34 20.3222 32.1889 21.4222 29.6222C22.2556 30.0333 23.1889 30.2556 24.1778 30.2556C26.5444 30.2556 28.6 28.9556 29.6778 27.0222C30.2222 27.1333 30.8 27.1889 31.3778 27.1889C36.1444 27.1889 40 23.2889 40 18.4889C39.9889 13.6889 36.1333 9.78889 31.3667 9.78889ZM8.55556 19.8889C8.55556 20.5889 8.04444 21.0222 7.22222 21.0222C6.82222 21.0222 6.43333 20.9556 6.02222 20.7444C5.94444 20.7 5.86667 20.6556 5.78889 20.6111C5.77778 20.6 5.74444 20.5889 5.76667 20.5222L5.93333 20.0778C5.95556 20 6.02222 20.0222 6.04444 20.0444C6.08889 20.0667 6.12222 20.1 6.17778 20.1333C6.65556 20.4333 7.1 20.4333 7.23333 20.4333C7.58889 20.4333 7.81111 20.2444 7.81111 19.9889V19.9778C7.81111 19.7 7.46667 19.6 7.07778 19.4778L6.98889 19.4556C6.44444 19.3 5.86667 19.0778 5.86667 18.3889V18.3778C5.86667 17.7222 6.38889 17.2778 7.14444 17.2778H7.22222C7.66667 17.2778 8.08889 17.4111 8.4 17.5889C8.43333 17.6111 8.45556 17.6333 8.44444 17.6778C8.43333 17.7222 8.28889 18.0889 8.27778 18.1222C8.24444 18.2 8.16667 18.1444 8.16667 18.1444C7.9 18 7.47778 17.8778 7.12222 17.8778C6.8 17.8778 6.6 18.0444 6.6 18.2778V18.2889C6.6 18.5556 6.95556 18.6667 7.35556 18.8L7.42222 18.8222C7.96667 18.9889 8.53333 19.2333 8.53333 19.8778V19.8889H8.55556ZM11.9111 20.8C11.9111 20.8 11.8222 20.8222 11.7444 20.8444C11.6667 20.8667 11.3889 20.9222 11.1556 20.9556C10.9222 20.9889 10.6889 21.0111 10.4556 21.0111C10.2333 21.0111 10.0222 20.9889 9.84444 20.9444C9.65556 20.9 9.5 20.8333 9.36667 20.7444C9.23333 20.6556 9.13333 20.5333 9.06667 20.3778C9 20.2333 8.95556 20.0556 8.95556 19.8444C8.95556 19.6444 9 19.4667 9.07778 19.3111C9.15556 19.1556 9.27778 19.0333 9.41111 18.9333C9.55556 18.8333 9.71111 18.7556 9.9 18.7111C10.0778 18.6667 10.2778 18.6333 10.4667 18.6333C10.6111 18.6333 10.7333 18.6333 10.8333 18.6444C10.8333 18.6444 11.0111 18.6556 11.2111 18.6889V18.5889C11.2111 18.2778 11.1444 18.1333 11.0222 18.0333C10.8889 17.9333 10.7 17.8889 10.4444 17.8889C10.4444 17.8889 9.87778 17.8778 9.43333 18.1222C9.41111 18.1333 9.4 18.1444 9.4 18.1444C9.4 18.1444 9.34444 18.1667 9.32222 18.1111L9.15556 17.6667C9.13333 17.6 9.17778 17.5778 9.17778 17.5778C9.38889 17.4111 9.88889 17.3111 9.88889 17.3111C10.0556 17.2778 10.3333 17.2556 10.5111 17.2556C10.9778 17.2556 11.3333 17.3667 11.5778 17.5778C11.8222 17.7889 11.9444 18.1333 11.9444 18.6V20.7222C11.9667 20.7222 11.9667 20.7889 11.9111 20.8ZM13.4667 20.8667C13.4667 20.9 13.4444 20.9333 13.4 20.9333H12.7889C12.7556 20.9333 12.7222 20.9 12.7222 20.8667V15.9222C12.7222 15.8889 12.7444 15.8556 12.7889 15.8556H13.4C13.4333 15.8556 13.4667 15.8889 13.4667 15.9222V20.8667ZM17.3111 19.2778C17.3 19.3333 17.2444 19.3333 17.2444 19.3333H14.9222C14.9333 19.6889 15.0222 19.9333 15.1889 20.1C15.3556 20.2667 15.6222 20.3667 15.9778 20.3778C16.5333 20.3778 16.7667 20.2667 16.9333 20.2111C16.9333 20.2111 17 20.1889 17.0222 20.2556L17.1778 20.6778C17.2111 20.7444 17.1889 20.7778 17.1556 20.7889C17.0111 20.8667 16.6556 21.0222 15.9889 21.0222C15.6667 21.0222 15.3778 20.9778 15.1444 20.8889C14.9111 20.8 14.7111 20.6667 14.5667 20.5C14.4111 20.3333 14.3 20.1333 14.2333 19.9111C14.1667 19.6889 14.1333 19.4333 14.1333 19.1667C14.1333 18.9 14.1667 18.6556 14.2333 18.4222C14.3 18.1889 14.4111 17.9889 14.5444 17.8222C14.6889 17.6556 14.8667 17.5111 15.0778 17.4111C15.2889 17.3111 15.5556 17.2667 15.8444 17.2667C16.0889 17.2667 16.3222 17.3222 16.5111 17.4C16.6556 17.4667 16.8 17.5778 16.9556 17.7333C17.0444 17.8333 17.1889 18.0556 17.2556 18.2778C17.3889 18.8 17.3111 19.2556 17.3111 19.2778ZM19.2333 21.0222C18.8333 21.0222 18.4444 20.9556 18.0333 20.7444C17.9556 20.7 17.8778 20.6556 17.8 20.6111C17.7889 20.6 17.7556 20.5889 17.7778 20.5222L17.9444 20.0778C17.9667 20 18.0333 20.0333 18.0556 20.0444C18.1 20.0778 18.1333 20.1 18.1889 20.1333C18.6667 20.4333 19.1111 20.4333 19.2444 20.4333C19.6 20.4333 19.8222 20.2444 19.8222 19.9889V19.9778C19.8222 19.7 19.4778 19.6 19.0889 19.4778L19 19.4556C18.4556 19.3 17.8778 19.0778 17.8778 18.3889V18.3778C17.8778 17.7222 18.4 17.2778 19.1556 17.2778H19.2333C19.6778 17.2778 20.1 17.4111 20.4111 17.5889C20.4444 17.6111 20.4667 17.6333 20.4556 17.6778C20.4444 17.7222 20.3 18.0889 20.2889 18.1222C20.2556 18.2 20.1778 18.1444 20.1778 18.1444C19.9111 18 19.4889 17.8778 19.1333 17.8778C18.8111 17.8778 18.6111 18.0444 18.6111 18.2778V18.2889C18.6111 18.5556 18.9667 18.6667 19.3667 18.8L19.4333 18.8222C19.9778 18.9889 20.5444 19.2333 20.5444 19.8778V19.8889C20.5667 20.5889 20.0556 21.0222 19.2333 21.0222ZM23.2889 17.8889C23.2778 17.9556 23.2111 17.9556 23.2111 17.9556H22.4444L21.9222 20.9111C21.8667 21.2222 21.8 21.4778 21.7222 21.6889C21.6444 21.9 21.5556 22.0556 21.4222 22.2111C21.3 22.3444 21.1556 22.4556 20.9889 22.5111C20.8222 22.5667 20.6333 22.6 20.4222 22.6C20.3222 22.6 20.2111 22.6 20.0778 22.5667C19.9889 22.5444 19.9333 22.5333 19.8667 22.5C19.8333 22.4889 19.8111 22.4556 19.8333 22.4111C19.8444 22.3667 19.9889 21.9889 20 21.9444C20.0222 21.8889 20.0889 21.9111 20.0889 21.9111C20.1333 21.9333 20.1556 21.9444 20.2111 21.9556C20.2667 21.9667 20.3444 21.9778 20.4 21.9778C20.5 21.9778 20.5889 21.9667 20.6778 21.9333C20.7778 21.9 20.8333 21.8444 20.8889 21.7667C20.9556 21.6889 21 21.5778 21.0556 21.4333C21.1111 21.2889 21.1556 21.1 21.1889 20.8667L21.7111 17.9667H21.2C21.1333 17.9667 21.1222 17.9333 21.1222 17.8889L21.2111 17.4111C21.2222 17.3444 21.2889 17.3444 21.2889 17.3444H21.8111L21.8444 17.1889C21.9222 16.7222 22.0778 16.3667 22.3111 16.1333C22.5444 15.9 22.8778 15.7778 23.2889 15.7778C23.4111 15.7778 23.5111 15.7889 23.6 15.8C23.6889 15.8111 23.7556 15.8333 23.8333 15.8556C23.8444 15.8667 23.8889 15.8889 23.8778 15.9333L23.7 16.4222C23.6889 16.4556 23.6778 16.4778 23.6 16.4556C23.5778 16.4444 23.5556 16.4444 23.4778 16.4222C23.4222 16.4111 23.3556 16.4 23.2889 16.4C23.2 16.4 23.1111 16.4111 23.0444 16.4333C22.9778 16.4556 22.9111 16.5 22.8556 16.5556C22.8 16.6111 22.7333 16.7 22.6889 16.8C22.6 17.0444 22.5667 17.3111 22.5667 17.3222H23.3111C23.3778 17.3222 23.3889 17.3556 23.3889 17.4L23.2889 17.8889ZM26.6778 19.8778C26.6111 20.1 26.5 20.3111 26.3667 20.4778C26.2222 20.6444 26.0444 20.7778 25.8444 20.8778C25.6333 20.9778 25.3889 21.0222 25.1111 21.0222C24.8333 21.0222 24.5889 20.9778 24.3778 20.8778C24.1667 20.7778 23.9889 20.6444 23.8556 20.4778C23.7111 20.3111 23.6111 20.1111 23.5444 19.8778C23.4778 19.6556 23.4444 19.4 23.4444 19.1444C23.4444 18.8778 23.4778 18.6333 23.5444 18.4111C23.6111 18.1889 23.7111 17.9889 23.8556 17.8111C24 17.6444 24.1778 17.5111 24.3778 17.4111C24.5778 17.3111 24.8333 17.2667 25.1111 17.2667C25.3889 17.2667 25.6333 17.3111 25.8444 17.4111C26.0556 17.5111 26.2333 17.6444 26.3667 17.8111C26.5111 17.9778 26.6111 18.1778 26.6778 18.4111C26.7444 18.6333 26.7778 18.8889 26.7778 19.1444C26.7778 19.4 26.7444 19.6556 26.6778 19.8778ZM29.5444 17.4556C29.5222 17.5222 29.4111 17.8333 29.3667 17.9444C29.3556 17.9889 29.3222 18.0111 29.2778 18.0111C29.2778 18.0111 29.1444 17.9778 29.0222 17.9778C28.9333 17.9778 28.8222 17.9889 28.7111 18.0222C28.6111 18.0556 28.5111 18.1111 28.4222 18.1889C28.3333 18.2667 28.2667 18.3889 28.2222 18.5333C28.1667 18.6778 28.1444 18.9111 28.1444 19.1444V20.8778C28.1444 20.9111 28.1111 20.9444 28.0778 20.9444H27.4667C27.4333 20.9444 27.4 20.9111 27.4 20.8778V17.4222C27.4 17.3889 27.4222 17.3556 27.4667 17.3556H28.0556C28.0889 17.3556 28.1222 17.3889 28.1222 17.4222V17.7C28.2111 17.5778 28.3667 17.4778 28.5111 17.4111C28.6556 17.3444 28.8222 17.3 29.1111 17.3111C29.2667 17.3222 29.4556 17.3667 29.5 17.3778C29.5222 17.3778 29.5667 17.4 29.5444 17.4556ZM32.4444 20.8444C32.1889 20.9444 31.8222 21.0222 31.4778 21.0222C30.8889 21.0222 30.4333 20.8556 30.1222 20.5111C29.8222 20.1778 29.6667 19.7111 29.6667 19.1444C29.6667 18.8778 29.7 18.6333 29.7778 18.4111C29.8556 18.1889 29.9667 17.9889 30.1111 17.8111C30.2556 17.6444 30.4444 17.5111 30.6667 17.4111C30.8889 17.3111 31.1444 17.2667 31.4333 17.2667C31.6222 17.2667 31.8 17.2778 31.9444 17.3C32.1 17.3222 32.3111 17.3778 32.4 17.4111C32.4111 17.4222 32.4556 17.4444 32.4444 17.4889C32.3778 17.6667 32.3333 17.7889 32.2778 17.9556C32.2556 18.0222 32.2 18 32.2 18C31.9778 17.9333 31.7556 17.9 31.4778 17.9C31.1444 17.9 30.8889 18.0111 30.7222 18.2333C30.5556 18.4556 30.4556 18.7444 30.4556 19.1333C30.4556 19.5556 30.5556 19.8778 30.7444 20.0667C30.9333 20.2667 31.2 20.3556 31.5222 20.3556C31.6556 20.3556 31.7889 20.3444 31.9 20.3333C32.0111 20.3111 32.1222 20.2778 32.2222 20.2444C32.2222 20.2444 32.2889 20.2222 32.3111 20.2889L32.4778 20.7556C32.4889 20.8111 32.4444 20.8444 32.4444 20.8444ZM35.8778 19.2778C35.8667 19.3333 35.8111 19.3333 35.8111 19.3333H33.4889C33.5 19.6889 33.5889 19.9333 33.7556 20.1C33.9222 20.2667 34.1889 20.3667 34.5444 20.3778C35.1 20.3778 35.3333 20.2667 35.5 20.2111C35.5 20.2111 35.5667 20.1889 35.5889 20.2556L35.7444 20.6778C35.7778 20.7444 35.7556 20.7778 35.7222 20.7889C35.5778 20.8667 35.2222 21.0222 34.5556 21.0222C34.2333 21.0222 33.9444 20.9778 33.7111 20.8889C33.4778 20.8 33.2778 20.6667 33.1333 20.5C32.9778 20.3333 32.8667 20.1333 32.8 19.9111C32.7333 19.6889 32.7 19.4333 32.7 19.1667C32.7 18.9 32.7333 18.6556 32.8 18.4222C32.8667 18.1889 32.9778 17.9889 33.1111 17.8222C33.2556 17.6556 33.4333 17.5111 33.6444 17.4111C33.8556 17.3111 34.1222 17.2667 34.4111 17.2667C34.6556 17.2667 34.8889 17.3222 35.0778 17.4C35.2222 17.4667 35.3667 17.5778 35.5222 17.7333C35.6111 17.8333 35.7556 18.0556 35.8222 18.2778C35.9556 18.8 35.8778 19.2556 35.8778 19.2778Z" fill="#00A0DF"/>
</svg>
