<svg width="40" height="40" viewBox="0 0 40 40" fill="none" xmlns="http://www.w3.org/2000/svg">
<rect width="40" height="40" fill="white"/>
<circle cx="20" cy="20" r="20" fill="#8AC2BF"/>
<path d="M2.9165 26.0667H8.03317C11.6498 26.0667 13.8665 23.9667 13.8665 20.0667C13.8665 16.3833 11.6832 14.1667 8.03317 14.1667H2.9165V26.0667ZM6.0165 16.8333H7.48317C9.59984 16.8333 10.7665 17.8833 10.7665 20.05C10.7665 22.4333 9.83317 23.35 7.48317 23.4H6.0165V16.8333Z" fill="#3C2B26"/>
<path d="M23.5777 26.0667H26.4944V17.0333H26.5277L29.0277 26.0667H31.3944L33.8944 17.0333H33.9277V26.0667H36.8444V14.1667H32.2777L30.2277 22.1H30.1944L28.1444 14.1667H23.5777V26.0667Z" fill="#3C2B26"/>
<path d="M23.0965 26.0667V23.6667H17.5798C18.3298 22.9333 18.7965 22.65 19.6798 22.1C21.3798 21.05 22.9798 20.2167 22.9798 17.9833C22.9798 15.5 20.9298 14.3 18.6298 14.3C15.7298 14.3 13.8965 16.25 14.0631 19.1333H16.7131C16.7298 17.8667 17.1465 16.7833 18.6465 16.7833C19.5465 16.7833 20.1465 17.3333 20.1465 18.2333C20.1465 19.0167 19.5131 19.5833 18.6298 20.1667C17.7298 20.7333 16.5965 21.3333 15.5965 22.2C14.4465 23.1833 13.7965 24.5833 13.7798 26.0667H23.0965Z" fill="white"/>
</svg>
