<svg width="40" height="40" viewBox="0 0 40 40" fill="none" xmlns="http://www.w3.org/2000/svg">
<rect width="40" height="40" fill="white"/>
<path d="M27.9614 4.77532V34.7686C27.9614 38.122 30.2781 40 32.7288 40C34.9919 40 37.4961 38.4037 37.4961 34.7686V5.00335C37.4961 1.93159 35.233 0 32.7288 0C30.2246 0 27.9614 2.1328 27.9614 4.77532Z" fill="#F7AC1B"/>
<path d="M15.481 20V34.7686C15.481 38.1221 17.7977 40 20.2483 40C22.5115 40 25.0156 38.4038 25.0156 34.7686V20.2281C25.0156 17.1563 22.7525 15.2247 20.2483 15.2247C17.7441 15.2247 15.481 17.3441 15.481 20Z" fill="#E37625"/>
<path d="M7.76734 40C10.4003 40 12.5347 37.862 12.5347 35.2247C12.5347 32.5873 10.4003 30.4493 7.76734 30.4493C5.13441 30.4493 3 32.5873 3 35.2247C3 37.862 5.13441 40 7.76734 40Z" fill="#E37625"/>
</svg>
