<svg width="40" height="40" viewBox="0 0 40 40" fill="none" xmlns="http://www.w3.org/2000/svg">
<path d="M5 24.2104V15.7029C5 15.2703 5.35181 14.9243 5.78073 14.9243H15.3857C15.8194 14.9243 16.1664 15.2751 16.1664 15.7029V24.2104C16.1664 24.643 15.8146 24.9891 15.3857 24.9891H5.78073C5.34699 24.9891 5 24.6382 5 24.2104Z" fill="#EE5757"/>
<path d="M16.1712 30.4156V39.1347C16.1712 39.5623 15.8242 39.9134 15.3953 39.9134L5.79037 40C5.35663 40.0045 5 39.6537 5 39.2212V30.4108C5 29.9782 5.35181 29.6322 5.78073 29.6322H15.3857C15.8194 29.637 16.1712 29.9879 16.1712 30.4156Z" fill="#61DABF"/>
<path d="M34.61 0.778656C34.61 0.346069 34.2582 0 33.8292 0H32.1666H21.1207H16.1712H5.78073C5.34699 0 5 0.350875 5 0.778656V9.49287C5 9.92546 5.35181 10.2715 5.78073 10.2715H21.1207H33.8244C34.2582 10.2715 34.6052 9.92065 34.6052 9.49287V0.778656H34.61Z" fill="#EE5757"/>
<path d="M34.6109 15.7029C34.6109 15.2703 34.2591 14.9243 33.8302 14.9243H32.1675H21.9023C21.4686 14.9243 21.1216 15.2751 21.1216 15.7029V24.2104C21.1216 24.643 21.4734 24.9891 21.9023 24.9891H32.1627H33.8253C34.2591 24.9891 34.6061 24.6382 34.6061 24.2104V15.7029H34.6109Z" fill="#61DABF"/>
</svg>
