<svg width="40" height="40" viewBox="0 0 40 40" fill="none" xmlns="http://www.w3.org/2000/svg">
<rect width="40" height="40" fill="white"/>
<path d="M39 0H1C0.447715 0 0 0.447714 0 0.999999V39C0 39.5523 0.447714 40 0.999999 40H39C39.5523 40 40 39.5523 40 39V1C40 0.447715 39.5523 0 39 0Z" fill="url(#paint0_radial)"/>
<path d="M19.9997 15.0244C22.5851 15.0244 24.6827 17.0732 24.6827 19.6098C24.6827 22.1464 22.5851 24.1951 19.9997 24.1951C18.2924 24.1951 16.7802 23.2683 15.951 21.9025L16.5851 21.5122C16.2436 20.9269 16.0485 20.2439 16.0485 19.561C16.0485 17.4147 17.8046 15.7073 19.9997 15.7073V15.0244ZM19.9997 24.7317C22.829 24.7317 25.1217 22.439 25.1217 19.6586C25.1217 16.8781 22.829 14.6342 19.9997 14.6342V13.9025C16.7802 13.9025 14.1461 16.4878 14.1461 19.7073C14.1461 20.7317 14.4388 21.7561 14.9753 22.6342L15.6095 22.2439C16.4388 23.7073 18.1461 24.7317 19.9997 24.7317ZM27.6095 24.0488C26.0485 26.5854 23.2192 28.3415 19.9997 28.3415C15.1217 28.3415 11.1705 24.439 11.1705 19.6098C11.1705 14.7805 15.1217 10.9756 19.9997 10.9756V11.7073C24.4388 11.7073 28.0973 15.2683 28.0973 19.6586C28.0973 21.0732 27.7071 22.439 27.0241 23.6586L27.6095 24.0488ZM19.9997 28.7805C23.4144 28.7805 26.4388 26.9269 27.9997 24.2439L28.6339 24.6342C29.5607 23.122 29.9997 21.3659 29.9997 19.6586C29.9997 14.1464 25.5119 9.75612 19.9997 9.75612V10.4878C14.8778 10.4878 10.7314 14.6342 10.7314 19.6586C10.7314 24.7317 14.8778 28.7805 19.9997 28.7805ZM19.9997 7.02441C27.0241 7.02441 32.7802 12.6829 32.7802 19.6586C32.7802 22 32.1461 24.1464 31.0241 26.0488L30.39 25.6098C28.2436 29.2683 24.2436 31.561 19.9997 31.561C15.7558 31.561 11.7558 29.2683 9.56071 25.6098L8.92657 26C7.80462 24.1464 7.17047 21.9512 7.17047 19.6098C7.21925 12.7317 12.9753 7.02441 19.9997 7.02441ZM31.4631 26.2439C32.6339 24.2927 33.268 22.0488 33.268 19.6586C33.268 12.439 27.3168 6.58539 19.9997 6.58539C12.6827 6.58539 6.73145 12.439 6.73145 19.6586C6.73145 22.0976 7.41437 24.3415 8.53632 26.2439L7.90218 26.6342C10.4388 30.8293 15.0729 33.4147 19.9997 33.4147C24.9266 33.4147 29.5607 30.8293 32.0485 26.6342L31.4631 26.2439Z" fill="url(#paint1_linear)"/>
<defs>
<radialGradient id="paint0_radial" cx="0" cy="0" r="1" gradientUnits="userSpaceOnUse" gradientTransform="translate(15.6099 -3.07664) scale(63.94 65.5769)">
<stop stop-color="#EB252E"/>
<stop offset="0.1463" stop-color="#E1242B"/>
<stop offset="0.3994" stop-color="#C52128"/>
<stop offset="0.7265" stop-color="#991E22"/>
<stop offset="1" stop-color="#6E1B1C"/>
</radialGradient>
<linearGradient id="paint1_linear" x1="6.74974" y1="20" x2="33.2497" y2="20" gradientUnits="userSpaceOnUse">
<stop offset="0.14" stop-color="white"/>
<stop offset="1" stop-color="#EBEDEB"/>
</linearGradient>
</defs>
</svg>
