<svg width="40" height="40" viewBox="0 0 40 40" fill="none" xmlns="http://www.w3.org/2000/svg">
<rect width="40" height="40" fill="white"/>
<path d="M27.0665 12.9138C30.9713 16.8186 30.9713 23.1417 27.0665 27.0664C25.1041 29.0288 25.1041 32.1804 27.0665 34.1427C29.0288 36.1051 32.1805 36.1051 34.1428 34.1427C41.9525 26.333 41.9525 13.667 34.1428 5.8573L27.0665 12.9138Z" fill="#EA4335"/>
<path d="M34.1427 5.85728C26.333 -1.95243 13.667 -1.95243 5.85728 5.85728C-1.95243 13.667 -1.95243 26.333 5.85728 34.1427L12.9336 27.0664C9.02874 23.1615 9.02874 16.8186 12.9336 12.9138C16.8385 9.00892 23.1814 9.00892 27.0862 12.9138C29.0486 14.8761 32.2002 14.8761 34.1625 12.9138C36.1051 10.9713 36.1051 7.7998 34.1427 5.85728Z" fill="url(#paint0_linear)"/>
<path d="M34.1427 34.1427L27.0663 27.0664C23.1615 30.9713 16.8186 30.9713 12.9137 27.0664L5.8374 34.1427C13.6669 41.9524 26.3329 41.9524 34.1427 34.1427Z" fill="#FBBC04"/>
<path d="M30.6142 35.5897C33.3729 35.5897 35.6092 33.3533 35.6092 30.5947C35.6092 27.836 33.3729 25.5996 30.6142 25.5996C27.8555 25.5996 25.6191 27.836 25.6191 30.5947C25.6191 33.3533 27.8555 35.5897 30.6142 35.5897Z" fill="#EA4335"/>
<path d="M9.38567 35.5897C12.1444 35.5897 14.3807 33.3533 14.3807 30.5947C14.3807 27.836 12.1444 25.5996 9.38567 25.5996C6.62699 25.5996 4.39062 27.836 4.39062 30.5947C4.39062 33.3533 6.62699 35.5897 9.38567 35.5897Z" fill="#34A853"/>
<defs>
<linearGradient id="paint0_linear" x1="-0.00424182" y1="17.0653" x2="35.611" y2="17.0653" gradientUnits="userSpaceOnUse">
<stop stop-color="#246FDB"/>
<stop offset="0.0551895" stop-color="#2973DF"/>
<stop offset="0.2781" stop-color="#377DEB"/>
<stop offset="0.5491" stop-color="#3F83F2"/>
<stop offset="1" stop-color="#4285F4"/>
</linearGradient>
</defs>
</svg>
