<svg width="40" height="40" viewBox="0 0 40 40" fill="none" xmlns="http://www.w3.org/2000/svg">
<rect width="40" height="40" fill="white"/>
<path d="M31.167 13.6187H35.5384C35.1345 10.0067 33.4575 6.65661 30.8079 4.16872C28.1583 1.68084 24.7094 0.217819 21.0791 0.041832V3.33475C23.7081 3.57135 26.167 4.73613 28.0154 6.62049C29.8638 8.50485 30.9811 10.9857 31.167 13.6187V13.6187Z" fill="#0A1751" fill-opacity="0.6"/>
<path d="M19.9901 3.26808V0C16.2809 0.0737884 12.7248 1.49332 9.98443 3.99421C7.24401 6.49509 5.50605 9.90681 5.09424 13.5939H8.95319C9.15134 10.798 10.3988 8.18032 12.4456 6.2654C14.4924 4.35049 17.1873 3.27986 19.9901 3.26808V3.26808Z" fill="#0A1751" fill-opacity="0.8"/>
<path d="M8.96484 15.641L8.99359 15.6293C8.94651 15.2157 8.9225 14.7998 8.9217 14.3835C8.9217 14.3233 8.9217 14.2632 8.9217 14.2031H5.03922C5.01438 14.5639 5 14.926 5 15.2933C5 25.7512 19.2488 40 20.2946 40C20.5077 40 21.4515 39.247 22.7784 37.9581C19.6933 34.1488 14.6278 27.8101 13.2839 25.6204C8.9217 18.5169 8.96484 15.641 8.96484 15.641Z" fill="#0A1751"/>
<path d="M35.5502 14.2031H31.1448C31.1448 14.2632 31.1448 14.3233 31.1448 14.3835C31.1434 16.1388 30.7266 17.8688 29.9283 19.4321C29.1301 20.9953 27.9731 22.3475 26.5521 23.3778C25.131 24.4082 23.4863 25.0875 21.7523 25.3603C20.0183 25.6331 18.2444 25.4915 16.5757 24.9472C16.8767 25.5696 17.2164 26.1725 17.5927 26.7525C19.0869 28.967 22.4412 33.0272 24.8191 35.8404C29.3395 30.9056 35.5894 22.4465 35.5894 15.2933C35.5894 14.926 35.575 14.5639 35.5502 14.2031Z" fill="#0A1751" fill-opacity="0.4"/>
<path d="M26.0069 19.9481C29.2548 16.7003 29.2548 11.4345 26.0069 8.18662C22.7591 4.93878 17.4933 4.93879 14.2455 8.18662C10.9976 11.4345 10.9976 16.7002 14.2455 19.9481C17.4933 23.1959 22.7591 23.1959 26.0069 19.9481Z" fill="#0A1751" fill-opacity="0.8"/>
</svg>
