<svg width="42" height="42" viewBox="0 0 42 42" fill="none" xmlns="http://www.w3.org/2000/svg">
<rect width="40" height="40" transform="translate(1 1)" fill="white"/>
<mask id="mask0" mask-type="alpha" maskUnits="userSpaceOnUse" x="0" y="0" width="42" height="42">
<path fill-rule="evenodd" clip-rule="evenodd" d="M12.519 0.923096C6.11463 0.923096 0.922852 6.11487 0.922852 12.5193V29.4808C0.922852 35.8852 6.11463 41.0769 12.519 41.0769H29.4805C35.8849 41.0769 41.0767 35.8852 41.0767 29.4808V12.5193C41.0767 6.11487 35.8849 0.923096 29.4805 0.923096H12.519ZM12.8652 4.55771C8.27695 4.55771 4.55747 8.27719 4.55747 12.8654V29.1346C4.55747 33.7229 8.27695 37.4423 12.8652 37.4423H29.1344C33.7226 37.4423 37.4421 33.7228 37.4421 29.1346V12.8654C37.4421 8.27719 33.7226 4.55771 29.1344 4.55771H12.8652ZM31.2113 21C31.2113 26.6397 26.6394 31.2115 20.9998 31.2115C15.3601 31.2115 10.7882 26.6397 10.7882 21C10.7882 15.3603 15.3601 10.7885 20.9998 10.7885C26.6394 10.7885 31.2113 15.3603 31.2113 21ZM27.5767 21C27.5767 24.6323 24.6321 27.5769 20.9998 27.5769C17.3674 27.5769 14.4229 24.6323 14.4229 21C14.4229 17.3677 17.3674 14.4231 20.9998 14.4231C24.6321 14.4231 27.5767 17.3677 27.5767 21ZM33.9805 10.2692C33.9805 11.6075 32.8957 12.6923 31.5575 12.6923C30.2192 12.6923 29.1344 11.6075 29.1344 10.2692C29.1344 8.93102 30.2192 7.84617 31.5575 7.84617C32.8957 7.84617 33.9805 8.93102 33.9805 10.2692Z" fill="white"/>
</mask>
<g mask="url(#mask0)">
<g filter="url(#filter0_f)">
<path fill-rule="evenodd" clip-rule="evenodd" d="M21.519 54.2308C40.5409 54.2308 55.9613 38.8104 55.9613 19.7885C55.9613 0.766507 40.5409 -14.6538 21.519 -14.6538C2.49701 -14.6538 -12.9233 0.766507 -12.9233 19.7885C-12.9233 38.8104 2.49701 54.2308 21.519 54.2308Z" fill="url(#paint0_linear)"/>
</g>
<g filter="url(#filter1_f)">
<path fill-rule="evenodd" clip-rule="evenodd" d="M11.7402 71.3654C27.6555 71.3654 40.5575 58.4634 40.5575 42.5481C40.5575 26.6327 27.6555 13.7308 11.7402 13.7308C-4.1752 13.7308 -17.0771 26.6327 -17.0771 42.5481C-17.0771 58.4634 -4.1752 71.3654 11.7402 71.3654Z" fill="#F8443E"/>
</g>
<g filter="url(#filter2_f)">
<path fill-rule="evenodd" clip-rule="evenodd" d="M11.0481 71.1923C24.1914 71.1923 34.8462 60.5375 34.8462 47.3942C34.8462 34.2509 24.1914 23.5961 11.0481 23.5961C-2.09524 23.5961 -12.75 34.2509 -12.75 47.3942C-12.75 60.5375 -2.09524 71.1923 11.0481 71.1923Z" fill="#F86737"/>
</g>
<g filter="url(#filter3_f)">
<path fill-rule="evenodd" clip-rule="evenodd" d="M11.5673 67.5577C22.5121 67.5577 31.3846 58.6852 31.3846 47.7404C31.3846 36.7956 22.5121 27.9231 11.5673 27.9231C0.622511 27.9231 -8.25 36.7956 -8.25 47.7404C-8.25 58.6852 0.622511 67.5577 11.5673 67.5577Z" fill="#F88330"/>
</g>
<g filter="url(#filter4_f)">
<path fill-rule="evenodd" clip-rule="evenodd" d="M11.5673 67.5577C21.2695 67.5577 29.1346 59.6925 29.1346 49.9904C29.1346 40.2882 21.2695 32.4231 11.5673 32.4231C1.86515 32.4231 -6 40.2882 -6 49.9904C-6 59.6925 1.86515 67.5577 11.5673 67.5577Z" fill="#FBBB45"/>
</g>
<g filter="url(#filter5_f)">
<path fill-rule="evenodd" clip-rule="evenodd" d="M11.394 67.5577C19.8535 67.5577 26.7113 60.6999 26.7113 52.2404C26.7113 43.7809 19.8535 36.9231 11.394 36.9231C2.93445 36.9231 -3.92334 43.7809 -3.92334 52.2404C-3.92334 60.6999 2.93445 67.5577 11.394 67.5577Z" fill="#FBE18A"/>
</g>
</g>
<defs>
<filter id="filter0_f" x="-17.9233" y="-19.6538" width="78.8846" height="78.8846" filterUnits="userSpaceOnUse" color-interpolation-filters="sRGB">
<feFlood flood-opacity="0" result="BackgroundImageFix"/>
<feBlend mode="normal" in="SourceGraphic" in2="BackgroundImageFix" result="shape"/>
<feGaussianBlur stdDeviation="2.5" result="effect1_foregroundBlur"/>
</filter>
<filter id="filter1_f" x="-37.0771" y="-6.26923" width="97.6346" height="97.6346" filterUnits="userSpaceOnUse" color-interpolation-filters="sRGB">
<feFlood flood-opacity="0" result="BackgroundImageFix"/>
<feBlend mode="normal" in="SourceGraphic" in2="BackgroundImageFix" result="shape"/>
<feGaussianBlur stdDeviation="10" result="effect1_foregroundBlur"/>
</filter>
<filter id="filter2_f" x="-32.75" y="3.59613" width="87.5962" height="87.5962" filterUnits="userSpaceOnUse" color-interpolation-filters="sRGB">
<feFlood flood-opacity="0" result="BackgroundImageFix"/>
<feBlend mode="normal" in="SourceGraphic" in2="BackgroundImageFix" result="shape"/>
<feGaussianBlur stdDeviation="10" result="effect1_foregroundBlur"/>
</filter>
<filter id="filter3_f" x="-23.25" y="12.9231" width="69.6346" height="69.6346" filterUnits="userSpaceOnUse" color-interpolation-filters="sRGB">
<feFlood flood-opacity="0" result="BackgroundImageFix"/>
<feBlend mode="normal" in="SourceGraphic" in2="BackgroundImageFix" result="shape"/>
<feGaussianBlur stdDeviation="7.5" result="effect1_foregroundBlur"/>
</filter>
<filter id="filter4_f" x="-26" y="12.4231" width="75.1346" height="75.1346" filterUnits="userSpaceOnUse" color-interpolation-filters="sRGB">
<feFlood flood-opacity="0" result="BackgroundImageFix"/>
<feBlend mode="normal" in="SourceGraphic" in2="BackgroundImageFix" result="shape"/>
<feGaussianBlur stdDeviation="10" result="effect1_foregroundBlur"/>
</filter>
<filter id="filter5_f" x="-53.9233" y="-13.0769" width="130.635" height="130.635" filterUnits="userSpaceOnUse" color-interpolation-filters="sRGB">
<feFlood flood-opacity="0" result="BackgroundImageFix"/>
<feBlend mode="normal" in="SourceGraphic" in2="BackgroundImageFix" result="shape"/>
<feGaussianBlur stdDeviation="25" result="effect1_foregroundBlur"/>
</filter>
<linearGradient id="paint0_linear" x1="-24.5852" y1="18.464" x2="20.3434" y2="66.5027" gradientUnits="userSpaceOnUse">
<stop stop-color="#395DFA"/>
<stop offset="0.216535" stop-color="#544CED"/>
<stop offset="0.447644" stop-color="#903ACD"/>
<stop offset="0.683389" stop-color="#D53592"/>
<stop offset="1" stop-color="#F4306D"/>
</linearGradient>
</defs>
</svg>
