<svg width="40" height="40" viewBox="0 0 40 40" fill="none" xmlns="http://www.w3.org/2000/svg">
<path fill-rule="evenodd" clip-rule="evenodd" d="M6.96633 35.3267C-1.31085 28.1549 4.0425 12.1873 16.7676 14.1963V15.6752C6.02065 15.1761 1.28999 27.9761 6.96633 35.3267ZM30.1774 7.62706C31.4849 8.6703 33.2881 9.43985 35.7738 9.58674V11.0355C33.0231 10.5283 31.2798 9.16342 30.1774 7.62706ZM26.7268 0C26.725 0.534624 26.7945 1.10893 26.8822 1.63352H21.8093V26.8534C21.8093 28.0162 21.6896 29.0512 21.4512 29.9595C19.3853 34.506 13.5363 33.9121 11.9199 30.792C14.3262 32.2964 18.2829 31.8968 19.907 28.3259C20.1437 27.4195 20.2634 26.3822 20.2634 25.2199V0H26.7273H26.7268Z" fill="#00F7EF"/>
<path fill-rule="evenodd" clip-rule="evenodd" d="M28.2731 1.63351V1.6659C28.275 2.24979 28.4463 10.6934 37.3206 11.2203C37.3206 19.0754 37.3247 11.2202 37.3247 17.7443C36.6581 17.784 31.4834 17.4104 28.2636 14.5425L28.2535 27.243C28.333 32.9939 25.1268 38.6339 19.1243 39.7702C17.4426 40.0881 15.9282 40.1241 13.3863 39.5695C-1.25753 35.1958 3.60836 13.5093 18.312 15.8302C18.312 22.8314 18.3161 15.8284 18.3161 22.8314C12.2419 21.9392 10.2098 26.9848 11.8243 30.5972C13.2935 33.8861 19.3413 34.5996 21.451 29.9595C21.69 29.0512 21.8092 28.0157 21.8092 26.8534V1.63351H28.2731Z" fill="black"/>
<path fill-rule="evenodd" clip-rule="evenodd" d="M16.7675 15.6751C17.2687 15.697 17.7845 15.7463 18.3121 15.8298C18.3121 22.831 18.3162 15.828 18.3162 22.831C12.242 21.9387 10.2099 26.9844 11.8244 30.5967C11.8541 30.6624 11.8861 30.7281 11.9199 30.7915C11.1976 30.3404 10.6165 29.7204 10.2785 28.9632C8.66624 25.3504 10.696 20.3052 16.7703 21.197C16.7703 14.7802 16.7684 20.12 16.7684 15.6747L16.7675 15.6751ZM35.7743 11.0355C36.2576 11.1245 36.7734 11.1879 37.3207 11.2203C37.3207 19.0754 37.3248 11.2202 37.3248 17.7443C36.6583 17.784 31.4835 17.4104 28.2637 14.5425L28.2536 27.243C28.3331 32.9939 25.1269 38.6339 19.1244 39.7702C17.4428 40.0881 15.9283 40.1241 13.3864 39.5695C10.5247 38.7151 8.41132 37.1969 6.96631 35.3267C8.25371 36.4434 9.86958 37.3475 11.8423 37.9378C14.3814 38.4902 15.8963 38.4546 17.578 38.1362C23.5805 36.9994 26.7867 31.3599 26.709 25.6108L26.7172 12.9085C29.9371 15.7764 35.1118 16.1518 35.7806 16.1099C35.7806 10.0511 35.7747 16.3922 35.7747 11.035L35.7743 11.0355ZM28.2733 1.63351V1.6659C28.2733 2.00939 28.3349 5.05793 30.1779 7.62705C27.9567 5.85257 27.1649 3.28939 26.8822 1.63351H28.2733Z" fill="#FF004F"/>
</svg>
