<svg width="40" height="40" viewBox="0 0 40 40" fill="none" xmlns="http://www.w3.org/2000/svg">
<path d="M15.921 12.0912C15.921 11.2709 15.2526 10.4961 14.4322 10.3593L7.10976 9.08323C6.2894 8.94651 5.62096 9.44784 5.62096 10.2074V19.4592C5.62096 20.2188 6.2894 21.0088 7.10976 21.2215L14.4322 23.0749C15.2526 23.2876 15.921 22.7862 15.921 21.9659V12.0912ZM22.2104 29.3187C22.2104 31.4911 20.2658 32.4178 18.5948 31.9165L2.97759 27.1159C1.16977 26.5538 0 25.2473 0 23.5458V3.84207C0 2.38365 1.33688 1.35061 2.97759 1.51772L19.2328 3.53823C20.8735 3.72053 22.2104 5.2549 22.2104 6.97157V29.3187Z" fill="#5E6E66"/>
<path d="M29.2746 17.1957L34.7132 15.8132C35.5336 15.6005 36.202 14.8105 36.202 14.051V8.52114C36.202 7.76155 35.5336 7.24503 34.7132 7.38176L29.2746 8.33884V17.1957ZM25.0513 5.95373C25.0513 4.79915 25.9476 3.76611 27.0566 3.64458L37.0224 2.41404C38.6631 2.23174 40 3.26478 40 4.7232V16.2386C40 17.9401 38.8302 19.2465 37.0224 19.7935L27.4971 22.7255C26.373 23.0749 25.0665 22.452 25.0665 20.9784V5.96892L25.0513 5.95373Z" fill="#E31B23"/>
<path d="M16.2549 38.2059C16.2549 38.5705 15.9511 38.768 15.5865 38.6313L12.3354 37.4615C11.9708 37.3248 11.667 36.9298 11.667 36.5652V32.3723C11.667 32.0077 11.9708 31.8102 12.3354 31.9165L15.5865 32.9647C15.9511 33.0863 16.2549 33.4813 16.2549 33.8459V38.2211V38.2059Z" fill="#5E6E66"/>
</svg>
