<svg width="40" height="40" viewBox="0 0 40 40" fill="none" xmlns="http://www.w3.org/2000/svg">
<g clip-path="url(#clip0_193_9344)">
<path d="M35.6573 40H14.4248C12.6915 39.8531 12.0718 39.1487 10.9548 38.0316C7.91881 34.9967 4.87614 31.9686 1.84082 28.9325C0.808573 27.9002 0.112172 27.2338 0 25.6373L0.0113507 3.97763C0.308473 1.86228 2.03579 0.183624 4.17307 0H25.7448C26.7564 0.114181 27.6564 0.542192 28.4149 1.20124C31.8662 4.19664 34.9135 8.14223 38.3602 11.2037C39.2869 11.9255 39.8578 13.0674 40 14.2325L39.9893 35.9583C39.6889 38.1731 37.8741 39.817 35.6573 39.9993V40ZM27.9121 10.1354V4.43569C27.9121 3.33194 26.759 2.11936 25.676 2.00184L4.23983 1.99917C3.10943 2.15408 2.20805 3.0515 2.00574 4.16793L2.00708 25.6326C2.09388 26.6822 3.3271 27.8668 4.37671 27.8668H10.0855V14.501C10.0855 12.6347 12.1293 10.1347 14.0582 10.1347H27.9128L27.9121 10.1354ZM34.3887 10.1354L29.9152 5.6022V10.1354H34.3887ZM27.9121 23.0011V18.6348L21.4021 12.1352H16.962L27.9121 23.0011ZM27.9121 12.1352H24.2398L27.9121 15.6681V12.1352ZM35.891 12.1352H29.9152V25.2333C29.793 27.8561 27.9575 29.693 25.3409 29.866H12.0879V35.5663C12.0879 36.7622 13.4106 37.9641 14.593 37.9982C21.7447 37.9367 28.9243 38.1277 36.0606 37.9013C37.0849 37.6302 37.848 36.7495 37.9976 35.7019L37.9943 14.3681C37.9061 13.3605 36.8986 12.2694 35.8917 12.1345L35.891 12.1352ZM14.0095 12.2133C13.2196 12.3142 12.1707 13.4847 12.1533 14.2986L25.6059 27.7386C25.7902 27.8708 26.1094 27.7152 26.309 27.6331C27.0722 27.3193 27.601 26.6555 27.8173 25.8716L14.2612 12.2648C14.1837 12.1873 14.1063 12.2013 14.0088 12.2133H14.0095ZM22.7709 27.8675L12.0879 17.2019V21.6349C14.1978 23.7055 16.2349 25.8536 18.3975 27.8675H22.7709ZM15.4263 27.8675L12.0879 24.5342V27.7673L12.188 27.8675H15.4263ZM10.0848 29.8673H5.61127L10.0848 34.3337V29.8673Z" fill="#09A86C"/>
</g>
<defs>
<clipPath id="clip0_193_9344">
<rect width="40" height="40" fill="white"/>
</clipPath>
</defs>
</svg>
