<svg width="40" height="40" viewBox="0 0 40 40" fill="none" xmlns="http://www.w3.org/2000/svg">
<rect width="40" height="40" fill="white"/>
<g clip-path="url(#clip0_4153_20702)">
<path d="M5.42514 13.5852H9.06029C10.8729 13.5852 12.686 13.5907 14.5008 13.5791C14.7329 13.5791 14.8622 13.644 14.9854 13.8394C16.3818 16.0556 17.784 18.2681 19.1918 20.4769C19.2401 20.5524 19.2912 20.6257 19.3628 20.7317C19.6476 20.2704 19.918 19.8346 20.1861 19.3993C21.3334 17.5281 22.4795 15.6561 23.6242 13.7834C23.6941 13.669 23.7519 13.583 23.9151 13.5835C26.7649 13.5891 29.6136 13.5906 32.4611 13.588C32.4939 13.588 32.5272 13.5941 32.5994 13.6007C32.1264 14.298 31.6734 14.967 31.2181 15.6348C28.932 18.9902 26.6442 22.3444 24.3548 25.6976C24.2571 25.8408 24.2804 25.9291 24.3675 26.0534C27.5586 30.6012 30.7481 35.1502 33.9362 39.7002C33.9917 39.7824 34.0472 39.8668 34.1077 39.9523C34.0372 40.0311 33.9495 39.9934 33.8751 39.9934C30.9143 39.9956 27.9546 39.998 24.996 40.0006C24.8022 40.0006 24.7034 39.9323 24.604 39.7785C22.8431 37.0072 21.0786 34.2379 19.3106 31.4706C19.148 31.2152 19.1474 31.2169 18.972 31.4706C17.0671 34.2486 15.1629 37.027 13.2595 39.8057C13.1762 39.9273 13.1024 40.0011 12.9342 40.0006C10.3353 39.9939 7.73642 39.9923 5.13756 39.9956C5.0937 39.9956 5.0504 39.99 5.01265 39.9878C4.97878 39.909 5.03375 39.8707 5.06095 39.8285C7.97995 35.2684 10.9021 30.7104 13.8274 26.1545C13.9717 25.9324 13.954 25.7914 13.808 25.5838C11.0588 21.6607 8.31453 17.735 5.57503 13.8067C5.53228 13.7456 5.49342 13.6862 5.42514 13.5852Z" fill="#0F1F2C"/>
<path d="M13.3611 5.84189C13.3611 3.03892 15.2814 0.652863 18.1293 0.101594C20.5165 -0.360294 22.9292 0.778328 24.1616 2.9884C25.7133 5.77028 24.8334 9.34492 22.1986 10.9943C19.3118 12.8013 15.5745 11.7671 14.0245 8.73425C13.5618 7.84195 13.3335 6.84666 13.3611 5.84189Z" fill="#3793B0"/>
<path d="M19.327 18.3179C18.7663 17.4356 18.207 16.556 17.6493 15.6792C17.249 15.0486 16.8526 14.4157 16.4485 13.7878C16.3519 13.6374 16.3375 13.5702 16.5551 13.5708C18.4021 13.5752 20.2491 13.5708 22.0961 13.5741C22.1403 13.5768 22.1842 13.5824 22.2276 13.5908C22.1211 13.8589 19.4968 18.1369 19.327 18.3179Z" fill="#3793B0"/>
</g>
<defs>
<clipPath id="clip0_4153_20702">
<rect width="29.1062" height="40" fill="white" transform="translate(5)"/>
</clipPath>
</defs>
</svg>
