<svg width="40" height="40" viewBox="0 0 40 40" fill="none" xmlns="http://www.w3.org/2000/svg">
<rect width="40" height="40" fill="white"/>
<path d="M10.5 10.6382C10.5 10.2836 10.7837 10 11.1382 10H29.3618C29.7163 10 30 10.2836 30 10.6382V13.9709C30 14.3254 29.7163 14.6091 29.3618 14.6091H23.1927C22.8381 14.6091 22.5546 14.8927 22.5546 15.2473V32.4782C22.5546 32.8327 22.2709 33.1164 21.9164 33.1164H18.5836C18.2291 33.1164 17.9454 32.8327 17.9454 32.4782V15.2473C17.9454 14.8927 17.6619 14.6091 17.3073 14.6091H11.1382C10.7837 14.6091 10.5 14.3254 10.5 13.9709V10.6382Z" fill="#007AFF"/>
<path fill-rule="evenodd" clip-rule="evenodd" d="M20 40C31.0457 40 40 31.0457 40 20V0H20C8.95435 0 0 8.95428 0 20C0 31.0457 8.95435 40 20 40ZM20 36C28.8365 36 36 28.8365 36 20C36 11.1635 28.8365 4 20 4C11.1635 4 4 11.1635 4 20C4 28.8365 11.1635 36 20 36Z" fill="#007AFF"/>
</svg>
