<svg width="40" height="40" viewBox="0 0 40 40" fill="none" xmlns="http://www.w3.org/2000/svg">
<path d="M14.3062 13.8237C14.2732 12.1434 13.4644 10.7823 12.5071 10.7991C11.5498 10.816 10.7906 12.1938 10.8236 13.8909C10.8566 15.5712 11.6654 16.9154 12.6227 16.8986C13.5799 16.8818 14.3392 15.5039 14.3062 13.8237Z" fill="#68D8D5"/>
<path d="M10.8401 9.27009C10.8071 7.77464 10.1634 6.56484 9.37116 6.58164C8.59543 6.59844 7.96824 7.82505 8.00125 9.3373C8.03426 10.8328 8.69446 12.0426 9.47019 12.0258C10.2459 12.0258 10.8731 10.7823 10.8401 9.2869V9.27009Z" fill="#68D8D5"/>
<path d="M22.3936 8.7324C23.8791 9.18608 24.5888 11.2696 23.9781 13.4204C23.3674 15.5712 21.6509 16.949 20.1655 16.5121C18.6635 16.0584 17.9703 13.9749 18.5645 11.8241C19.1917 9.67336 20.9082 8.29553 22.3936 8.7324Z" fill="#68D8D5"/>
<path d="M16.9965 3.79237C18.1683 4.11163 18.713 5.94313 18.1849 7.85866C17.6732 9.77418 16.3033 11.068 15.1314 10.7487C13.9596 10.4295 13.4314 8.61478 13.9431 6.68246C14.4547 4.76694 15.8411 3.47312 16.9965 3.80917V3.79237Z" fill="#68D8D5"/>
<path d="M12.9032 0.0117358C13.7285 0.196567 14.0751 1.80964 13.6955 3.64115C13.3159 5.47265 12.3421 6.81688 11.5168 6.63205C10.7081 6.46402 10.345 4.83415 10.7246 3.00264C11.1207 1.18793 12.0945 -0.13949 12.9032 0.0117358Z" fill="#68D8D5"/>
<path d="M18.3994 20.0911C18.3664 21.9898 17.2936 23.5189 15.9897 23.5021C14.7023 23.4853 13.679 21.9058 13.712 20.0071C13.745 18.0916 14.8178 16.5625 16.1217 16.5961C17.4091 16.6129 18.4324 18.1924 18.3994 20.0911Z" fill="#68D8D5"/>
<path d="M14.3062 26.1905C14.2732 27.8708 13.4644 29.2318 12.5071 29.215C11.5498 29.1982 10.7906 27.8204 10.8236 26.1233C10.8566 24.443 11.6654 23.0988 12.6227 23.1156C13.5799 23.1324 14.3392 24.5103 14.3062 26.1905Z" fill="#68D8D5"/>
<path d="M10.8401 30.7273C10.8071 32.2228 10.1634 33.4326 9.37116 33.4158C8.59543 33.4158 7.96824 32.1723 8.00125 30.6769C8.03426 29.1814 8.69446 27.9716 9.47019 27.9884C10.2459 27.9884 10.8731 29.2319 10.8401 30.7273Z" fill="#68D8D5"/>
<path d="M31.9996 20.0911C31.9501 22.4771 30.019 24.3758 27.6753 24.3422C25.3315 24.2918 23.4665 22.3259 23.4995 19.9399C23.549 17.5539 25.4801 15.6552 27.8238 15.6888C30.1675 15.7392 32.0326 17.7051 31.9996 20.0911Z" fill="#68D8D5"/>
<path d="M22.3936 31.265C23.8791 30.8113 24.5888 28.7278 23.9781 26.577C23.3674 24.4262 21.6509 23.0484 20.1655 23.4853C18.6635 23.939 17.9703 26.0225 18.5645 28.1733C19.1917 30.324 20.9082 31.7019 22.3936 31.265Z" fill="#68D8D5"/>
<path d="M16.9965 36.205C18.1683 35.8858 18.713 34.0543 18.1849 32.1387C17.6732 30.2232 16.3033 28.9294 15.1314 29.2487C13.9596 29.5679 13.4314 31.3826 13.9431 33.3149C14.4547 35.2305 15.8411 36.5243 16.9965 36.1882V36.205Z" fill="#68D8D5"/>
<path d="M12.9032 39.9857C13.7285 39.8008 14.0751 38.1878 13.6955 36.3562C13.3159 34.5247 12.3421 33.1805 11.5168 33.3653C10.7081 33.5334 10.345 35.1632 10.7246 36.9948C11.1042 38.8263 12.078 40.1537 12.9032 39.9857Z" fill="#68D8D5"/>
</svg>
