<svg width="40" height="40" viewBox="0 0 40 40" fill="none" xmlns="http://www.w3.org/2000/svg">
<path fill-rule="evenodd" clip-rule="evenodd" d="M27.2348 8.33189L34.7491 17.2688C38.224 21.3925 38.9817 27.1533 36.6906 32.0311C34.4071 36.8983 29.503 40.0058 24.1146 40H9.85725L13.7575 31.6681L6.24307 22.7312C2.77889 18.6128 2.02174 12.8657 4.30165 7.99481C6.57614 3.12025 11.4776 0.00216076 16.8689 0H31.135L27.2348 8.33189ZM30.0342 31.599C31.0825 31.5966 32.0348 30.9903 32.4784 30.0432C32.921 29.097 32.7722 27.9803 32.097 27.1824L21.6532 14.745L24.6346 8.40968H11.0013C9.95384 8.40581 8.99961 9.00936 8.55664 9.95594C8.11366 10.9025 8.26274 12.0195 8.93854 12.8176L19.3391 25.229L16.3576 31.599H30.0342Z" fill="#0061FF"/>
</svg>
