<svg width="40" height="40" viewBox="0 0 40 40" fill="none" xmlns="http://www.w3.org/2000/svg">
<rect width="40" height="40" fill="white"/>
<path fill-rule="evenodd" clip-rule="evenodd" d="M21.7512 8.84332L20.0922 7L18.4332 8.84332C13.8249 13.636 13.8249 21.3779 18.4332 26.1705L20.0922 28.0139L21.7512 26.1705C26.3595 21.3779 26.3595 13.636 21.7512 8.84332ZM20.0922 24.1429C16.9586 20.2719 16.9586 14.5576 20.0922 10.5023C23.2259 14.5576 23.2259 20.2719 20.0922 24.1429ZM40 20.0877V17.6914H37.6037C30.9677 17.6914 25.4378 23.2213 25.2534 30.0416V32.4379H27.6497C34.47 32.2536 39.8157 26.7236 40 20.0877ZM27.8341 29.8573C28.3871 24.8803 32.4424 20.825 37.4193 20.272C36.8664 25.249 32.811 29.3043 27.8341 29.8573ZM14.7466 32.2534H12.3503C5.71431 32.2534 0.184332 26.7235 0 19.9032V17.5068H2.39632C9.21662 17.6912 14.7466 23.2211 14.7466 29.8571V32.2534ZM2.58065 20.0875C7.55762 20.6405 11.6129 24.6958 12.1659 29.6728C7.18895 29.3041 3.13365 25.2488 2.58065 20.0875Z" fill="#6ABF4B"/>
</svg>
