<svg width="40" height="40" viewBox="0 0 40 40" fill="none" xmlns="http://www.w3.org/2000/svg">
<rect width="40" height="40" fill="white"/>
<path fill-rule="evenodd" clip-rule="evenodd" d="M14.6015 0C14.078 0.00048611 13.5597 0.104091 13.0762 0.304898C12.5928 0.505705 12.1536 0.799781 11.7838 1.17033C11.414 1.54088 11.1209 1.98065 10.921 2.46451C10.7212 2.94838 10.6187 3.46687 10.6193 3.99037C10.6188 4.51381 10.7214 5.03222 10.9213 5.516C11.1211 5.99978 11.4143 6.43946 11.7841 6.80993C12.1539 7.1804 12.593 7.47441 13.0764 7.67517C13.5598 7.87593 14.078 7.97951 14.6015 7.98H18.5837V3.99037C18.5843 3.46687 18.4817 2.94838 18.2819 2.46451C18.0821 1.98065 17.7889 1.54088 17.4191 1.17033C17.0493 0.799781 16.6102 0.505705 16.1267 0.304898C15.6433 0.104091 15.125 0.00048611 14.6015 0V0ZM14.6015 10.6407H3.98222C3.45879 10.6412 2.94057 10.7448 2.45716 10.9456C1.97375 11.1463 1.53462 11.4403 1.16483 11.8108C0.79505 12.1813 0.501857 12.621 0.301995 13.1047C0.102133 13.5885 -0.000484123 14.1069 2.48e-06 14.6304C-0.000581468 15.1539 0.101964 15.6724 0.301782 16.1562C0.501601 16.6401 0.794778 17.0799 1.16457 17.4504C1.53436 17.821 1.97353 18.115 2.45699 18.3158C2.94044 18.5166 3.45872 18.6203 3.98222 18.6207H14.6015C15.125 18.6203 15.6433 18.5166 16.1267 18.3158C16.6102 18.115 17.0493 17.821 17.4191 17.4504C17.7889 17.0799 18.0821 16.6401 18.2819 16.1562C18.4817 15.6724 18.5843 15.1539 18.5837 14.6304C18.5842 14.1069 18.4816 13.5885 18.2817 13.1047C18.0819 12.621 17.7887 12.1813 17.4189 11.8108C17.0491 11.4403 16.61 11.1463 16.1266 10.9456C15.6431 10.7448 15.1249 10.6412 14.6015 10.6407" fill="#36C5F0"/>
<path fill-rule="evenodd" clip-rule="evenodd" d="M39.822 14.6304C39.8225 14.1069 39.7199 13.5885 39.52 13.1047C39.3201 12.621 39.0269 12.1813 38.6572 11.8108C38.2874 11.4403 37.8482 11.1463 37.3648 10.9456C36.8814 10.7448 36.3632 10.6412 35.8398 10.6407C35.3163 10.6412 34.7981 10.7448 34.3147 10.9456C33.8313 11.1463 33.3922 11.4403 33.0224 11.8108C32.6526 12.1813 32.3594 12.621 32.1595 13.1047C31.9597 13.5885 31.8571 14.1069 31.8575 14.6304V18.6207H35.8398C36.3633 18.6203 36.8815 18.5166 37.365 18.3158C37.8485 18.115 38.2876 17.821 38.6574 17.4504C39.0272 17.0799 39.3204 16.6401 39.5202 16.1562C39.72 15.6724 39.8226 15.1539 39.822 14.6304ZM29.2027 14.6304V3.99037C29.2033 3.46687 29.1008 2.94838 28.9009 2.46451C28.7011 1.98065 28.408 1.54088 28.0382 1.17033C27.6684 0.799781 27.2292 0.505705 26.7457 0.304898C26.2623 0.104091 25.744 0.00048611 25.2205 0C24.697 0.00048611 24.1787 0.104091 23.6953 0.304898C23.2118 0.505705 22.7726 0.799781 22.4029 1.17033C22.0331 1.54088 21.7399 1.98065 21.5401 2.46451C21.3402 2.94838 21.2377 3.46687 21.2383 3.99037V14.6304C21.2377 15.1539 21.3402 15.6724 21.5401 16.1562C21.7399 16.6401 22.0331 17.0799 22.4029 17.4504C22.7726 17.821 23.2118 18.115 23.6953 18.3158C24.1787 18.5166 24.697 18.6203 25.2205 18.6207C25.744 18.6203 26.2623 18.5166 26.7457 18.3158C27.2292 18.115 27.6684 17.821 28.0382 17.4504C28.408 17.0799 28.7011 16.6401 28.9009 16.1562C29.1008 15.6724 29.2033 15.1539 29.2027 14.6304" fill="#2EB67D"/>
<path fill-rule="evenodd" clip-rule="evenodd" d="M25.2205 39.9015C25.744 39.901 26.2623 39.7974 26.7457 39.5966C27.2292 39.3958 27.6684 39.1017 28.0382 38.7311C28.408 38.3606 28.7011 37.9208 28.9009 37.437C29.1008 36.9531 29.2033 36.4346 29.2027 35.9111C29.2032 35.3877 29.1006 34.8693 28.9007 34.3855C28.7009 33.9017 28.4077 33.462 28.0379 33.0915C27.6681 32.7211 27.229 32.4271 26.7456 32.2263C26.2622 32.0255 25.7439 31.922 25.2205 31.9215H21.2383V35.9111C21.2377 36.4346 21.3402 36.9531 21.5401 37.437C21.7399 37.9208 22.0331 38.3606 22.4029 38.7311C22.7726 39.1017 23.2118 39.3958 23.6953 39.5966C24.1787 39.7974 24.697 39.901 25.2205 39.9015ZM25.2205 29.2607H35.8398C36.3632 29.2603 36.8814 29.1567 37.3648 28.9559C37.8482 28.7552 38.2874 28.4611 38.6572 28.0907C39.0269 27.7202 39.3201 27.2805 39.52 26.7967C39.7199 26.313 39.8225 25.7945 39.822 25.2711C39.8226 24.7476 39.72 24.2291 39.5202 23.7453C39.3204 23.2614 39.0272 22.8216 38.6574 22.4511C38.2876 22.0805 37.8485 21.7864 37.365 21.5856C36.8815 21.3848 36.3633 21.2812 35.8398 21.2807H25.2205C24.697 21.2812 24.1787 21.3848 23.6953 21.5856C23.2118 21.7864 22.7726 22.0805 22.4029 22.4511C22.0331 22.8216 21.7399 23.2614 21.5401 23.7453C21.3402 24.2291 21.2377 24.7476 21.2383 25.2711C21.2378 25.7945 21.3404 26.313 21.5403 26.7967C21.7401 27.2805 22.0333 27.7202 22.4031 28.0907C22.7729 28.4611 23.212 28.7552 23.6954 28.9559C24.1788 29.1567 24.6971 29.2603 25.2205 29.2607" fill="#ECB22E"/>
<path fill-rule="evenodd" clip-rule="evenodd" d="M3.37518e-06 25.2711C-0.000483228 25.7945 0.102134 26.313 0.301996 26.7967C0.501858 27.2805 0.795051 27.7202 1.16483 28.0907C1.53462 28.4611 1.97375 28.7552 2.45716 28.9559C2.94057 29.1567 3.45879 29.2603 3.98223 29.2607C4.50567 29.2603 5.02388 29.1567 5.50729 28.9559C5.9907 28.7552 6.42983 28.4611 6.79962 28.0907C7.1694 27.7202 7.46259 27.2805 7.66246 26.7967C7.86232 26.313 7.96493 25.7945 7.96445 25.2711V21.2807H3.98223C3.45866 21.2812 2.94032 21.3849 2.45682 21.5857C1.97331 21.7866 1.53411 22.0807 1.16431 22.4513C0.794507 22.822 0.501345 23.2618 0.301571 23.7458C0.101796 24.2297 -0.000677941 24.7483 3.37518e-06 25.2719V25.2711ZM10.6193 25.2711V35.9111C10.6187 36.4346 10.7212 36.9531 10.921 37.437C11.1209 37.9208 11.414 38.3606 11.7838 38.7311C12.1536 39.1017 12.5928 39.3958 13.0762 39.5966C13.5597 39.7974 14.078 39.901 14.6015 39.9015C15.125 39.901 15.6433 39.7974 16.1267 39.5966C16.6102 39.3958 17.0493 39.1017 17.4191 38.7311C17.7889 38.3606 18.0821 37.9208 18.2819 37.437C18.4817 36.9531 18.5843 36.4346 18.5837 35.9111V25.2719C18.5843 24.7483 18.4817 24.2299 18.2819 23.746C18.0821 23.2621 17.7889 22.8224 17.4191 22.4518C17.0493 22.0813 16.6102 21.7872 16.1267 21.5864C15.6433 21.3856 15.125 21.282 14.6015 21.2815C14.078 21.282 13.5597 21.3856 13.0762 21.5864C12.5928 21.7872 12.1536 22.0813 11.7838 22.4518C11.414 22.8224 11.1209 23.2621 10.921 23.746C10.7212 24.2299 10.6187 24.7483 10.6193 25.2719" fill="#E01E5A"/>
</svg>
