<svg xmlns="http://www.w3.org/2000/svg" width="40" height="40" fill="none" viewBox="0 0 40 40"><path fill="#0a66c2" fill-rule="evenodd" d="M33.98 1a2.75 2.75 0 0 1 2.741 2.761V35.24A2.75 2.75 0 0 1 33.981 38H2.74A2.75 2.75 0 0 1 0 35.239V3.76A2.75 2.75 0 0 1 2.74 1zM5.08 32.861h5.476V15.047H5.079zm19.559-18.36c-3.74 0-5.321 2.926-5.331 2.945v-2.4h-5.252v17.815h5.252V23.51c0-2.506 1.145-3.998 3.336-3.998 2.014 0 2.98 1.434 2.98 3.998v9.351h5.45v-11.28c0-4.771-2.685-7.08-6.435-7.08M7.79 6.14c-1.788 0-3.238 1.472-3.238 3.288s1.45 3.287 3.238 3.287 3.238-1.472 3.238-3.287c0-1.816-1.449-3.288-3.238-3.288" clip-rule="evenodd"/><path fill="#0a66c2" d="M38.674 32.253v-1.081h.376c.24 0 .362.117.362.309 0 .136-.08.25-.23.295l.27.477h-.172l-.249-.463h-.21v.463zm.344.461c-.535 0-.985-.38-.985-.99 0-.614.45-.992.985-.992.532 0 .982.378.982.991 0 .61-.45.991-.982.991m0-.109c.466 0 .863-.338.863-.882 0-.546-.397-.882-.863-.882-.469 0-.863.336-.863.882 0 .544.394.882.863.882m.246-1.124c0-.117-.066-.181-.212-.181h-.23v.36h.222c.151 0 .22-.07.22-.18"/></svg>