<svg width="40" height="40" viewBox="0 0 40 40" fill="none" xmlns="http://www.w3.org/2000/svg">
<rect width="40" height="40" fill="white"/>
<path d="M38.9954 38.0222H30.8761C30.19 38.0222 29.5039 37.5647 29.1608 36.993L20.3554 16.2945C20.241 16.0658 20.1267 15.9514 19.898 16.0658C19.7836 16.0658 19.6692 16.1802 19.6692 16.2945L14.1802 29.4455C14.0658 29.6742 14.1802 29.9029 14.4089 30.0172C14.4089 30.0172 14.5232 30.0172 14.6376 30.0172H20.5841C20.9272 30.0172 21.2702 30.246 21.4989 30.589L24.1291 36.5355C24.3578 37.1073 24.1291 37.6791 23.5574 37.9078C23.443 38.0222 23.3286 38.0222 23.0999 38.0222H1.0292C0.457424 38.0222 0 37.5647 0 36.993C0 36.8786 0 36.7643 0.114356 36.6499L14.1802 3.14356C14.5232 2.45742 15.2094 2 16.0099 2H24.0148C24.8153 2 25.5014 2.45742 25.8445 3.14356L39.9103 36.5355C40.139 36.993 39.9103 37.6791 39.4529 37.9078C39.3385 38.0222 39.1098 38.0222 38.9954 38.0222Z" fill="#FA0F00"/>
</svg>
