<svg width="40" height="40" viewBox="0 0 40 40" fill="none" xmlns="http://www.w3.org/2000/svg">
<rect width="40" height="40" fill="white"/>
<rect width="40" height="40" rx="1" fill="#0A2032"/>
<path fill-rule="evenodd" clip-rule="evenodd" d="M17.9741 11.0193C16.5806 11.0193 15.729 11.7161 15.729 13.5742V16.5161H20.0352C19.2498 17.1967 18.7444 18.1515 18.6353 19.3806H15.8064V32H12.3999V19.3806H10V16.5161H12.3999V13.6516C12.3999 9.85809 14.4902 8 17.5872 8C18.8259 8 19.7549 8.23224 20.6064 8.77417V11.871C19.7549 11.329 18.9807 11.0193 17.9741 11.0193ZM30.2192 27.0452C30.2192 30.2194 27.7419 31.6903 24.4902 31.6903C22.7095 31.6903 20.929 31.2258 19.7676 30.4516V27.2C21.1611 28.2839 22.8645 28.9033 24.4128 28.9033C25.9612 28.9033 26.9675 28.3613 26.9675 27.2C26.9675 25.9613 26.0386 25.4968 24.103 25.0323C20.929 24.3355 19.6128 23.0193 19.6128 20.3871C19.6128 17.2903 21.9353 15.7419 25.0322 15.7419C26.7354 15.7419 28.1289 16.129 29.4451 16.9033V20C28.1289 19.071 26.8127 18.4516 25.187 18.4516C23.7161 18.4516 22.9419 19.1484 22.9419 20.1548C22.9419 21.1613 23.5613 21.7032 25.3418 22.1677C28.7483 23.0193 30.2192 24.2581 30.2192 27.0452Z" fill="white"/>
</svg>
