<svg width="40" height="40" viewBox="0 0 40 40" fill="none" xmlns="http://www.w3.org/2000/svg">
<rect width="40" height="40" fill="white"/>
<path d="M14.7244 4.41681C12.8527 6.28961 11.6049 8.53697 10.9809 11.034C8.48527 11.6583 6.23917 12.9068 4.36742 14.7796C1.4974 17.6513 0 21.3969 0 25.1425L10.4818 14.6548C10.4818 15.5288 10.6066 16.5276 10.7314 17.4016L0.249567 27.8892C0.499134 29.3875 0.998267 30.8857 1.74697 32.2591L8.48527 25.517C8.36049 23.7691 8.9844 22.0211 10.357 20.7726C10.7314 20.398 10.9809 20.1483 11.3553 19.8986C12.104 21.8963 13.227 23.6442 14.7244 25.2673C16.2218 26.7656 18.0936 28.0141 20.0901 28.6383C19.8406 29.0129 19.591 29.3875 19.2166 29.6372C17.844 31.0106 16.0971 31.51 14.4749 31.51L7.73657 38.2521C9.10919 39.0012 10.6066 39.5006 12.104 39.7503L22.5858 29.2626C23.4593 29.3875 24.4575 29.5123 25.331 29.5123L14.8492 40C18.5927 40 22.3362 38.5018 25.0815 35.6301C26.9532 33.7573 28.201 31.3851 28.9497 29.0129C31.3206 28.3886 33.6915 27.1401 35.5633 25.1425C41.3033 19.3992 41.3033 10.0352 35.5633 4.29196C29.8232 -1.45129 20.4645 -1.45129 14.7244 4.41681ZM29.6984 19.2744C27.2028 21.7714 23.2097 21.7714 20.8388 19.2744C18.4679 16.7773 18.3432 12.782 20.8388 10.4098C23.3345 7.9127 27.3276 7.9127 29.6984 10.4098C32.0693 12.9068 32.0693 16.7773 29.6984 19.2744Z" fill="#0037FF"/>
<path d="M10.2323 29.762C9.7332 29.2626 9.35885 28.6384 8.9845 28.0141L2.87012 34.1319C3.24447 34.6313 3.7436 35.2556 4.24273 35.755C4.74187 36.2544 5.241 36.7538 5.86492 37.1284L11.9793 31.0106C11.3554 30.636 10.8563 30.2615 10.2323 29.762Z" fill="#0037FF"/>
</svg>
