<svg width="40" height="40" viewBox="0 0 40 40" fill="none" xmlns="http://www.w3.org/2000/svg">
<rect width="40" height="40" fill="white"/>
<path fill-rule="evenodd" clip-rule="evenodd" d="M20.1952 24.2833C22.8021 24.2833 25.1658 25.4577 26.73 27.2884C27.1471 26.3903 27.3904 25.3541 27.3904 24.2833C27.3904 20.3454 24.1578 17.133 20.1952 17.133C16.2326 17.133 13 20.3454 13 24.2833C13 25.3541 13.2433 26.3558 13.6604 27.2884C15.2594 25.4577 17.5882 24.2833 20.1952 24.2833Z" fill="#A9B4BD"/>
<path fill-rule="evenodd" clip-rule="evenodd" d="M27.3904 32.8497C27.3904 28.9119 24.1578 25.6995 20.1952 25.6995C16.2326 25.6995 13 28.9119 13 32.8497C13 36.7876 16.2326 40 20.1952 40C24.1925 40 27.3904 36.8221 27.3904 32.8497Z" fill="#4B5E6A"/>
<path fill-rule="evenodd" clip-rule="evenodd" d="M27.3904 7.15026C27.3904 3.21243 24.1578 0 20.1952 0C16.2326 0 13 3.21243 13 7.15026C13 11.0881 16.2326 14.3005 20.1952 14.3005C24.1925 14.3351 27.3904 11.1226 27.3904 7.15026Z" fill="#E40046"/>
</svg>
