<svg width="40" height="40" viewBox="0 0 40 40" fill="none" xmlns="http://www.w3.org/2000/svg">
<path d="M29.8991 5C24.4575 5 19.7575 9.02684 19.7575 14.6795C19.7575 20.7809 24.5394 23.9123 28.7864 23.9123C29.4047 23.9123 30.1049 23.79 30.5174 23.5866L30.6819 23.7487L24.3742 33.9971H30.6826L38.5162 20.1294C39.3817 18.5427 40 16.7128 40 14.6795C40 8.9443 35.3406 5 29.8991 5ZM29.9005 19.3158C27.1787 19.3158 25.2824 17.2419 25.2824 14.6795C25.2824 12.117 27.1801 10.0837 29.9005 10.0837C32.6209 10.0837 34.5179 12.0764 34.5179 14.6795C34.5179 17.2825 32.6231 19.3158 29.9005 19.3158Z" fill="#2A4CF9"/>
<path d="M0 34H5.48358V22.4494H16.6153V17.813H5.48358V10.2074H17.6866V5.52985H0V34Z" fill="#2A4CF9"/>
</svg>
