<svg width="40" height="40" viewBox="0 0 40 40" fill="none" xmlns="http://www.w3.org/2000/svg">
<rect width="40" height="40" fill="white"/>
<path d="M39 0H1C0.447715 0 0 0.447714 0 0.999999V39C0 39.5523 0.447714 40 0.999999 40H39C39.5523 40 40 39.5523 40 39V1C40 0.447715 39.5523 0 39 0Z" fill="url(#paint0_radial)"/>
<path d="M2.88525 19.9344C2.88525 29.4426 10.5902 37.1475 20.0984 37.1475C29.6066 37.1475 37.3115 29.4426 37.3115 19.9344C37.3115 10.4262 29.6066 2.72131 20.0984 2.72131C10.5902 2.72131 2.88525 10.3934 2.88525 19.9344ZM4.68853 19.9344C4.68853 11.377 11.6066 4.4918 20.0984 4.4918C28.5902 4.4918 35.5082 11.4098 35.5082 19.9344C35.5082 28.459 28.623 35.3443 20.0984 35.3443C11.5738 35.3443 4.68853 28.4262 4.68853 19.9344Z" fill="#00D8FF"/>
<path fill-rule="evenodd" clip-rule="evenodd" d="M12.262 16.5246C13.1801 16.5246 14.0325 16.8852 14.6883 17.541C15.344 18.1967 15.7047 19.0492 15.7047 19.9672C15.7047 20.8852 15.344 21.7377 14.6883 22.3934C14.0325 23.0492 13.1801 23.4098 12.262 23.4098C11.344 23.4098 10.4915 23.0492 9.83581 22.3934C9.18007 21.7377 8.81942 20.8852 8.81942 19.9672C8.81942 19.0492 9.18007 18.1967 9.83581 17.541C10.4588 16.8852 11.344 16.5246 12.262 16.5246ZM20.262 8.49179C21.1801 8.49179 22.0325 8.85244 22.6883 9.50818C24.0325 10.8524 24.0325 13.0164 22.6883 14.3606C22.0325 15.0164 21.1801 15.377 20.262 15.377C19.344 15.377 18.4915 15.0164 17.8358 14.3606C16.4915 13.0164 16.4915 10.8524 17.8358 9.50818C18.4915 8.85244 19.344 8.49179 20.262 8.49179ZM19.9342 24.2623C20.8522 24.2623 21.7047 24.6229 22.3604 25.2787C23.0161 25.9344 23.3768 26.7869 23.3768 27.7049C23.3768 28.6229 23.0161 29.4754 22.3604 30.1311C21.7047 30.7869 20.8522 31.1475 19.9342 31.1475C19.0161 31.1475 18.1637 30.7869 17.5079 30.1311C16.1637 28.7869 16.1637 26.6229 17.5079 25.2787C18.1637 24.6229 19.0161 24.2623 19.9342 24.2623ZM27.9342 16.8524C28.6883 16.8524 29.3768 17.1475 29.9014 17.6721C30.426 18.1967 30.7211 18.8852 30.7211 19.6393C30.7211 20.3934 30.426 21.082 29.9014 21.6065C29.3768 22.1311 28.6883 22.4262 27.9342 22.4262C27.1801 22.4262 26.4915 22.1311 25.967 21.6065C25.4424 21.082 25.1473 20.3934 25.1473 19.6393C25.1473 18.8852 25.4424 18.1967 25.967 17.6721C26.4915 17.1475 27.2129 16.8524 27.9342 16.8524ZM12.262 15.9016C11.2129 15.9016 10.1637 16.2951 9.37679 17.1147C7.77024 18.7213 7.77024 21.3115 9.37679 22.8852C10.1637 23.6721 11.2129 24.0983 12.262 24.0983C13.3112 24.0983 14.3604 23.7049 15.1473 22.8852C16.6555 21.377 16.7211 18.9508 15.3768 17.3442L17.6719 15.082C18.3604 15.6721 19.1801 16 19.9997 16.0328V23.6065C18.9506 23.6065 17.8686 24 17.0817 24.8197C15.4752 26.4262 15.4752 29.0164 17.0817 30.5901C17.8686 31.377 18.9178 31.8033 19.967 31.8033C21.0161 31.8033 22.0653 31.4098 22.8522 30.5901C24.262 29.1803 24.426 26.9836 23.344 25.377L25.6719 23.0164C26.3604 23.5082 27.1801 23.7377 27.9997 23.7377C29.0489 23.7377 30.0981 23.3442 30.885 22.5246C32.4915 20.918 32.4915 18.3279 30.885 16.7541C30.0981 15.9672 29.0489 15.541 27.9997 15.541C26.9506 15.541 25.9014 15.9344 25.1145 16.7541C23.5079 18.3606 23.5079 20.9508 25.1145 22.5246L25.1801 22.5901L22.9178 24.8524L22.7866 24.7869C22.1637 24.1639 21.4096 23.7705 20.5899 23.6393V16C21.5079 15.9016 22.3932 15.5082 23.1145 14.8197C24.7211 13.2131 24.7538 10.6229 23.1473 9.04916C22.3276 8.26228 21.3112 7.86884 20.262 7.86884C19.2129 7.86884 18.1637 8.26228 17.3768 9.08195C15.8686 10.5901 15.803 13.0164 17.1473 14.6229L14.885 16.8852C14.1309 16.1967 13.1801 15.9016 12.262 15.9016ZM29.7374 19.5738C29.7374 20.5246 29.1145 21.377 27.9997 21.4098C26.8194 21.4426 26.1637 20.6229 26.1637 19.6721C26.1637 18.7213 26.9834 17.8033 27.9342 17.8033C28.885 17.8033 29.7374 18.6229 29.7374 19.5738Z" fill="#CAF0FF"/>
<defs>
<radialGradient id="paint0_radial" cx="0" cy="0" r="1" gradientUnits="userSpaceOnUse" gradientTransform="translate(15.9474 13.3264) scale(26.2384 26.6714)">
<stop stop-color="#314447"/>
<stop offset="0.7669" stop-color="#041A1E"/>
</radialGradient>
</defs>
</svg>
