<svg xmlns="http://www.w3.org/2000/svg" width="40" height="40" fill="none"><g clip-path="url(#a)"><path fill="#8AC440" d="M20 0C9.09 0 0 9.008 0 20s9.008 20 20 20 20-9.008 20-20S30.992 0 20 0Zm-2.562 30.165v.166l-3.554 2.231c-.991.661-1.9 0-1.9-1.322V8.678c0-.992.991-1.901 1.9-1.323.33 0 1.57.992 3.554 2.232v20.578Zm7.769-4.71c-1.901 1.322-3.885 2.231-5.455 3.553V10.992c1.57.991 3.884 2.231 5.455 3.553v10.91Zm7.024-4.133-4.793 2.893v-8.347l4.793 2.892c.992.662.992 1.901 0 2.562Z"/></g><defs><clipPath id="a"><path fill="#fff" d="M0 0h40v40H0z"/></clipPath></defs></svg>