<svg xmlns="http://www.w3.org/2000/svg" width="40" height="40" fill="none" viewBox="0 0 40 40"><g clip-path="url(#a)"><path fill="#ff4500" d="M20 0C8.955 0 0 8.955 0 20c0 5.523 2.24 10.523 5.858 14.142l-3.81 3.81c-.756.756-.22 2.048.849 2.048H20c11.045 0 20-8.955 20-20S31.045 0 20 0"/><path fill="#fff" d="M24.069 9.431a3.333 3.333 0 1 0-.02-1.442 5.383 5.383 0 0 0-4.8 5.345v.018c-2.932.123-5.608.957-7.733 2.275a4.67 4.67 0 1 0-4.836 7.925c.154 5.421 6.062 9.782 13.33 9.782 7.266 0 13.182-4.365 13.329-9.792a4.671 4.671 0 0 0-2.003-8.889c-1.07 0-2.056.361-2.844.967-2.144-1.326-4.85-2.16-7.81-2.272v-.012a3.95 3.95 0 0 1 3.387-3.902zm-12.74 12.855c.077-1.694 1.202-2.994 2.51-2.994s2.308 1.374 2.23 3.067-1.055 2.31-2.364 2.31c-1.31 0-2.455-.69-2.377-2.383m14.852-2.994c1.31 0 2.435 1.3 2.511 2.994.078 1.694-1.069 2.383-2.376 2.383-1.308 0-2.286-.614-2.364-2.31-.079-1.693.92-3.067 2.23-3.067m-1.556 6.913a.37.37 0 0 1 .306.508 5.335 5.335 0 0 1-9.844 0 .37.37 0 0 1 .307-.508 46 46 0 0 1 4.615-.225c1.624 0 3.177.08 4.616.225"/></g><defs><clipPath id="a"><path fill="#fff" d="M0 0h40v40H0z"/></clipPath></defs></svg>