<svg width="40" height="40" viewBox="0 0 40 40" fill="none" xmlns="http://www.w3.org/2000/svg">
<rect width="40" height="40" fill="white"/>
<path d="M40 0H0V40H40V0Z" fill="#972A2E"/>
<path d="M18.1788 15.3319C20.9375 14.6808 22.6461 11.9165 21.9949 9.15778C21.3438 6.39904 18.5796 4.69047 15.8208 5.34159C13.0621 5.99272 11.3535 8.75696 12.0046 11.5157C12.6558 14.2745 15.42 15.983 18.1788 15.3319Z" fill="white"/>
<path d="M25.8149 17.3078C24.887 17.3038 23.9654 17.4593 23.0903 17.7675C21.4862 18.3297 20.0963 19.3764 19.113 20.7629C18.1297 22.1494 17.6016 23.8072 17.6016 25.507C17.6016 27.2068 18.1297 28.8646 19.113 30.2511C20.0963 31.6376 21.4862 32.6843 23.0903 33.2465C23.9654 33.5546 24.887 33.7102 25.8149 33.7062C26.9057 33.7285 27.9899 33.5328 29.0042 33.1307C30.0184 32.7287 30.9422 32.1283 31.7215 31.3647C32.5008 30.6011 33.1199 29.6897 33.5426 28.6839C33.9652 27.6781 34.1829 26.598 34.1829 25.507C34.1829 24.416 33.9652 23.3359 33.5426 22.3301C33.1199 21.3242 32.5008 20.4128 31.7215 19.6493C30.9422 18.8857 30.0184 18.2853 29.0042 17.8832C27.9899 17.4812 26.9057 17.2855 25.8149 17.3078ZM25.8149 31.673C25.1192 31.6783 24.4278 31.563 23.7714 31.3324C22.8883 31.0232 22.0873 30.5165 21.4295 29.8509C20.7717 29.1854 20.2745 28.3785 19.9756 27.4918C19.6768 26.6051 19.5842 25.6618 19.7049 24.7339C19.8256 23.806 20.1565 22.9178 20.6722 22.137L29.1865 30.6513C28.1874 31.3157 27.0147 31.6711 25.8149 31.673V31.673ZM30.9507 28.911L22.4364 20.3967C23.4458 19.7272 24.6309 19.3717 25.8421 19.375C26.9523 19.3761 28.0415 19.6774 28.9943 20.2471C29.9472 20.8168 30.7282 21.6336 31.2546 22.611C31.781 23.5884 32.0332 24.69 31.9845 25.7991C31.9358 26.9082 31.588 27.9835 30.9779 28.911H30.9507Z" fill="white"/>
<path d="M16.1261 25.5428C16.1277 23.4443 16.8097 21.4028 18.0697 19.7247C19.3297 18.0465 21.0998 16.8221 23.1146 16.235V15.9217H11.2934C10.7834 15.9212 10.2783 16.0214 9.80709 16.2163C9.33584 16.4113 8.90766 16.6972 8.54704 17.0578C8.18643 17.4185 7.90046 17.8466 7.70551 18.3179C7.51055 18.7891 7.41043 19.2942 7.41088 19.8042V28.5705C7.39997 28.8297 7.44161 29.0886 7.53331 29.3313C7.625 29.5741 7.76485 29.7958 7.94445 29.9831C8.12405 30.1704 8.33968 30.3195 8.57838 30.4213C8.81707 30.5231 9.0739 30.5756 9.3334 30.5756C9.59291 30.5756 9.84973 30.5231 10.0884 30.4213C10.3271 30.3195 10.5428 30.1704 10.7224 29.9831C10.902 29.7958 11.0418 29.5741 11.1335 29.3313C11.2252 29.0886 11.2668 28.8297 11.2559 28.5705V21.238C11.2559 21.1477 11.2918 21.061 11.3557 20.9972C11.4195 20.9333 11.5062 20.8974 11.5965 20.8974C11.6868 20.8974 11.7734 20.9333 11.8373 20.9972C11.9012 21.061 11.9371 21.1477 11.9371 21.238V32.9672C11.9371 33.1479 12.0088 33.3211 12.1366 33.4489C12.2643 33.5766 12.4376 33.6484 12.6182 33.6484H20.4854C19.1437 32.7646 18.0429 31.5611 17.2819 30.1462C16.5209 28.7313 16.1238 27.1494 16.1261 25.5428Z" fill="white"/>
</svg>
