<svg width="40" height="60" viewBox="0 0 40 60" fill="none" xmlns="http://www.w3.org/2000/svg">
<rect width="40" height="60" fill="white"/>
<path d="M39.4433 32.1144L21.2701 14.5149C20.929 14.1847 20.4729 14 19.9981 14C19.5234 14 19.0672 14.1847 18.7262 14.5149L12.4429 20.597L8.43845 24.4826L4.52542 28.2677L4.47742 28.3157L0.555239 32.1167C0.355507 32.3105 0.202643 32.5473 0.108294 32.8091C0.0139443 33.0709 -0.0194012 33.3508 0.0107987 33.6275C0.0409986 33.9041 0.133947 34.1702 0.282561 34.4055C0.431175 34.6408 0.631535 34.8391 0.868373 34.9852L19.0393 46.1849C19.327 46.3642 19.6592 46.4593 19.9981 46.4593C20.3371 46.4593 20.6693 46.3642 20.957 46.1849L39.1302 34.9852C39.3674 34.8391 39.5681 34.6408 39.717 34.4053C39.8659 34.1698 39.959 33.9034 39.9892 33.6264C40.0194 33.3495 39.986 33.0693 39.8913 32.8072C39.7967 32.5452 39.6435 32.3082 39.4433 32.1144ZM19.9993 44.0821L2.5689 33.3395L5.44653 30.551L18.9182 38.8891C19.2429 39.0903 19.6172 39.1972 19.9993 39.1977V36.8754L7.13792 28.9191L9.371 26.7546L18.9182 32.6127C19.2418 32.8123 19.6145 32.9183 19.9947 32.919V30.5876L11.067 25.102L13.3755 22.8644L19.0393 26.3843C19.3267 26.5656 19.6594 26.6623 19.9993 26.6631V24.3021L15.0668 21.237L19.9993 16.4577L37.4297 33.3464L19.9993 44.0821Z" fill="url(#paint0_linear)"/>
<path d="M30.8012 31.5933C30.6428 31.3352 30.3885 31.1506 30.0941 31.0799C29.7997 31.0092 29.4892 31.0582 29.2309 31.2162L20.0015 36.8754V39.2045C20.3809 39.2035 20.7527 39.0975 21.0757 38.8982L30.424 33.1658C30.5521 33.0874 30.6635 32.9845 30.7518 32.863C30.8401 32.7415 30.9035 32.6038 30.9385 32.4577C30.9736 32.3117 30.9795 32.1602 30.9559 32.0118C30.9323 31.8635 30.8797 31.7213 30.8012 31.5933Z" fill="#89ACF1"/>
<path d="M25.3137 28.6334C25.2345 28.5057 25.1309 28.395 25.0089 28.3074C24.8869 28.2198 24.7488 28.1571 24.6025 28.1229C24.4563 28.0888 24.3047 28.0837 24.1565 28.1082C24.0083 28.1326 23.8664 28.1861 23.7388 28.2654L19.9995 30.5876V32.919C20.3828 32.9176 20.758 32.8091 21.0829 32.6058L24.9457 30.2082C25.0733 30.129 25.1841 30.0255 25.2717 29.9034C25.3593 29.7814 25.4219 29.6433 25.4561 29.4971C25.4903 29.3508 25.4953 29.1992 25.4708 29.051C25.4464 28.9028 25.393 28.7609 25.3137 28.6334Z" fill="#FF7575"/>
<path d="M24.4039 22.9764C24.2471 22.7174 23.9938 22.5313 23.6999 22.4589C23.4059 22.3865 23.0952 22.4337 22.836 22.5901L20.0063 24.3066V26.6746C20.341 26.6739 20.6691 26.5814 20.9549 26.4071L24.0222 24.5443C24.2804 24.3867 24.4656 24.1332 24.5371 23.8392C24.6087 23.5453 24.5608 23.235 24.4039 22.9764Z" fill="#74CDB0"/>
<defs>
<linearGradient id="paint0_linear" x1="-0.000174381" y1="30.2196" x2="39.9987" y2="30.2196" gradientUnits="userSpaceOnUse">
<stop stop-color="#FFE614"/>
<stop offset="1" stop-color="#FFCC00"/>
</linearGradient>
</defs>
</svg>
