<svg width="40" height="40" viewBox="0 0 40 40" fill="none" xmlns="http://www.w3.org/2000/svg">
<path d="M16.7048 29.4939C15.089 31.1098 12.3095 31.2734 10.5164 29.4803L3.9917 36.005C9.31647 41.3298 17.9457 41.3275 23.2704 36.005C28.5952 30.6825 28.5952 22.0511 23.2704 16.7263L16.7162 23.2806C18.4911 25.0532 18.3797 27.819 16.7048 29.4939Z" fill="#34A853"/>
<path d="M29.477 16.7217C27.8248 18.3739 25.0408 18.4966 23.2704 16.7263L16.7275 23.2692C22.0523 28.5939 30.6815 28.5917 36.0063 23.2692C41.331 17.9467 41.331 9.31522 36.0063 3.99045L29.4725 10.5243C31.2701 12.3242 31.0997 15.0991 29.477 16.7217Z" fill="#5BB974"/>
<path d="M36.0063 3.99273C30.6815 -1.33205 22.0524 -1.32977 16.7276 3.99273C11.4051 9.31523 11.4028 17.9467 16.7276 23.2715L23.2705 16.7285C21.4478 14.9059 21.6569 12.1424 23.2796 10.5197C25.0227 8.77661 27.7998 8.85616 29.4725 10.5288C31.277 12.3333 34.2018 12.3333 36.0063 10.5288C37.8108 8.72207 37.8108 5.7972 36.0063 3.99273Z" fill="#1E8E3E"/>
<path d="M23.2706 16.7286C17.9458 11.4038 9.31665 11.4061 3.99188 16.7286C-1.33063 22.0511 -1.33063 30.6825 3.99188 36.005C5.92816 37.9413 9.06666 37.9413 11.0029 36.005C12.9392 34.0687 12.4506 31.412 10.5143 29.4758C8.9553 27.9167 8.64395 25.1532 10.5052 23.2897C12.0211 21.7738 14.7346 21.342 16.7163 23.2783C18.6526 25.2146 21.5639 24.9941 23.2933 23.2669C24.9614 21.6034 25.2069 18.6626 23.2706 16.7286Z" fill="#5BB974"/>
</svg>
