<svg width="40" height="40" viewBox="0 0 40 40" fill="none" xmlns="http://www.w3.org/2000/svg">
<path d="M10.6316 6.10352e-05V6.38321H17.1916V23.0423H23.5055V6.10352e-05H10.6316Z" fill="#0C0C27"/>
<path d="M7.31646 20.5941C7.31646 15.6249 10.0912 11.3009 14.1829 9.0746L4.81398 9.07395C2.41791 12.2956 1 16.2784 1 20.5941C1 29.157 6.57409 36.4224 14.3067 38.9984V32.1786C10.1477 29.9709 7.31646 25.6129 7.31646 20.5941Z" fill="#0C0C27"/>
<path d="M26.8163 2.23455V9.07328C30.9088 11.3007 33.6868 15.6241 33.6868 20.595C33.6868 27.8392 27.7814 33.7146 20.4997 33.7146C19.4136 33.7146 18.3585 33.5831 17.3489 33.3372V39.7468C18.3754 39.9113 19.4266 40.0001 20.4997 40.0001C31.2687 40.0001 40 31.3118 40 20.5952C39.9998 12.0768 34.4852 4.84634 26.8163 2.23455Z" fill="#0C0C27"/>
</svg>
