<svg width="40" height="40" viewBox="0 0 40 40" fill="none" xmlns="http://www.w3.org/2000/svg">
<rect width="40" height="40" fill="white"/>
<path d="M3.44285 37.539C6.66385 39.4179 10.8051 38.3059 12.684 35.0466L25.9131 12.1545C27.792 8.9335 26.68 4.79222 23.4207 2.91331C20.1997 1.0344 16.0584 2.14641 14.1795 5.40574L0.950418 28.2978C-0.928495 31.5188 0.183515 35.6601 3.44285 37.539Z" fill="#FBBC04"/>
<path d="M3.28935 37.6816L3.55777 37.835C6.70207 39.6755 10.7667 38.5635 12.5689 35.4192C14.4094 32.2749 13.2974 28.2103 10.1531 26.4081L9.88472 26.2547C6.74041 24.4142 2.67583 25.5262 0.873605 28.6705C-0.928617 31.8148 0.145048 35.841 3.28935 37.6816Z" fill="#34A853"/>
<path d="M36.6113 37.5006C33.3903 39.3796 29.249 38.2675 27.3701 35.0082L14.1793 12.1545C12.3004 8.89515 13.4124 4.75388 16.6334 2.91331C19.8544 1.0344 23.9957 2.1464 25.8746 5.40574L39.1037 28.2595C40.9443 31.4805 39.8706 35.6217 36.6113 37.5006Z" fill="#4285F4"/>
</svg>
