<svg width="40" height="40" viewBox="0 0 40 40" fill="none" xmlns="http://www.w3.org/2000/svg">
<rect width="40" height="40" fill="white"/>
<path d="M30.0883 0C26.758 0.141718 23.6047 1.5589 21.3018 3.96811C18.9635 6.41276 17.688 9.60142 17.688 12.9672C17.688 17.0771 19.672 20.9743 22.967 23.419C23.0024 23.419 23.0024 23.4544 23.0379 23.4544C23.0733 23.4544 23.1087 23.419 23.1441 23.3835C23.1441 23.3481 23.1441 23.3127 23.1441 23.2772C21.6561 21.5058 20.8058 19.2383 20.8058 16.9353C20.8058 11.6918 24.9156 7.36935 30.1238 7.08592C30.1946 7.08592 30.2301 7.05049 30.2301 6.97963V0.106289C30.1946 0.0354296 30.1592 0 30.0883 0Z" fill="#009BD8"/>
<path d="M30.0886 27.2808C24.4907 27.0682 19.7431 23.7733 17.3339 18.4942C15.2436 12.8964 16.4482 6.90877 20.5226 2.83437C20.8769 2.48007 21.2312 2.16121 21.5855 1.87777C21.6209 1.84234 21.6209 1.80691 21.6209 1.77148C21.5855 1.70062 21.55 1.70062 21.4792 1.70062C18.1134 3.33038 15.2436 5.84588 13.1887 8.99912C11.0983 12.2586 10 16.0142 10 19.876C10 30.9655 18.9991 40 30.0886 40C30.1594 40 30.1949 39.9646 30.1949 39.8937V27.3871C30.1949 27.3162 30.1594 27.2808 30.0886 27.2808Z" fill="#009BD8"/>
<path d="M30.0884 8.39682C25.6242 8.68026 22.1167 12.4358 22.1167 16.9353C22.1167 19.132 22.967 21.2223 24.4551 22.8167C24.4905 22.8521 24.4905 22.8521 24.5259 22.8521C24.5613 22.8521 24.5968 22.8167 24.5968 22.8167C24.6322 22.7812 24.6322 22.7458 24.5968 22.7104C24.1716 21.8246 23.9236 20.9035 23.9236 19.9114C23.9236 16.5102 26.6871 13.7467 30.0529 13.7113C30.1238 13.7113 30.1592 13.6758 30.1592 13.605V8.50311C30.1946 8.43225 30.1592 8.39682 30.0884 8.39682Z" fill="#009BD8"/>
</svg>
