<svg width="40" height="40" viewBox="0 0 40 40" fill="none" xmlns="http://www.w3.org/2000/svg">
<rect width="40" height="40" fill="white"/>
<path d="M0 4L16.7027 13.1293C18.2895 13.9948 19.289 15.6538 19.3096 17.457L19.3921 23.1963C19.4127 24.577 18.7017 25.865 17.5167 26.576L11.2416 30.3782C7.91345 32.3977 9.79907 24.4122 13.0448 22.2689C13.1273 22.2174 14.3843 21.4549 14.3843 21.4549L10.2731 19.1262C4.83256 16.0453 1.00979 10.677 0.0721278 4.49459C0.0412159 4.32973 0.0206079 4.16486 0 4Z" fill="url(#paint0_linear)"/>
<path d="M14.3845 21.4549C14.6112 21.5889 16.0229 22.3823 16.0229 22.3823C16.0229 22.3823 20.639 24.6904 16.0744 27.4621L11.2418 30.3782C7.91364 32.3977 9.79927 24.4122 13.045 22.2689C13.1275 22.2174 14.3845 21.4549 14.3845 21.4549Z" fill="url(#paint1_linear)"/>
<path opacity="0.49" d="M1.21587 8.76043L16.6924 17.2097C18.2792 18.0752 19.2787 19.7342 19.2993 21.5373L19.3302 23.897C19.3715 23.6703 19.3921 23.4333 19.3818 23.1963L19.2993 17.457C19.2787 15.6538 18.2792 13.9948 16.6924 13.1293L0 4C0.0206079 4.16486 0.0412159 4.32973 0.0721278 4.49459C0.298815 5.96806 0.680062 7.40031 1.21587 8.76043Z" fill="url(#paint2_linear)"/>
<path d="M16.4658 27.2457C16.4658 27.2457 16.538 27.2045 16.6616 27.1015C16.7853 27.0088 16.9707 26.8542 17.1871 26.6481C17.3932 26.4317 17.6302 26.1535 17.8157 25.7929C17.9908 25.4322 18.0939 24.948 17.9393 24.474C17.8672 24.237 17.7435 24.0103 17.5787 23.7939C17.4138 23.5775 17.218 23.3818 16.9913 23.1963C16.775 23.0108 16.5174 22.846 16.2598 22.6811C16.0022 22.5368 15.7137 22.3823 15.4355 22.2174C14.3123 21.5889 13.1171 20.9294 11.9115 20.2597C11.3139 19.9196 10.7162 19.5899 10.1392 19.2499C9.54158 18.9201 8.98517 18.5492 8.45966 18.168C7.93416 17.7867 7.44988 17.3952 7.0068 17.0139C6.78012 16.8181 6.57404 16.6224 6.36796 16.4369C6.17218 16.2411 5.97641 16.0556 5.79094 15.8805C5.61577 15.695 5.4406 15.5198 5.27574 15.3447C5.12118 15.1695 4.97692 15.0046 4.83267 14.8398C4.68841 14.6852 4.57507 14.5307 4.46172 14.3864C4.34838 14.2421 4.24534 14.1185 4.15261 13.9948C3.96713 13.7579 3.83318 13.5621 3.74045 13.4384C3.64771 13.3045 3.59619 13.2427 3.59619 13.2427C3.59619 13.2427 3.81257 13.5106 4.19382 13.9742C4.29686 14.0876 4.3999 14.2112 4.52355 14.3452C4.6472 14.4791 4.77084 14.6337 4.9151 14.7779C5.05935 14.9325 5.21391 15.0871 5.37878 15.2519C5.54364 15.4168 5.71881 15.592 5.90428 15.7671C6.08975 15.9423 6.28553 16.1175 6.49161 16.3132C6.69769 16.4884 6.91407 16.6842 7.14076 16.8697C7.59413 17.2406 8.08872 17.6115 8.60392 17.9825C9.12942 18.3534 9.68584 18.7141 10.2629 19.0335C10.8502 19.3632 11.4581 19.6929 12.0557 20.0227C13.251 20.7027 14.436 21.3725 15.5591 22.0113C15.8373 22.1762 16.1155 22.3205 16.3834 22.4853C16.641 22.6605 16.8986 22.8356 17.1253 23.0314C17.352 23.2272 17.5581 23.4436 17.7229 23.6703C17.8981 23.897 18.0217 24.1546 18.0939 24.4122C18.166 24.6698 18.1763 24.9274 18.1351 25.1746C18.0939 25.4116 18.0114 25.628 17.9084 25.8135C17.7023 26.1844 17.4447 26.4626 17.2283 26.6687C17.0017 26.8748 16.8162 27.0088 16.6822 27.1015C16.538 27.2045 16.4658 27.2457 16.4658 27.2457Z" fill="url(#paint3_linear)"/>
<path d="M40.0001 36.4163L23.3901 27.1221C21.8136 26.236 20.8347 24.577 20.8244 22.7738L20.8038 17.0345C20.7935 15.6538 21.5251 14.3761 22.7101 13.6754L29.0161 9.93509C32.3649 7.95673 30.3968 15.9114 27.1304 18.0237C27.048 18.0752 25.7909 18.8274 25.7909 18.8274L29.8816 21.1973C35.2912 24.3297 39.0624 29.7393 39.9383 35.932C39.9589 36.0866 39.9795 36.2514 40.0001 36.4163Z" fill="url(#paint4_linear)"/>
<path d="M25.7911 18.8274C25.5644 18.6935 24.1631 17.8898 24.1631 17.8898C24.1631 17.8898 19.5675 15.5301 24.1631 12.8099L29.0163 9.93509C32.3651 7.95673 30.397 15.9114 27.1306 18.0237C27.0482 18.0752 25.7911 18.8274 25.7911 18.8274Z" fill="url(#paint5_linear)"/>
<path d="M23.7612 13.0469C23.7612 13.0469 23.689 13.0881 23.5551 13.1911C23.4211 13.2839 23.246 13.4384 23.0296 13.6445C22.8235 13.8506 22.5762 14.1288 22.3907 14.4894C22.2053 14.8501 22.1022 15.3241 22.2465 15.8083C22.3186 16.0453 22.4319 16.2823 22.5968 16.4884C22.7617 16.7048 22.9574 16.9109 23.1738 17.086C23.3902 17.2715 23.6375 17.4467 23.8951 17.6115C24.1527 17.7661 24.4309 17.9207 24.7091 18.0855C25.822 18.7244 27.0172 19.4044 28.2022 20.0845C28.7895 20.4245 29.3871 20.7749 29.9642 21.1149C30.5618 21.4549 31.1079 21.8259 31.6334 22.2174C32.1486 22.5987 32.6329 23.0005 33.076 23.3921C33.2923 23.5878 33.5087 23.7836 33.7045 23.9794C33.9003 24.1752 34.0961 24.3606 34.2712 24.5461C34.4464 24.7316 34.6216 24.9171 34.7761 25.0819C34.9307 25.2571 35.0749 25.4323 35.2089 25.5868C35.3428 25.7414 35.4665 25.8959 35.5798 26.0402C35.6932 26.1845 35.7962 26.3081 35.889 26.4317C36.0641 26.6687 36.1981 26.8645 36.2908 26.9985C36.3835 27.1324 36.4351 27.1942 36.4351 27.1942C36.4351 27.1942 36.2187 26.9263 35.8477 26.4627C35.755 26.3493 35.6417 26.2257 35.5283 26.0814C35.415 25.9475 35.281 25.7929 35.1368 25.6486C34.9925 25.4941 34.8379 25.3395 34.6834 25.1644C34.5185 24.9995 34.3434 24.8243 34.1682 24.6389C33.9827 24.4637 33.7869 24.2782 33.5912 24.0927C33.3851 23.9073 33.1687 23.7218 32.9523 23.526C32.4989 23.1448 32.0147 22.7635 31.4995 22.3926C30.9843 22.0216 30.4278 21.6507 29.8508 21.321C29.2635 20.9809 28.6659 20.6409 28.0682 20.3009C26.8833 19.6105 25.6983 18.9201 24.5958 18.271C24.3176 18.1061 24.0497 17.9619 23.7818 17.7867C23.5242 17.6115 23.2769 17.4364 23.0502 17.2303C22.8235 17.0345 22.6277 16.8181 22.4629 16.5811C22.298 16.3545 22.1743 16.0969 22.1022 15.8393C22.0301 15.5817 22.0301 15.3138 22.0713 15.0768C22.1125 14.8398 22.2053 14.6234 22.3083 14.4379C22.5144 14.067 22.7823 13.7991 22.9987 13.593C23.2254 13.3869 23.4211 13.253 23.5551 13.1705C23.689 13.0881 23.7612 13.0469 23.7612 13.0469Z" fill="url(#paint6_linear)"/>
<path opacity="0.64" d="M39.969 36.4163C39.9483 36.2514 39.9277 36.0866 39.9071 35.9217C39.701 34.4482 39.3301 33.016 38.8149 31.6456L23.4517 22.9902C21.8752 22.1041 20.9066 20.4348 20.8963 18.6316V16.272C20.8551 16.4987 20.8345 16.7357 20.8345 16.9727L20.8448 22.712C20.8448 24.5152 21.8237 26.1844 23.4002 27.0706L39.969 36.4163Z" fill="url(#paint7_linear)"/>
<defs>
<linearGradient id="paint0_linear" x1="16.7978" y1="27.0089" x2="2.09238" y2="2.73253" gradientUnits="userSpaceOnUse">
<stop stop-color="#1C75BC"/>
<stop offset="1" stop-color="#27CDE1"/>
</linearGradient>
<linearGradient id="paint1_linear" x1="8.57909" y1="28.4783" x2="17.3324" y2="23.176" gradientUnits="userSpaceOnUse">
<stop stop-color="#27AAE1"/>
<stop offset="1" stop-color="#2B3990"/>
</linearGradient>
<linearGradient id="paint2_linear" x1="9.67434" y1="23.8752" x2="9.71405" y2="4.01942" gradientUnits="userSpaceOnUse">
<stop stop-color="#27AAE1" stop-opacity="0"/>
<stop offset="0.00328285" stop-color="#28ABE1" stop-opacity="0.01"/>
<stop offset="0.1539" stop-color="#61C1E9" stop-opacity="0.1539"/>
<stop offset="0.305" stop-color="#91D4F0" stop-opacity="0.305"/>
<stop offset="0.4536" stop-color="#B9E3F5" stop-opacity="0.4536"/>
<stop offset="0.5991" stop-color="#D7EFF9" stop-opacity="0.5991"/>
<stop offset="0.7406" stop-color="#EDF8FD" stop-opacity="0.7406"/>
<stop offset="0.8764" stop-color="#FBFDFE" stop-opacity="0.8764"/>
<stop offset="1" stop-color="white"/>
</linearGradient>
<linearGradient id="paint3_linear" x1="10.8806" y1="13.2011" x2="10.852" y2="27.3429" gradientUnits="userSpaceOnUse">
<stop stop-color="#88D0E1"/>
<stop offset="1" stop-color="#27AEE1"/>
</linearGradient>
<linearGradient id="paint4_linear" x1="44.5189" y1="28.4887" x2="21.2375" y2="15.2251" gradientUnits="userSpaceOnUse">
<stop stop-color="#AFD838"/>
<stop offset="1" stop-color="#39B54A"/>
</linearGradient>
<linearGradient id="paint5_linear" x1="31.6662" y1="11.8541" x2="22.8609" y2="17.0694" gradientUnits="userSpaceOnUse">
<stop stop-color="#399F4A"/>
<stop offset="1" stop-color="#006838"/>
</linearGradient>
<linearGradient id="paint6_linear" x1="29.1655" y1="27.1592" x2="29.3766" y2="13.0187" gradientUnits="userSpaceOnUse">
<stop stop-color="#E0FF3F"/>
<stop offset="1" stop-color="#39B54A"/>
</linearGradient>
<linearGradient id="paint7_linear" x1="30.5564" y1="16.4162" x2="30.2605" y2="36.2705" gradientUnits="userSpaceOnUse">
<stop stop-color="#399F4A"/>
<stop offset="1" stop-color="#006838"/>
</linearGradient>
</defs>
</svg>
