<svg width="40" height="40" viewBox="0 0 40 40" fill="none" xmlns="http://www.w3.org/2000/svg">
<rect width="40" height="40" fill="white"/>
<path fill-rule="evenodd" clip-rule="evenodd" d="M20 1C15.7272 1 11.5249 1.29658 7.41447 1.87024C4.03371 2.34503 1.36457 4.94795 0.888536 8.23379C0.30309 12.2125 0 16.2806 0 20.4167C0 24.5767 0.30662 28.6669 0.899124 32.6686C1.39678 35.9037 4.02621 38.4619 7.35623 38.9571C11.4852 39.5342 15.7069 39.8321 20 39.8321C24.3178 39.8321 28.5607 39.529 32.7117 38.9463C35.9725 38.4342 38.549 35.9379 39.0863 32.7757C39.6885 28.7406 40 24.6135 40 20.4167C40 16.3296 39.7035 12.3114 39.1318 8.37818C39.1229 8.31704 39.1154 8.25417 39.1066 8.19216C38.6187 4.93971 35.9764 2.36541 32.6327 1.87458C28.5077 1.29875 24.2896 1 20 1ZM23.7315 10.4174C23.7315 9.24321 24.7118 8.29189 25.9215 8.29189C27.1308 8.29189 28.1106 9.24321 28.1106 10.4174C28.1106 11.5912 27.1308 12.5425 25.9215 12.5425C24.7118 12.5425 23.7315 11.5912 23.7315 10.4174ZM11.8898 25.7422V25.5918V24.5563V14.6429C11.8898 13.4825 12.8577 12.5425 14.0533 12.5425C14.7129 12.5425 15.3041 12.83 15.7016 13.2831L23.7853 21.1309V16.7935V15.2404C23.7853 15.2404 24.238 14.2062 25.8178 14.2062H26.0781C27.6584 14.2062 28.1106 15.2404 28.1106 15.2404V26.1893C28.1106 27.3504 27.1423 28.2905 25.9484 28.2905C25.2959 28.2905 24.71 28.0095 24.3134 27.5655L16.2151 19.7117V24.5563H16.216V25.7422C16.216 25.7422 15.7629 26.7772 14.1835 26.7772H13.9223C12.342 26.7772 11.8898 25.7422 11.8898 25.7422ZM11.8898 30.4151C11.8898 29.2418 12.8701 28.2905 14.0798 28.2905C15.2886 28.2905 16.2689 29.2418 16.2689 30.4151C16.2689 31.5902 15.2886 32.5415 14.0798 32.5415C12.8701 32.5415 11.8898 31.5902 11.8898 30.4151Z" fill="url(#paint0_linear)"/>
<defs>
<linearGradient id="paint0_linear" x1="3.12975" y1="36.6333" x2="36.2352" y2="2.78063" gradientUnits="userSpaceOnUse">
<stop stop-color="#F7941D"/>
<stop offset="0.475617" stop-color="#FF0000"/>
<stop offset="1" stop-color="#EC008C"/>
</linearGradient>
</defs>
</svg>
