<svg width="40" height="40" viewBox="0 0 40 40" fill="none" xmlns="http://www.w3.org/2000/svg">
<path d="M37.4927 17.5H17.5933C16.8333 17.5 16.2127 16.8875 16.2127 16.1625V13.85C16.2127 13.1125 16.846 12.5125 17.5933 12.5125H37.6193C38.3793 12.5125 39 13.125 39 13.85V16.1625C38.8733 16.9 38.24 17.5 37.4927 17.5Z" fill="#6ADDB2"/>
<path d="M2.39333 27.5C1.63333 27.5 1 26.875 1 26.125V23.75C1 23.125 1.63333 22.5 2.39333 22.5H22.4827C23.2427 22.5 23.876 23.125 23.876 23.875V26.25C23.7493 26.875 23.116 27.5 22.356 27.5H2.39333Z" fill="#6ADDB2"/>
<path d="M8.53667 36.25C9.93 36.25 11.07 35.125 11.07 33.75C11.07 32.375 9.93 31.25 8.53667 31.25C7.14333 31.25 6.00333 32.375 6.00333 33.75C6.00333 35.125 7.14333 36.25 8.53667 36.25Z" fill="#6ADDB2"/>
<path d="M31.3367 8.75C32.73 8.75 33.87 7.625 33.87 6.25C33.87 4.875 32.73 3.75 31.3367 3.75C29.9433 3.75 28.8033 4.875 28.8033 6.25C28.8033 7.625 29.9433 8.75 31.3367 8.75Z" fill="#6ADDB2"/>
<path d="M19.9367 35C18.5433 35 17.15 34.75 15.8833 34.375C15.25 34.25 14.6167 34.5 14.3633 35.125L13.4767 37.5C13.2233 38.125 13.6033 38.875 14.3633 39.125C16.1367 39.75 18.0367 40 19.9367 40C28.17 40 35.2633 35.125 38.43 28.125C38.6833 27.5 38.43 26.625 37.67 26.375L35.2633 25.5C34.63 25.25 33.9967 25.5 33.7433 26.125C31.3367 31.375 26.1433 35 19.9367 35Z" fill="#6ADDB2"/>
<path d="M19.9367 5C21.33 5 22.7233 5.25 23.99 5.625C24.6233 5.75 25.2567 5.5 25.51 4.875L26.3967 2.5C26.65 1.875 26.27 1.125 25.51 0.875C23.7367 0.25 21.8367 0 19.9367 0C11.7033 0 4.61 4.875 1.44333 11.875C1.19 12.5 1.44333 13.375 2.20333 13.625L4.61 14.5C5.24333 14.75 5.87667 14.5 6.13 13.875C8.53667 8.625 13.73 5 19.9367 5Z" fill="#6ADDB2"/>
</svg>
