<svg xmlns="http://www.w3.org/2000/svg" width="40" height="40" fill="none"><path fill="#009CE9" d="M12.408 25.721c.037.266.013.205-.16.282C7.389 28.159 1.5 24.604 1.13 19.353c-.414-5.885.324-12.247.002-18.182C1.191.46 1.87-.031 2.562 0c2.578 1.19 4.975 2.774 7.417 4.22l.028 19.66c.307 1.08 1.236 1.888 2.4 1.84Z"/><path fill="#8C23D6" d="m5.461 30.662 16.813-9.685c.754-.612.964-1.309.897-2.262-.013-.175-.357-.959-.063-.944.376.02 2.196 2.507 2.433 3 2.007 4.182.23 8.254-3.47 10.604-4.74 3.009-9.995 5.511-14.765 8.509-.811.3-1.674.023-1.837-.88l-.009-8.343.001.001Z"/><path fill="#414BF7" d="M10.635 12.595c.652-5.652 6.506-8.806 11.691-6.287 5.063 2.458 9.985 6.183 15.074 8.706.957.696 1.123 1.473.202 2.307l-7.014 3.984-17.037-9.787c-1.273-.326-2.066.252-2.916 1.077Z"/></svg>