<svg width="40" height="40" viewBox="0 0 40 40" fill="none" xmlns="http://www.w3.org/2000/svg">
<rect width="40" height="40" fill="white"/>
<path d="M39 0H1C0.447715 0 0 0.447714 0 0.999999V39C0 39.5523 0.447714 40 0.999999 40H39C39.5523 40 40 39.5523 40 39V1C40 0.447715 39.5523 0 39 0Z" fill="url(#paint0_radial)"/>
<path d="M32.9041 24.5545L28.5477 21.3367L32.7061 15.5116L32.3101 15.231L21.584 7.7723L19.9998 6.66669L18.4157 7.7723L7.68961 15.231L7.29357 15.5116L11.452 21.3367L7.09555 24.5545L6.6665 24.868L8.31667 25.9076L19.6533 33.0693L19.9998 33.2838L20.3464 33.0693L31.683 25.9076L33.3332 24.868L32.9041 24.5545ZM8.74571 16.7162L19.9998 8.87791L31.254 16.7162L28.1516 21.0561L21.2705 15.9076L19.9998 14.9505L18.7292 15.9076L11.848 21.0561L8.74571 16.7162ZM8.74571 25.5941L12.5081 22.8218L19.0922 32.1287L8.74571 25.5941ZM19.9998 32.5908L12.9041 22.5413L19.9998 17.2277L27.0955 22.5413L19.9998 32.5908ZM20.9239 32.1287L27.5081 22.8218L31.2705 25.5941L20.9239 32.1287Z" fill="url(#paint1_linear)"/>
<defs>
<radialGradient id="paint0_radial" cx="0" cy="0" r="1" gradientUnits="userSpaceOnUse" gradientTransform="translate(15.6106 -3.07689) scale(63.94 65.5795)">
<stop stop-color="#EC202B"/>
<stop offset="0.1463" stop-color="#E2202A"/>
<stop offset="0.3994" stop-color="#C51E26"/>
<stop offset="0.7265" stop-color="#981C20"/>
<stop offset="1" stop-color="#6D1A1B"/>
</radialGradient>
<linearGradient id="paint1_linear" x1="19.9999" y1="6.66545" x2="19.9999" y2="33.3049" gradientUnits="userSpaceOnUse">
<stop offset="0.14" stop-color="white"/>
<stop offset="1" stop-color="#EAECEA"/>
</linearGradient>
</defs>
</svg>
