<svg width="40" height="40" viewBox="0 0 40 40" fill="none" xmlns="http://www.w3.org/2000/svg">
<rect width="40" height="40" fill="white"/>
<path fill-rule="evenodd" clip-rule="evenodd" d="M36.5456 31.2393C38.7257 28.0361 40 24.1669 40 20C40 8.9543 31.0457 0 20 0C8.9543 0 0 8.9543 0 20C0 20.3233 0.00767167 20.6448 0.0228429 20.9644C0.301071 17.7762 3.09954 15.6658 7.24396 15.6658H13.7588V20.2801C11.4924 17.0713 9.67287 15.9888 7.52619 15.9888C5.6254 15.9888 4.41095 16.9194 4.41095 18.4596C4.41095 20.7283 6.61619 21.7599 9.04887 22.8978C12.0411 24.2974 15.3774 25.858 15.3774 30.0798C15.3774 33.8041 12.7881 35.9091 7.93243 35.9091H7.87799C11.2413 38.4757 15.4426 40 20 40C24.7742 40 29.1577 38.3272 32.5963 35.5357L26.7265 27.4464L30.8061 23.4803L36.5456 31.2393ZM7.35617 35.497C3.64122 32.4624 1.0377 28.1185 0.249719 23.1694C1.02957 25.6331 3.50366 26.9997 5.78029 28.2571C8.04936 29.5104 10.1223 30.6554 10.1261 32.6703C10.1261 34.1898 8.94471 35.2023 7.35617 35.497ZM24.6376 5.05326L19.0293 11.5757V35.9069H24.7723V5.10246C24.7723 4.98908 24.7124 4.96555 24.6376 5.05326ZM31.8944 21.8995L38.4135 15.6658H27.4834C30.6799 16.4744 32.4204 18.9046 31.8944 21.8995Z" fill="black"/>
</svg>
