<svg width="40" height="40" viewBox="0 0 40 40" fill="none" xmlns="http://www.w3.org/2000/svg">
<rect width="40" height="40" fill="white"/>
<path d="M36.7112 18.9987C35.8211 17.4754 34.6059 16.2602 33.0484 15.3359C31.8845 14.6513 30.6521 14.2234 29.3342 14.0351V9.19127C30.6179 8.60933 31.5079 7.34275 31.5079 5.83654C31.5079 3.79974 29.8648 2.15661 27.828 2.15661C25.7912 2.15661 24.1481 3.79974 24.1481 5.83654C24.1481 7.32563 25.0381 8.60933 26.3218 9.19127V14.0351C25.175 14.2062 24.0796 14.5315 23.0526 15.062C20.9474 13.4703 14.0325 8.21566 9.99315 5.1519C10.0958 4.80959 10.1643 4.45015 10.1643 4.0736C10.1472 1.83141 8.33291 0 6.0736 0C3.83141 0 2 1.83141 2 4.0736C2 6.33291 3.83141 8.1472 6.0736 8.1472C6.84382 8.1472 7.54557 7.92469 8.16175 7.54814L9.01754 8.19855L20.7249 16.6367C20.1087 17.2015 19.561 17.8519 19.0988 18.5708C18.1575 20.0428 17.6782 21.6688 17.6269 23.4489V23.8254C17.6269 25.0749 17.8323 26.2559 18.2259 27.3513C18.5854 28.3098 19.0817 29.1998 19.7321 29.9872L15.8468 33.8896C15.5045 33.7698 15.1279 33.7013 14.7514 33.7013C13.9127 33.7013 13.1254 34.0265 12.5263 34.6256C11.9273 35.2246 11.6021 36.012 11.6021 36.8507C11.6021 37.6893 11.9273 38.4767 12.5263 39.0757C13.1254 39.6748 13.9127 40 14.7514 40C15.5901 40 16.3774 39.6748 16.9765 39.0757C17.5755 38.4767 17.9007 37.6893 17.9007 36.8507C17.9007 36.5255 17.8494 36.2003 17.7638 35.9093L21.7861 31.887C22.3338 32.2636 22.9328 32.5888 23.5661 32.8798C24.8327 33.4275 26.2191 33.7184 27.7424 33.7698H28.0163C29.6936 33.7698 31.2854 33.359 32.7745 32.5546C34.3492 31.6988 35.5986 30.5178 36.54 29.0287C37.4814 27.5396 37.9606 25.8793 38.012 24.0479V23.9623C38.012 22.1652 37.5841 20.5049 36.7112 18.9987ZM31.7818 27.4027C30.6863 28.6179 29.4369 29.2683 28.0163 29.3368H27.7766C26.9722 29.3368 26.1677 29.1314 25.3975 28.7206C24.5246 28.2756 23.8229 27.6423 23.2751 26.8378C22.7103 26.0505 22.4022 25.1947 22.368 24.2704V23.9966C22.368 23.0894 22.5905 22.2336 23.0184 21.4292C23.4805 20.5392 24.1309 19.8203 24.9696 19.2897C25.7912 18.742 26.6983 18.4681 27.6739 18.451H27.7595C28.6496 18.451 29.4882 18.6564 30.2756 19.0672C31.08 19.4951 31.7475 20.1113 32.261 20.8815C32.7574 21.6517 33.0484 22.5075 33.151 23.4146C33.1682 23.6029 33.1682 23.7912 33.1682 23.9795C33.2024 25.2118 32.7232 26.3586 31.7818 27.4027Z" fill="#FF7A59"/>
</svg>
