<svg width="40" height="40" viewBox="0 0 40 40" fill="none" xmlns="http://www.w3.org/2000/svg">
<rect y="1" width="40" height="38.8889" rx="7" fill="#10131A"/>
<path fill-rule="evenodd" clip-rule="evenodd" d="M22.7113 26.7713V26.7956H15.6314V31.5319C15.6314 33.3779 14.1645 34.8474 12.3096 34.8474C10.4669 34.8474 9 33.3779 9 31.5319V10.3033C9 8.45734 10.4669 7 12.3096 7H22.7113V7.01214C28.0091 7.23074 32.228 11.5663 32.228 16.8978C32.228 22.2292 28.0091 26.5648 22.7113 26.7713ZM21.5233 12.963H15.6314V20.9176H21.6445C23.7903 20.8569 25.5118 19.0959 25.5118 16.9464C25.5118 14.7482 23.7297 12.963 21.5233 12.963Z" fill="white"/>
</svg>
