<svg width="40" height="40" viewBox="0 0 40 40" fill="none" xmlns="http://www.w3.org/2000/svg">
<path d="M25.6234 27.7934H21.5159C19.8442 27.7934 18.241 28.4364 17.059 29.581C15.8769 30.7256 15.2129 32.278 15.2129 33.8966C15.2129 35.5154 15.8769 37.0678 17.059 38.2123C18.241 39.3569 19.8442 40 21.5159 40H25.6234C27.2951 40 28.8983 39.3569 30.0803 38.2123C31.2623 37.0678 31.9264 35.5154 31.9264 33.8966C31.9264 32.278 31.2623 30.7256 30.0803 29.581C28.8983 28.4364 27.2951 27.7934 25.6234 27.7934Z" fill="#FF451A"/>
<path d="M25.2235 12.0188H14.7765C12.9793 12.0188 11.2556 12.7113 9.98479 13.9439C8.71395 15.1765 8 16.8483 8 18.5915C8 20.3347 8.71395 22.0065 9.98479 23.2392C11.2556 24.4718 12.9793 25.1643 14.7765 25.1643H25.2235C26.1134 25.1643 26.9946 24.9943 27.8168 24.664C28.6389 24.3337 29.386 23.8495 30.0152 23.2392C30.6445 22.6288 31.1436 21.9043 31.4842 21.1068C31.8247 20.3094 32 19.4547 32 18.5915C32 17.7284 31.8247 16.8737 31.4842 16.0762C31.1436 15.2788 30.6445 14.5542 30.0152 13.9439C29.386 13.3335 28.6389 12.8494 27.8168 12.5191C26.9946 12.1888 26.1134 12.0188 25.2235 12.0188Z" fill="#FF451A"/>
<path d="M22.4257 4.69484C22.4257 2.10195 24.5503 0 27.1711 0C29.7918 0 31.9164 2.10195 31.9164 4.69484C31.9164 7.28771 29.7918 9.38965 27.1711 9.38965C24.5503 9.38965 22.4257 7.28771 22.4257 4.69484Z" fill="#FF451A"/>
</svg>
