<svg width="40" height="40" viewBox="0 0 40 40" fill="none" xmlns="http://www.w3.org/2000/svg">
<rect width="40" height="40" fill="white"/>
<rect y="0.5" width="40" height="38.8889" rx="7" fill="#FA0F00"/>
<path d="M31.1876 30.5556H26.4176C26.0145 30.5556 25.6114 30.2861 25.4098 29.9492L20.2366 17.7549C20.1694 17.6201 20.1023 17.5528 19.9679 17.6201C19.9007 17.6201 19.8335 17.6875 19.8335 17.7549L16.6087 25.5027C16.5415 25.6374 16.6087 25.7722 16.743 25.8395C16.743 25.8395 16.8102 25.8395 16.8774 25.8395H20.371C20.5725 25.8395 20.7741 25.9743 20.9085 26.1764L22.4537 29.6798C22.5881 30.0166 22.4537 30.3535 22.1178 30.4882C22.0506 30.5556 21.9834 30.5556 21.849 30.5556H8.88249C8.54657 30.5556 8.27783 30.2861 8.27783 29.9492C8.27783 29.8819 8.27783 29.8145 8.34502 29.7471L16.6087 10.0071C16.8102 9.60286 17.2133 9.33337 17.6836 9.33337H22.3865C22.8568 9.33337 23.2599 9.60286 23.4615 10.0071L31.7251 29.6798C31.8595 29.9492 31.7251 30.3535 31.4564 30.4882C31.3892 30.5556 31.2548 30.5556 31.1876 30.5556Z" fill="white"/>
</svg>
