<svg width="40" height="40" viewBox="0 0 40 40" fill="none" xmlns="http://www.w3.org/2000/svg">
<rect width="40" height="40" fill="white"/>
<g clip-path="url(#clip0_4231_20702)">
<mask id="mask0_4231_20702" style="mask-type:alpha" maskUnits="userSpaceOnUse" x="0" y="0" width="40" height="40">
<path d="M0 0.102051H39.1135V39.2157H0V0.102051Z" fill="white"/>
</mask>
<g mask="url(#mask0_4231_20702)">
<path fill-rule="evenodd" clip-rule="evenodd" d="M19.5577 0.102051C8.77443 0.102051 0 8.87405 0 19.6588C0 30.4422 8.77443 39.2157 19.5577 39.2157C30.3411 39.2157 39.1135 30.4422 39.1135 19.6588C39.1135 8.87405 30.3411 0.102051 19.5577 0.102051Z" fill="#025450"/>
</g>
<path fill-rule="evenodd" clip-rule="evenodd" d="M29.4954 14.1176H18.1131C17.9622 14.1176 17.8345 14.2279 17.809 14.3798L17.2773 17.5687C17.2621 17.6607 17.287 17.754 17.3456 17.8251C17.4044 17.8963 17.4903 17.9371 17.5813 17.9371H24.8797C25.0318 17.9371 25.1757 18.0054 25.2738 18.1244C25.3722 18.2433 25.4138 18.3997 25.3881 18.5531L24.1381 26.0501C23.9278 27.3114 22.7522 28.3375 21.5178 28.3375H15.742C15.5912 28.3375 15.4633 28.4477 15.438 28.5997L14.9062 31.7887C14.891 31.8805 14.9159 31.9738 14.9746 32.0451C15.0333 32.1161 15.1193 32.1569 15.2103 32.1569H20.8455C24.158 32.1569 27.3123 29.4015 27.877 26.0145L29.7995 14.4859C29.8147 14.394 29.7898 14.3007 29.7311 14.2295C29.6723 14.1584 29.5864 14.1176 29.4954 14.1176Z" fill="white"/>
<path fill-rule="evenodd" clip-rule="evenodd" d="M20.6035 24.8358L21.1386 21.6468C21.1541 21.5552 21.129 21.4617 21.0698 21.3906C21.0107 21.3194 20.9243 21.2786 20.8326 21.2786H15.1616C14.5587 21.2786 14.0286 21.0402 13.6688 20.6072C13.3023 20.1658 13.158 19.5794 13.2627 18.9557L14.2343 13.1656C14.4458 11.9043 15.6288 10.8782 16.8713 10.8782H22.6838C22.8356 10.8782 22.9641 10.7679 22.9896 10.616L23.5249 7.42704C23.5402 7.33521 23.5151 7.24171 23.456 7.17063C23.3968 7.09955 23.3105 7.05882 23.2189 7.05882H17.5477C14.2143 7.05882 11.0399 9.81432 10.4716 13.2011L9.49987 18.9914C9.2236 20.6385 9.60092 22.1828 10.5625 23.3403C11.504 24.4739 12.8971 25.098 14.485 25.098H20.2975C20.4493 25.098 20.578 24.9878 20.6035 24.8358Z" fill="white"/>
<path fill-rule="evenodd" clip-rule="evenodd" d="M34.5095 35.2941V35.637H33.8902V37.6471H33.5604V35.637H32.9409V35.2941H34.5095Z" fill="#025450"/>
<path fill-rule="evenodd" clip-rule="evenodd" d="M35.7684 35.2941L36.4816 37.1464L37.182 35.2941H37.6469V37.6471H37.2934V35.9159L36.6248 37.6471H36.316L35.6474 35.9159V37.6471H35.2939V35.2941H35.7684Z" fill="#025450"/>
</g>
<defs>
<clipPath id="clip0_4231_20702">
<rect width="39.2157" height="40" fill="white"/>
</clipPath>
</defs>
</svg>
