<svg width="40" height="40" viewBox="0 0 40 40" fill="none" xmlns="http://www.w3.org/2000/svg">
<path d="M33.4148 13C33.1691 13 32.8743 13 32.6286 13.049L31.2036 15.5434C31.8424 15.152 32.6286 14.9565 33.4148 14.9565C35.9701 14.9565 38.083 17.0596 38.083 19.603C38.083 22.1464 35.9701 24.2494 33.4148 24.2494C30.8595 24.2494 28.7957 22.1952 28.7466 19.6519L27.2725 22.1464C28.2552 24.5429 30.663 26.2059 33.3657 26.2059C37.002 26.2059 39.9995 23.2223 39.9995 19.603C40.0487 15.9836 37.0511 13 33.4148 13Z" fill="#BF3078"/>
<path d="M13.3663 19.8964L14.4965 17.9399L17.0517 22.2931L20 17.2552L22.9482 22.2931L28.0097 13.7337C28.2554 13.2935 28.7468 13 29.2874 13H30.7124L22.9484 26.2059L20.0001 21.1681L17.0517 26.2059L13.3663 19.8964Z" fill="#802050"/>
<path d="M15.4789 13L7.71493 26.2059L0 13H1.42504C1.96555 13 2.45697 13.2935 2.70268 13.7337L7.71493 22.3419L12.7763 13.7337C13.022 13.2935 13.5133 13 14.0539 13H15.4789Z" fill="#26134D"/>
</svg>
