<svg width="40" height="40" viewBox="0 0 40 40" fill="none" xmlns="http://www.w3.org/2000/svg">
<g clip-path="url(#clip0_4733_20989)">
<path d="M8.63999 11.2563C10.7984 11.2563 12.1226 11.8599 13.3735 13.0912C13.6434 13.3569 13.8396 13.3326 14.0848 13.0912C15.3356 11.8599 17.077 11.2563 19.6277 11.2563C22.3012 11.2563 24.0425 11.8599 25.2934 13.0912C25.5386 13.3326 25.7594 13.3326 26.0047 13.0912C27.2555 11.8599 28.7026 11.2563 30.8609 11.2563C35.8396 11.2563 39.2244 14.757 39.2244 19.8028C39.2244 21.9514 38.5868 23.8346 37.4831 25.2833C37.4341 25.3559 37.4341 25.4764 37.5078 25.5491L39.7886 27.8425C39.9848 28.0599 39.8377 28.4219 39.5434 28.4219H31.3475C28.8949 28.4462 27.4459 27.9148 26.1951 26.6835C25.9742 26.4661 25.7046 26.4421 25.4594 26.6835C24.2086 27.9148 22.5182 28.5184 19.9431 28.5184C17.2452 28.5184 15.4587 27.9148 14.2079 26.6835C13.9627 26.4421 13.7418 26.4178 13.4966 26.6835C12.3195 27.9148 10.725 28.5184 8.64033 28.5184C3.66164 28.5184 0.252441 24.9937 0.252441 19.8753C0.252121 14.757 3.66132 11.2563 8.63999 11.2563ZM5.83924 25.5007H11.8482C12.3143 25.5007 12.682 25.1145 12.682 24.68L12.6871 22.6279C12.6871 22.4348 12.859 22.2657 13.0551 22.2657H15.2135C15.4097 22.2657 15.5815 22.4348 15.5815 22.6279V24.68C15.5815 25.1388 15.9739 25.5007 16.44 25.5007H23.0866C23.577 25.5007 23.9451 25.4042 23.9451 24.8005V23.4487C23.9451 22.7968 23.7488 22.4831 23.1112 22.314L16.9061 20.6239C14.012 19.8271 12.6631 17.8473 12.6631 15.6504V15.0467C12.6631 14.5396 12.3198 14.2017 11.8536 14.2017H5.84404C4.5932 14.2017 3.61228 15.1673 3.61228 16.3986L3.60715 23.3275C3.60715 24.5348 4.61276 25.5007 5.83924 25.5007ZM33.8816 25.5007L31.008 22.6519C30.8362 22.4828 30.8609 22.314 31.0324 22.1448L32.3079 20.8652C32.4798 20.6961 32.6759 20.7444 32.8231 20.8892L35.1286 23.1827C35.3985 23.4484 35.8643 23.2793 35.8643 22.893V16.3746C35.8643 15.1676 34.8587 14.2017 33.6325 14.2017H27.5007C27.0347 14.2017 26.6423 14.5639 26.6423 15.0224V17.0262C26.6423 17.2193 26.4704 17.3884 26.2743 17.3884H24.0915C23.8954 17.3884 23.7235 17.2193 23.7235 17.0262V15.0947C23.7235 14.5876 23.3312 14.2013 22.816 14.2013H16.3903C15.9242 14.2013 15.5565 14.5393 15.5565 14.9981V16.4468C15.5565 17.0262 15.8264 17.3402 16.3169 17.485L22.3012 19.1509C25.4895 20.0442 26.9122 21.9031 26.9122 24.2691V24.6797C26.9122 25.2108 27.2568 25.5005 27.7963 25.5005L33.8816 25.5007Z" fill="#FF5C5C"/>
</g>
<defs>
<clipPath id="clip0_4733_20989">
<rect width="40" height="18" fill="white" transform="translate(0 11)"/>
</clipPath>
</defs>
</svg>
