<svg width="40" height="40" viewBox="0 0 40 40" fill="none" xmlns="http://www.w3.org/2000/svg">
<path d="M12.5688 38.5295C12.3191 36.2654 12.5022 34.0846 12.985 31.987L14.9827 23.3803C14.622 22.2666 14.4312 21.1049 14.4167 19.9343C14.4167 17.1375 15.7485 15.1398 17.8793 15.1398C19.3443 15.1398 20.4264 16.172 20.4264 18.1364C20.4264 18.769 20.3043 19.4793 20.0601 20.2672L19.1778 23.1472C19.0114 23.7022 18.9281 24.2071 18.9281 24.6622C18.9281 26.6598 20.4597 27.7919 22.4074 27.7919C25.8701 27.7919 28.3506 24.196 28.3506 19.5347C28.3506 14.3407 24.9545 11.0279 19.927 11.0279C14.3334 11.0279 10.7875 14.6737 10.7875 19.7345C10.7875 21.7821 11.4201 23.68 12.6354 24.9785C12.2359 25.6444 11.803 25.7775 11.1704 25.7775C9.17273 25.7775 7.27492 22.9475 7.27492 19.1186C7.27492 12.4762 12.6021 7.199 20.0601 7.199C27.8844 7.199 32.8121 12.6594 32.8121 19.4016C32.8121 26.1771 28.0176 31.2712 22.8569 31.2712C21.8734 31.2887 20.8994 31.0766 20.0122 30.6518C19.125 30.227 18.3491 29.6012 17.7462 28.824L16.7307 32.9859C16.1813 35.1167 15.3489 37.1477 14.0338 39.0955C17.0259 40.0279 20.1954 40.2432 23.2862 39.724C26.3769 39.2048 29.3022 37.9657 31.8254 36.1069C34.3487 34.2481 36.3993 31.8216 37.8113 29.0237C39.2234 26.2258 39.9573 23.1349 39.9538 20.0009C39.9582 16.3714 38.9737 12.8094 37.106 9.69731C35.2384 6.58526 32.5583 4.0408 29.3535 2.33725C26.1486 0.633706 22.5403 -0.164561 18.916 0.028199C15.2916 0.220959 11.7883 1.39746 8.78225 3.43133C5.77621 5.46521 3.38106 8.27959 1.85407 11.5722C0.327086 14.8648 -0.274042 18.5112 0.115261 22.1197C0.504564 25.7282 1.86959 29.1625 4.06371 32.0536C6.25783 34.9448 9.19814 37.1835 12.5688 38.5295Z" fill="#CC0000"/>
</svg>
