<svg width="40" height="40" viewBox="0 0 40 40" fill="none" xmlns="http://www.w3.org/2000/svg">
<rect width="40" height="40" fill="white"/>
<rect width="40" height="40" rx="8" fill="#FFFC00"/>
<path d="M36.924 28.5816C36.7804 28.1064 36.0934 27.7715 36.0934 27.7715C36.0284 27.7373 35.9703 27.7065 35.9225 27.6826C34.7774 27.1289 33.7622 26.4623 32.9076 25.7069C32.2206 25.0985 31.6327 24.4285 31.1609 23.7175C30.5833 22.8493 30.3132 22.1247 30.197 21.7316C30.1321 21.4752 30.1423 21.3727 30.197 21.2393C30.2415 21.1266 30.3748 21.0206 30.4363 20.9693C30.8225 20.6959 31.4447 20.2925 31.8275 20.0464C32.159 19.8311 32.4428 19.6465 32.6102 19.5303C33.1469 19.1543 33.5161 18.7714 33.7314 18.3578C34.0117 17.8246 34.0459 17.2367 33.8271 16.659C33.5332 15.8797 32.8051 15.4148 31.8788 15.4148C31.6737 15.4148 31.4617 15.4387 31.2498 15.4832C30.72 15.5994 30.2175 15.7874 29.7971 15.9514C29.7663 15.9651 29.7321 15.9412 29.7356 15.907C29.78 14.8645 29.8313 13.463 29.7151 12.1333C29.6125 10.9302 29.363 9.91496 28.9596 9.02965C28.5529 8.14093 28.0231 7.48464 27.6095 7.00951C27.2164 6.55831 26.5225 5.89177 25.4765 5.29359C24.0067 4.45272 22.3318 4.02545 20.4997 4.02545C18.671 4.02545 16.9995 4.45272 15.5262 5.29359C14.4188 5.92595 13.7112 6.64035 13.3899 7.00951C12.9763 7.48464 12.4465 8.14093 12.0397 9.02965C11.6329 9.91496 11.3868 10.9267 11.2843 12.1333C11.1681 13.4699 11.2159 14.7585 11.2638 15.907C11.2638 15.9412 11.233 15.9651 11.1988 15.9514C10.7784 15.7874 10.2759 15.5994 9.74612 15.4832C9.53761 15.4387 9.32568 15.4148 9.11717 15.4148C8.19427 15.4148 7.4662 15.8797 7.16882 16.659C6.95005 17.2367 6.98424 17.8246 7.26453 18.3578C7.48329 18.7714 7.84903 19.1543 8.38568 19.5303C8.54976 19.6465 8.83688 19.8311 9.16844 20.0464C9.54103 20.2891 10.146 20.6822 10.5357 20.9522C10.5836 20.9864 10.7476 21.1095 10.7989 21.2393C10.8536 21.3761 10.8639 21.4786 10.7921 21.7521C10.6724 22.1486 10.4024 22.8664 9.83499 23.7175C9.36328 24.4319 8.77536 25.0985 8.0883 25.7069C7.23376 26.4623 6.21857 27.1289 5.07348 27.6826C5.01879 27.7099 4.95384 27.7407 4.88548 27.7817C4.88548 27.7817 4.20185 28.1304 4.07196 28.5816C3.88054 29.2481 4.38984 29.8736 4.90599 30.2086C5.75369 30.7555 6.78598 31.0495 7.38416 31.2101C7.55165 31.2546 7.70205 31.2956 7.83878 31.3366C7.92423 31.364 8.13958 31.446 8.23187 31.5656C8.34808 31.716 8.36176 31.9006 8.40278 32.1091C8.46772 32.4612 8.6147 32.8953 9.04881 33.1961C9.52735 33.5242 10.1324 33.5482 10.9015 33.5789C11.7047 33.6097 12.7028 33.6473 13.8479 34.0267C14.3777 34.201 14.8597 34.4984 15.4134 34.8402C16.5756 35.5546 18.0215 36.4434 20.4894 36.4434C22.9608 36.4434 24.4169 35.5512 25.5859 34.8334C26.1397 34.495 26.6148 34.201 27.1343 34.0301C28.2794 33.6507 29.2775 33.6131 30.0808 33.5824C30.8499 33.5516 31.4549 33.5311 31.9334 33.1995C32.3983 32.8782 32.5316 32.3997 32.5932 32.0408C32.6273 31.863 32.6478 31.7024 32.7504 31.5725C32.8393 31.4597 33.0375 31.3811 33.1298 31.3503C33.27 31.3059 33.4272 31.2648 33.6015 31.217C34.1997 31.0563 34.9517 30.8683 35.8643 30.3522C36.965 29.7267 37.0402 28.961 36.924 28.5816Z" fill="white"/>
<path d="M37.8743 28.2124C37.6316 27.5493 37.1667 27.1972 36.6403 26.9033C36.5412 26.8451 36.4489 26.7973 36.3737 26.7631C36.2165 26.6811 36.0558 26.6025 35.8952 26.5204C34.251 25.6488 32.9658 24.5481 32.0771 23.2458C31.7763 22.8049 31.5678 22.4084 31.4208 22.0836C31.3456 21.8649 31.349 21.7418 31.4037 21.629C31.4447 21.5436 31.5541 21.4547 31.6156 21.4103C31.8993 21.2223 32.1899 21.0343 32.3881 20.9078C32.7402 20.6788 33.0205 20.4976 33.1982 20.3746C33.875 19.9028 34.3468 19.4004 34.6407 18.8398C35.0577 18.0502 35.109 17.1478 34.7877 16.3001C34.3433 15.1242 33.229 14.3928 31.8823 14.3928C31.602 14.3928 31.3183 14.4235 31.038 14.485C30.9628 14.5021 30.891 14.5192 30.8192 14.5363C30.8329 13.7365 30.8124 12.8819 30.7406 12.0479C30.4876 9.10827 29.4588 7.56667 28.3855 6.33955C27.9377 5.82683 27.1583 5.07825 25.9893 4.40829C24.3589 3.47171 22.5131 3 20.4998 3C18.4933 3 16.6475 3.47171 15.017 4.40487C13.8412 5.07483 13.0618 5.82683 12.6175 6.33613C11.5441 7.56326 10.5153 9.10485 10.2623 12.0445C10.1906 12.8785 10.1735 13.733 10.1837 14.5329C10.1119 14.5158 10.0367 14.4987 9.96496 14.4816C9.68467 14.4201 9.39754 14.3893 9.12067 14.3893C7.77391 14.3893 6.65959 15.1208 6.21522 16.2967C5.89392 17.1444 5.94519 18.0468 6.36221 18.8364C6.65617 19.397 7.13129 19.8994 7.80467 20.3711C7.98584 20.4976 8.26271 20.6788 8.61478 20.9044C8.8062 21.0274 9.08307 21.2086 9.35652 21.3897C9.39754 21.4171 9.54452 21.5265 9.59579 21.629C9.6539 21.7452 9.6539 21.8717 9.56845 22.1041C9.42489 22.422 9.21638 22.8117 8.92241 23.2424C8.05078 24.5174 6.80315 25.5975 5.2137 26.4589C4.36941 26.9067 3.49436 27.2041 3.1252 28.209C2.84491 28.9678 3.02949 29.8326 3.73705 30.5607C3.96949 30.8102 4.26345 31.0324 4.63261 31.2375C5.50083 31.716 6.23915 31.9519 6.82024 32.1125C6.92279 32.1433 7.15864 32.2185 7.26118 32.3108C7.52096 32.5364 7.48337 32.8782 7.8286 33.3773C8.03711 33.6883 8.27638 33.9002 8.47463 34.037C9.19587 34.536 10.0094 34.5668 10.8708 34.601C11.6467 34.6317 12.5286 34.6659 13.5335 34.9975C13.9505 35.1342 14.3846 35.4008 14.8837 35.7085C16.0869 36.4502 17.7379 37.462 20.4963 37.462C23.2582 37.462 24.916 36.4434 26.1295 35.7016C26.6285 35.3974 27.0592 35.1308 27.4626 34.9975C28.4675 34.6659 29.3494 34.6317 30.1253 34.601C30.9867 34.5668 31.7968 34.536 32.5215 34.037C32.7471 33.8797 33.0342 33.6234 33.2598 33.2337C33.5059 32.8133 33.5025 32.5159 33.7349 32.3142C33.8306 32.2322 34.0391 32.1604 34.1519 32.1262C34.7364 31.9656 35.485 31.7297 36.3703 31.2409C36.7634 31.0256 37.0676 30.7897 37.3103 30.5197C37.3137 30.5163 37.3171 30.5128 37.3206 30.5094C37.9803 29.7916 38.1478 28.9542 37.8743 28.2124ZM35.4235 29.5284C33.9263 30.3556 32.9316 30.2667 32.1591 30.7624C31.5028 31.1862 31.8891 32.0989 31.414 32.427C30.826 32.8338 29.093 32.3997 26.8541 33.138C25.0083 33.7498 23.829 35.5034 20.5032 35.5034C17.1705 35.5034 16.0254 33.7567 14.1522 33.138C11.9133 32.3997 10.1769 32.8338 9.59238 32.427C9.11725 32.0989 9.5035 31.1862 8.84721 30.7624C8.07471 30.2633 7.08002 30.3522 5.58286 29.5284C4.62919 29.002 5.16926 28.6773 5.48715 28.5235C10.9084 25.9017 11.7697 21.8478 11.8108 21.5436C11.8586 21.1812 11.9099 20.8941 11.51 20.5215C11.1237 20.1626 9.40438 19.0996 8.92925 18.768C8.13965 18.2177 7.79442 17.6674 8.05078 16.9906C8.22853 16.5223 8.66605 16.3479 9.1275 16.3479C9.27107 16.3479 9.41805 16.365 9.55819 16.3958C10.423 16.5838 11.2639 17.0179 11.7492 17.1341C11.8176 17.1512 11.8757 17.1581 11.927 17.1581C12.1868 17.1581 12.2756 17.0282 12.2585 16.7308C12.2039 15.784 12.0671 13.9381 12.2175 12.212C12.4226 9.83976 13.1883 8.66391 14.0975 7.62136C14.535 7.12231 16.5859 4.95519 20.5066 4.95519C24.4375 4.95519 26.4781 7.12231 26.9157 7.62136C27.8249 8.66049 28.5906 9.83634 28.7956 12.212C28.946 13.9381 28.8162 15.784 28.7546 16.7308C28.7341 17.0418 28.8298 17.1581 29.0862 17.1581C29.1375 17.1581 29.199 17.1512 29.2639 17.1341C29.7493 17.0179 30.5902 16.5838 31.455 16.3958C31.5951 16.365 31.7421 16.3479 31.8857 16.3479C32.3471 16.3479 32.7846 16.5257 32.9624 16.9906C33.2188 17.6674 32.8701 18.2177 32.0839 18.768C31.6088 19.0996 29.8895 20.1626 29.5032 20.5215C29.1033 20.8907 29.1546 21.1778 29.2024 21.5436C29.24 21.8478 30.1048 25.9017 35.526 28.5235C35.8337 28.6773 36.3771 29.002 35.4235 29.5284Z" fill="black"/>
</svg>
