<svg xmlns="http://www.w3.org/2000/svg" width="40" height="40" fill="none"><path fill="#1D3E74" d="M19.965 0C8.932 0 0 8.967 0 20s8.932 20 20 20 20-8.932 20-20S30.998 0 19.965 0Zm0 6.375c1.926 0 3.468 1.506 3.468 3.467 0 1.962-1.577 3.503-3.468 3.503s-3.468-1.646-3.468-3.503c0-1.856 1.577-3.467 3.468-3.467Zm6.865 10.998c-1.26 4.834-3.082 9.912-5.359 15.201-.595 1.401-2.417 1.401-3.012 0-2.277-5.253-4.098-10.332-5.324-15.166-.315-1.156.49-2.312 1.611-2.312H25.22c1.12-.035 1.926 1.121 1.611 2.277Z"/></svg>