<svg width="316" height="100" viewBox="0 0 316 100" fill="none" xmlns="http://www.w3.org/2000/svg">
<g clip-path="url(#clip0)">
<path d="M255.497 32.9741H250.812L237.093 67.9754H242.456L245.9 59.4508H260.634L264.135 67.9754H269.103L255.554 33.1999L255.497 32.9741ZM247.424 54.8216L252.9 39.9743L259.054 54.8216H247.424Z" fill="#5F6368"/>
<path d="M289.031 32.9176L289.257 47.0875C288.466 46.1278 287.394 45.3374 286.095 44.7729C284.571 44.0954 282.934 43.7567 281.184 43.7567C279.321 43.7567 277.627 44.1519 276.159 44.7729C274.691 45.4503 273.393 46.2971 272.32 47.4262C271.248 48.5553 270.457 49.9102 269.893 51.378C269.328 52.9022 269.103 54.5394 269.103 56.2894C269.103 58.0395 269.441 59.6767 270.062 61.1445C270.683 62.6122 271.53 63.9107 272.603 65.0398C273.675 66.1688 274.974 67.0156 276.498 67.6366C277.966 68.2012 279.546 68.4834 281.297 68.4834C281.353 68.4834 281.466 68.4834 281.522 68.4834C283.16 68.4834 284.74 68.0883 286.264 67.3544C287.563 66.7334 288.636 65.943 289.482 64.9268L289.539 67.806L294.563 67.7495L294.112 32.8611L289.031 32.9176ZM288.918 59.225C288.579 60.1847 288.127 60.9751 287.506 61.6525C286.885 62.33 286.095 62.8945 285.192 63.2897C284.289 63.6849 283.216 63.9107 282.087 63.9107C280.958 63.9671 279.885 63.7413 278.982 63.3461C278.079 62.951 277.288 62.4429 276.611 61.8219C275.99 61.1445 275.482 60.3541 275.087 59.3944C274.748 58.4347 274.522 57.4185 274.522 56.2894C274.522 55.1604 274.691 54.0877 274.974 53.128C275.312 52.1683 275.764 51.378 276.385 50.7005C277.006 50.0231 277.796 49.4585 278.7 49.0634C279.603 48.6682 280.676 48.4424 281.805 48.4424C281.861 48.4424 281.918 48.4424 281.974 48.4424C283.047 48.4424 284.063 48.6117 284.966 49.0069C285.869 49.4021 286.66 49.9102 287.337 50.5312C287.958 51.2086 288.466 51.999 288.861 52.9587C289.2 53.9184 289.426 54.9345 289.426 56.0636C289.426 57.1927 289.256 58.2653 288.918 59.225Z" fill="#5F6368"/>
<path d="M315.507 58.2089C315.169 57.4185 314.661 56.7411 313.983 56.233C313.362 55.6684 312.572 55.2733 311.725 54.9345C310.878 54.5958 309.975 54.3136 308.959 54.0877C308.451 53.9748 307.886 53.8619 307.152 53.749C306.475 53.6361 305.854 53.4103 305.233 53.1845C304.668 52.9587 304.16 52.6199 303.709 52.2248C303.313 51.886 303.144 51.378 303.144 50.757C303.144 50.0231 303.483 49.4585 304.16 49.0634C304.894 48.6682 305.741 48.4424 306.757 48.4424C307.83 48.4424 308.733 48.6682 309.467 49.0634C310.201 49.4585 310.822 50.0231 311.33 50.6441L311.499 50.8699L315.394 47.9907L315.225 47.7649C314.322 46.3536 313.136 45.3374 311.612 44.7164C309.128 43.7003 306.305 43.5309 303.652 44.2648C302.58 44.5471 301.563 44.9987 300.717 45.6197C299.87 46.2407 299.136 46.9746 298.571 47.9343C298.063 48.8375 297.781 49.9666 297.781 51.2086C297.781 52.3377 298.007 53.3538 298.402 54.0877C298.797 54.8781 299.362 55.4991 300.096 56.0072C300.773 56.5153 301.563 56.9104 302.467 57.1927C303.313 57.475 304.273 57.7572 305.233 57.983C305.741 58.096 306.305 58.2089 306.926 58.3218C307.547 58.4347 308.168 58.6605 308.733 58.8863C309.297 59.1121 309.749 59.4508 310.144 59.846C310.483 60.2412 310.652 60.6928 310.652 61.2574C310.652 61.709 310.539 62.0477 310.314 62.3864C310.031 62.7252 309.749 63.0074 309.297 63.2332C308.902 63.4591 308.394 63.6284 307.83 63.7413C307.265 63.8542 306.701 63.9107 306.193 63.9107C304.951 63.9107 303.934 63.6284 303.088 63.1203C302.241 62.5558 301.394 61.9348 300.717 61.2574L300.547 61.088L296.765 64.1365L296.934 64.3623C298.12 65.943 299.475 67.0721 300.999 67.6931C302.467 68.3141 304.273 68.5963 306.249 68.5963C307.435 68.5963 308.62 68.4834 309.749 68.2012C310.935 67.9189 311.951 67.5237 312.911 66.9027C313.814 66.2817 314.604 65.4914 315.169 64.5317C315.733 63.572 316.072 62.3864 316.072 61.0315C316.072 59.9025 315.903 58.9992 315.507 58.2089Z" fill="#5F6368"/>
<path d="M87.7732 47.2004V52.5635H100.588C99.9672 60.0718 93.7009 63.2897 87.7732 63.2897C80.2084 63.2897 73.6034 57.3621 73.6034 49.0069C73.6034 40.8776 79.8697 34.6112 87.7732 34.6112C93.8702 34.6112 97.4268 38.5065 97.4268 38.5065L101.209 34.6112C101.209 34.6112 96.4107 29.2481 87.6039 29.2481C76.426 29.2481 67.7322 38.6759 67.7322 48.894C67.7322 58.8863 75.8615 68.6528 87.8861 68.6528C98.443 68.6528 106.177 61.4267 106.177 50.757C106.177 48.4988 105.838 47.2004 105.838 47.2004H87.7732Z" fill="#5F6368"/>
<path d="M121.815 43.3051C114.419 43.3051 109.056 49.1198 109.056 55.8942C109.056 62.7816 114.194 68.6528 121.871 68.6528C128.815 68.6528 134.517 63.3461 134.517 56.0071C134.517 47.5955 127.912 43.3051 121.815 43.3051ZM121.871 63.6848C117.807 63.6848 114.645 60.467 114.645 55.9507C114.645 51.5473 117.807 48.273 121.871 48.273C125.541 48.273 128.984 51.2086 128.984 55.9507C128.984 60.6363 125.541 63.6848 121.871 63.6848Z" fill="#5F6368"/>
<path d="M149.477 43.3051C142.082 43.3051 136.719 49.1198 136.719 55.8942C136.719 62.7816 141.856 68.6528 149.534 68.6528C156.477 68.6528 162.179 63.3461 162.179 56.0071C162.236 47.5955 155.574 43.3051 149.477 43.3051ZM149.534 63.6848C145.469 63.6848 142.308 60.467 142.308 55.9507C142.308 51.5473 145.469 48.273 149.534 48.273C153.203 48.273 156.647 51.2086 156.647 55.9507C156.703 60.6363 153.26 63.6848 149.534 63.6848Z" fill="#5F6368"/>
<path d="M184.083 46.2406C182.446 44.4906 180.244 43.3051 177.252 43.3051C170.422 43.3051 165.115 49.2891 165.115 55.9507C165.115 63.5719 171.325 68.6528 177.139 68.6528C180.753 68.6528 182.672 67.2414 184.083 65.5478V68.0318C184.083 72.3787 181.43 75.032 177.422 75.032C173.526 75.032 171.607 72.1529 170.93 70.5157L166.075 72.5481C167.825 76.2176 171.268 80 177.478 80C184.253 80 189.39 75.7095 189.39 66.7898V44.0954H184.083V46.2406ZM177.648 63.6848C174.035 63.6848 170.647 60.7492 170.647 56.0636C170.647 51.2086 174.147 48.273 177.704 48.273C181.035 48.273 184.478 51.1521 184.478 56.0071C184.478 60.9751 181.091 63.6848 177.648 63.6848Z" fill="#5F6368"/>
<path d="M224.674 50.7005C223.036 46.6359 219.198 43.2487 214.117 43.2487C207.681 43.2487 202.318 48.3859 202.318 55.8943C202.318 63.8543 208.358 68.5964 214.738 68.5964C220.101 68.5964 223.375 65.6608 225.351 63.0075L220.948 60.0719C219.819 61.8219 217.899 63.572 214.738 63.572C211.181 63.572 209.544 61.5961 208.528 59.7331L225.577 52.7893L224.674 50.7005ZM207.681 55.612C207.173 51.9425 210.673 48.1601 214.343 48.1601C216.657 48.1601 218.351 49.4021 219.028 50.8699L207.681 55.612Z" fill="#5F6368"/>
<path d="M199.213 30.5466H193.624V67.9189H199.213V30.5466Z" fill="#5F6368"/>
<path d="M5.06855 72.3223C9.81066 75.0885 15.9077 73.4514 18.6739 68.6528L38.1504 34.95C40.9166 30.2079 39.2795 24.1109 34.4809 21.3446C29.7388 18.5784 23.6418 20.2155 20.8756 25.0141L1.39906 58.717C-1.36717 63.4591 0.269989 69.5561 5.06855 72.3223Z" fill="#FBBC04"/>
<path d="M4.84275 72.2094L5.23793 72.4352C9.86713 75.145 15.8512 73.5078 18.5045 68.8786C21.2143 64.2494 19.5772 58.2653 14.948 55.612L14.5528 55.3862C9.92358 52.6764 3.93949 54.3136 1.28617 58.9428C-1.36716 63.572 0.213546 69.4996 4.84275 72.2094Z" fill="#34A853"/>
<path d="M53.901 72.3223C49.1589 75.0886 43.0619 73.4514 40.2956 68.6528L20.8756 35.0064C18.1093 30.2079 19.7465 24.1109 24.4886 21.4011C29.2307 18.6348 35.3277 20.272 38.094 25.0706L57.5705 58.717C60.2803 63.4591 58.6996 69.5561 53.901 72.3223Z" fill="#4285F4"/>
</g>
<defs>
<clipPath id="clip0">
<rect width="316" height="100" fill="white"/>
</clipPath>
</defs>
</svg>
