<svg width="40" height="40" viewBox="0 0 40 40" fill="none" xmlns="http://www.w3.org/2000/svg">
<rect width="40" height="40" fill="white"/>
<path fill-rule="evenodd" clip-rule="evenodd" d="M19.211 37.0642C20.2244 37.0642 21.0459 36.2427 21.0459 35.2294C21.0459 34.216 20.2244 33.3945 19.211 33.3945C18.1976 33.3945 17.3761 34.216 17.3761 35.2294C17.3761 36.2427 18.1976 37.0642 19.211 37.0642ZM19.211 37.7982C20.6297 37.7982 21.7798 36.6481 21.7798 35.2294C21.7798 33.8106 20.6297 32.6606 19.211 32.6606C17.7923 32.6606 16.6422 33.8106 16.6422 35.2294C16.6422 36.6481 17.7923 37.7982 19.211 37.7982Z" fill="url(#paint0_linear)"/>
<path d="M25.4495 16.8807H26.5505V28.6239H25.4495V16.8807Z" fill="url(#paint1_linear)"/>
<path d="M22.8807 20.5505H23.9817V28.6239H22.8807V20.5505Z" fill="url(#paint2_linear)"/>
<path d="M20.6789 23.4862H21.7798V28.6239H20.6789V23.4862Z" fill="url(#paint3_linear)"/>
<path d="M18.1101 25.6881H19.211V28.6239H18.1101V25.6881Z" fill="url(#paint4_linear)"/>
<path d="M15.9083 27.156H17.0092V28.6239H15.9083V27.156Z" fill="url(#paint5_linear)"/>
<path d="M11.3211 0.917431C11.3211 0.410748 10.9104 0 10.4037 0C7.97159 0 6 1.97159 6 4.40367V35.5963C6 38.0284 7.97159 40 10.4037 40H27.6514C30.0835 40 32.055 38.0284 32.055 35.5963V4.40367C32.055 4.28009 32.05 4.1577 32.04 4.0367H30.1942C30.2113 4.15655 30.2202 4.27907 30.2202 4.40367V35.5963C30.2202 37.015 29.0701 38.1651 27.6514 38.1651H10.4037C8.98496 38.1651 7.83486 37.015 7.83486 35.5963V4.40367C7.83486 2.98496 8.98496 1.83486 10.4037 1.83486C10.9104 1.83486 11.3211 1.42411 11.3211 0.917431Z" fill="url(#paint6_linear)"/>
<path d="M31.1376 0.366972L33.5229 4.40367H28.7523L31.1376 0.366972Z" fill="url(#paint7_linear)"/>
<path d="M12.9725 5.3211C12.9725 5.01709 12.726 4.77064 12.422 4.77064H11.5046C10.2885 4.77064 9.30275 5.75644 9.30275 6.97248V30.0917C9.30275 31.3078 10.2885 32.2936 11.5046 32.2936H26.5505C27.7665 32.2936 28.7523 31.3078 28.7523 30.0917V14.8624C28.7523 14.5584 28.5058 14.3119 28.2018 14.3119C27.8978 14.3119 27.6514 14.5584 27.6514 14.8624V30.0917C27.6514 30.6998 27.1585 31.1927 26.5505 31.1927H11.5046C10.8966 31.1927 10.4037 30.6998 10.4037 30.0917V6.97248C10.4037 6.36446 10.8966 5.87156 11.5046 5.87156H12.422C12.726 5.87156 12.9725 5.62511 12.9725 5.3211Z" fill="url(#paint8_linear)"/>
<defs>
<linearGradient id="paint0_linear" x1="19.7615" y1="0" x2="19.7615" y2="40" gradientUnits="userSpaceOnUse">
<stop offset="0.244792" stop-color="#00BDFF"/>
<stop offset="1" stop-color="#88DF29"/>
</linearGradient>
<linearGradient id="paint1_linear" x1="19.7615" y1="0" x2="19.7615" y2="40" gradientUnits="userSpaceOnUse">
<stop offset="0.244792" stop-color="#00BDFF"/>
<stop offset="1" stop-color="#88DF29"/>
</linearGradient>
<linearGradient id="paint2_linear" x1="19.7615" y1="0" x2="19.7615" y2="40" gradientUnits="userSpaceOnUse">
<stop offset="0.244792" stop-color="#00BDFF"/>
<stop offset="1" stop-color="#88DF29"/>
</linearGradient>
<linearGradient id="paint3_linear" x1="19.7615" y1="0" x2="19.7615" y2="40" gradientUnits="userSpaceOnUse">
<stop offset="0.244792" stop-color="#00BDFF"/>
<stop offset="1" stop-color="#88DF29"/>
</linearGradient>
<linearGradient id="paint4_linear" x1="19.7615" y1="0" x2="19.7615" y2="40" gradientUnits="userSpaceOnUse">
<stop offset="0.244792" stop-color="#00BDFF"/>
<stop offset="1" stop-color="#88DF29"/>
</linearGradient>
<linearGradient id="paint5_linear" x1="19.7615" y1="0" x2="19.7615" y2="40" gradientUnits="userSpaceOnUse">
<stop offset="0.244792" stop-color="#00BDFF"/>
<stop offset="1" stop-color="#88DF29"/>
</linearGradient>
<linearGradient id="paint6_linear" x1="19.7615" y1="0" x2="19.7615" y2="40" gradientUnits="userSpaceOnUse">
<stop offset="0.244792" stop-color="#00BDFF"/>
<stop offset="1" stop-color="#88DF29"/>
</linearGradient>
<linearGradient id="paint7_linear" x1="19.7615" y1="0" x2="19.7615" y2="40" gradientUnits="userSpaceOnUse">
<stop offset="0.244792" stop-color="#00BDFF"/>
<stop offset="1" stop-color="#88DF29"/>
</linearGradient>
<linearGradient id="paint8_linear" x1="19.7615" y1="0" x2="19.7615" y2="40" gradientUnits="userSpaceOnUse">
<stop offset="0.244792" stop-color="#00BDFF"/>
<stop offset="1" stop-color="#88DF29"/>
</linearGradient>
</defs>
</svg>
