<svg width="40" height="40" viewBox="0 0 40 40" fill="none" xmlns="http://www.w3.org/2000/svg">
<rect width="40" height="40" fill="white"/>
<path d="M39 0H1C0.447715 0 0 0.447714 0 0.999999V39C0 39.5523 0.447714 40 0.999999 40H39C39.5523 40 40 39.5523 40 39V1C40 0.447715 39.5523 0 39 0Z" fill="url(#paint0_radial)"/>
<path d="M2.78711 19.836C2.78711 29.3442 10.492 37.0492 20.0002 37.0492C29.5084 37.0492 37.2133 29.3442 37.2133 19.836C37.2133 10.3278 29.5084 2.62292 20.0002 2.62292C10.492 2.62292 2.78711 10.2951 2.78711 19.836ZM4.59039 19.836C4.59039 11.2787 11.5084 4.39342 20.0002 4.39342C28.492 4.39342 35.4101 11.3115 35.4101 19.836C35.4101 28.3606 28.5248 35.2459 20.0002 35.2459C11.4756 35.2459 4.59039 28.3278 4.59039 19.836Z" fill="#618DFF"/>
<path d="M20.0328 9.37708C14.2623 9.37708 9.54102 14.0984 9.54102 19.8689C9.54102 25.6394 14.2623 30.3607 20.0328 30.3607C25.8033 30.3607 30.5246 25.6394 30.5246 19.8689C30.5246 14.0984 25.8361 9.37708 20.0328 9.37708ZM28.8525 17.2787L20.2623 19.8033L23.8361 11.541C26.2295 12.623 28.0984 14.7213 28.8525 17.2787ZM23.541 11.4099L20 19.541L13.7377 13.2131C15.3771 11.6722 17.6066 10.7213 20.0328 10.7213C21.2787 10.6886 22.459 10.9508 23.541 11.4099ZM10.8525 19.8689C10.8525 17.3443 11.8689 15.082 13.5082 13.4099L26.3935 26.459C24.7541 28.0656 22.4918 29.0492 20.0328 29.0492C14.9836 29.0492 10.8525 24.9508 10.8525 19.8689ZM26.6558 26.2295L20.5246 20.0328L28.9509 17.5738C29.1476 18.2951 29.2459 19.082 29.2459 19.8689C29.2131 22.3607 28.2295 24.5902 26.6558 26.2295Z" fill="#C9E4FF"/>
<defs>
<radialGradient id="paint0_radial" cx="0" cy="0" r="1" gradientUnits="userSpaceOnUse" gradientTransform="translate(15.9487 13.3264) scale(26.2384 26.6714)">
<stop stop-color="#252B44"/>
<stop offset="0.7669" stop-color="#060E2A"/>
</radialGradient>
</defs>
</svg>
