<svg width="40" height="40" viewBox="0 0 40 40" fill="none" xmlns="http://www.w3.org/2000/svg">
<rect width="40" height="40" fill="white"/>
<path d="M38.3625 31.6893L32.4188 25.6468L25.647 32.5317L31.5906 38.5741C33.4612 40.4753 36.4918 40.4753 38.3625 38.5741C40.2331 36.6729 40.2331 33.5905 38.3625 31.6893Z" fill="#1A73E8"/>
<path d="M29.9246 5.13361C23.0798 -1.7112 11.9784 -1.7112 5.13361 5.13361C-1.7112 11.9784 -1.7112 23.0798 5.13361 29.9246C11.9784 36.7694 23.0798 36.7694 29.9246 29.9246C36.7694 23.0798 36.7694 11.9784 29.9246 5.13361ZM23.1362 23.1362C20.1032 26.1692 15.1879 26.1692 12.1549 23.1362C9.1219 20.1032 9.1219 15.1879 12.1549 12.1549C15.1879 9.1219 20.1032 9.1219 23.1362 12.1549C26.1692 15.1879 26.1692 20.1056 23.1362 23.1362Z" fill="#669DF6"/>
</svg>
