<svg width="40" height="40" viewBox="0 0 40 40" fill="none" xmlns="http://www.w3.org/2000/svg">
<rect width="40" height="40" fill="white"/>
<path d="M26.3558 6H16.8834C16 6 15.3129 6.68782 15.3129 7.57216C15.3129 8.4565 16 9.14432 16.8834 9.14432H26.3558C32.0982 9.14432 36.8098 13.8608 36.8098 19.609C36.8098 25.3572 32.0982 30.0737 26.3558 30.0737H18.454V19.6581C18.454 18.7738 17.7669 18.086 16.8834 18.086C16 18.086 15.3129 18.7738 15.3129 19.6581V31.695C15.3129 32.5793 16 33.2671 16.8834 33.2671H26.3558C33.865 33.2671 40 27.1259 40 19.609C39.9509 12.1412 33.865 6 26.3558 6Z" fill="#127EBF"/>
<path d="M9.22699 9.19345C10.0944 9.19345 10.7975 8.48957 10.7975 7.62129C10.7975 6.75301 10.0944 6.04913 9.22699 6.04913C8.3596 6.04913 7.65644 6.75301 7.65644 7.62129C7.65644 8.48957 8.3596 9.19345 9.22699 9.19345Z" fill="#127EBF"/>
<path d="M1.57055 9.19345C2.43794 9.19345 3.1411 8.48957 3.1411 7.62129C3.1411 6.75301 2.43794 6.04913 1.57055 6.04913C0.70316 6.04913 0 6.75301 0 7.62129C0 8.48957 0.70316 9.19345 1.57055 9.19345Z" fill="#127EBF"/>
</svg>
