<svg xmlns="http://www.w3.org/2000/svg" width="40" height="40" fill="none" viewBox="0 0 40 40"><path fill="#f79f1a" d="M39.223 27.99v-.604h.153l.135.419c.01.029.012.042.015.064h.001a.4.4 0 0 1 .016-.065l.133-.418h.155v.604h-.1v-.44q0-.035.002-.066h-.003a.4.4 0 0 1-.015.064l-.14.442h-.098l-.143-.442a.4.4 0 0 1-.015-.063h-.004q.004.03.004.065v.44zM38.85 27.99v-.514h-.182v-.09h.474v.09h-.182v.514z"/><ellipse cx="27.669" cy="19.988" fill="#f79f1a" rx="12.331" ry="12.432"/><path fill="#ea001b" d="M19.842 10.224c3.054 2.458 4.71 5.952 4.747 9.684.038 3.813-1.652 7.366-4.66 9.838-4.97 4.088-12.325 3.422-16.639-1.256-4.314-4.679-4.41-11.992-.142-16.782 4.225-4.74 11.586-5.595 16.694-1.485z"/><path fill="#ff5f01" d="M19.983 10.263a12.45 12.45 0 0 1 4.645 9.722c0 3.936-1.814 7.445-4.645 9.723a12.45 12.45 0 0 1-4.645-9.723c0-3.936 1.814-7.444 4.645-9.722"/></svg>