<svg width="40" height="40" viewBox="0 0 40 40" fill="none" xmlns="http://www.w3.org/2000/svg">
<path fill-rule="evenodd" clip-rule="evenodd" d="M20 0H0V20V40H20H40V20V0H20ZM20 0C31.0457 0 40 8.95429 40 20C40 31.0457 31.0457 40 20 40C8.95429 40 0 31.0457 0 20C0 8.95429 8.95429 0 20 0Z" fill="#0D2BFF"/>
<path d="M39.2252 25.5127C28.6243 22.4729 17.5671 28.588 14.5019 39.1748C17.5071 28.5924 11.3994 17.5688 0.835449 14.5044C11.4172 17.5035 22.4376 11.3926 25.4977 0.827271C22.4884 11.429 28.625 22.4731 39.2252 25.5127Z" fill="#0D2BFF"/>
</svg>
