<svg width="40" height="40" viewBox="0 0 40 40" fill="none" xmlns="http://www.w3.org/2000/svg">
<rect width="40" height="40" fill="white"/>
<path d="M0 20C0 31.0457 8.9543 40 20 40C31.0457 40 40 31.0457 40 20C40 8.9543 31.0457 0 20 0C8.9543 0 0 8.9543 0 20Z" fill="#FE5000"/>
<path d="M33.889 25.8031L31.2977 21.9719C31.2018 21.8302 31.1665 21.6562 31.1999 21.4885C31.2333 21.3208 31.3326 21.1734 31.4756 21.0791C32.6624 20.2865 33.4069 18.8684 33.4069 17.2327C33.4069 14.4319 31.0563 12.2161 28.1601 12.2161H21.934C21.8209 12.2161 21.7125 12.261 21.6327 12.3407C21.5528 12.4204 21.5081 12.5286 21.5082 12.6413V15.3564C21.5077 15.4682 21.595 15.561 21.707 15.5675C23.814 15.6806 25.506 17.4914 25.506 19.5573C25.506 21.6426 23.7959 23.4144 21.707 23.5268C21.595 23.5334 21.5077 23.6261 21.5082 23.738V26.3716C21.5082 26.606 21.6989 26.796 21.934 26.796H25.5515C25.7867 26.796 25.9773 26.606 25.9773 26.3716V25.1027C25.9773 24.1984 26.7608 23.9794 27.36 24.6884L28.8778 26.5828C29.0142 26.7203 29.1999 26.7981 29.3939 26.7989H33.3577C33.5951 26.8002 33.8137 26.67 33.9252 26.4611C34.0367 26.2521 34.0227 25.9987 33.889 25.8031Z" fill="white"/>
<path d="M13.9746 12C16.2499 12 18.2867 12.9684 19.7424 14.5126C19.8214 14.5981 19.8619 14.7121 19.8544 14.8281C19.8469 14.944 19.7921 15.0519 19.7027 15.1265L17.637 16.8523C17.4686 16.9909 17.2224 16.9803 17.0667 16.8278C16.2413 16.0202 15.1332 15.5644 13.9767 15.5567C11.7729 15.5567 9.98909 17.2306 9.98909 19.5104C9.98909 21.7903 11.7729 23.444 13.9767 23.444C15.1331 23.436 16.2411 22.9802 17.0667 22.1729C17.2223 22.0202 17.4684 22.0093 17.637 22.1477L19.7041 23.8735C19.7938 23.9479 19.8489 24.0557 19.8565 24.1718C19.8642 24.2878 19.8237 24.4019 19.7446 24.4874C18.2889 26.0316 16.2521 27 13.9767 27C9.5677 27 6 23.841 6 19.5104C6 15.1799 9.5677 12 13.9746 12Z" fill="white"/>
</svg>
