<svg width="40" height="40" viewBox="0 0 40 40" fill="none" xmlns="http://www.w3.org/2000/svg">
<rect width="40" height="40" fill="white"/>
<path d="M39 0H1C0.447715 0 0 0.447714 0 0.999999V39C0 39.5523 0.447714 40 0.999999 40H39C39.5523 40 40 39.5523 40 39V1C40 0.447715 39.5523 0 39 0Z" fill="url(#paint0_radial)"/>
<path d="M33.3332 20.4633C33.3332 13.9548 28.6778 8.66669 22.8925 8.66669C17.288 8.66669 12.723 13.6836 12.497 19.9661H6.6665C6.6665 26.4746 11.3219 31.7627 17.062 31.7627C22.6665 31.7627 27.2315 26.7006 27.4575 20.4181L33.3332 20.4633ZM20.6778 20.4633C19.8642 22.3616 17.7851 26.2938 14.1241 26.2938C10.9151 26.2938 8.7456 23.9435 8.61001 20.4633H20.6778ZM17.062 31.3108C12.9038 31.3108 9.28797 28.3729 7.84165 24.2147C9.01679 26.5198 11.3219 27.9661 14.1241 27.9661C17.6044 27.9661 20.723 25.1639 22.4857 20.4633H27.0055C26.8247 26.4746 22.4405 31.3108 17.062 31.3108ZM22.6665 19.9661C23.8416 16.9831 25.1524 15.8079 27.1863 15.8079C29.401 15.8079 31.1185 17.6158 31.2541 19.9661H22.6665ZM27.2315 14.1356C23.5705 14.1356 21.9885 17.0283 20.9038 19.8757C20.9038 19.9209 20.8586 19.9661 20.8586 19.9661H12.949C13.1298 13.9548 17.514 9.11866 22.8925 9.11866C27.6835 9.11866 31.6609 12.9605 32.61 18.0678C31.8416 15.7627 29.7174 14.1356 27.2315 14.1356Z" fill="url(#paint1_linear)"/>
<defs>
<radialGradient id="paint0_radial" cx="0" cy="0" r="1" gradientUnits="userSpaceOnUse" gradientTransform="translate(15.6106 -3.07689) scale(63.94 65.5795)">
<stop stop-color="#EC202B"/>
<stop offset="0.1463" stop-color="#E2202A"/>
<stop offset="0.3994" stop-color="#C51E26"/>
<stop offset="0.7265" stop-color="#981C20"/>
<stop offset="1" stop-color="#6D1A1B"/>
</radialGradient>
<linearGradient id="paint1_linear" x1="19.9934" y1="8.66669" x2="19.9934" y2="31.7842" gradientUnits="userSpaceOnUse">
<stop offset="0.14" stop-color="white"/>
<stop offset="1" stop-color="#EAECEA"/>
</linearGradient>
</defs>
</svg>
