<svg width="40" height="40" viewBox="0 0 40 40" fill="none" xmlns="http://www.w3.org/2000/svg">
<path d="M37.5581 23.1321C37.487 23.4786 37.4317 23.8225 37.3448 24.1557C37.2131 24.6715 37.0814 25.1873 36.9102 25.6899C36.7127 26.2639 36.4835 26.8273 36.2465 27.3881C35.9093 28.1816 35.4879 28.9302 35.027 29.6602C34.6767 30.213 34.3027 30.75 33.8865 31.2552C33.5968 31.607 33.2965 31.9509 32.9884 32.2894C32.7513 32.5513 32.509 32.8132 32.2483 33.0486C31.8005 33.4533 31.3396 33.8421 30.8734 34.2257C30.2728 34.7203 29.6275 35.1541 28.9506 35.535C28.3844 35.855 27.7996 36.146 27.2149 36.429C26.6118 36.72 25.9823 36.9501 25.3449 37.1511C24.6258 37.3786 23.8989 37.5691 23.1561 37.696C22.8111 37.7569 22.4634 37.8124 22.1184 37.8627C21.905 37.8918 21.689 37.9103 21.4731 37.9235C21.0964 37.9473 20.7198 37.9658 20.3431 37.9817C20.1035 37.9923 19.8638 38.0055 19.6267 37.9976C19.2448 37.987 18.8603 37.9711 18.4784 37.9394C17.596 37.8653 16.7242 37.7304 15.8629 37.5294C14.9226 37.3099 14.006 37.0189 13.1132 36.6459C12.6996 36.474 12.2888 36.2888 11.8858 36.0878C11.1457 35.7175 10.4319 35.2996 9.7576 34.8182C9.30194 34.4928 8.86472 34.1437 8.42749 33.7972C7.85068 33.3396 7.33444 32.8158 6.82873 32.2815C6.29142 31.7128 5.79889 31.1018 5.34586 30.4617C4.91917 29.8612 4.52936 29.237 4.17642 28.5889C3.85509 27.9991 3.56273 27.3934 3.32041 26.7665C3.17028 26.3829 3.02278 25.9967 2.89109 25.6053C2.65404 24.8937 2.4644 24.169 2.32744 23.431C2.24842 23.0025 2.19048 22.5687 2.13253 22.1349C2.09566 21.8624 2.07722 21.59 2.05615 21.3175C2.03771 21.0557 2.02718 20.7938 2.01928 20.5319C2.00874 20.241 1.99294 19.95 2.00347 19.6591C2.01664 19.257 2.04562 18.8523 2.07722 18.4503C2.10093 18.1328 2.13517 17.8181 2.17468 17.5007C2.21155 17.2229 2.25106 16.9452 2.31164 16.6727C2.4407 16.0882 2.56449 15.5036 2.73042 14.9296C2.89636 14.3662 3.09917 13.8107 3.30988 13.2606C3.47318 12.8347 3.65491 12.4141 3.86562 12.0094C4.16325 11.4407 4.47932 10.88 4.81645 10.3324C5.08247 9.89863 5.38537 9.48599 5.68563 9.076C5.88054 8.80884 6.09125 8.55491 6.31249 8.30892C6.71284 7.86719 7.11319 7.42545 7.53724 7.00753C7.87965 6.66895 8.24312 6.35154 8.61977 6.05265C9.09123 5.67704 9.57323 5.31202 10.071 4.97609C10.5109 4.67984 10.9718 4.41533 11.4354 4.1561C12.2308 3.71173 13.0631 3.34935 13.9191 3.04252C14.5644 2.80975 15.2203 2.61401 15.8866 2.46588C16.3844 2.35479 16.8901 2.27014 17.3932 2.19079C17.7646 2.1326 18.1386 2.09557 18.5126 2.05854C18.7628 2.03473 19.013 2.02944 19.2659 2.01886C19.445 2.01092 19.6241 1.9977 19.8032 2.00034C20.1351 2.00563 20.4696 2.0215 20.8014 2.03473C20.9226 2.04002 21.0464 2.04267 21.1675 2.05589C21.5416 2.09028 21.9182 2.11937 22.2896 2.16963C22.74 2.23311 23.1877 2.30453 23.6328 2.39975C24.0832 2.49498 24.5336 2.60078 24.9735 2.73833C25.524 2.91026 26.0692 3.10335 26.6091 3.30967C27.2729 3.5636 27.9155 3.86779 28.5319 4.22752C29.0191 4.51319 29.509 4.79887 29.9752 5.11892C30.4519 5.44427 30.905 5.80401 31.358 6.16374C31.6583 6.40444 31.9348 6.66895 32.2166 6.92817C32.4379 7.13185 32.6591 7.33552 32.8593 7.55771C33.2544 7.99944 33.6389 8.44647 34.0129 8.90407C34.5397 9.55212 35.0006 10.2478 35.4194 10.9699C35.804 11.6338 36.1438 12.3189 36.4387 13.0278C36.7812 13.8504 37.0761 14.6863 37.2789 15.5539C37.4133 16.1252 37.5292 16.7045 37.6345 17.2811C37.6951 17.6118 37.7214 17.9477 37.753 18.2836C37.7794 18.5666 37.8031 18.8497 37.8084 19.1327C37.8215 19.6696 37.84 20.2092 37.8242 20.7462C37.811 21.1853 37.761 21.6244 37.7162 22.0635C37.6819 22.3967 37.6266 22.73 37.5818 23.0633C37.5818 23.0818 37.5713 23.1003 37.566 23.1268M4.45825 15.6253C4.37659 15.9506 4.28441 16.276 4.21593 16.6066C4.07897 17.2414 3.97361 17.8789 3.92884 18.527C3.9025 18.9211 3.86299 19.3126 3.85772 19.7067C3.85245 20.1325 3.87352 20.5584 3.89196 20.9869C3.9025 21.2514 3.9183 21.5159 3.95254 21.7778C4.00522 22.1904 4.06843 22.6004 4.13955 23.0078C4.25017 23.6347 4.4082 24.251 4.60047 24.8567C4.90074 25.7957 5.26948 26.7056 5.74621 27.5706C5.96746 27.97 6.19133 28.3694 6.43892 28.7529C6.67597 29.1206 6.92882 29.4777 7.19747 29.8216C7.50827 30.221 7.82697 30.6151 8.17201 30.9854C8.64347 31.4906 9.13074 31.9826 9.67595 32.4085C10.0895 32.7312 10.5004 33.0565 10.9297 33.3581C11.2879 33.6067 11.6619 33.8368 12.0438 34.0458C12.5153 34.305 12.9946 34.551 13.4819 34.7758C14.0429 35.0351 14.6224 35.2546 15.2203 35.4239C15.6865 35.5561 16.1579 35.6858 16.632 35.7889C17.2378 35.9238 17.8515 36.019 18.4705 36.0614C18.8471 36.0878 19.2211 36.1275 19.5978 36.1328C20.0165 36.1381 20.4353 36.1169 20.8515 36.0984C21.1517 36.0825 21.452 36.0587 21.7523 36.0217C22.15 35.9714 22.5477 35.9185 22.9428 35.8445C23.617 35.7175 24.2834 35.5429 24.934 35.3234C25.761 35.0456 26.5617 34.7124 27.3334 34.2997C27.5547 34.1807 27.7786 34.0643 27.9945 33.9373C28.5687 33.5935 29.135 33.2337 29.6539 32.8105C30.1016 32.4455 30.5494 32.0778 30.9735 31.6864C31.4291 31.2658 31.8584 30.8135 32.2404 30.3215C32.5775 29.8903 32.9146 29.4592 33.2254 29.0095C33.7259 28.29 34.1552 27.5256 34.5081 26.7189C34.7188 26.2348 34.9164 25.7428 35.0981 25.2455C35.2298 24.8884 35.3404 24.5234 35.4326 24.1531C35.5617 23.6188 35.6749 23.0792 35.775 22.5369C35.833 22.2248 35.8619 21.9074 35.8935 21.5926C35.9251 21.2832 35.9541 20.971 35.9646 20.6616C35.9778 20.36 35.9699 20.0558 35.9646 19.7543C35.9646 19.5559 35.9594 19.3549 35.9462 19.1565C35.9251 18.8417 35.9067 18.527 35.8698 18.2148C35.8277 17.8392 35.7829 17.4636 35.7118 17.0933C35.6275 16.6516 35.5327 16.2098 35.4115 15.7787C35.2693 15.2735 35.106 14.7709 34.9269 14.2789C34.6899 13.6309 34.4054 13.0013 34.0683 12.3956C33.876 12.0517 33.6837 11.7079 33.4756 11.3746C33.1227 10.8112 32.7408 10.2689 32.3088 9.76373C32.0244 9.43309 31.7346 9.10245 31.4397 8.77975C31.2737 8.59988 31.092 8.43059 30.9102 8.26395C30.6258 8.00209 30.3466 7.73229 30.0411 7.49423C29.6091 7.15565 29.1693 6.82502 28.711 6.52083C28.2632 6.22458 27.7996 5.95213 27.3255 5.6982C26.9015 5.47072 26.459 5.28027 26.0191 5.08454C25.3844 4.8068 24.7285 4.59519 24.0622 4.41268C23.1403 4.16139 22.2027 4.00269 21.2518 3.92069C20.8515 3.8863 20.4485 3.87572 20.0481 3.8625C19.9006 3.85721 19.7532 3.87043 19.6057 3.87837C19.1658 3.90217 18.7286 3.92069 18.2887 3.95772C17.97 3.98417 17.6513 4.01856 17.3379 4.07675C16.8401 4.16933 16.3397 4.2672 15.8498 4.39945C15.3177 4.54229 14.7909 4.71158 14.2721 4.90202C13.6505 5.12686 13.0473 5.39666 12.4705 5.71672C12.0754 5.93626 11.6777 6.1558 11.2984 6.4018C10.8665 6.68218 10.4477 6.98372 10.0421 7.30113C9.65488 7.60268 9.28087 7.92009 8.9253 8.25602C8.57762 8.58137 8.25366 8.93316 7.93496 9.28496C7.68474 9.56005 7.44769 9.84308 7.22118 10.1367C6.77605 10.7133 6.37307 11.3164 6.0096 11.9486C5.66456 12.5437 5.35903 13.16 5.09564 13.7949C4.84806 14.3847 4.63735 14.9878 4.46351 15.62L4.45825 15.6253Z" fill="#032D70"/>
<path d="M33.8656 33.9294C33.8656 33.8659 33.8604 33.813 33.8656 33.7575C33.8709 33.7151 33.8788 33.6384 33.8972 33.6358C33.9683 33.6199 34.05 33.5988 34.1079 33.6702C34.1738 33.7495 34.237 33.8315 34.3002 33.9135C34.3134 33.9294 34.3239 33.9506 34.3424 33.977C34.4187 33.8818 34.4899 33.8051 34.5452 33.7178C34.6057 33.6226 34.69 33.6173 34.7848 33.6305C34.8033 33.6331 34.827 33.6675 34.8296 33.6887C34.8323 33.9082 34.8296 34.1251 34.8296 34.3447C34.8296 34.4214 34.7743 34.4055 34.7295 34.4055C34.6821 34.4055 34.64 34.4055 34.6426 34.3394C34.6426 34.2283 34.6426 34.1172 34.6426 34.0061C34.6426 33.977 34.64 33.9453 34.6373 33.8897C34.532 34.0167 34.4424 34.1251 34.3476 34.2415C34.2502 34.1225 34.1659 34.0167 34.079 33.9109C34.0711 33.9109 34.0658 33.9109 34.0579 33.9109C34.0579 34.0458 34.0553 34.178 34.0579 34.3129C34.0579 34.3844 34.0342 34.4055 33.9657 34.4055C33.8946 34.4055 33.863 34.3844 33.8683 34.3076C33.8735 34.1833 33.8683 34.0617 33.8683 33.9268L33.8656 33.9294Z" fill="#032D70"/>
<path d="M33.6284 33.6278C33.6495 33.6675 33.6679 33.7045 33.6679 33.7416C33.6679 33.7548 33.6152 33.776 33.5863 33.776C33.3914 33.7839 33.3914 33.7839 33.3914 33.9823C33.3914 34.096 33.3887 34.2098 33.3914 34.3235C33.394 34.4055 33.3466 34.4029 33.2886 34.4055C33.2254 34.4055 33.1991 34.387 33.1991 34.3209C33.2017 34.1701 33.1991 34.0167 33.1991 33.8659C33.1991 33.8024 33.1806 33.7707 33.1122 33.7786C33.0674 33.7813 33.0252 33.7786 32.9805 33.7786C32.9252 33.7813 32.8936 33.768 32.8936 33.7019C32.8936 33.6331 32.9304 33.6278 32.9831 33.6278C33.1938 33.6278 33.4045 33.6278 33.6231 33.6278H33.6284Z" fill="#032D70"/>
<path d="M27.407 14.0012C28.4737 14.0012 29.5299 14.0012 30.5861 14.0012C30.6756 14.0012 30.7204 14.0462 30.7204 14.1361C30.7204 14.6651 30.7204 15.1941 30.7204 15.7232C30.7204 15.8166 30.6747 15.8633 30.5834 15.8633C30.3069 15.8633 30.0277 15.8633 29.7511 15.8633H29.6194C29.6458 15.9136 29.6616 15.948 29.68 15.9797C29.8776 16.3395 30.0198 16.7204 30.0725 17.1277C30.1462 17.6964 30.0725 18.2466 29.8486 18.7756C29.6431 19.2649 29.3323 19.6776 28.9425 20.0294C28.5738 20.3627 28.1471 20.614 27.6809 20.7859C27.2463 20.9472 26.7959 21.0345 26.3324 21.0557C25.5527 21.0927 24.8179 20.9367 24.1225 20.5822C23.7169 20.3732 23.3535 20.1034 23.0453 19.7649C22.6054 19.2808 22.3157 18.7174 22.2025 18.0694C22.1182 17.5906 22.1471 17.1145 22.2867 16.6489C22.4237 16.1834 22.6528 15.7681 22.9689 15.3978C23.4167 14.8767 23.9671 14.5091 24.6072 14.2736C25.0102 14.1255 25.4237 14.0276 25.8556 14.0197C26.3692 14.0091 26.8828 14.0065 27.4044 14.0012M24.0172 17.4398C24.004 17.6673 24.0462 17.8868 24.1436 18.0932C24.3306 18.4926 24.6441 18.7703 25.0312 18.9581C25.5211 19.1935 26.04 19.2649 26.572 19.1671C27.0936 19.0719 27.5571 18.8576 27.9048 18.4344C28.0865 18.2122 28.2077 17.9609 28.2367 17.6752C28.2814 17.2282 28.1208 16.8473 27.8152 16.5326C27.3701 16.0802 26.8117 15.8898 26.1928 15.866C25.8583 15.8528 25.529 15.9162 25.2156 16.0379C24.8179 16.1887 24.4887 16.4294 24.249 16.7891C24.1225 16.9822 24.0514 17.1965 24.0172 17.4398Z" fill="#032D70"/>
<path d="M18.9416 19.4607C19.4604 19.6908 19.9135 20.0188 20.2901 20.442C20.7273 20.934 21.0144 21.508 21.1171 22.164C21.2146 22.7935 21.1303 23.3992 20.8748 23.9838C20.6773 24.4388 20.3902 24.8329 20.0267 25.1635C19.4236 25.711 18.715 26.0523 17.9117 26.1925C17.5719 26.2506 17.2322 26.2797 16.8898 26.2612C16.3709 26.2321 15.8652 26.129 15.3832 25.9227C14.9591 25.7401 14.572 25.5021 14.2243 25.19C13.6132 24.6424 13.2366 23.9679 13.0944 23.1585C13.0707 23.0183 13.068 22.8755 13.0522 22.7353C13.0443 22.6559 13.0865 22.648 13.1497 22.648C13.5026 22.648 13.8556 22.648 14.2085 22.648C14.4113 22.648 14.6115 22.648 14.8143 22.648C14.8722 22.648 14.9065 22.6586 14.9117 22.7274C14.9328 22.9363 14.9802 23.1374 15.0803 23.3225C15.262 23.6584 15.5307 23.9044 15.8573 24.0843C16.1602 24.2509 16.4842 24.3488 16.8318 24.3806C17.5008 24.444 18.1145 24.3012 18.6466 23.8833C18.9916 23.6135 19.2287 23.2696 19.2813 22.8173C19.3314 22.3994 19.1997 22.0423 18.9363 21.7249C18.5781 21.2937 18.1066 21.0636 17.564 20.971C17.5403 20.9657 17.514 20.9604 17.485 20.9446C17.4903 20.9234 17.5008 20.9049 17.514 20.8917C17.9565 20.4473 18.4016 20.0003 18.8441 19.5559C18.8783 19.5215 18.9073 19.4871 18.9389 19.4527L18.9416 19.4607Z" fill="#032D70"/>
<path d="M15.2781 20.5425C14.9304 20.3917 14.6117 20.1934 14.3246 19.9474C14.0217 19.6908 13.761 19.3972 13.5529 19.0586C13.3079 18.6592 13.1525 18.228 13.0893 17.7599C13.0235 17.2811 13.0683 16.8103 13.2105 16.35C13.3369 15.948 13.5344 15.5856 13.7978 15.2576C14.1718 14.7947 14.6275 14.435 15.1622 14.1757C15.5678 13.98 15.9945 13.8372 16.4449 13.7896C16.703 13.7605 16.9638 13.7287 17.2245 13.7366C17.7934 13.7525 18.3439 13.8636 18.8707 14.0937C19.1973 14.2366 19.5081 14.4112 19.7846 14.6333C20.3852 15.1121 20.8276 15.7073 21.0278 16.4585C21.0937 16.7045 21.12 16.9584 21.1569 17.2097C21.1753 17.3393 21.1648 17.3446 21.0357 17.3446C20.4958 17.3446 19.9558 17.3446 19.4159 17.3446C19.3448 17.3446 19.3079 17.3393 19.2974 17.2467C19.2368 16.6568 18.9102 16.2442 18.415 15.948C18.0779 15.7469 17.7118 15.6438 17.3193 15.6094C16.8242 15.5671 16.3553 15.6596 15.9155 15.8818C15.5388 16.0696 15.2333 16.3474 15.0516 16.7362C14.8013 17.2679 14.8988 17.8207 15.2702 18.273C15.6047 18.6777 16.0472 18.892 16.5423 19.011C16.6029 19.0269 16.6661 19.0295 16.7346 19.0454C16.2763 19.5188 15.8127 19.987 15.3492 20.4552C15.3228 20.4817 15.3018 20.5134 15.2781 20.5399V20.5425Z" fill="#032D70"/>
<path d="M29.5407 24.5472C29.1378 25.137 28.611 25.5682 27.9736 25.8644C27.5601 26.0575 27.1228 26.1898 26.6646 26.2268C26.4117 26.248 26.1562 26.2744 25.9034 26.2612C25.3502 26.2321 24.8208 26.1052 24.3125 25.875C23.8147 25.6476 23.3827 25.3354 23.0193 24.9281C22.6084 24.4705 22.3266 23.9388 22.2186 23.3278C22.1896 23.1612 22.1791 22.9919 22.1606 22.8226C22.1527 22.7538 22.1764 22.7274 22.2502 22.7274C22.8086 22.7274 23.3669 22.7274 23.9253 22.7274C23.9964 22.7274 24.0122 22.7512 24.0201 22.8199C24.0491 23.1268 24.1597 23.3966 24.3599 23.6346C24.7155 24.0578 25.1817 24.2747 25.7137 24.3673C26.2563 24.4599 26.7778 24.3858 27.2703 24.1372C27.676 23.9309 28.0026 23.6346 28.1606 23.1929C28.2027 23.0765 28.2212 22.9495 28.237 22.8252C28.2449 22.7591 28.2554 22.73 28.3292 22.73C28.8875 22.73 29.4459 22.73 30.0043 22.73C30.0728 22.73 30.0991 22.7512 30.0965 22.8226C30.0912 23.2511 29.9964 23.6611 29.8173 24.0473C29.7383 24.2192 29.6356 24.3779 29.5407 24.5498V24.5472Z" fill="#032D70"/>
<path d="M10.4026 19.3072C10.7661 19.3072 11.119 19.3072 11.4719 19.3072C11.5562 19.3072 11.5773 19.3337 11.5773 19.4157C11.5773 21.5741 11.5773 23.7325 11.5773 25.8909C11.5773 25.9755 11.5562 26.0046 11.4667 26.0046C10.9215 26.002 10.3736 26.002 9.8284 26.0046C9.73884 26.0046 9.71777 25.9755 9.71777 25.8909C9.71777 23.7351 9.71777 21.582 9.71777 19.4262C9.71777 19.3363 9.73885 19.3046 9.83366 19.3072C10.0207 19.3152 10.205 19.3072 10.4026 19.3072Z" fill="#032D70"/>
<path d="M11.5776 17.08C11.5776 17.1488 11.5776 17.2097 11.5776 17.2705C11.5802 17.3287 11.5539 17.3472 11.4986 17.3472C10.9349 17.3472 10.3686 17.3472 9.80499 17.3472C9.72597 17.3472 9.7207 17.3049 9.7207 17.2467C9.7207 16.7203 9.7207 16.1939 9.7207 15.6676C9.7207 15.1518 9.7207 14.6333 9.7207 14.1175C9.7207 14.0197 9.74968 13.9958 9.8445 13.9958C10.3818 14.0011 10.9165 13.9958 11.4538 13.9958C11.5776 13.9958 11.5802 13.9958 11.5802 14.1202C11.5802 15.1015 11.5802 16.0855 11.5802 17.0774L11.5776 17.08Z" fill="#032D70"/>
<path d="M15.2834 20.5478C15.3018 20.5134 15.3229 20.4816 15.3492 20.4552C15.8128 19.987 16.2764 19.5188 16.7426 19.048C16.8558 19.0533 16.9664 19.0797 17.0771 19.0771C17.6223 19.0639 18.1491 19.1565 18.66 19.3443C18.7522 19.3786 18.8391 19.4183 18.9366 19.458C18.9102 19.495 18.8813 19.5321 18.847 19.5638C18.4045 20.0082 17.9594 20.4552 17.5169 20.8996C17.5038 20.9128 17.4932 20.9287 17.48 20.9498C17.164 20.9393 16.8506 20.934 16.5371 20.8996C16.1025 20.852 15.6864 20.7276 15.2808 20.5451L15.2834 20.5478Z" fill="#26E8F7"/>
</svg>
