<svg width="316" height="100" viewBox="0 0 316 100" fill="none" xmlns="http://www.w3.org/2000/svg">
<path d="M93.8954 57.8302C93.7176 58.6965 93.5793 59.5562 93.362 60.3894C93.0328 61.6788 92.7035 62.9683 92.2755 64.2248C91.7817 65.6597 91.2088 67.0683 90.6162 68.4702C89.7733 70.454 88.7198 72.3254 87.5675 74.1505C86.6917 75.5326 85.7567 76.875 84.7163 78.138C83.992 79.0175 83.2413 79.8772 82.4709 80.7236C81.8783 81.3783 81.2725 82.0329 80.6206 82.6215C79.5012 83.6332 78.3489 84.6053 77.1834 85.5641C75.6821 86.8007 74.0689 87.8852 72.3766 88.8375C70.9609 89.6376 69.4991 90.365 68.0373 91.0726C66.5294 91.8 64.9557 92.3753 63.3622 92.8779C61.5645 93.4466 59.7472 93.9227 57.8903 94.2401C57.0277 94.3922 56.1585 94.5311 55.2959 94.6567C54.7626 94.7294 54.2226 94.7757 53.6827 94.8088C52.7411 94.8683 51.7995 94.9146 50.8579 94.9543C50.2586 94.9807 49.6594 95.0138 49.0668 94.994C48.112 94.9675 47.1507 94.9278 46.1959 94.8485C43.99 94.6633 41.8105 94.3261 39.6573 93.8235C37.3066 93.2746 35.0151 92.5472 32.7829 91.6148C31.7491 91.185 30.7219 90.7221 29.7144 90.2195C27.8641 89.2937 26.0797 88.2489 24.394 87.0454C23.2548 86.232 22.1618 85.3592 21.0687 84.4929C19.6267 83.3489 18.3361 82.0395 17.0718 80.7038C15.7286 79.282 14.4972 77.7545 13.3647 76.1542C12.2979 74.6531 11.3234 73.0925 10.4411 71.4723C9.63772 69.9977 8.90682 68.4834 8.30103 66.9162C7.9257 65.9573 7.55696 64.9918 7.22773 64.0132C6.6351 62.2343 6.16101 60.4224 5.8186 58.5775C5.62106 57.5062 5.4762 56.4217 5.33134 55.3372C5.23915 54.6561 5.19306 53.975 5.14038 53.2939C5.09429 52.6392 5.06795 51.9845 5.04819 51.3299C5.02186 50.6025 4.98235 49.8751 5.00869 49.1477C5.04161 48.1425 5.11404 47.1308 5.19306 46.1256C5.25232 45.3321 5.33792 44.5452 5.43669 43.7516C5.52888 43.0573 5.62765 42.363 5.77909 41.6819C6.10174 40.2204 6.41122 38.759 6.82606 37.324C7.24089 35.9155 7.74792 34.5268 8.27469 33.1514C8.68294 32.0867 9.13728 31.0353 9.66406 30.0236C10.4081 28.6018 11.1983 27.1999 12.0411 25.8311C12.7062 24.7466 13.4634 23.715 14.2141 22.69C14.7013 22.0221 15.2281 21.3873 15.7812 20.7723C16.7821 19.668 17.783 18.5636 18.8431 17.5188C19.6991 16.6724 20.6078 15.8789 21.5494 15.1316C22.7281 14.1926 23.9331 13.28 25.1776 12.4402C26.2772 11.6996 27.4295 11.0383 28.5884 10.3903C30.577 9.27932 32.6578 8.37337 34.7978 7.60629C36.411 7.02437 38.0506 6.53502 39.7166 6.16471C40.9611 5.88697 42.2253 5.67536 43.483 5.47698C44.4114 5.3315 45.3465 5.23892 46.2815 5.14634C46.907 5.08683 47.5326 5.0736 48.1647 5.04715C48.6125 5.02731 49.0602 4.99425 49.508 5.00086C50.3377 5.01409 51.1739 5.05376 52.0036 5.08683C52.3065 5.10005 52.616 5.10666 52.9189 5.13973C53.8539 5.22569 54.7955 5.29843 55.7239 5.42408C56.8499 5.58278 57.9693 5.76133 59.0821 5.99939C60.2081 6.23745 61.3341 6.50196 62.4337 6.84582C63.8099 7.27565 65.173 7.75838 66.5228 8.27418C68.1822 8.909 69.7888 9.66947 71.3296 10.5688C72.5478 11.283 73.7726 11.9972 74.938 12.7973C76.1299 13.6107 77.2624 14.51 78.395 15.4093C79.1457 16.0111 79.8371 16.6724 80.5416 17.3204C81.0947 17.8296 81.6478 18.3388 82.1483 18.8943C83.136 19.9986 84.0973 21.1162 85.0324 22.2602C86.3493 23.8803 87.5016 25.6195 88.5486 27.4247C89.51 29.0845 90.3594 30.7972 91.0969 32.5695C91.9529 34.626 92.6904 36.7157 93.1974 38.8847C93.5332 40.313 93.8229 41.7612 94.0863 43.2028C94.2378 44.0294 94.3036 44.8692 94.3826 45.709C94.4485 46.4166 94.5077 47.1242 94.5209 47.8317C94.5538 49.1741 94.5999 50.5231 94.5604 51.8655C94.5275 52.9632 94.4024 54.0609 94.2904 55.1587C94.2048 55.9919 94.0666 56.8251 93.9546 57.6583C93.9546 57.7046 93.9283 57.7509 93.9151 57.817M11.1456 39.0632C10.9415 39.8766 10.711 40.6899 10.5398 41.5165C10.1974 43.1036 9.93403 44.6973 9.82209 46.3174C9.75624 47.3027 9.65747 48.2814 9.6443 49.2667C9.63114 50.3313 9.68381 51.396 9.72991 52.4673C9.75624 53.1285 9.79575 53.7898 9.88135 54.4445C10.013 55.4761 10.1711 56.5011 10.3489 57.5194C10.6254 59.0866 11.0205 60.6274 11.5012 62.1417C12.2518 64.4893 13.1737 66.7641 14.3655 68.9264C14.9186 69.925 15.4783 70.9235 16.0973 71.8823C16.6899 72.8015 17.322 73.6942 17.9937 74.5539C18.7707 75.5524 19.5674 76.5377 20.43 77.4635C21.6087 78.7266 22.8268 79.9565 24.1899 81.0212C25.2237 81.8279 26.2509 82.6413 27.3242 83.3952C28.2197 84.0168 29.1547 84.5921 30.1095 85.1145C31.2882 85.7625 32.4866 86.3775 33.7047 86.9396C35.1073 87.5877 36.5559 88.1365 38.0506 88.5597C39.2161 88.8904 40.3948 89.2144 41.58 89.4723C43.0945 89.8095 44.6287 90.0476 46.1761 90.1534C47.1177 90.2195 48.0528 90.3187 48.9944 90.332C50.0414 90.3452 51.0883 90.2923 52.1287 90.246C52.8793 90.2063 53.63 90.1468 54.3807 90.0542C55.3749 89.9286 56.3692 89.7963 57.3569 89.6112C59.0426 89.2938 60.7085 88.8573 62.335 88.3084C64.4025 87.6141 66.4043 86.7809 68.3336 85.7493C68.8867 85.4517 69.4464 85.1608 69.9864 84.8434C71.4218 83.9837 72.8375 83.0844 74.1347 82.0263C75.2541 81.1138 76.3735 80.1946 77.4336 79.2159C78.5728 78.1645 79.6461 77.0337 80.6009 75.8037C81.4437 74.7258 82.2866 73.6479 83.0636 72.5238C84.3146 70.7251 85.3879 68.814 86.2703 66.7971C86.7971 65.587 87.2909 64.357 87.7453 63.1138C88.0745 62.2211 88.351 61.3085 88.5815 60.3827C88.9042 59.047 89.1873 57.698 89.4375 56.3423C89.5824 55.562 89.6548 54.7685 89.7338 53.9816C89.8128 53.2079 89.8853 52.4276 89.9116 51.6539C89.9445 50.9 89.9248 50.1396 89.9116 49.3857C89.9116 48.8898 89.8984 48.3872 89.8655 47.8912C89.8128 47.1043 89.7668 46.3174 89.6746 45.5371C89.5692 44.5981 89.4573 43.6591 89.2795 42.7333C89.0688 41.629 88.8317 40.5246 88.5288 39.4467C88.1733 38.1837 87.765 36.9273 87.3173 35.6973C86.7246 34.0772 86.0135 32.5033 85.1706 30.989C84.69 30.1294 84.2093 29.2697 83.6891 28.4365C82.8067 27.028 81.852 25.6724 80.7721 24.4093C80.0609 23.5827 79.3366 22.7561 78.5991 21.9494C78.1843 21.4997 77.73 21.0765 77.2756 20.6599C76.5645 20.0052 75.8665 19.3307 75.1027 18.7356C74.0228 17.8891 72.9231 17.0625 71.7774 16.3021C70.658 15.5614 69.4991 14.8803 68.3139 14.2455C67.2537 13.6768 66.1475 13.2007 65.0478 12.7113C63.4609 12.017 61.8214 11.488 60.1554 11.0317C57.8508 10.4035 55.5066 10.0067 53.1296 9.80173C52.1287 9.71576 51.1212 9.68931 50.1204 9.65625C49.7516 9.64302 49.3829 9.67608 49.0141 9.69592C47.9145 9.75544 46.8214 9.80173 45.7218 9.8943C44.9251 9.96043 44.1283 10.0464 43.3447 10.1919C42.1002 10.4233 40.8491 10.668 39.6244 10.9986C38.2943 11.3557 36.9773 11.7789 35.6802 12.2551C34.1262 12.8171 32.6183 13.4916 31.1762 14.2918C30.1885 14.8407 29.1942 15.3895 28.246 16.0045C27.1662 16.7055 26.1192 17.4593 25.1051 18.2528C24.1372 19.0067 23.2022 19.8002 22.3132 20.64C21.4441 21.4534 20.6341 22.3329 19.8374 23.2124C19.2119 23.9001 18.6192 24.6077 18.0529 25.3417C16.9401 26.7833 15.9327 28.291 15.024 29.8715C14.1614 31.3593 13.3976 32.9001 12.7391 34.4872C12.1201 35.9618 11.5934 37.4695 11.1588 39.05L11.1456 39.0632Z" fill="#032D70"/>
<path d="M84.6636 84.8235C84.6636 84.6648 84.6504 84.5326 84.6636 84.3937C84.6767 84.2879 84.6965 84.0961 84.7426 84.0895C84.9204 84.0498 85.1245 83.9969 85.2694 84.1755C85.434 84.3739 85.592 84.5789 85.75 84.7838C85.783 84.8235 85.8093 84.8764 85.8554 84.9426C86.0464 84.7045 86.2241 84.5127 86.3624 84.2945C86.5139 84.0564 86.7246 84.0432 86.9616 84.0763C87.0077 84.0829 87.067 84.1689 87.0736 84.2218C87.0801 84.7706 87.0736 85.3129 87.0736 85.8617C87.0736 86.0535 86.9353 86.0138 86.8233 86.0138C86.7048 86.0138 86.5995 86.0138 86.6061 85.8485C86.6061 85.5708 86.6061 85.293 86.6061 85.0153C86.6061 84.9426 86.5995 84.8632 86.5929 84.7243C86.3295 85.0417 86.1056 85.3129 85.8686 85.6038C85.6249 85.3063 85.4142 85.0417 85.1969 84.7772C85.1772 84.7772 85.164 84.7772 85.1443 84.7772C85.1443 85.1145 85.1377 85.4451 85.1443 85.7824C85.1443 85.9609 85.085 86.0138 84.9138 86.0138C84.736 86.0138 84.657 85.9609 84.6702 85.7692C84.6833 85.4584 84.6702 85.1542 84.6702 84.8169L84.6636 84.8235Z" fill="#032D70"/>
<path d="M84.0715 84.0696C84.1242 84.1688 84.1703 84.2614 84.1703 84.354C84.1703 84.3871 84.0386 84.44 83.9662 84.44C83.4789 84.4598 83.4789 84.4598 83.4789 84.9558C83.4789 85.2401 83.4723 85.5245 83.4789 85.8088C83.4855 86.0138 83.3669 86.0072 83.2221 86.0138C83.064 86.0138 82.9982 85.9675 82.9982 85.8022C83.0048 85.4253 82.9982 85.0417 82.9982 84.6648C82.9982 84.5061 82.9521 84.4267 82.7809 84.4466C82.669 84.4532 82.5636 84.4466 82.4517 84.4466C82.3134 84.4532 82.2344 84.4201 82.2344 84.2548C82.2344 84.0829 82.3266 84.0696 82.4583 84.0696C82.985 84.0696 83.5118 84.0696 84.0583 84.0696H84.0715Z" fill="#032D70"/>
<path d="M68.518 35.0029C71.1848 35.0029 73.8252 35.0029 76.4657 35.0029C76.6895 35.0029 76.8015 35.1153 76.8015 35.3402C76.8015 36.6627 76.8015 37.9853 76.8015 39.3078C76.8015 39.5415 76.6874 39.6583 76.4591 39.6583C75.7677 39.6583 75.0697 39.6583 74.3783 39.6583H74.0491C74.1149 39.784 74.1544 39.8699 74.2005 39.9493C74.6944 40.8486 75.05 41.8008 75.1817 42.8192C75.366 44.241 75.1817 45.6164 74.622 46.939C74.1084 48.1623 73.3314 49.1939 72.3568 50.0734C71.435 50.9066 70.3683 51.5348 69.2028 51.9647C68.1163 52.368 66.9903 52.5863 65.8314 52.6392C63.8823 52.7317 62.0452 52.3416 60.3069 51.4555C59.2928 50.9331 58.3841 50.2586 57.6137 49.4121C56.5141 48.202 55.7898 46.7935 55.5066 45.1734C55.2959 43.9765 55.3683 42.7862 55.7173 41.6223C56.0597 40.4585 56.6326 39.4203 57.4228 38.4945C58.5422 37.1918 59.9184 36.2726 61.5184 35.684C62.5259 35.3137 63.5597 35.0691 64.6396 35.0492C65.9236 35.0228 67.2076 35.0162 68.5114 35.0029M60.0435 43.5995C60.0105 44.1682 60.1159 44.7171 60.3595 45.2329C60.827 46.2314 61.6106 46.9257 62.5786 47.3952C63.8033 47.9838 65.1005 48.1623 66.4306 47.9177C67.7344 47.6796 68.8933 47.144 69.7625 46.0859C70.2168 45.5304 70.5197 44.9022 70.5921 44.1881C70.7041 43.0705 70.3024 42.1183 69.5386 41.3313C68.4258 40.2006 67.0298 39.7244 65.4824 39.6649C64.6462 39.6319 63.8231 39.7906 63.0395 40.0948C62.0452 40.4717 61.2221 41.0734 60.6229 41.9728C60.3069 42.4555 60.1291 42.9911 60.0435 43.5995Z" fill="#032D70"/>
<path d="M47.3541 48.6516C48.6513 49.2269 49.7839 50.0469 50.7255 51.1049C51.8186 52.3349 52.5363 53.7699 52.7931 55.4099C53.0367 56.9837 52.826 58.498 52.1873 59.9594C51.6935 61.0968 50.9757 62.0821 50.067 62.9087C48.5591 64.2776 46.7879 65.1306 44.7795 65.4811C43.9301 65.6266 43.0807 65.6993 42.2247 65.653C40.9275 65.5803 39.6632 65.3224 38.4582 64.8066C37.3981 64.3503 36.4302 63.7552 35.561 62.9749C34.0333 61.606 33.0917 59.9198 32.7361 57.8963C32.6769 57.5458 32.6703 57.1887 32.6308 56.8382C32.611 56.6398 32.7164 56.62 32.8744 56.62C33.7568 56.62 34.6391 56.62 35.5215 56.62C36.0285 56.62 36.5289 56.62 37.0359 56.62C37.1808 56.62 37.2664 56.6464 37.2796 56.8184C37.3323 57.3408 37.4508 57.8434 37.701 58.3062C38.1553 59.1461 38.827 59.7611 39.6435 60.2107C40.4007 60.6273 41.2106 60.872 42.0798 60.9514C43.7523 61.1101 45.2866 60.753 46.6167 59.7082C47.4793 59.0337 48.0719 58.174 48.2036 57.0432C48.3287 55.9984 47.9994 55.1057 47.341 54.3121C46.4455 53.2343 45.2668 52.6589 43.9104 52.4275C43.8511 52.4143 43.7853 52.401 43.7128 52.3614C43.726 52.3085 43.7523 52.2622 43.7852 52.2291C44.8915 51.1182 46.0043 50.0006 47.1105 48.8897C47.1961 48.8037 47.2685 48.7177 47.3476 48.6318L47.3541 48.6516Z" fill="#032D70"/>
<path d="M38.1957 51.3562C37.3265 50.9793 36.5297 50.4833 35.812 49.8684C35.0548 49.2269 34.4029 48.4929 33.8827 47.6465C33.2703 46.6479 32.8818 45.5701 32.7238 44.3996C32.5592 43.2027 32.6711 42.0256 33.0267 40.875C33.3428 39.8699 33.8366 38.9639 34.4951 38.1439C35.4301 36.9867 36.5693 36.0874 37.9059 35.4393C38.92 34.95 39.9867 34.5929 41.1127 34.4738C41.758 34.4011 42.4099 34.3218 43.0618 34.3416C44.484 34.3813 45.8602 34.659 47.1772 35.2343C47.9937 35.5914 48.7707 36.0278 49.4621 36.5833C50.9634 37.7802 52.0696 39.2681 52.57 41.1461C52.7347 41.7611 52.8005 42.3959 52.8927 43.0242C52.9388 43.3482 52.9124 43.3614 52.5898 43.3614C51.2399 43.3614 49.8901 43.3614 48.5402 43.3614C48.3624 43.3614 48.2702 43.3482 48.2439 43.1167C48.0925 41.6421 47.276 40.6105 46.038 39.8699C45.1952 39.3673 44.2799 39.1094 43.2988 39.0234C42.0609 38.9176 40.8888 39.1491 39.7892 39.7045C38.8476 40.174 38.0837 40.8684 37.6294 41.8405C37.0038 43.1696 37.2475 44.5517 38.1759 45.6825C39.0122 46.6942 40.1184 47.2299 41.3563 47.5274C41.5078 47.5671 41.6658 47.5737 41.837 47.6134C40.6913 48.7971 39.5324 49.9675 38.3735 51.138C38.3076 51.2041 38.2549 51.2835 38.1957 51.3496V51.3562Z" fill="#032D70"/>
<path d="M73.8514 61.3679C72.8439 62.8426 71.527 63.9205 69.9335 64.6611C68.8997 65.1438 67.8066 65.4745 66.6609 65.567C66.0288 65.6199 65.39 65.6861 64.7579 65.653C63.3751 65.5803 62.0516 65.2629 60.7808 64.6875C59.5363 64.1188 58.4564 63.3385 57.5477 62.3202C56.5205 61.1762 55.8159 59.847 55.5459 58.3195C55.4735 57.9029 55.4472 57.4796 55.4011 57.0564C55.3813 56.8845 55.4406 56.8184 55.625 56.8184C57.0209 56.8184 58.4169 56.8184 59.8128 56.8184C59.9906 56.8184 60.0301 56.8779 60.0499 57.0498C60.1223 57.8169 60.3989 58.4914 60.8993 59.0865C61.7882 60.1446 62.9537 60.6868 64.2838 60.9183C65.6403 61.1497 66.944 60.9646 68.1754 60.343C69.1894 59.8272 70.0059 59.0865 70.401 57.9822C70.5063 57.6912 70.5524 57.3738 70.5919 57.063C70.6117 56.8977 70.638 56.825 70.8224 56.825C72.2184 56.825 73.6143 56.825 75.0103 56.825C75.1815 56.825 75.2473 56.8779 75.2407 57.0564C75.2276 58.1277 74.9905 59.1527 74.5428 60.1181C74.3452 60.548 74.0884 60.9447 73.8514 61.3746V61.3679Z" fill="#032D70"/>
<path d="M26.0069 48.2681C26.9156 48.2681 27.798 48.2681 28.6803 48.2681C28.891 48.2681 28.9437 48.3342 28.9437 48.5392C28.9437 53.9352 28.9437 59.3312 28.9437 64.7272C28.9437 64.9389 28.891 65.0116 28.6672 65.0116C27.3041 65.005 25.9345 65.005 24.5715 65.0116C24.3476 65.0116 24.2949 64.9389 24.2949 64.7272C24.2949 59.3378 24.2949 53.9551 24.2949 48.5657C24.2949 48.3408 24.3476 48.2615 24.5846 48.2681C25.0522 48.2879 25.5131 48.2681 26.0069 48.2681Z" fill="#032D70"/>
<path d="M28.9435 42.7001C28.9435 42.872 28.9435 43.0241 28.9435 43.1762C28.9501 43.3217 28.8842 43.368 28.7459 43.368C27.3368 43.368 25.9211 43.368 24.512 43.368C24.3144 43.368 24.3013 43.2622 24.3013 43.1167C24.3013 41.8008 24.3013 40.4848 24.3013 39.1689C24.3013 37.8794 24.3013 36.5833 24.3013 35.2938C24.3013 35.0491 24.3737 34.9896 24.6108 34.9896C25.954 35.0028 27.2907 34.9896 28.634 34.9896C28.9435 34.9896 28.9501 34.9896 28.9501 35.3004C28.9501 37.7538 28.9501 40.2137 28.9501 42.6935L28.9435 42.7001Z" fill="#032D70"/>
<path d="M38.2087 51.3694C38.2548 51.2835 38.3075 51.2041 38.3734 51.138C39.5323 49.9675 40.6912 48.7971 41.8566 47.62C42.1398 47.6332 42.4163 47.6993 42.6929 47.6927C44.0559 47.6597 45.3729 47.8911 46.6503 48.3606C46.8808 48.4466 47.0981 48.5458 47.3417 48.645C47.2758 48.7376 47.2034 48.8301 47.1178 48.9095C46.0116 50.0204 44.8988 51.138 43.7925 52.2489C43.7596 52.282 43.7333 52.3217 43.7004 52.3746C42.9102 52.3481 42.1266 52.3349 41.343 52.2489C40.2566 52.1299 39.2162 51.8191 38.2021 51.3628L38.2087 51.3694Z" fill="#26E8F7"/>
</svg>
