<svg width="28" height="14" viewBox="0 0 28 14" fill="none" xmlns="http://www.w3.org/2000/svg">
<g clip-path="url(#clip0_244_539)">
<mask id="mask0_244_539" style="mask-type:luminance" maskUnits="userSpaceOnUse" x="0" y="0" width="28" height="14">
<path d="M0 0V14H28V0H0Z" fill="white"/>
</mask>
<g mask="url(#mask0_244_539)">
<path d="M0 0V14H28V0H0Z" fill="#0037A6"/>
<path d="M0 0L28 14ZM28 0L0 14Z" fill="white"/>
<path d="M0 0L28 14M28 0L0 14" stroke="white" stroke-width="2.8"/>
<mask id="mask1_244_539" style="mask-type:luminance" maskUnits="userSpaceOnUse" x="0" y="0" width="28" height="14">
<path d="M14 7H28V14L14 7ZM14 7V14H0L14 7ZM14 7H0V0L14 7ZM14 7V0H28L14 7Z" fill="white"/>
</mask>
<g mask="url(#mask1_244_539)">
<path d="M0 0L28 14ZM28 0L0 14Z" fill="white"/>
<path d="M0 0L28 14M28 0L0 14" stroke="#F20000" stroke-width="1.86667"/>
</g>
<path d="M14 0V14ZM0 7H28Z" fill="white"/>
<path d="M14 0V14M0 7H28" stroke="white" stroke-width="4.66667"/>
<path d="M14 0V14ZM0 7H28Z" fill="white"/>
<path d="M14 0V14M0 7H28" stroke="#F20000" stroke-width="2.8"/>
</g>
</g>
<defs>
<clipPath id="clip0_244_539">
<rect width="28" height="14" fill="white"/>
</clipPath>
</defs>
</svg>
