<svg width="28" height="14" viewBox="0 0 28 14" fill="none" xmlns="http://www.w3.org/2000/svg">
<g clip-path="url(#clip0_244_552)">
<path d="M0 0H28V14H0" fill="#F20000"/>
<path d="M0 1.61536H28.6ZM28.6 3.7692H0ZM0 5.92305H28.6ZM28.6 8.07689H0ZM0 10.2307H28.6ZM28.6 12.3846H0Z" fill="white"/>
<path d="M0 1.61536H28.6M28.6 3.7692H0M0 5.92305H28.6M28.6 8.07689H0M0 10.2307H28.6M28.6 12.3846H0" stroke="white"/>
<path d="M0 0H10.64V7.53846H0" fill="#0037A6"/>
<path d="M0.886737 0.32312L1.13994 1.10239L0.477051 0.620774H1.29642L0.633537 1.10239L0.886737 0.32312Z" fill="white"/>
<path d="M0.886737 1.83081L1.13994 2.61008L0.477051 2.12846H1.29642L0.633537 2.61008L0.886737 1.83081Z" fill="white"/>
<path d="M0.886737 3.3385L1.13994 4.11777L0.477051 3.63616H1.29642L0.633537 4.11777L0.886737 3.3385Z" fill="white"/>
<path d="M0.886737 4.84619L1.13994 5.62546L0.477051 5.14385H1.29642L0.633537 5.62546L0.886737 4.84619Z" fill="white"/>
<path d="M0.886737 6.35388L1.13994 7.13315L0.477051 6.65154H1.29642L0.633537 7.13315L0.886737 6.35388Z" fill="white"/>
<path d="M1.77346 1.0769L2.02666 1.85617L1.36377 1.37456H2.18314L1.52026 1.85617L1.77346 1.0769Z" fill="white"/>
<path d="M1.77346 2.58459L2.02666 3.36386L1.36377 2.88225H2.18314L1.52026 3.36386L1.77346 2.58459Z" fill="white"/>
<path d="M1.77346 4.09229L2.02666 4.87155L1.36377 4.38994H2.18314L1.52026 4.87155L1.77346 4.09229Z" fill="white"/>
<path d="M1.77346 5.59998L2.02666 6.37924L1.36377 5.89763H2.18314L1.52026 6.37924L1.77346 5.59998Z" fill="white"/>
<path d="M2.66017 0.32312L2.91337 1.10239L2.25049 0.620774H3.06986L2.40697 1.10239L2.66017 0.32312Z" fill="white"/>
<path d="M2.66017 1.83081L2.91337 2.61008L2.25049 2.12846H3.06986L2.40697 2.61008L2.66017 1.83081Z" fill="white"/>
<path d="M2.66017 3.3385L2.91337 4.11777L2.25049 3.63616H3.06986L2.40697 4.11777L2.66017 3.3385Z" fill="white"/>
<path d="M2.66017 4.84619L2.91337 5.62546L2.25049 5.14385H3.06986L2.40697 5.62546L2.66017 4.84619Z" fill="white"/>
<path d="M2.66017 6.35388L2.91337 7.13315L2.25049 6.65154H3.06986L2.40697 7.13315L2.66017 6.35388Z" fill="white"/>
<path d="M3.54677 1.0769L3.79997 1.85617L3.13708 1.37456H3.95646L3.29357 1.85617L3.54677 1.0769Z" fill="white"/>
<path d="M3.54677 2.58459L3.79997 3.36386L3.13708 2.88225H3.95646L3.29357 3.36386L3.54677 2.58459Z" fill="white"/>
<path d="M3.54677 4.09229L3.79997 4.87155L3.13708 4.38994H3.95646L3.29357 4.87155L3.54677 4.09229Z" fill="white"/>
<path d="M3.54677 5.59998L3.79997 6.37924L3.13708 5.89763H3.95646L3.29357 6.37924L3.54677 5.59998Z" fill="white"/>
<path d="M4.43337 0.32312L4.68657 1.10239L4.02368 0.620774H4.84305L4.18017 1.10239L4.43337 0.32312Z" fill="white"/>
<path d="M4.43337 1.83081L4.68657 2.61008L4.02368 2.12846H4.84305L4.18017 2.61008L4.43337 1.83081Z" fill="white"/>
<path d="M4.43337 3.3385L4.68657 4.11777L4.02368 3.63616H4.84305L4.18017 4.11777L4.43337 3.3385Z" fill="white"/>
<path d="M4.43337 4.84619L4.68657 5.62546L4.02368 5.14385H4.84305L4.18017 5.62546L4.43337 4.84619Z" fill="white"/>
<path d="M4.43337 6.35388L4.68657 7.13315L4.02368 6.65154H4.84305L4.18017 7.13315L4.43337 6.35388Z" fill="white"/>
<path d="M5.32009 1.0769L5.57329 1.85617L4.9104 1.37456H5.72977L5.06689 1.85617L5.32009 1.0769Z" fill="white"/>
<path d="M5.32009 2.58459L5.57329 3.36386L4.9104 2.88225H5.72977L5.06689 3.36386L5.32009 2.58459Z" fill="white"/>
<path d="M5.32009 4.09229L5.57329 4.87155L4.9104 4.38994H5.72977L5.06689 4.87155L5.32009 4.09229Z" fill="white"/>
<path d="M5.32009 5.59998L5.57329 6.37924L4.9104 5.89763H5.72977L5.06689 6.37924L5.32009 5.59998Z" fill="white"/>
<path d="M6.20681 0.32312L6.46 1.10239L5.79712 0.620774H6.61649L5.95361 1.10239L6.20681 0.32312Z" fill="white"/>
<path d="M6.20681 1.83081L6.46 2.61008L5.79712 2.12846H6.61649L5.95361 2.61008L6.20681 1.83081Z" fill="white"/>
<path d="M6.20681 3.3385L6.46 4.11777L5.79712 3.63616H6.61649L5.95361 4.11777L6.20681 3.3385Z" fill="white"/>
<path d="M6.20681 4.84619L6.46 5.62546L5.79712 5.14385H6.61649L5.95361 5.62546L6.20681 4.84619Z" fill="white"/>
<path d="M6.20681 6.35388L6.46 7.13315L5.79712 6.65154H6.61649L5.95361 7.13315L6.20681 6.35388Z" fill="white"/>
<path d="M7.0934 1.0769L7.3466 1.85617L6.68372 1.37456H7.50309L6.8402 1.85617L7.0934 1.0769Z" fill="white"/>
<path d="M7.0934 2.58459L7.3466 3.36386L6.68372 2.88225H7.50309L6.8402 3.36386L7.0934 2.58459Z" fill="white"/>
<path d="M7.0934 4.09229L7.3466 4.87155L6.68372 4.38994H7.50309L6.8402 4.87155L7.0934 4.09229Z" fill="white"/>
<path d="M7.0934 5.59998L7.3466 6.37924L6.68372 5.89763H7.50309L6.8402 6.37924L7.0934 5.59998Z" fill="white"/>
<path d="M7.98012 0.32312L8.23332 1.10239L7.57043 0.620774H8.38981L7.72692 1.10239L7.98012 0.32312Z" fill="white"/>
<path d="M7.98012 1.83081L8.23332 2.61008L7.57043 2.12846H8.38981L7.72692 2.61008L7.98012 1.83081Z" fill="white"/>
<path d="M7.98012 3.3385L8.23332 4.11777L7.57043 3.63616H8.38981L7.72692 4.11777L7.98012 3.3385Z" fill="white"/>
<path d="M7.98012 4.84619L8.23332 5.62546L7.57043 5.14385H8.38981L7.72692 5.62546L7.98012 4.84619Z" fill="white"/>
<path d="M7.98012 6.35388L8.23332 7.13315L7.57043 6.65154H8.38981L7.72692 7.13315L7.98012 6.35388Z" fill="white"/>
<path d="M8.86684 1.0769L9.12004 1.85617L8.45715 1.37456H9.27653L8.61364 1.85617L8.86684 1.0769Z" fill="white"/>
<path d="M8.86684 2.58459L9.12004 3.36386L8.45715 2.88225H9.27653L8.61364 3.36386L8.86684 2.58459Z" fill="white"/>
<path d="M8.86684 4.09229L9.12004 4.87155L8.45715 4.38994H9.27653L8.61364 4.87155L8.86684 4.09229Z" fill="white"/>
<path d="M8.86684 5.59998L9.12004 6.37924L8.45715 5.89763H9.27653L8.61364 6.37924L8.86684 5.59998Z" fill="white"/>
<path d="M9.75344 0.32312L10.0066 1.10239L9.34375 0.620774H10.1631L9.50024 1.10239L9.75344 0.32312Z" fill="white"/>
<path d="M9.75331 1.83081L10.0065 2.61008L9.34363 2.12846H10.163L9.50011 2.61008L9.75331 1.83081Z" fill="white"/>
<path d="M9.75331 3.3385L10.0065 4.11777L9.34363 3.63616H10.163L9.50011 4.11777L9.75331 3.3385Z" fill="white"/>
<path d="M9.75331 4.84619L10.0065 5.62546L9.34363 5.14385H10.163L9.50011 5.62546L9.75331 4.84619Z" fill="white"/>
<path d="M9.75331 6.35388L10.0065 7.13315L9.34363 6.65154H10.163L9.50011 7.13315L9.75331 6.35388Z" fill="white"/>
</g>
<defs>
<clipPath id="clip0_244_552">
<rect width="28" height="14" fill="white"/>
</clipPath>
</defs>
</svg>
